<svg width="400" height="299" viewBox="0 0 400 299" fill="none" xmlns="http://www.w3.org/2000/svg">
<path d="M126.208 170.136C164.488 180.536 192.816 236.752 237.08 220.576C275.76 206.432 249.08 154.976 294.976 153.376C322.808 152.392 378.392 159.216 357.792 105.792C345.28 73.352 311.136 45.048 277.928 34.592C226.496 18.384 239.872 82.504 204.104 94.272C188.024 99.56 178.2 89.024 164.832 82.272C145.168 72.344 119.096 61.408 96.7276 61C61.1356 60.352 29.5276 98.112 31.1276 133.616C33.9516 195.576 90.9276 160.56 126.208 170.136Z" fill="#FF0400"/>
<path opacity="0.9" d="M126.208 170.136C164.488 180.536 192.816 236.752 237.08 220.576C275.76 206.432 249.08 154.976 294.976 153.376C322.808 152.392 378.392 159.216 357.792 105.792C345.28 73.352 311.136 45.048 277.928 34.592C226.496 18.384 239.872 82.504 204.104 94.272C188.024 99.56 178.2 89.024 164.832 82.272C145.168 72.344 119.096 61.408 96.7276 61C61.1356 60.352 29.5276 98.112 31.1276 133.616C33.9516 195.576 90.9276 160.56 126.208 170.136Z" fill="white"/>
<path d="M200 298.048C285.666 298.048 355.112 293.994 355.112 288.992C355.112 283.991 285.666 279.936 200 279.936C114.334 279.936 44.8877 283.991 44.8877 288.992C44.8877 293.994 114.334 298.048 200 298.048Z" fill="#F5F5F5"/>
<path d="M294.32 64.2959C289.52 66.9199 287.92 74.6959 290.168 78.0799C281.848 80.5759 286.168 94.8799 299.768 95.6799C313.368 96.4799 323.72 91.5119 317.04 80.9039C323.648 71.9999 320.608 62.0559 314.816 63.1519C308.6 50.6959 287.784 51.0639 294.32 64.2959Z" fill="#263238"/>
<path d="M308.8 96.6399C306.702 96.6333 304.645 96.0582 302.848 94.9759C302.819 94.9655 302.793 94.9488 302.772 94.9272C302.75 94.9055 302.733 94.8794 302.723 94.8506C302.713 94.8218 302.709 94.7912 302.712 94.7607C302.715 94.7303 302.724 94.7009 302.74 94.6746C302.755 94.6483 302.777 94.6257 302.802 94.6085C302.827 94.5913 302.856 94.5798 302.886 94.575C302.916 94.5702 302.947 94.572 302.976 94.5805C303.006 94.5889 303.033 94.6038 303.056 94.6239C305.374 96.0112 308.113 96.5207 310.774 96.0598C313.436 95.5988 315.844 94.1979 317.56 92.1119C319.744 89.4079 320.76 85.0719 316.944 81.0239C316.926 81.0045 316.911 80.9816 316.902 80.9566C316.892 80.9316 316.888 80.905 316.888 80.8782C316.889 80.8515 316.895 80.8252 316.906 80.8007C316.917 80.7763 316.933 80.7543 316.952 80.7359C316.971 80.7175 316.994 80.7031 317.019 80.6936C317.044 80.684 317.071 80.6795 317.098 80.6803C317.124 80.681 317.151 80.687 317.175 80.6979C317.2 80.7088 317.222 80.7245 317.24 80.7439C321.192 84.9839 320.16 89.5439 317.872 92.3679C316.764 93.6995 315.377 94.7721 313.81 95.5102C312.242 96.2483 310.532 96.6339 308.8 96.6399V96.6399Z" fill="#263238"/>
<path d="M288.663 80.7358C288.622 80.7347 288.582 80.7211 288.549 80.6968C288.516 80.6724 288.492 80.6386 288.479 80.5998C286.351 74.5038 289.199 66.3198 294.231 64.0798C294.28 64.0624 294.334 64.0633 294.382 64.0824C294.431 64.1015 294.471 64.1376 294.495 64.1838C294.505 64.208 294.511 64.234 294.512 64.2604C294.512 64.2867 294.507 64.3129 294.498 64.3375C294.488 64.362 294.474 64.3844 294.455 64.4033C294.437 64.4223 294.415 64.4374 294.391 64.4478C289.527 66.6078 286.783 74.5438 288.855 80.4478C288.863 80.473 288.867 80.4997 288.865 80.5263C288.864 80.553 288.857 80.579 288.845 80.6028C288.833 80.6267 288.816 80.6479 288.796 80.6652C288.776 80.6826 288.752 80.6957 288.727 80.7038L288.663 80.7358Z" fill="#263238"/>
<path d="M287.359 71.9281H287.287C287.238 71.9084 287.199 71.8711 287.176 71.8236C287.154 71.7761 287.151 71.722 287.167 71.6721C288.607 67.8561 291.327 64.9521 294.255 64.0881C294.306 64.0732 294.36 64.0792 294.407 64.1047C294.453 64.1302 294.488 64.1732 294.503 64.2241C294.517 64.275 294.511 64.3297 294.486 64.3762C294.46 64.4228 294.418 64.4572 294.367 64.4721C291.559 65.2721 288.943 68.1121 287.543 71.8161C287.526 71.8504 287.5 71.8791 287.467 71.899C287.434 71.9188 287.397 71.9289 287.359 71.9281Z" fill="#263238"/>
<path d="M298.559 284.728L293.935 284.736L293.159 267.368L300.943 267.56L298.559 284.728Z" fill="#FFB573"/>
<path d="M290.519 134.856C290.519 134.856 290.111 183.056 289.095 204.04C289.055 204.663 289.055 205.288 289.095 205.912C290.615 226.944 293.135 267.368 293.135 267.368L300.967 267.568C300.967 267.568 307.791 235.288 303.567 206.048C310.359 172.976 314.015 143.464 307.863 134.848L290.519 134.856Z" fill="#FF0400"/>
<path opacity="0.2" d="M303.64 154C301.24 162.048 303.576 187.92 304.816 199.856C306.504 191.232 307.944 182.936 309.008 175.288L303.64 154Z" fill="black"/>
<path d="M293.416 282.488H299.424C299.551 282.483 299.674 282.527 299.769 282.61C299.864 282.693 299.924 282.81 299.936 282.936L300.544 287.856C300.547 288.008 300.52 288.159 300.464 288.301C300.408 288.442 300.324 288.571 300.218 288.68C300.111 288.789 299.984 288.875 299.844 288.934C299.703 288.993 299.553 289.024 299.4 289.024C296.752 289.024 295.488 288.832 292.152 288.84C290.096 288.84 288.856 289.048 286.016 289.048C283.176 289.048 283.176 286.328 284.368 286.08C289.72 284.968 290.408 284.352 292.272 282.88C292.599 282.625 293.002 282.488 293.416 282.488Z" fill="#263238"/>
<path d="M295.393 99.384C295.097 101.04 294.761 102.584 294.401 104.184C294.041 105.784 293.673 107.384 293.249 108.984C292.409 112.184 291.537 115.32 290.385 118.488C289.807 120.126 289.134 121.729 288.369 123.288C287.945 124.153 287.455 124.985 286.905 125.776C286.745 125.992 286.601 126.2 286.393 126.44C286.194 126.695 285.971 126.93 285.729 127.144C285.115 127.724 284.376 128.153 283.569 128.4C282.722 128.656 281.825 128.692 280.961 128.504C280.281 128.346 279.632 128.076 279.041 127.704C278.144 127.13 277.349 126.411 276.689 125.576C275.554 124.164 274.65 122.582 274.009 120.888C273.868 120.528 273.856 120.13 273.974 119.762C274.093 119.394 274.334 119.078 274.659 118.868C274.983 118.657 275.37 118.565 275.754 118.606C276.139 118.648 276.497 118.821 276.769 119.096L276.865 119.2C277.858 120.249 278.927 121.222 280.065 122.112C280.509 122.451 281.003 122.721 281.529 122.912C281.721 122.96 281.857 122.96 281.873 122.912C281.889 122.864 281.761 122.832 281.649 122.84C281.537 122.848 281.465 122.888 281.497 122.84C281.534 122.77 281.577 122.703 281.625 122.64C281.704 122.543 281.774 122.439 281.833 122.328C282.168 121.777 282.462 121.202 282.713 120.608C283.295 119.237 283.808 117.838 284.249 116.416C285.161 113.488 285.993 110.44 286.713 107.376C287.433 104.312 288.145 101.184 288.785 98.128C288.982 97.2831 289.499 96.5476 290.227 96.076C290.955 95.6045 291.838 95.4336 292.69 95.5994C293.541 95.7651 294.295 96.2546 294.793 96.9648C295.292 97.6751 295.495 98.5508 295.361 99.408L295.393 99.384Z" fill="#FFB573"/>
<path d="M288.12 128.312C288.12 130.28 318.792 130.664 318.792 128.064L303.12 124.064L288.12 128.312" fill="#263238"/>
<path d="M293.753 94.224C301.84 92.8714 310.102 92.9526 318.161 94.464C318.633 94.5388 319.086 94.7097 319.49 94.9661C319.894 95.2224 320.241 95.5589 320.511 95.9547C320.78 96.3504 320.965 96.7972 321.055 97.2672C321.144 97.7373 321.137 98.2208 321.033 98.688C316.697 118.104 316.945 124.632 317.361 134.856H290.529C289.185 117.8 288.473 108.064 288.297 102.536C288.153 98.3199 289.601 94.84 293.753 94.224Z" fill="#FFB573"/>
<path opacity="0.2" d="M318.08 99.8638C317.911 102.574 318.269 105.291 319.136 107.864C319.48 106.016 319.88 104.032 320.336 101.864L318.08 99.8638Z" fill="black"/>
<path d="M309.351 80.0479C308.551 83.9279 307.823 91.0559 310.543 93.6478C310.543 93.6478 309.479 97.5919 302.263 97.5919C294.319 97.5919 298.463 93.6478 298.463 93.6478C302.799 92.6078 302.687 89.3919 301.935 86.3759L309.351 80.0479Z" fill="#FFB573"/>
<path opacity="0.2" d="M306.329 82.6318L301.937 86.3998C302.123 87.1024 302.249 87.8197 302.313 88.5438C303.969 88.3038 306.241 86.4878 306.417 84.7518C306.515 84.0456 306.485 83.3274 306.329 82.6318V82.6318Z" fill="black"/>
<path d="M313.545 73.3119C312.057 79.6399 311.569 82.3519 307.777 85.0799C302.081 89.1919 294.625 85.9919 294.177 79.3439C293.777 73.3679 296.265 64.0159 302.977 62.5439C304.451 62.2115 305.986 62.2612 307.435 62.6883C308.885 63.1154 310.202 63.9057 311.26 64.9843C312.319 66.0629 313.084 67.394 313.484 68.8514C313.884 70.3088 313.905 71.8442 313.545 73.3119V73.3119Z" fill="#FFB573"/>
<path d="M311.128 63.792C304.424 64.536 306.464 77.032 311.504 78.24C317.408 75.352 321.048 64.384 311.128 63.792Z" fill="#263238"/>
<path d="M343.945 273.288L339.313 274.696L332.553 260.536L339.681 258.592L343.945 273.288Z" fill="#FFB573"/>
<path d="M337.976 273.28L343.928 270.976C344.032 270.936 344.147 270.934 344.253 270.97C344.358 271.007 344.447 271.08 344.504 271.176L347.168 275.672C347.232 275.784 347.271 275.909 347.282 276.037C347.294 276.166 347.277 276.295 347.234 276.417C347.19 276.538 347.121 276.649 347.031 276.741C346.941 276.834 346.832 276.906 346.712 276.952C344.624 277.752 343.616 278.16 341 279.176C339.4 279.8 336.888 281.88 334.664 282.736C332.44 283.592 331.464 281.56 332.264 280.856C334.431 278.964 336.139 276.603 337.256 273.952C337.324 273.797 337.423 273.657 337.546 273.541C337.67 273.426 337.816 273.337 337.976 273.28V273.28Z" fill="#263238"/>
<path d="M297.889 134.856C297.889 134.856 307.753 185.312 311.489 205.256C315.353 226.056 332.569 260.504 332.569 260.504L339.713 258.552C339.713 258.552 329.929 221.704 325.369 203.44C324.473 170.368 325.529 143.44 317.369 134.824L297.889 134.856Z" fill="#FF0400"/>
<path d="M303.048 73.2717C302.96 73.7917 302.616 74.1677 302.248 74.0717C301.88 73.9757 301.704 73.5438 301.792 73.0238C301.88 72.5038 302.232 72.1277 302.592 72.1837C302.952 72.2397 303.144 72.7517 303.048 73.2717Z" fill="#263238"/>
<path d="M297.167 72.2717C297.079 72.7917 296.727 73.1677 296.367 73.0717C296.007 72.9757 295.823 72.5517 295.911 72.0237C295.999 71.4957 296.351 71.1277 296.711 71.2237C297.071 71.3197 297.255 71.7517 297.167 72.2717Z" fill="#263238"/>
<path d="M296.855 71.2801L295.663 70.7041C295.663 70.7041 296.143 71.7921 296.855 71.2801Z" fill="#263238"/>
<path d="M298.817 73.52C298.156 74.6264 297.349 75.6383 296.417 76.528C296.65 76.7613 296.931 76.9415 297.24 77.0561C297.55 77.1707 297.88 77.2171 298.209 77.192L298.817 73.52Z" fill="#ED893E"/>
<path d="M300.688 79.7118C300.42 79.712 300.152 79.6879 299.888 79.6398C299.868 79.6369 299.849 79.63 299.831 79.6195C299.814 79.609 299.799 79.5952 299.787 79.5788C299.775 79.5624 299.766 79.5438 299.762 79.524C299.757 79.5043 299.757 79.4838 299.76 79.4638C299.768 79.4242 299.79 79.389 299.823 79.3653C299.855 79.3415 299.896 79.331 299.936 79.3358C300.582 79.4589 301.247 79.4289 301.88 79.2483C302.512 79.0676 303.093 78.7415 303.576 78.2958C303.59 78.2803 303.608 78.2679 303.627 78.2594C303.646 78.251 303.667 78.2466 303.688 78.2466C303.709 78.2466 303.73 78.251 303.749 78.2594C303.768 78.2679 303.786 78.2803 303.8 78.2958C303.827 78.3253 303.842 78.3638 303.842 78.4038C303.842 78.4438 303.827 78.4823 303.8 78.5118C302.962 79.3077 301.843 79.7392 300.688 79.7118V79.7118Z" fill="#263238"/>
<path d="M314.457 78.7678C313.819 79.851 312.782 80.6408 311.569 80.9678C309.969 81.3758 309.169 79.9278 309.665 78.4238C310.089 77.0718 311.449 75.2238 313.057 75.4718C313.406 75.5356 313.734 75.6851 314.011 75.907C314.288 76.1288 314.506 76.4159 314.645 76.7427C314.783 77.0694 314.839 77.4255 314.806 77.7789C314.773 78.1324 314.653 78.4722 314.457 78.7678Z" fill="#FFB573"/>
<path d="M305.599 72.4717C305.535 72.471 305.472 72.4497 305.42 72.4109C305.368 72.372 305.33 72.3177 305.312 72.2557C304.888 70.8877 303.135 70.2957 303.119 70.2957C303.08 70.2839 303.043 70.2643 303.012 70.238C302.98 70.2116 302.954 70.1792 302.936 70.1425C302.917 70.1059 302.906 70.0658 302.903 70.0247C302.9 69.9837 302.906 69.9425 302.919 69.9037C302.931 69.8642 302.951 69.8276 302.977 69.796C303.004 69.7644 303.036 69.7384 303.073 69.7197C303.109 69.701 303.149 69.69 303.19 69.6872C303.231 69.6844 303.273 69.6901 303.312 69.7037C303.392 69.7037 305.383 70.3997 305.903 72.1037C305.916 72.1431 305.92 72.1845 305.916 72.2256C305.913 72.2667 305.901 72.3066 305.881 72.3431C305.862 72.3796 305.836 72.4118 305.804 72.438C305.772 72.4642 305.735 72.4838 305.695 72.4957L305.599 72.4717Z" fill="#263238"/>
<path d="M295.856 69.2478C295.803 69.2471 295.751 69.2328 295.704 69.2062C295.658 69.1796 295.62 69.1416 295.592 69.0958C295.552 69.0236 295.542 68.9385 295.565 68.859C295.587 68.7795 295.64 68.7122 295.712 68.6718C296.133 68.417 296.61 68.2666 297.101 68.2332C297.592 68.1998 298.084 68.2843 298.536 68.4798C298.609 68.5174 298.664 68.5821 298.689 68.66C298.715 68.7378 298.709 68.8225 298.672 68.8958C298.635 68.9685 298.57 69.0235 298.492 69.049C298.414 69.0744 298.329 69.0682 298.256 69.0318V69.0318C297.895 68.884 297.504 68.8229 297.115 68.8535C296.726 68.8841 296.35 69.0054 296.016 69.2078C295.968 69.2369 295.912 69.2508 295.856 69.2478V69.2478Z" fill="#263238"/>
<path d="M320.351 95.5761C322.631 98.5601 324.703 101.576 326.671 104.76C327.647 106.36 328.607 107.96 329.487 109.664C330.443 111.43 331.233 113.28 331.847 115.192C331.935 115.448 331.999 115.744 332.071 115.992L332.127 116.224L332.199 116.56C332.231 116.769 332.253 116.98 332.263 117.192C332.3 117.886 332.249 118.583 332.111 119.264C331.883 120.345 331.543 121.399 331.095 122.408C330.306 124.192 329.375 125.909 328.311 127.544C326.286 130.686 324.009 133.658 321.503 136.432C321.228 136.739 320.85 136.934 320.44 136.978C320.03 137.022 319.619 136.912 319.285 136.67C318.952 136.428 318.72 136.071 318.634 135.668C318.549 135.265 318.616 134.844 318.823 134.488V134.448C320.591 131.368 322.343 128.2 323.855 125.064C324.597 123.552 325.24 121.994 325.783 120.4C326.017 119.723 326.178 119.023 326.263 118.312C326.292 118.102 326.292 117.89 326.263 117.68V117.632V117.536C326.207 117.376 326.167 117.232 326.095 117.064C325.472 115.564 324.739 114.112 323.903 112.72C323.023 111.24 322.087 109.76 321.127 108.28C319.175 105.352 317.127 102.408 315.047 99.5601C314.549 98.8455 314.348 97.965 314.488 97.105C314.627 96.2451 315.096 95.4733 315.795 94.9533C316.494 94.4332 317.368 94.2057 318.232 94.319C319.096 94.4323 319.882 94.8774 320.423 95.5601L320.351 95.5761Z" fill="#FFB573"/>
<path d="M302.745 72.2801L301.553 71.7041C301.553 71.7041 302.025 72.8001 302.745 72.2801Z" fill="#263238"/>
<path d="M289.048 100.624C289.542 98.6054 290.178 96.6244 290.952 94.6957C292.179 94.3291 293.434 94.0616 294.704 93.8957C297.291 96.1888 299.42 98.9525 300.976 102.04C304.408 98.5677 310.976 95.0557 314.976 93.7757C316.329 93.6904 317.686 93.8614 318.976 94.2797C316.248 102.888 313.464 111.544 318.4 113.768C318.312 117.856 318.544 122.928 318.752 128.056C314.088 127.544 295.592 126.656 288.08 128.304C287.696 123.104 287.56 118.704 287.584 114.904C284.088 110.448 287.592 104.384 289.048 100.624Z" fill="#263238"/>
<g opacity="0.2">
<path opacity="0.2" d="M296.399 116.633C296.358 116.638 296.318 116.654 296.284 116.679C296.25 116.704 296.224 116.738 296.207 116.777C295.64 118.368 295.657 120.109 296.255 121.689C295.703 121.225 295.159 120.769 294.655 120.305C295.106 119.341 295.28 118.272 295.159 117.215C295.037 116.159 294.625 115.157 293.967 114.321C293.942 114.288 293.909 114.262 293.872 114.245C293.834 114.229 293.793 114.222 293.751 114.225C293.709 114.228 293.669 114.243 293.635 114.269C293.601 114.294 293.575 114.329 293.559 114.369C292.974 116.005 293.011 117.799 293.663 119.409C292.943 118.753 292.255 118.097 291.623 117.465C292.096 116.497 292.286 115.415 292.171 114.344C292.056 113.272 291.642 112.255 290.975 111.409C290.95 111.376 290.917 111.35 290.88 111.333C290.842 111.317 290.801 111.31 290.759 111.313C290.717 111.316 290.677 111.331 290.643 111.357C290.609 111.382 290.582 111.417 290.567 111.457C289.986 113.096 290.023 114.891 290.671 116.505C289.575 115.361 288.663 114.321 287.983 113.457C287.739 112.49 287.254 111.6 286.572 110.871C285.891 110.142 285.036 109.598 284.087 109.289C284.049 109.282 284.009 109.285 283.972 109.296C283.934 109.308 283.9 109.328 283.872 109.355C283.844 109.383 283.823 109.416 283.81 109.453C283.797 109.49 283.794 109.53 283.799 109.569C284.519 113.113 287.127 113.729 287.655 113.817C288.031 114.289 288.455 114.809 288.967 115.369C287.714 114.807 286.319 114.64 284.967 114.889C284.927 114.898 284.889 114.919 284.859 114.949C284.83 114.978 284.809 115.016 284.799 115.057C284.787 115.096 284.786 115.138 284.794 115.179C284.802 115.219 284.821 115.257 284.847 115.289C285.535 116.073 286.428 116.65 287.426 116.954C288.424 117.258 289.487 117.277 290.495 117.009C290.943 117.473 291.423 117.945 291.927 118.433C290.233 117.948 288.425 118.056 286.799 118.737C286.761 118.757 286.729 118.788 286.706 118.825C286.684 118.862 286.672 118.905 286.672 118.949C286.672 118.992 286.684 119.035 286.706 119.073C286.729 119.11 286.761 119.14 286.799 119.161C287.713 119.73 288.759 120.049 289.835 120.087C290.91 120.125 291.976 119.88 292.927 119.377C293.599 120.009 294.311 120.641 295.047 121.273C293.408 120.533 291.554 120.425 289.839 120.969C289.8 120.985 289.765 121.011 289.738 121.045C289.711 121.078 289.694 121.118 289.687 121.161C289.683 121.202 289.689 121.244 289.704 121.283C289.72 121.322 289.744 121.357 289.775 121.385C290.618 122.067 291.632 122.503 292.707 122.644C293.781 122.785 294.874 122.626 295.863 122.185L295.927 122.145C295.953 122.118 295.969 122.085 295.975 122.049L296.879 122.785C296.907 122.823 296.947 122.851 296.991 122.865C297.471 123.249 297.959 123.625 298.455 123.993C298.499 124.03 298.554 124.05 298.611 124.05C298.669 124.05 298.724 124.03 298.767 123.993V123.993C298.786 123.967 298.799 123.938 298.806 123.907C298.814 123.876 298.815 123.844 298.809 123.813C298.804 123.782 298.793 123.752 298.776 123.725C298.759 123.698 298.737 123.675 298.711 123.657C298.255 123.313 297.799 122.969 297.359 122.609C297.775 121.656 297.925 120.608 297.792 119.577C297.66 118.546 297.25 117.57 296.607 116.753C296.586 116.716 296.556 116.686 296.52 116.665C296.483 116.644 296.442 116.633 296.399 116.633V116.633Z" fill="white"/>
<path opacity="0.2" d="M288.512 104.241C288.553 104.236 288.593 104.22 288.627 104.195C288.661 104.169 288.687 104.136 288.704 104.097C289.271 102.506 289.254 100.765 288.656 99.1849C289.208 99.6489 289.752 100.105 290.256 100.569C289.805 101.532 289.631 102.602 289.752 103.658C289.874 104.715 290.286 105.717 290.944 106.553C290.969 106.586 291.002 106.611 291.039 106.628C291.077 106.645 291.118 106.652 291.16 106.649C291.202 106.646 291.243 106.63 291.277 106.605C291.311 106.579 291.337 106.545 291.352 106.505C291.937 104.869 291.9 103.075 291.248 101.465C291.968 102.121 292.656 102.777 293.288 103.409C292.815 104.377 292.625 105.459 292.74 106.53C292.855 107.601 293.269 108.619 293.936 109.465C293.961 109.498 293.994 109.523 294.031 109.54C294.069 109.557 294.11 109.564 294.152 109.561C294.194 109.558 294.235 109.542 294.269 109.517C294.303 109.491 294.329 109.457 294.344 109.417C294.925 107.778 294.888 105.983 294.24 104.369C295.336 105.513 296.248 106.553 296.928 107.417C297.172 108.384 297.657 109.274 298.339 110.003C299.02 110.732 299.875 111.276 300.824 111.585C300.862 111.592 300.902 111.589 300.939 111.578C300.977 111.566 301.011 111.546 301.039 111.518C301.067 111.491 301.088 111.457 301.101 111.42C301.114 111.383 301.117 111.344 301.112 111.305C300.392 107.761 297.784 107.145 297.256 107.057C296.88 106.585 296.456 106.065 295.944 105.505C297.197 106.069 298.593 106.234 299.944 105.977C299.984 105.97 300.022 105.951 300.052 105.922C300.082 105.894 300.103 105.857 300.112 105.817C300.124 105.777 300.126 105.735 300.117 105.695C300.109 105.654 300.09 105.616 300.064 105.585C299.376 104.801 298.483 104.224 297.485 103.92C296.487 103.616 295.424 103.597 294.416 103.865C293.968 103.401 293.488 102.929 292.984 102.441C294.678 102.925 296.487 102.818 298.112 102.137C298.15 102.116 298.182 102.086 298.205 102.049C298.227 102.011 298.239 101.968 298.239 101.925C298.239 101.881 298.227 101.839 298.205 101.801C298.182 101.764 298.15 101.733 298.112 101.713C297.198 101.144 296.152 100.825 295.076 100.787C294.001 100.749 292.935 100.994 291.984 101.497C291.312 100.865 290.6 100.233 289.864 99.6009C291.503 100.341 293.357 100.449 295.072 99.9049C295.111 99.8875 295.145 99.861 295.171 99.8275C295.198 99.7941 295.216 99.7548 295.224 99.7129C295.228 99.6712 295.222 99.6292 295.207 99.5902C295.191 99.5513 295.167 99.5165 295.136 99.4889C294.294 98.8067 293.279 98.3709 292.205 98.2297C291.13 98.0885 290.037 98.2474 289.048 98.6889L288.984 98.7289C288.958 98.7554 288.942 98.7888 288.936 98.8249L288.032 98.0889C288.004 98.0511 287.964 98.0231 287.92 98.0089C287.44 97.6249 286.952 97.2489 286.456 96.8809C286.412 96.8437 286.357 96.8232 286.3 96.8232C286.242 96.8232 286.187 96.8437 286.144 96.8809V96.8809C286.107 96.9325 286.092 96.9959 286.101 97.0583C286.11 97.1208 286.142 97.1774 286.192 97.2169C286.656 97.5609 287.112 97.9049 287.552 98.2649C287.136 99.2178 286.987 100.266 287.119 101.297C287.251 102.328 287.661 103.304 288.304 104.121C288.325 104.157 288.355 104.188 288.392 104.209C288.428 104.23 288.469 104.241 288.512 104.241V104.241Z" fill="white"/>
<path opacity="0.2" d="M313.177 122.473C313.136 122.478 313.098 122.494 313.064 122.517C313.031 122.541 313.004 122.572 312.985 122.609C312.424 124.201 312.441 125.94 313.033 127.521C312.481 127.065 311.937 126.601 311.433 126.137C311.884 125.175 312.058 124.107 311.936 123.051C311.815 121.996 311.402 120.995 310.745 120.161C310.72 120.128 310.687 120.102 310.65 120.085C310.612 120.069 310.571 120.062 310.53 120.066C310.489 120.07 310.449 120.085 310.416 120.108C310.382 120.132 310.355 120.164 310.337 120.201C309.755 121.84 309.792 123.635 310.441 125.249C309.721 124.585 309.033 123.937 308.401 123.305C308.875 122.339 309.066 121.258 308.952 120.187C308.837 119.117 308.421 118.101 307.753 117.257C307.729 117.222 307.697 117.195 307.658 117.178C307.62 117.161 307.578 117.155 307.537 117.161C307.496 117.166 307.457 117.181 307.424 117.205C307.39 117.228 307.363 117.26 307.345 117.297C306.763 118.936 306.8 120.731 307.449 122.345C306.353 121.209 305.441 120.161 304.761 119.297C304.514 118.331 304.027 117.443 303.346 116.714C302.665 115.986 301.812 115.44 300.865 115.129C300.826 115.121 300.786 115.123 300.749 115.134C300.711 115.145 300.677 115.165 300.649 115.193C300.62 115.222 300.598 115.257 300.586 115.296C300.573 115.335 300.57 115.376 300.577 115.417C301.297 118.953 303.913 119.569 304.433 119.657C304.809 120.129 305.233 120.657 305.745 121.217C304.491 120.655 303.096 120.487 301.745 120.737C301.705 120.748 301.668 120.769 301.639 120.799C301.609 120.828 301.588 120.865 301.577 120.905C301.565 120.943 301.563 120.984 301.571 121.023C301.58 121.062 301.598 121.099 301.625 121.129C302.309 121.918 303.202 122.499 304.201 122.803C305.2 123.108 306.265 123.123 307.273 122.849C307.721 123.313 308.201 123.793 308.705 124.281C307.011 123.792 305.201 123.899 303.577 124.585C303.54 124.607 303.51 124.637 303.487 124.673C303.465 124.709 303.452 124.75 303.449 124.793C303.448 124.835 303.459 124.877 303.48 124.914C303.501 124.95 303.532 124.98 303.569 125.001C304.482 125.57 305.528 125.89 306.603 125.93C307.678 125.969 308.745 125.726 309.697 125.225C310.369 125.849 311.081 126.481 311.817 127.121C310.178 126.381 308.323 126.273 306.609 126.817C306.569 126.833 306.534 126.859 306.507 126.893C306.481 126.926 306.463 126.966 306.457 127.009C306.452 127.05 306.458 127.092 306.475 127.13C306.492 127.168 306.519 127.201 306.553 127.225C307.395 127.907 308.409 128.343 309.484 128.484C310.558 128.625 311.651 128.466 312.641 128.025L312.697 127.977C312.72 127.951 312.739 127.921 312.753 127.889L313.657 128.625C313.682 128.662 313.718 128.69 313.761 128.705C314.241 129.089 314.729 129.465 315.225 129.841C315.268 129.878 315.324 129.898 315.381 129.898C315.438 129.898 315.493 129.878 315.537 129.841C315.575 129.79 315.591 129.726 315.582 129.663C315.573 129.6 315.54 129.543 315.489 129.505C315.025 129.161 314.577 128.809 314.129 128.457C314.546 127.505 314.698 126.457 314.567 125.426C314.436 124.395 314.027 123.418 313.385 122.601C313.364 122.563 313.334 122.532 313.298 122.509C313.261 122.487 313.22 122.474 313.177 122.473V122.473Z" fill="white"/>
<path opacity="0.2" d="M328.56 128.001C328.518 128.004 328.478 128.019 328.444 128.045C328.41 128.07 328.383 128.105 328.368 128.145C327.798 129.735 327.812 131.476 328.408 133.057C327.856 132.593 327.32 132.129 326.808 131.673C327.261 130.71 327.437 129.641 327.317 128.584C327.197 127.528 326.785 126.525 326.128 125.689C326.103 125.655 326.068 125.628 326.029 125.611C325.99 125.594 325.947 125.588 325.904 125.593C325.863 125.598 325.823 125.615 325.79 125.64C325.756 125.665 325.73 125.698 325.712 125.737C325.131 127.373 325.168 129.166 325.816 130.777C325.096 130.121 324.416 129.465 323.784 128.833C324.257 127.864 324.447 126.783 324.332 125.711C324.217 124.64 323.803 123.623 323.136 122.777C323.111 122.744 323.078 122.718 323.041 122.701C323.003 122.685 322.962 122.677 322.92 122.681C322.878 122.684 322.838 122.699 322.804 122.725C322.77 122.75 322.744 122.785 322.728 122.825C322.143 124.463 322.18 126.26 322.832 127.873C321.736 126.729 320.816 125.689 320.144 124.825C319.9 123.857 319.415 122.968 318.733 122.239C318.052 121.51 317.197 120.966 316.248 120.657C316.21 120.648 316.169 120.649 316.131 120.66C316.092 120.671 316.057 120.691 316.029 120.719C316 120.747 315.979 120.781 315.967 120.819C315.955 120.857 315.953 120.898 315.96 120.937C316.68 124.481 319.288 125.097 319.816 125.185C320.184 125.657 320.616 126.177 321.128 126.737C319.874 126.176 318.48 126.009 317.128 126.257C317.089 126.269 317.053 126.291 317.024 126.32C316.995 126.349 316.973 126.385 316.96 126.425C316.95 126.465 316.949 126.507 316.959 126.548C316.968 126.588 316.988 126.626 317.016 126.657C317.704 127.44 318.595 128.015 319.592 128.319C320.588 128.623 321.649 128.643 322.656 128.377C323.112 128.841 323.584 129.313 324.088 129.801C322.397 129.316 320.591 129.423 318.968 130.105C318.93 130.124 318.897 130.154 318.875 130.19C318.852 130.227 318.84 130.27 318.84 130.313C318.84 130.355 318.85 130.397 318.869 130.435C318.889 130.473 318.917 130.505 318.952 130.529C319.868 131.095 320.916 131.413 321.992 131.451C323.068 131.489 324.135 131.245 325.088 130.745C325.76 131.374 326.464 132.006 327.2 132.641C325.561 131.901 323.707 131.793 321.992 132.337C321.953 132.352 321.918 132.378 321.893 132.412C321.867 132.446 321.852 132.486 321.848 132.529C321.844 132.57 321.85 132.612 321.865 132.651C321.881 132.69 321.905 132.725 321.936 132.753C322.779 133.434 323.793 133.869 324.868 134.01C325.942 134.152 327.034 133.993 328.024 133.553C328.043 133.556 328.062 133.556 328.08 133.553C328.111 133.529 328.131 133.495 328.136 133.457L329.04 134.193C329.067 134.228 329.103 134.256 329.144 134.273C329.624 134.657 330.112 135.033 330.608 135.401C330.652 135.438 330.707 135.458 330.764 135.458C330.822 135.458 330.877 135.438 330.92 135.401V135.401C330.94 135.376 330.955 135.347 330.964 135.317C330.972 135.286 330.974 135.254 330.97 135.222C330.965 135.191 330.954 135.16 330.937 135.133C330.921 135.106 330.899 135.083 330.872 135.065L329.512 134.017C329.93 133.065 330.081 132.017 329.95 130.986C329.819 129.954 329.411 128.978 328.768 128.161C328.752 128.117 328.724 128.079 328.687 128.051C328.651 128.023 328.607 128.005 328.56 128.001V128.001Z" fill="white"/>
<path opacity="0.2" d="M293.384 128.904C293.343 128.908 293.303 128.922 293.269 128.946C293.236 128.97 293.209 129.003 293.192 129.04C292.621 130.631 292.636 132.372 293.232 133.952C292.68 133.496 292.144 133.032 291.632 132.568C292.084 131.606 292.26 130.537 292.14 129.48C292.02 128.423 291.609 127.421 290.952 126.584C290.926 126.552 290.892 126.527 290.853 126.511C290.814 126.495 290.772 126.489 290.731 126.494C290.689 126.499 290.65 126.514 290.616 126.538C290.581 126.562 290.554 126.595 290.536 126.632C289.954 128.272 289.991 130.067 290.64 131.68C289.92 131.016 289.24 130.368 288.608 129.736C289.08 128.768 289.27 127.686 289.155 126.615C289.041 125.544 288.626 124.527 287.96 123.68C287.935 123.647 287.902 123.622 287.864 123.606C287.826 123.591 287.784 123.586 287.744 123.592C287.702 123.594 287.662 123.608 287.628 123.632C287.594 123.656 287.567 123.69 287.552 123.728C286.966 125.367 287.003 127.163 287.656 128.776C286.708 127.807 285.811 126.79 284.968 125.728C284.721 124.762 284.234 123.874 283.553 123.146C282.873 122.417 282.019 121.872 281.072 121.56C281.032 121.553 280.991 121.554 280.952 121.566C280.913 121.577 280.877 121.597 280.848 121.624C280.822 121.654 280.803 121.688 280.792 121.726C280.781 121.763 280.778 121.802 280.784 121.84C281.504 125.384 284.112 126 284.64 126.088C285.008 126.56 285.44 127.08 285.952 127.688C284.7 127.12 283.303 126.952 281.952 127.208C281.913 127.219 281.877 127.239 281.847 127.267C281.818 127.295 281.796 127.33 281.784 127.368C281.773 127.409 281.772 127.451 281.782 127.492C281.792 127.532 281.812 127.57 281.84 127.6C282.522 128.39 283.413 128.971 284.411 129.275C285.409 129.58 286.473 129.595 287.48 129.32C287.936 129.784 288.408 130.264 288.912 130.752C287.221 130.26 285.412 130.368 283.792 131.056C283.754 131.074 283.722 131.103 283.699 131.138C283.677 131.173 283.664 131.214 283.664 131.256C283.662 131.299 283.672 131.341 283.692 131.379C283.711 131.417 283.74 131.449 283.776 131.472C284.69 132.042 285.738 132.362 286.814 132.401C287.89 132.44 288.958 132.197 289.912 131.696C290.584 132.32 291.288 132.952 292.024 133.584C290.384 132.847 288.529 132.741 286.816 133.288C286.777 133.303 286.743 133.328 286.718 133.36C286.693 133.393 286.677 133.432 286.672 133.472C286.666 133.514 286.671 133.557 286.687 133.596C286.702 133.635 286.727 133.67 286.76 133.696C287.602 134.378 288.617 134.813 289.691 134.954C290.765 135.095 291.858 134.937 292.848 134.496C292.866 134.5 292.885 134.5 292.904 134.496C292.932 134.475 292.952 134.443 292.96 134.408L293.864 135.144C293.891 135.18 293.927 135.208 293.968 135.224C294.456 135.608 294.936 135.984 295.432 136.36C295.475 136.398 295.531 136.418 295.588 136.418C295.645 136.418 295.7 136.398 295.744 136.36V136.36C295.764 136.336 295.779 136.307 295.787 136.276C295.795 136.246 295.797 136.214 295.793 136.182C295.788 136.151 295.777 136.12 295.761 136.093C295.744 136.066 295.722 136.043 295.696 136.024L294.336 134.976C294.753 134.023 294.904 132.974 294.773 131.942C294.642 130.909 294.234 129.931 293.592 129.112C293.588 129.059 293.565 129.008 293.527 128.97C293.489 128.931 293.438 128.908 293.384 128.904V128.904Z" fill="white"/>
<path opacity="0.2" d="M312.665 95.2007C312.624 95.2065 312.584 95.2227 312.551 95.2479C312.517 95.2731 312.49 95.3064 312.473 95.3447C311.913 96.937 311.93 98.6756 312.521 100.257C311.969 99.7927 311.425 99.3367 310.921 98.8727C311.372 97.9093 311.546 96.8398 311.424 95.7833C311.303 94.7267 310.891 93.7247 310.233 92.8887C310.208 92.856 310.175 92.8301 310.137 92.8133C310.1 92.7966 310.058 92.7895 310.017 92.7927C309.975 92.796 309.934 92.8113 309.9 92.8368C309.866 92.8623 309.84 92.897 309.825 92.9367C309.243 94.573 309.28 96.3658 309.929 97.9767C309.209 97.3207 308.521 96.6647 307.889 96.0327C308.362 95.0645 308.551 93.9827 308.437 92.9114C308.322 91.8402 307.908 90.823 307.241 89.9767C307.216 89.9434 307.184 89.9171 307.146 89.9003C307.108 89.8834 307.066 89.8767 307.025 89.8807C306.983 89.884 306.942 89.8993 306.908 89.9248C306.874 89.9503 306.848 89.985 306.833 90.0247C306.251 91.6638 306.288 93.4589 306.937 95.0727C305.841 93.9287 304.929 92.8887 304.249 92.0247C304.005 91.0574 303.519 90.1677 302.838 89.4389C302.157 88.71 301.302 88.1657 300.353 87.8567C300.314 87.85 300.275 87.8525 300.237 87.8641C300.2 87.8756 300.166 87.8959 300.138 87.9232C300.11 87.9505 300.088 87.9841 300.076 88.0212C300.063 88.0583 300.059 88.0979 300.065 88.1367C300.785 91.6807 303.401 92.2967 303.921 92.3847C304.297 92.8567 304.721 93.3767 305.233 93.9367C303.979 93.3744 302.584 93.207 301.233 93.4567C301.194 93.4691 301.158 93.4908 301.128 93.52C301.099 93.5493 301.077 93.5852 301.065 93.6247C301.053 93.6643 301.051 93.7063 301.06 93.7468C301.068 93.7873 301.086 93.8251 301.113 93.8567C301.801 94.641 302.694 95.2176 303.692 95.5215C304.69 95.8254 305.753 95.8445 306.761 95.5767C307.209 96.0407 307.689 96.5127 308.193 97.0007C306.499 96.5163 304.69 96.6235 303.065 97.3047C303.029 97.3265 302.998 97.3568 302.976 97.393C302.953 97.4292 302.94 97.4703 302.937 97.5127C302.936 97.5561 302.947 97.5988 302.968 97.6367C302.989 97.6746 303.02 97.7063 303.057 97.7287C303.97 98.2974 305.017 98.6167 306.092 98.6546C307.168 98.6925 308.234 98.4477 309.185 97.9447C309.857 98.5767 310.569 99.2087 311.305 99.8407C309.666 99.101 307.811 98.9927 306.097 99.5367C306.057 99.5528 306.022 99.579 305.996 99.6126C305.969 99.6463 305.952 99.6863 305.945 99.7287C305.94 99.7711 305.947 99.8141 305.964 99.8533C305.981 99.8925 306.007 99.9268 306.041 99.9527C306.882 100.634 307.895 101.07 308.968 101.211C310.041 101.352 311.133 101.193 312.121 100.753L312.185 100.713C312.21 100.686 312.227 100.653 312.233 100.617L313.137 101.353C313.167 101.389 313.205 101.416 313.249 101.433C313.729 101.817 314.217 102.193 314.713 102.561C314.757 102.598 314.812 102.618 314.869 102.618C314.926 102.618 314.982 102.598 315.025 102.561V102.561C315.063 102.51 315.08 102.446 315.071 102.383C315.062 102.32 315.028 102.263 314.977 102.225C314.513 101.881 314.065 101.537 313.617 101.177C314.035 100.225 314.186 99.1771 314.055 98.1458C313.924 97.1145 313.515 96.1381 312.873 95.3207C312.85 95.2857 312.82 95.2565 312.784 95.2357C312.747 95.2148 312.707 95.2028 312.665 95.2007Z" fill="white"/>
<path opacity="0.2" d="M305.064 110.401C305.105 110.397 305.145 110.383 305.179 110.359C305.212 110.335 305.239 110.303 305.256 110.265C305.827 108.675 305.812 106.933 305.216 105.353C305.768 105.809 306.304 106.273 306.816 106.737C306.364 107.699 306.187 108.769 306.308 109.825C306.428 110.882 306.839 111.884 307.496 112.721C307.522 112.753 307.556 112.779 307.595 112.794C307.634 112.81 307.676 112.816 307.717 112.811C307.759 112.806 307.798 112.791 307.832 112.767C307.866 112.743 307.894 112.71 307.912 112.673C308.494 111.034 308.457 109.239 307.808 107.625C308.528 108.286 309.208 108.934 309.848 109.569C309.376 110.537 309.186 111.619 309.3 112.69C309.415 113.761 309.829 114.778 310.496 115.625C310.522 115.657 310.556 115.683 310.595 115.698C310.634 115.714 310.676 115.72 310.717 115.715C310.759 115.71 310.798 115.695 310.832 115.671C310.866 115.647 310.894 115.614 310.912 115.577C311.495 113.937 311.455 112.141 310.8 110.529C311.748 111.498 312.645 112.515 313.488 113.577C313.735 114.544 314.223 115.433 314.905 116.162C315.588 116.891 316.443 117.435 317.392 117.745C317.431 117.753 317.47 117.751 317.508 117.74C317.546 117.729 317.58 117.708 317.608 117.681C317.636 117.651 317.656 117.615 317.667 117.577C317.678 117.538 317.68 117.497 317.672 117.457C316.96 113.921 314.344 113.305 313.816 113.217C313.448 112.745 313.016 112.225 312.504 111.617C313.756 112.185 315.153 112.353 316.504 112.097C316.543 112.087 316.579 112.066 316.609 112.038C316.638 112.01 316.66 111.976 316.672 111.937C316.683 111.897 316.684 111.854 316.674 111.814C316.664 111.773 316.644 111.736 316.616 111.705C315.934 110.915 315.043 110.334 314.045 110.03C313.046 109.726 311.983 109.71 310.976 109.985C310.528 109.521 310.048 109.041 309.544 108.553C311.235 109.045 313.044 108.938 314.664 108.249C314.703 108.229 314.735 108.2 314.758 108.163C314.78 108.126 314.792 108.084 314.792 108.041C314.795 107.999 314.786 107.958 314.766 107.921C314.746 107.884 314.716 107.854 314.68 107.833C313.766 107.264 312.718 106.944 311.642 106.904C310.566 106.865 309.498 107.108 308.544 107.609C307.872 106.985 307.168 106.353 306.432 105.721C308.073 106.455 309.927 106.56 311.64 106.017C311.679 106.002 311.713 105.978 311.738 105.945C311.763 105.913 311.779 105.874 311.784 105.833C311.791 105.791 311.787 105.748 311.771 105.709C311.756 105.669 311.73 105.635 311.696 105.609C310.855 104.925 309.84 104.488 308.765 104.347C307.69 104.206 306.597 104.366 305.608 104.809C305.59 104.805 305.571 104.805 305.552 104.809C305.529 104.835 305.51 104.865 305.496 104.897L304.592 104.161C304.567 104.124 304.53 104.096 304.488 104.081C304.008 103.697 303.52 103.281 303.024 102.945C302.981 102.908 302.925 102.887 302.868 102.887C302.811 102.887 302.756 102.908 302.712 102.945V102.945C302.674 102.996 302.657 103.06 302.666 103.123C302.675 103.186 302.709 103.243 302.76 103.281L304.12 104.329C303.703 105.282 303.552 106.331 303.683 107.364C303.814 108.396 304.222 109.374 304.864 110.193C304.872 110.244 304.895 110.292 304.931 110.329C304.967 110.366 305.013 110.391 305.064 110.401V110.401Z" fill="white"/>
</g>
<path d="M308.576 117.28L254.976 122.688C253.546 122.833 252.233 123.54 251.324 124.653C250.415 125.766 249.985 127.194 250.128 128.624L251.968 146.952C253.363 145.963 254.994 145.357 256.698 145.195C258.401 145.032 260.117 145.32 261.675 146.028C263.232 146.736 264.577 147.841 265.574 149.231C266.572 150.621 267.187 152.248 267.359 153.951C267.531 155.653 267.254 157.37 266.555 158.932C265.856 160.494 264.759 161.845 263.375 162.85C261.991 163.856 260.367 164.481 258.666 164.663C256.964 164.845 255.245 164.578 253.68 163.888L255.528 182.216C255.675 183.645 256.382 184.958 257.494 185.868C258.606 186.778 260.033 187.21 261.464 187.072L315.064 181.672C316.493 181.522 317.806 180.814 318.716 179.7C319.626 178.587 320.058 177.159 319.92 175.728L314.52 122.128C314.368 120.699 313.658 119.389 312.545 118.481C311.432 117.573 310.005 117.141 308.576 117.28V117.28Z" fill="#FF0400"/>
<path opacity="0.3" d="M308.576 117.28L254.976 122.688C253.546 122.833 252.233 123.54 251.324 124.653C250.415 125.766 249.985 127.194 250.128 128.624L251.968 146.952C253.363 145.963 254.994 145.357 256.698 145.195C258.401 145.032 260.117 145.32 261.675 146.028C263.232 146.736 264.577 147.841 265.574 149.231C266.572 150.621 267.187 152.248 267.359 153.951C267.531 155.653 267.254 157.37 266.555 158.932C265.856 160.494 264.759 161.845 263.375 162.85C261.991 163.856 260.367 164.481 258.666 164.663C256.964 164.845 255.245 164.578 253.68 163.888L255.528 182.216C255.675 183.645 256.382 184.958 257.494 185.868C258.606 186.778 260.033 187.21 261.464 187.072L315.064 181.672C316.493 181.522 317.806 180.814 318.716 179.7C319.626 178.587 320.058 177.159 319.92 175.728L314.52 122.128C314.368 120.699 313.658 119.389 312.545 118.481C311.432 117.573 310.005 117.141 308.576 117.28V117.28Z" fill="black"/>
<path d="M323.2 133.72L320.72 132.64L314.896 134.128C314.228 134.302 313.637 134.693 313.216 135.24L311.984 136.84C311.721 137.19 311.588 137.621 311.607 138.058C311.626 138.496 311.796 138.913 312.088 139.24L313.48 140.776C313.814 141.141 314.277 141.363 314.771 141.393C315.266 141.423 315.752 141.259 316.128 140.936L319.288 138.224C319.288 138.224 323.096 136.44 323.2 133.72Z" fill="#FFB573"/>
<path d="M272.711 123.728L275.287 123.4C275.635 123.36 275.96 123.209 276.212 122.967C276.465 122.726 276.632 122.409 276.687 122.064L277.039 120.016C277.087 119.772 277.076 119.52 277.009 119.281C276.942 119.042 276.82 118.822 276.653 118.638C276.487 118.454 276.279 118.311 276.048 118.221C275.816 118.131 275.567 118.097 275.319 118.12L272.311 118.336C271.888 118.358 271.492 118.548 271.208 118.863C270.925 119.178 270.778 119.593 270.799 120.016L270.879 122.176C270.884 122.403 270.937 122.626 271.034 122.832C271.132 123.037 271.272 123.219 271.445 123.366C271.618 123.512 271.821 123.621 272.039 123.683C272.258 123.745 272.487 123.761 272.711 123.728Z" fill="#FFB573"/>
<path d="M312.8 64.9357C306.448 68.1357 295.288 66.6637 295.288 66.6637C295.288 66.6637 301.512 56.4877 312.8 64.9357Z" fill="#263238"/>
<path d="M201.023 267.911L197.831 284.527L189.751 282.575L192.943 265.959L201.023 267.911Z" fill="#7F3E3B"/>
<path d="M190.007 279.2L198.991 281.152C199.13 281.179 199.254 281.257 199.339 281.371C199.423 281.485 199.462 281.626 199.447 281.768L198.823 288.368C198.803 288.533 198.748 288.693 198.662 288.836C198.576 288.979 198.462 289.103 198.325 289.199C198.189 289.296 198.034 289.362 197.871 289.396C197.707 289.429 197.538 289.427 197.375 289.392C194.551 288.728 193.711 288.312 190.135 287.536C185.967 286.616 184.487 286.864 179.591 285.792C176.631 285.144 176.767 282.04 178.095 282.032C181.603 282.04 185.05 281.121 188.087 279.368C188.683 279.069 189.369 279.009 190.007 279.2V279.2Z" fill="#263238"/>
<path opacity="0.2" d="M201.031 267.919L199.383 276.479L191.295 274.527L192.943 265.959L201.031 267.919Z" fill="black"/>
<path d="M215.087 203.92C224.567 176.032 232.071 143.12 232.071 143.12L205.031 141.408C205.031 141.408 201.031 184.112 198.967 203.808C196.807 224.272 190.095 270.472 190.095 270.472L202.295 272.944C202.295 272.944 213.735 229.44 215.087 203.92Z" fill="#263238"/>
<path opacity="0.2" d="M219.599 158.64L226.159 166.752C224.487 173.016 222.535 180.056 220.391 187.248C219.161 177.763 218.896 168.178 219.599 158.64V158.64Z" fill="#263238"/>
<path d="M190.272 272.207L201.472 274.655C201.695 274.705 201.929 274.67 202.128 274.558C202.327 274.446 202.478 274.264 202.552 274.047L203.784 270.439C203.826 270.317 203.843 270.187 203.832 270.058C203.821 269.929 203.783 269.804 203.72 269.691C203.657 269.578 203.571 269.479 203.468 269.401C203.364 269.323 203.246 269.268 203.12 269.239L190.968 266.399C190.84 266.369 190.707 266.366 190.578 266.391C190.449 266.416 190.327 266.468 190.219 266.544C190.112 266.619 190.022 266.717 189.955 266.83C189.888 266.943 189.846 267.069 189.832 267.199L189.552 271.199C189.526 271.427 189.586 271.655 189.719 271.841C189.852 272.027 190.048 272.158 190.272 272.207V272.207Z" fill="#263238"/>
<path opacity="0.1" d="M190.272 272.207L201.472 274.655C201.695 274.705 201.929 274.67 202.128 274.558C202.327 274.446 202.478 274.264 202.552 274.047L203.784 270.439C203.826 270.317 203.843 270.187 203.832 270.058C203.821 269.929 203.783 269.804 203.72 269.691C203.657 269.578 203.571 269.479 203.468 269.401C203.364 269.323 203.246 269.268 203.12 269.239L190.968 266.399C190.84 266.369 190.707 266.366 190.578 266.391C190.449 266.416 190.327 266.468 190.219 266.544C190.112 266.619 190.022 266.717 189.955 266.83C189.888 266.943 189.846 267.069 189.832 267.199L189.552 271.199C189.526 271.427 189.586 271.655 189.719 271.841C189.852 272.027 190.048 272.158 190.272 272.207V272.207Z" fill="white"/>
<path d="M245.504 267.336L246.008 284.48L237.808 284.368L237.304 267.224L245.504 267.336Z" fill="#7F3E3B"/>
<path d="M237.599 280.847L246.319 280.975C246.46 280.975 246.597 281.027 246.702 281.122C246.807 281.216 246.873 281.347 246.887 281.487L247.591 288.079C247.604 288.246 247.583 288.414 247.527 288.572C247.472 288.73 247.384 288.875 247.27 288.997C247.155 289.119 247.017 289.216 246.862 289.281C246.708 289.346 246.542 289.378 246.375 289.375C243.479 289.287 242.567 289.047 238.911 288.991C234.639 288.919 233.719 289.455 228.711 289.383C225.679 289.335 225.191 286.263 226.487 285.991C229.928 285.304 233.126 283.72 235.759 281.399C236.28 280.988 236.938 280.791 237.599 280.847V280.847Z" fill="#263238"/>
<path opacity="0.2" d="M245.512 267.344L245.768 276.176L237.56 276.064L237.304 267.224L245.512 267.344Z" fill="black"/>
<path d="M243.463 203.352C241.143 174.016 243.103 158.192 239.695 143.624L215.087 142.096C215.087 142.096 222.727 185.216 226.943 204.72C231.159 224.224 235.695 271.6 235.695 271.6L247.791 271.752C247.791 271.752 249.271 226.24 243.463 203.352Z" fill="#263238"/>
<path d="M235.727 273.776L247.175 273.952C247.412 273.954 247.64 273.866 247.814 273.706C247.988 273.545 248.095 273.324 248.111 273.088L248.359 269.312C248.369 269.187 248.353 269.061 248.313 268.943C248.272 268.825 248.208 268.716 248.124 268.623C248.041 268.53 247.939 268.455 247.825 268.403C247.711 268.351 247.588 268.323 247.463 268.32L235.007 267.936C234.868 267.931 234.731 267.957 234.604 268.013C234.477 268.069 234.364 268.152 234.274 268.258C234.184 268.363 234.119 268.487 234.084 268.621C234.049 268.755 234.044 268.896 234.071 269.032L234.871 273.032C234.914 273.232 235.02 273.412 235.175 273.547C235.329 273.681 235.523 273.761 235.727 273.776V273.776Z" fill="#263238"/>
<path opacity="0.1" d="M235.727 273.776L247.175 273.952C247.412 273.954 247.64 273.866 247.814 273.706C247.988 273.545 248.095 273.324 248.111 273.088L248.359 269.312C248.369 269.187 248.353 269.061 248.313 268.943C248.272 268.825 248.208 268.716 248.124 268.623C248.041 268.53 247.939 268.455 247.825 268.403C247.711 268.351 247.588 268.323 247.463 268.32L235.007 267.936C234.868 267.931 234.731 267.957 234.604 268.013C234.477 268.069 234.364 268.152 234.274 268.258C234.184 268.363 234.119 268.487 234.084 268.621C234.049 268.755 234.044 268.896 234.071 269.032L234.871 273.032C234.914 273.232 235.02 273.412 235.175 273.547C235.329 273.681 235.523 273.761 235.727 273.776V273.776Z" fill="white"/>
<path d="M214.295 96.9676C213.351 99.0076 212.367 100.816 211.295 102.68C210.223 104.544 209.095 106.352 207.847 108.128C206.585 109.961 205.206 111.712 203.719 113.368C202.069 115.274 200.134 116.915 197.983 118.232L197.703 118.392C197.225 118.673 196.692 118.85 196.141 118.91C195.589 118.971 195.031 118.914 194.503 118.744C192.943 118.24 191.431 117.672 189.951 117.064C188.471 116.456 187.031 115.784 185.615 115.08C184.199 114.376 182.815 113.632 181.455 112.832C180.095 112.032 178.767 111.232 177.455 110.264C176.985 109.93 176.647 109.444 176.498 108.888C176.348 108.331 176.398 107.741 176.638 107.217C176.878 106.694 177.293 106.27 177.812 106.02C178.33 105.77 178.92 105.709 179.479 105.848H179.567C180.999 106.192 182.479 106.608 183.919 106.984L188.247 108.128C189.679 108.52 191.119 108.848 192.535 109.2C193.951 109.552 195.367 109.824 196.759 110.112L193.311 110.632C194.509 109.638 195.583 108.505 196.511 107.256C197.607 105.848 198.663 104.296 199.711 102.696C200.759 101.096 201.711 99.4236 202.655 97.7276C203.599 96.0316 204.559 94.2796 205.407 92.6636L205.455 92.5756C206.093 91.5136 207.107 90.7307 208.296 90.3829C209.485 90.035 210.761 90.1477 211.871 90.6984C212.981 91.2492 213.842 92.1976 214.284 93.3549C214.726 94.5122 214.715 95.7935 214.255 96.9436L214.295 96.9676Z" fill="#7F3E3B"/>
<path d="M216.264 82.9834C206.712 84.0714 199.464 98.8634 199.464 98.8634L209.32 109.351C209.32 109.351 213.712 104.119 218.432 97.5034C223.584 90.2954 223.824 82.1274 216.264 82.9834Z" fill="#FF0400"/>
<path d="M215.087 85.1997C218.759 83.8957 235.207 85.9997 235.207 85.9997C232.007 90.1277 229.335 124.312 229.039 143.96C225.543 144.44 212.135 143.52 209.039 142.8C209.439 135.088 212.655 98.9117 215.087 85.1997Z" fill="white"/>
<path d="M204.471 95.5674C204.902 92.0125 206.624 88.7399 209.31 86.3713C211.996 84.0027 215.458 82.7031 219.039 82.7194C225.911 82.7743 232.76 83.5303 239.479 84.9754C240.525 85.1969 241.517 85.626 242.395 86.2373C243.272 86.8486 244.018 87.6297 244.589 88.5345C245.16 89.4392 245.543 90.4492 245.716 91.5046C245.89 92.5601 245.85 93.6396 245.599 94.6794C240.535 115.919 241.871 136.071 240.519 145.447C235.699 147.22 230.579 148.035 225.447 147.847C225.447 147.847 225.567 139.759 226.695 126.103C227.591 115.247 229.199 89.7194 232.511 85.4794C232.511 85.4794 220.639 83.8794 216.967 85.1674C214.239 100.567 212.239 147.215 212.239 147.223C206.431 146.807 203.695 143.575 203.783 142.615C202.607 123.743 203.199 106.631 204.471 95.5674Z" fill="#FF0400"/>
<path d="M232.936 71.9438C231.824 75.1438 230.536 80.8159 232.592 83.9999C232.696 84.1478 232.767 84.317 232.798 84.4953C232.829 84.6736 232.82 84.8566 232.771 85.031C232.723 85.2055 232.637 85.3671 232.519 85.5042C232.401 85.6413 232.254 85.7504 232.088 85.8239C228.783 87.7301 224.964 88.5526 221.168 88.1759C216.008 87.7599 216.368 85.4318 217.696 83.9198C218.01 83.5707 218.444 83.3534 218.912 83.3119C223.784 82.7279 223.832 79.7919 223.128 76.9119L232.936 71.9438Z" fill="#7F3E3B"/>
<path opacity="0.2" d="M228.936 73.9834L223.136 76.9354C223.319 77.6172 223.424 78.3178 223.448 79.0234C225.56 79.0234 228.552 77.6074 228.896 75.9834C229.073 75.33 229.086 74.6433 228.936 73.9834V73.9834Z" fill="black"/>
<path d="M225.2 60.8208C225.418 57.935 223.849 55.4637 221.694 55.301C219.54 55.1382 217.617 57.3457 217.399 60.2314C217.181 63.1172 218.75 65.5885 220.905 65.7512C223.059 65.914 224.982 63.7065 225.2 60.8208Z" fill="#263238"/>
<path d="M236.071 63.1996C234.999 69.5116 234.687 73.2636 231.183 76.1996C225.911 80.6076 218.511 76.8796 217.711 70.3756C216.983 64.5276 218.855 55.1756 225.239 53.2876C231.623 51.3996 237.143 56.8796 236.071 63.1996Z" fill="#7F3E3B"/>
<path d="M234.695 68.5357C234.615 68.5357 234.519 68.4317 234.431 68.4797C231.567 70.0797 230.639 66.6397 230.815 64.3517C230.874 63.5884 231.093 62.8461 231.459 62.1734C231.824 61.5006 232.327 60.9126 232.935 60.4477C229.831 60.7997 226.823 58.7997 226.775 56.9357C223.343 58.4477 219.207 58.5357 217.343 55.3357C215.479 52.1357 218.143 47.9517 221.695 49.0637C220.255 46.4877 226.343 41.3357 232.719 48.9357C232.919 43.4237 241.831 48.9357 240.367 54.3517C244.495 55.7757 248.031 63.6157 241.031 65.2877C240.567 72.5517 234.695 68.5357 234.695 68.5357Z" fill="#263238"/>
<path d="M238.071 70.5196C237.102 71.7085 235.719 72.4861 234.199 72.6956C232.279 72.9116 231.855 70.9596 232.839 69.1836C233.727 67.5836 235.791 65.5516 237.503 66.1756C239.215 66.7996 239.319 68.9996 238.071 70.5196Z" fill="#7F3E3B"/>
<path d="M226.919 63.6718C226.871 64.1998 226.559 64.5918 226.215 64.5598C225.871 64.5278 225.631 64.0798 225.679 63.5518C225.727 63.0238 226.039 62.6398 226.383 62.6718C226.727 62.7038 226.959 63.1518 226.919 63.6718Z" fill="#263238"/>
<path d="M220.72 62.9839C220.672 63.5039 220.36 63.8959 220.016 63.8639C219.672 63.8319 219.44 63.3839 219.48 62.8639C219.52 62.3439 219.84 61.9439 220.184 61.9759C220.528 62.0079 220.8 62.4559 220.72 62.9839Z" fill="#263238"/>
<path d="M223.144 63.2798C222.38 64.8135 221.408 66.2348 220.256 67.5038C220.588 67.7931 220.979 68.0066 221.402 68.1296C221.825 68.2525 222.269 68.282 222.704 68.2158L223.144 63.2798Z" fill="#630F0F"/>
<path d="M224.32 70.7599C224.901 70.8006 225.484 70.7231 226.034 70.5319C226.584 70.3408 227.089 70.04 227.52 69.6479C227.534 69.6332 227.545 69.6158 227.553 69.5968C227.56 69.5778 227.564 69.5575 227.563 69.537C227.563 69.5166 227.559 69.4965 227.55 69.4777C227.542 69.459 227.53 69.4421 227.516 69.4279C227.501 69.4137 227.484 69.4025 227.465 69.3951C227.446 69.3876 227.425 69.3839 227.405 69.3843C227.384 69.3847 227.364 69.3891 227.346 69.3972C227.327 69.4054 227.31 69.4172 227.296 69.4319C226.808 69.8629 226.226 70.1725 225.596 70.3352C224.966 70.4978 224.307 70.5091 223.672 70.3679C223.652 70.3632 223.632 70.3627 223.612 70.3663C223.592 70.37 223.574 70.3777 223.557 70.389C223.541 70.4003 223.527 70.4149 223.516 70.4319C223.505 70.449 223.499 70.468 223.496 70.4879C223.488 70.5281 223.497 70.5695 223.519 70.6037C223.541 70.6379 223.576 70.6623 223.616 70.6719C223.872 70.7119 224.096 70.7439 224.32 70.7599Z" fill="#263238"/>
<path d="M228.968 62.3994C229.018 62.4111 229.07 62.4111 229.12 62.3994C229.157 62.383 229.19 62.3594 229.218 62.3299C229.246 62.3003 229.268 62.2655 229.282 62.2275C229.296 62.1895 229.302 62.149 229.301 62.1085C229.299 62.0679 229.289 62.0281 229.272 61.9914C229.084 61.5388 228.792 61.137 228.419 60.8186C228.047 60.5003 227.604 60.2744 227.128 60.1594C227.047 60.1478 226.965 60.1681 226.9 60.2159C226.834 60.2637 226.789 60.3353 226.776 60.4154C226.764 60.4959 226.784 60.5777 226.832 60.6435C226.88 60.7092 226.952 60.7537 227.032 60.7674V60.7674C227.407 60.8643 227.755 61.0479 228.047 61.3036C228.339 61.5592 228.566 61.8798 228.712 62.2394C228.738 62.2847 228.776 62.3228 228.82 62.3507C228.865 62.3785 228.915 62.3952 228.968 62.3994Z" fill="#263238"/>
<path d="M218.119 60.4319C218.169 60.4451 218.221 60.4462 218.271 60.4351C218.321 60.4239 218.368 60.4009 218.407 60.3679C218.692 60.1096 219.034 59.9221 219.405 59.8206C219.777 59.7191 220.166 59.7066 220.543 59.7839C220.621 59.8061 220.704 59.7967 220.774 59.7577C220.845 59.7187 220.897 59.6533 220.919 59.5759C220.942 59.4974 220.933 59.4132 220.894 59.3415C220.855 59.2697 220.789 59.216 220.711 59.1919C220.235 59.0835 219.74 59.0916 219.268 59.2156C218.796 59.3396 218.361 59.5757 217.999 59.9039C217.971 59.9322 217.948 59.9658 217.933 60.0029C217.917 60.04 217.909 60.0797 217.909 60.1199C217.909 60.1601 217.917 60.1999 217.933 60.2369C217.948 60.274 217.971 60.3076 217.999 60.3359C218.03 60.3782 218.071 60.4114 218.119 60.4319V60.4319Z" fill="#263238"/>
<path d="M247.503 94.2478C248.023 95.2638 248.447 96.1438 248.863 97.0958C249.279 98.0478 249.663 98.9678 250.079 99.9118C250.879 101.8 251.575 103.72 252.231 105.664C253.565 109.596 254.587 113.627 255.287 117.72L255.503 119.32L255.615 120.12V120.312V120.664C255.615 120.92 255.655 121.176 255.655 121.464C255.624 122.922 255.334 124.363 254.799 125.72C254.003 127.792 252.989 129.773 251.775 131.632C250.674 133.371 249.48 135.051 248.199 136.664C246.944 138.269 245.609 139.809 244.199 141.28C243.794 141.709 243.248 141.978 242.661 142.039C242.074 142.099 241.485 141.947 241.001 141.61C240.516 141.273 240.169 140.773 240.022 140.202C239.875 139.63 239.938 139.025 240.199 138.496V138.432C241.855 134.984 243.607 131.496 244.999 128.096C245.359 127.248 245.679 126.4 245.959 125.576C246.238 124.806 246.47 124.021 246.655 123.224C246.785 122.728 246.831 122.214 246.791 121.704C246.791 121.704 246.791 121.752 246.791 121.704L246.751 121.544L246.599 120.88L246.303 119.56C245.38 115.977 244.25 112.451 242.919 109C242.279 107.24 241.551 105.504 240.847 103.76C240.495 102.896 240.119 102.032 239.743 101.176L238.623 98.6798L238.559 98.5358C237.997 97.3582 237.926 96.0055 238.361 94.7753C238.796 93.545 239.702 92.538 240.879 91.9758C242.057 91.4135 243.41 91.3421 244.64 91.7771C245.87 92.2122 246.877 93.1182 247.439 94.2958L247.503 94.2478Z" fill="#7F3E3B"/>
<path d="M240.303 85.1995C250.959 87.8875 253.903 101.511 253.903 101.511L240.671 110.999C240.671 110.999 237.391 107.567 236.399 99.5035C235.943 95.6555 238.143 85.0955 240.303 85.1995Z" fill="#FF0400"/>
<path d="M241.943 136.8L235.783 139.104L240.503 145.424C240.503 145.424 245.823 142.664 244.815 139.6L241.943 136.8Z" fill="#7F3E3B"/>
<path d="M231.199 140C229.54 139.721 227.837 139.875 226.255 140.448L229.311 122.288C229.548 120.87 229.212 119.416 228.378 118.245C227.545 117.074 226.281 116.281 224.863 116.04L171.743 107.096C170.328 106.862 168.877 107.197 167.708 108.029C166.539 108.861 165.746 110.122 165.503 111.536L162.399 129.736C163.98 129.156 165.685 129.001 167.343 129.288C168.818 129.535 170.217 130.118 171.432 130.991C172.646 131.864 173.644 133.004 174.349 134.323C175.054 135.642 175.446 137.105 175.496 138.6C175.547 140.095 175.253 141.581 174.639 142.945C174.025 144.309 173.105 145.513 171.952 146.466C170.799 147.418 169.443 148.094 167.988 148.44C166.533 148.786 165.018 148.793 163.559 148.462C162.101 148.13 160.738 147.469 159.575 146.528L156.511 164.688C156.275 166.106 156.611 167.56 157.444 168.731C158.278 169.902 159.542 170.695 160.959 170.936L214.079 179.88C215.496 180.114 216.948 179.779 218.118 178.947C219.289 178.115 220.083 176.855 220.327 175.44L223.383 157.272C224.547 158.198 225.907 158.846 227.36 159.167C228.812 159.488 230.318 159.474 231.764 159.125C233.21 158.775 234.557 158.101 235.703 157.153C236.849 156.204 237.763 155.007 238.376 153.652C238.99 152.297 239.285 150.82 239.242 149.333C239.198 147.846 238.815 146.389 238.123 145.073C237.431 143.756 236.447 142.615 235.248 141.736C234.048 140.857 232.663 140.263 231.199 140Z" fill="#FF0400"/>
<path opacity="0.6" d="M231.199 140C229.54 139.721 227.837 139.875 226.255 140.448L229.311 122.288C229.548 120.87 229.212 119.416 228.378 118.245C227.545 117.074 226.281 116.281 224.863 116.04L171.743 107.096C170.328 106.862 168.877 107.197 167.708 108.029C166.539 108.861 165.746 110.122 165.503 111.536L162.399 129.736C163.98 129.156 165.685 129.001 167.343 129.288C168.818 129.535 170.217 130.118 171.432 130.991C172.646 131.864 173.644 133.004 174.349 134.323C175.054 135.642 175.446 137.105 175.496 138.6C175.547 140.095 175.253 141.581 174.639 142.945C174.025 144.309 173.105 145.513 171.952 146.466C170.799 147.418 169.443 148.094 167.988 148.44C166.533 148.786 165.018 148.793 163.559 148.462C162.101 148.13 160.738 147.469 159.575 146.528L156.511 164.688C156.275 166.106 156.611 167.56 157.444 168.731C158.278 169.902 159.542 170.695 160.959 170.936L214.079 179.88C215.496 180.114 216.948 179.779 218.118 178.947C219.289 178.115 220.083 176.855 220.327 175.44L223.383 157.272C224.547 158.198 225.907 158.846 227.36 159.167C228.812 159.488 230.318 159.474 231.764 159.125C233.21 158.775 234.557 158.101 235.703 157.153C236.849 156.204 237.763 155.007 238.376 153.652C238.99 152.297 239.285 150.82 239.242 149.333C239.198 147.846 238.815 146.389 238.123 145.073C237.431 143.756 236.447 142.615 235.248 141.736C234.048 140.857 232.663 140.263 231.199 140Z" fill="white"/>
<path d="M232.904 145.311L234.928 147.247C235.317 147.622 235.828 147.846 236.367 147.878C236.907 147.91 237.44 147.749 237.872 147.423L240.504 145.447L235.784 139.127L232.864 142.055C232.649 142.27 232.479 142.525 232.364 142.806C232.25 143.087 232.193 143.388 232.196 143.692C232.2 143.995 232.265 144.295 232.386 144.573C232.508 144.851 232.684 145.102 232.904 145.311V145.311Z" fill="#7F3E3B"/>
<path d="M173.599 108.799L174.335 106.071C174.458 105.751 174.679 105.476 174.966 105.287C175.253 105.098 175.592 105.003 175.935 105.015V105.015C176.977 104.973 178.018 105.133 178.999 105.487L183.159 107.023L182.959 108.719C182.791 110.175 181.167 111.391 179.327 111.447C178.092 111.464 176.859 111.332 175.655 111.055L175.207 110.959C174.952 110.941 174.704 110.869 174.48 110.746C174.255 110.623 174.06 110.453 173.908 110.248C173.755 110.043 173.648 109.808 173.595 109.558C173.542 109.308 173.543 109.049 173.599 108.799V108.799Z" fill="#7F3E3B"/>
<path d="M108.072 71.1438C110.736 68.0478 114.744 60.0078 107.208 56.9358C101.648 54.6638 89.8478 55.8238 83.0718 66.3758C78.4398 67.9758 77.0718 78.2798 87.7678 80.4478C98.4638 82.6158 108.072 71.1438 108.072 71.1438Z" fill="#263238"/>
<path d="M132.24 269.664L120.016 270.68L122.088 285.048L132.304 284.216L132.24 269.664Z" fill="#FFC3BD"/>
<path opacity="0.2" d="M132.24 269.672L120.008 270.688L121.176 278.736L132.28 277.816L132.24 269.672Z" fill="black"/>
<path d="M108.872 227.368C104.072 208.968 91.6395 187.064 99.5195 169.36L133.768 169.256C133.768 169.256 134.616 205.696 134.856 222.856C135.096 240.8 133.6 274.56 133.6 274.56L119.592 275.624C119.592 275.624 109.992 248 108.872 227.368Z" fill="#FF0400"/>
<path d="M118.896 276.176L134.032 275.064C134.161 275.053 134.282 274.996 134.373 274.904C134.464 274.811 134.519 274.689 134.528 274.56L134.848 268.96C134.853 268.882 134.841 268.804 134.813 268.732C134.785 268.659 134.74 268.594 134.684 268.54C134.627 268.487 134.56 268.447 134.486 268.422C134.412 268.398 134.333 268.39 134.256 268.4L117.456 270.632C117.38 270.64 117.306 270.665 117.24 270.706C117.175 270.746 117.119 270.8 117.077 270.864C117.035 270.928 117.008 271.001 116.997 271.077C116.987 271.153 116.993 271.231 117.016 271.304L118.344 275.8C118.381 275.915 118.455 276.015 118.555 276.083C118.655 276.151 118.775 276.184 118.896 276.176V276.176Z" fill="#263238"/>
<path opacity="0.2" d="M99.3992 186.776C99.2665 191.121 99.4429 195.471 99.9272 199.792C101.599 205.576 103.735 211.368 105.655 216.984C108.167 201.08 108.175 182.544 99.3992 186.776Z" fill="black"/>
<path d="M86.9921 270.56L74.7201 270.68L74.7041 285.16L84.9601 285.08L86.9921 270.56Z" fill="#FFC3BD"/>
<path d="M73.7353 282.936C73.7473 282.855 73.7761 282.778 73.8198 282.709C73.8635 282.64 73.9211 282.581 73.9889 282.536C74.0567 282.491 74.1332 282.46 74.2136 282.447C74.2939 282.433 74.3762 282.436 74.4553 282.456C77.5353 283.68 83.3753 282.744 85.5833 282.32C85.827 282.269 86.0784 282.27 86.322 282.321C86.5656 282.372 86.7961 282.472 86.9993 282.616C88.8054 283.774 90.7624 284.679 92.8153 285.304C93.2557 286.481 93.3663 287.756 93.1353 288.992H72.4473C73.031 287.009 73.4616 284.984 73.7353 282.936V282.936Z" fill="#263238"/>
<path d="M120.735 282.936C120.747 282.855 120.776 282.778 120.82 282.709C120.863 282.64 120.921 282.581 120.989 282.536C121.057 282.491 121.133 282.46 121.214 282.447C121.294 282.433 121.376 282.436 121.455 282.456C124.535 283.68 130.375 282.744 132.583 282.32C132.827 282.269 133.078 282.27 133.322 282.321C133.566 282.372 133.796 282.472 133.999 282.616C136.351 284.28 142.623 285.304 142.623 285.304C143.064 286.481 143.172 287.757 142.935 288.992H119.447C120.031 287.009 120.462 284.984 120.735 282.936V282.936Z" fill="#263238"/>
<path opacity="0.2" d="M86.9921 270.568L74.7121 270.68L74.7041 278.792L85.8561 278.696L86.9921 270.568Z" fill="black"/>
<path d="M72.9923 221.416C71.3283 202.832 66.1123 177.8 72.0323 169.256H112.112C112.112 169.256 103.944 206.312 100.592 223.464C97.1123 241.296 87.1043 275.536 87.1043 275.536L73.8323 275.576C73.8323 275.576 68.8003 242.632 72.9923 221.416Z" fill="#FF0400"/>
<path opacity="0.2" d="M75.4003 271.776C75.3141 271.775 75.2305 271.746 75.1615 271.695C75.0925 271.643 75.0416 271.571 75.0163 271.488C74.0643 268.288 74.2163 231.528 76.6163 221.464C76.6163 220.136 76.3363 217.528 76.0163 214.224C74.9203 203.024 72.8883 182.224 75.9203 170.424C75.9468 170.318 76.0144 170.227 76.1082 170.171C76.2019 170.114 76.3142 170.098 76.4203 170.124C76.5264 170.151 76.6176 170.218 76.6738 170.312C76.7301 170.406 76.7468 170.518 76.7203 170.624C73.7203 182.296 75.7443 203.016 76.8323 214.152C77.1603 217.512 77.4243 220.16 77.4403 221.504C77.4443 221.539 77.4443 221.574 77.4403 221.608C75.1363 231.128 74.9123 268.168 75.8403 271.264C75.8703 271.365 75.8595 271.473 75.81 271.566C75.7606 271.659 75.6767 271.729 75.5763 271.76C75.5204 271.782 75.4593 271.788 75.4003 271.776Z" fill="white"/>
<path d="M72.9108 276.072H87.9428C88.063 276.075 88.1803 276.035 88.273 275.958C88.3657 275.882 88.4275 275.774 88.4468 275.656L89.4388 270.32C89.4531 270.239 89.4492 270.156 89.4275 270.077C89.4057 269.998 89.3666 269.925 89.3129 269.862C89.2593 269.8 89.1925 269.751 89.1174 269.718C89.0423 269.685 88.9608 269.669 88.8788 269.672L72.5108 270.4C72.4417 270.402 72.3738 270.418 72.3112 270.447C72.2486 270.476 72.1927 270.518 72.1469 270.57C72.1011 270.621 72.0665 270.682 72.0452 270.748C72.0238 270.813 72.0162 270.883 72.0228 270.952L72.3588 275.56C72.3707 275.698 72.4339 275.828 72.5359 275.922C72.638 276.017 72.7716 276.07 72.9108 276.072V276.072Z" fill="#263238"/>
<path d="M125.728 104.528C126.528 107.728 127.264 110.928 127.976 114.128C128.688 117.328 129.36 120.528 129.984 123.728L130.944 128.528L131.84 133.328C132.456 136.528 133 139.776 133.56 143.008L132.256 140.088C132.431 140.686 132.807 141.206 133.32 141.56C134.344 142.251 135.499 142.728 136.712 142.96C138.331 143.333 139.981 143.55 141.64 143.608C142.528 143.656 143.44 143.688 144.36 143.672C144.816 143.672 145.28 143.672 145.744 143.672C146.208 143.672 146.712 143.672 147.032 143.672L148.168 143.752C149.124 143.813 150.034 144.183 150.761 144.807C151.488 145.431 151.993 146.274 152.198 147.209C152.404 148.145 152.3 149.122 151.903 149.993C151.505 150.864 150.834 151.583 149.992 152.04C149.352 152.392 148.896 152.656 148.352 152.936C147.808 153.216 147.304 153.456 146.752 153.736C145.68 154.2 144.584 154.64 143.448 155.008C142.296 155.385 141.123 155.7 139.936 155.952C138.686 156.201 137.423 156.377 136.152 156.48C134.78 156.577 133.401 156.556 132.032 156.416C130.511 156.288 129.011 155.971 127.568 155.472C125.95 154.932 124.413 154.173 123 153.216C121.511 152.184 120.184 150.936 119.064 149.512C118.581 148.911 118.222 148.22 118.008 147.48L117.76 146.592C116.88 143.44 115.976 140.296 115.144 137.128L113.872 132.392L112.664 127.64C111.864 124.44 111.064 121.288 110.336 118.104C109.608 114.92 108.88 111.704 108.248 108.504C107.796 106.214 108.254 103.838 109.527 101.881C110.799 99.924 112.785 98.5409 115.061 98.026C117.338 97.511 119.726 97.9048 121.717 99.1236C123.707 100.342 125.144 102.29 125.72 104.552L125.728 104.528Z" fill="#FFC3BD"/>
<path d="M146.471 144.464L146.639 149.632C148.727 154.648 154.711 150.84 154.711 150.84L158.327 150.176C158.956 150.015 159.509 149.638 159.887 149.109C160.264 148.58 160.443 147.935 160.391 147.288L160.295 143.672C160.319 142.925 160.051 142.199 159.547 141.648C159.043 141.096 158.344 140.763 157.599 140.72L154.399 140.784C153.465 140.8 152.55 141.047 151.735 141.504L146.471 144.464Z" fill="#FFC3BD"/>
<path d="M119.6 95.6157C126.96 99.4877 131.768 113.152 131.768 113.152C130.216 119.552 123.96 131.224 118.168 131.152C118.168 131.152 109.664 120.184 108.744 112.248C107.624 102.656 104.72 87.7917 119.6 95.6157Z" fill="#263238"/>
<path d="M112.799 93.344C101.44 92.2641 89.9972 92.4466 78.6789 93.888C72.1349 94.808 67.4789 98.88 68.2789 112.288C69.8789 139.488 67.3989 160.688 70.8549 170.464C70.8549 170.464 121.191 184.864 135.543 171.064C139.031 138.336 127.287 111.168 121.943 99.864C121.106 98.0841 119.825 96.5495 118.224 95.4076C116.623 94.2658 114.754 93.5551 112.799 93.344V93.344Z" fill="#263238"/>
<path d="M109.016 96.3198C107.712 95.0398 106.344 95.7839 105.712 93.8559C105.433 92.3423 105.688 90.7789 106.432 89.4318L90.9038 81.0479C91.2078 86.7599 91.4398 91.2718 88.9038 93.5438C88.1678 97.7998 96.1038 102.048 106.672 102.112C113.4 102.152 110.896 98.1598 109.016 96.3198Z" fill="#FFC3BD"/>
<path opacity="0.2" d="M106.201 89.9117L93.9448 86.8477C97.0408 91.7197 102.617 94.3837 105.617 93.2077C105.531 92.0773 105.732 90.9437 106.201 89.9117V89.9117Z" fill="black"/>
<path d="M101.127 61.9598C93.0146 60.1598 86.0066 66.8958 87.5746 74.2398C89.1426 81.5838 90.3826 86.5438 95.4626 89.0398C105.559 94.0158 110.487 89.2158 111.311 81.5438C112.055 74.6318 109.359 63.7758 101.127 61.9598Z" fill="#FFC3BD"/>
<path opacity="0.2" d="M99.5355 75C98.5823 74.7614 97.5735 74.908 96.7275 75.408C97.6813 75.4583 98.6356 75.3197 99.5355 75V75Z" fill="black"/>
<path opacity="0.2" d="M99.5924 75.6796C99.144 75.6586 98.6966 75.7366 98.2818 75.908C97.867 76.0795 97.495 76.3402 97.1924 76.6716C98.0549 76.5191 98.8739 76.1806 99.5924 75.6796V75.6796Z" fill="black"/>
<path d="M88.6004 80.4479C93.1364 81.4639 95.0004 79.1919 95.0004 76.6479C95.0004 73.9439 92.4484 69.3759 89.6484 68.5359C90.6484 62.5359 107.184 70.9359 105.608 62.6239C105.608 62.6239 105.16 61.1999 100.888 60.3999C96.6165 59.5999 85.2004 62.1759 86.0004 70.7119C86.8004 79.2479 88.6004 80.4479 88.6004 80.4479Z" fill="#263238"/>
<path d="M82.8242 66.8001C83.9346 64.5722 84.248 62.031 83.7122 59.6001C83.7122 59.6001 88.6882 62.8881 82.8242 66.8001Z" fill="#263238"/>
<path d="M103.688 82.7278C104.027 82.7022 104.364 82.6514 104.696 82.5758C104.722 82.5701 104.746 82.5594 104.768 82.5442C104.789 82.529 104.808 82.5097 104.822 82.4874C104.836 82.4651 104.846 82.4402 104.85 82.4142C104.854 82.3882 104.854 82.3615 104.848 82.3358C104.843 82.3094 104.833 82.2843 104.818 82.2621C104.803 82.2399 104.784 82.221 104.761 82.2067C104.739 82.1924 104.714 82.1829 104.687 82.179C104.661 82.175 104.634 82.1767 104.608 82.1838C103.777 82.3864 102.91 82.3922 102.077 82.2005C101.244 82.0088 100.467 81.625 99.8078 81.0798C99.7892 81.0604 99.7668 81.045 99.7421 81.0345C99.7173 81.024 99.6907 81.0186 99.6638 81.0186C99.6369 81.0186 99.6103 81.024 99.5856 81.0345C99.5608 81.045 99.5385 81.0604 99.5198 81.0798C99.4827 81.1185 99.4619 81.1701 99.4619 81.2238C99.4619 81.2774 99.4827 81.329 99.5198 81.3678C100.09 81.8593 100.752 82.2326 101.467 82.4661C102.183 82.6996 102.938 82.7885 103.688 82.7278Z" fill="#263238"/>
<path d="M85.7276 80.7999C86.2468 81.5037 86.8999 82.0978 87.6496 82.5481C88.3992 82.9985 89.2305 83.2961 90.0956 83.4239C92.4236 83.7439 93.2956 81.5919 92.3996 79.5599C91.5996 77.7279 89.4236 75.3599 87.2156 75.9679C85.0076 76.5759 84.4636 79.0479 85.7276 80.7999Z" fill="#FFC3BD"/>
<path d="M100.856 75.0799C100.952 75.7279 101.368 76.2079 101.792 76.1439C102.216 76.0799 102.488 75.4959 102.392 74.8479C102.296 74.1999 101.888 73.7279 101.464 73.7919C101.04 73.8559 100.8 74.3999 100.856 75.0799Z" fill="#263238"/>
<path d="M108.479 74.0559C108.575 74.7119 108.991 75.1839 109.415 75.1199C109.839 75.0559 110.111 74.4799 110.015 73.8319C109.919 73.1839 109.511 72.7039 109.087 72.7679C108.663 72.8319 108.391 73.4079 108.479 74.0559Z" fill="#263238"/>
<path d="M105.601 74.9116L105.969 80.3996C105.969 80.3996 107.769 80.7116 108.745 79.6716C108.125 77.8402 107.042 76.2003 105.601 74.9116V74.9116Z" fill="#ED847E"/>
<path d="M98.3429 73.5996C98.2774 73.6175 98.2083 73.6172 98.1429 73.5989C98.0775 73.5807 98.0183 73.545 97.9716 73.4958C97.9248 73.4466 97.8922 73.3856 97.8773 73.3194C97.8624 73.2532 97.8657 73.1841 97.8869 73.1196C98.039 72.5249 98.3301 71.9748 98.7362 71.5145C99.1423 71.0542 99.6518 70.6968 100.223 70.4716C100.319 70.4414 100.424 70.4505 100.514 70.4969C100.604 70.5434 100.672 70.6234 100.703 70.7196C100.733 70.8173 100.725 70.9229 100.678 71.0141C100.632 71.1053 100.552 71.1747 100.455 71.2076V71.2076C100.004 71.3915 99.603 71.6795 99.2846 72.0479C98.9662 72.4163 98.7395 72.8549 98.6229 73.3276C98.6048 73.3939 98.5693 73.454 98.52 73.5019C98.4708 73.5497 98.4096 73.5835 98.3429 73.5996V73.5996Z" fill="#263238"/>
<path d="M110.983 71.1438C110.919 71.1496 110.856 71.1387 110.798 71.112C110.741 71.0853 110.691 71.0438 110.655 70.9918C110.381 70.5944 110.015 70.2686 109.589 70.0417C109.163 69.8148 108.689 69.6934 108.207 69.6878C108.101 69.6878 107.999 69.6457 107.924 69.5707C107.849 69.4956 107.807 69.3939 107.807 69.2878C107.807 69.1817 107.849 69.08 107.924 69.005C107.999 68.93 108.101 68.8878 108.207 68.8878C108.816 68.8829 109.418 69.026 109.96 69.3047C110.502 69.5833 110.968 69.9893 111.319 70.4878C111.348 70.5288 111.369 70.5752 111.381 70.6243C111.392 70.6734 111.394 70.7243 111.386 70.774C111.378 70.8238 111.36 70.8715 111.333 70.9144C111.306 70.9572 111.272 70.9944 111.231 71.0238C111.2 71.0598 111.162 71.0891 111.119 71.1097C111.076 71.1304 111.03 71.142 110.983 71.1438V71.1438Z" fill="#263238"/>
<path d="M157.6 123.464C155.926 123.582 154.31 124.133 152.912 125.064L151.464 106.664C151.346 105.233 150.666 103.906 149.574 102.974C148.481 102.042 147.065 101.58 145.632 101.688L91.9285 105.92C90.498 106.04 89.1728 106.72 88.2411 107.813C87.3093 108.905 86.8462 110.32 86.9525 111.752L91.1924 165.456C91.3068 166.889 91.9852 168.218 93.0787 169.151C94.1722 170.084 95.5914 170.545 97.0245 170.432L150.72 166.192C152.153 166.075 153.482 165.397 154.415 164.304C155.349 163.211 155.813 161.793 155.704 160.36L154.248 142C155.773 142.714 157.458 143.018 159.136 142.88C161.547 142.474 163.718 141.18 165.221 139.253C166.725 137.326 167.452 134.905 167.259 132.469C167.067 130.032 165.968 127.756 164.18 126.089C162.392 124.422 160.045 123.486 157.6 123.464V123.464Z" fill="#FF0400"/>
<path d="M79.728 116.12L78.928 117.592L78.008 119.24C77.416 120.36 76.808 121.48 76.256 122.616C75.1467 124.83 74.1534 127.099 73.28 129.416C72.856 130.536 72.48 131.648 72.2 132.744C71.8806 133.793 71.6294 134.862 71.448 135.944C71.1123 137.684 71.0556 139.466 71.28 141.224L69.44 138.024C70.2061 139.075 71.1194 140.01 72.152 140.8C73.5093 141.883 74.9334 142.88 76.416 143.784C77.96 144.776 79.616 145.728 81.28 146.68L83.824 148.096C84.624 148.576 85.584 149.056 86.344 149.52L86.728 149.752C87.5773 150.267 88.2338 151.046 88.5964 151.971C88.959 152.895 89.0077 153.913 88.7349 154.868C88.4621 155.823 87.8829 156.662 87.0866 157.255C86.2903 157.849 85.321 158.164 84.328 158.152C83.112 158.152 82.072 158.072 80.952 157.984C79.832 157.896 78.768 157.76 77.68 157.584C75.4687 157.252 73.2805 156.782 71.128 156.176C68.85 155.538 66.629 154.711 64.488 153.704C61.9571 152.538 59.6312 150.972 57.6 149.064C56.8691 148.367 56.3199 147.502 56 146.544L55.776 145.856C54.5233 142.056 54.0552 138.042 54.4 134.056C54.6718 130.584 55.3374 127.154 56.384 123.832C57.3586 120.711 58.5674 117.667 60 114.728C60.696 113.288 61.408 111.864 62.208 110.48C62.6 109.784 63.008 109.088 63.424 108.4L64.08 107.36L64.424 106.832L64.84 106.216C66.1252 104.271 68.1183 102.905 70.3956 102.406C72.6728 101.908 75.0545 102.318 77.0343 103.549C79.014 104.779 80.4357 106.734 80.997 108.996C81.5583 111.259 81.215 113.651 80.04 115.664L79.728 116.12Z" fill="#FFC3BD"/>
<path d="M73.4785 95.6159C60.2145 102.704 55.2705 118.536 55.2705 118.536C57.8945 123.536 73.7185 128.936 79.6705 127.464C79.6705 127.464 85.3745 117.064 86.5505 107.768C87.6385 99.1519 81.2465 91.4639 73.4785 95.6159Z" fill="#263238"/>
<path d="M82.7588 150.4L83.0308 155.568C85.2228 160.544 91.1268 156.616 91.1268 156.616L94.7348 155.88C95.3607 155.707 95.9051 155.318 96.2713 154.782C96.6374 154.246 96.8017 153.598 96.7348 152.952L96.5748 149.344C96.5945 148.593 96.319 147.864 95.8075 147.314C95.2961 146.763 94.5893 146.435 93.8388 146.4L90.6388 146.528C89.7034 146.571 88.7934 146.846 87.9908 147.328L82.7588 150.4Z" fill="#FFC3BD"/>
</svg>
