<svg width="350" height="261" viewBox="0 0 350 261" fill="none" xmlns="http://www.w3.org/2000/svg">
<path d="M175 260.792C249.958 260.792 310.723 257.244 310.723 252.868C310.723 248.492 249.958 244.944 175 244.944C100.043 244.944 39.2773 248.492 39.2773 252.868C39.2773 257.244 100.043 260.792 175 260.792Z" fill="#F5F5F5"/>
<path d="M127.617 182.868H187.95C185.85 178.29 182.021 175.483 177.891 175.483H130.991L127.617 182.868Z" fill="#FF0400"/>
<path d="M117.452 182.868H141.616C139.516 178.29 135.687 175.483 131.55 175.483H122.996C118.866 175.483 116.815 177.87 117.452 182.868V182.868Z" fill="#FF0400"/>
<path opacity="0.5" d="M117.452 182.868H141.616C139.516 178.29 135.687 175.483 131.55 175.483H122.996C118.866 175.483 116.815 177.87 117.452 182.868V182.868Z" fill="#263238"/>
<path d="M160.013 246.75H154.777V182.868H149.03V246.75H143.794L138.152 251.972H149.03H154.777H165.655L160.013 246.75Z" fill="#FF0400"/>
<path opacity="0.7" d="M160.013 246.75H154.777V182.868H149.03V246.75H143.794L138.152 251.972H149.03H154.777H165.655L160.013 246.75Z" fill="white"/>
<path opacity="0.5" d="M154.776 182.868H149.029V185.01H154.776V182.868Z" fill="#FF0400"/>
<path d="M192.296 244.965L198.575 243.376L197.084 228.312L190.805 229.901L192.296 244.965Z" fill="#B55B52"/>
<path d="M198.849 240.597L191.639 241.5C191.578 241.505 191.519 241.522 191.465 241.551C191.411 241.579 191.363 241.617 191.324 241.664C191.285 241.711 191.255 241.765 191.237 241.824C191.219 241.882 191.213 241.943 191.219 242.004L191.604 247.751C191.642 248.051 191.798 248.324 192.036 248.51C192.275 248.696 192.577 248.78 192.878 248.745C195.377 248.381 196.378 248.108 199.542 247.471C202.611 246.886 205.648 246.145 208.642 245.252C211.155 244.405 210.28 241.864 209.111 242.004C206.346 242.333 201.992 242.004 200.011 240.821C199.658 240.622 199.25 240.544 198.849 240.597V240.597Z" fill="#263238"/>
<path opacity="0.2" d="M190.805 229.908L197.091 228.319L197.805 235.571L191.498 236.943L190.805 229.908Z" fill="black"/>
<path d="M149.8 154.378C149.8 154.378 196.329 152.817 196.483 171.374C196.7 198.037 199.598 231.14 199.598 231.14L187.88 232.876C187.88 232.876 179.9 201.103 180.047 180.285C166.964 176.589 132.986 178.997 128.982 168.154C125.713 159.278 127.421 154.378 127.421 154.378H149.8Z" fill="#263238"/>
<path opacity="0.3" d="M168.874 160.097C168.874 160.097 167.474 170.709 172.311 178.892C174.923 179.162 177.511 179.63 180.053 180.292C180.049 182.314 180.157 184.336 180.375 186.347C188.159 174.734 181.789 161.56 168.874 160.097Z" fill="black"/>
<path d="M186.968 235.956L200.541 233.401L200.765 228.137L185.701 230.79L186.968 235.956Z" fill="#FF0400"/>
<path d="M201.264 241.423C200.687 241.486 200.105 241.486 199.528 241.423C199.498 241.419 199.47 241.408 199.446 241.389C199.423 241.371 199.405 241.346 199.395 241.318C199.387 241.291 199.387 241.262 199.394 241.235C199.402 241.208 199.416 241.183 199.437 241.164C199.626 240.996 201.285 239.519 202.104 239.722C202.197 239.747 202.283 239.795 202.353 239.861C202.424 239.926 202.478 240.009 202.51 240.1C202.571 240.235 202.596 240.384 202.581 240.531C202.566 240.679 202.512 240.82 202.426 240.94C202.11 241.238 201.697 241.409 201.264 241.423V241.423ZM199.906 241.143C201.089 241.227 201.929 241.08 202.188 240.744C202.241 240.664 202.272 240.571 202.278 240.475C202.285 240.38 202.265 240.284 202.223 240.198C202.211 240.152 202.188 240.11 202.154 240.077C202.121 240.044 202.079 240.02 202.034 240.009C201.6 239.897 200.592 240.576 199.906 241.143Z" fill="#FF0400"/>
<path d="M199.562 241.416H199.499C199.475 241.407 199.455 241.391 199.439 241.372C199.423 241.352 199.412 241.329 199.408 241.304C199.408 241.227 199.009 239.4 199.576 238.693C199.649 238.601 199.741 238.527 199.847 238.476C199.952 238.425 200.068 238.399 200.185 238.399C200.313 238.388 200.44 238.421 200.548 238.49C200.655 238.56 200.737 238.663 200.78 238.784C201.018 239.484 200.234 240.926 199.646 241.395L199.562 241.416ZM200.101 238.7C200.041 238.707 199.982 238.727 199.929 238.757C199.877 238.787 199.83 238.827 199.793 238.875C199.457 239.295 199.541 240.359 199.639 240.975C200.136 240.429 200.64 239.33 200.486 238.875C200.451 238.791 200.388 238.693 200.171 238.693L200.101 238.7Z" fill="#FF0400"/>
<path d="M165.143 246.351L171.562 245.532L172.612 230.3L166.193 231.112L165.143 246.351Z" fill="#B55B52"/>
<path d="M171.71 244.65L164.444 244.419C164.321 244.411 164.201 244.451 164.108 244.531C164.015 244.611 163.957 244.724 163.947 244.846L163.415 250.586C163.405 250.888 163.515 251.182 163.721 251.403C163.927 251.625 164.212 251.756 164.514 251.769C167.041 251.804 168.252 251.692 171.451 251.769C173.418 251.832 177.282 252.119 179.977 251.769C182.672 251.419 182.259 248.773 181.09 248.675C178.29 248.451 174.587 246.533 172.809 245.042C172.495 244.794 172.109 244.656 171.71 244.65V244.65Z" fill="#263238"/>
<path d="M173.963 245.847C173.382 245.817 172.807 245.72 172.248 245.56C172.22 245.552 172.195 245.536 172.176 245.515C172.156 245.494 172.142 245.469 172.136 245.441C172.133 245.412 172.137 245.383 172.15 245.357C172.162 245.331 172.181 245.309 172.206 245.294C172.416 245.154 174.306 243.964 175.069 244.293C175.157 244.332 175.234 244.393 175.293 244.47C175.351 244.547 175.39 244.638 175.405 244.734C175.444 244.876 175.444 245.026 175.406 245.169C175.368 245.312 175.293 245.442 175.188 245.546C174.83 245.794 174.394 245.901 173.963 245.847V245.847ZM172.668 245.357C173.816 245.623 174.67 245.616 174.985 245.322C175.051 245.252 175.097 245.166 175.118 245.072C175.139 244.978 175.134 244.881 175.104 244.79C175.099 244.743 175.083 244.699 175.056 244.66C175.029 244.622 174.992 244.592 174.95 244.573C174.53 244.391 173.438 244.902 172.668 245.357V245.357Z" fill="#FF0400"/>
<path d="M172.284 245.567C172.261 245.573 172.237 245.573 172.214 245.567C172.192 245.556 172.173 245.539 172.159 245.518C172.146 245.497 172.138 245.473 172.137 245.448C172.137 245.364 172.046 243.502 172.718 242.893C172.804 242.815 172.907 242.757 173.018 242.725C173.13 242.692 173.247 242.685 173.362 242.704C173.492 242.71 173.615 242.761 173.712 242.848C173.809 242.934 173.873 243.052 173.894 243.18C174.027 243.88 173.019 245.21 172.361 245.567C172.336 245.574 172.309 245.574 172.284 245.567V245.567ZM173.25 242.977C173.19 242.974 173.13 242.982 173.073 243.003C173.017 243.023 172.965 243.055 172.921 243.096C172.522 243.46 172.431 244.496 172.431 245.14C173.012 244.678 173.684 243.677 173.6 243.208C173.6 243.124 173.537 243.012 173.32 242.984L173.25 242.977Z" fill="#FF0400"/>
<path opacity="0.2" d="M166.194 231.119L172.613 230.3L172.011 239.015L165.613 239.512L166.194 231.119Z" fill="black"/>
<path d="M133.972 154.378C133.972 154.378 180.431 158.774 178.772 172.76C176.329 192.927 175.125 236.397 175.125 236.397L163.281 236.866C163.281 236.866 158.262 197.666 160.859 177.002C148.84 177.002 119.405 177.863 116.717 170.618C114.351 164.22 115.198 154.378 115.198 154.378H133.972Z" fill="#263238"/>
<path d="M161.945 237.594L176.162 236.887L176.673 230.706L161.084 231.777L161.945 237.594Z" fill="#FF0400"/>
<path d="M154.055 112.581L154.454 115.801C154.594 116.893 154.748 117.985 154.916 119.07C155.266 121.247 155.616 123.417 156.057 125.545C156.498 127.673 156.974 129.745 157.548 131.775C158.071 133.669 158.774 135.51 159.648 137.27C159.979 137.935 160.386 138.56 160.859 139.132C160.929 139.216 161.076 139.356 161.223 139.496C161.37 139.636 161.524 139.776 161.678 139.916C162 140.189 162.378 140.469 162.735 140.742C164.4 141.897 166.166 142.897 168.013 143.731C172.013 145.52 176.112 147.079 180.291 148.4L179.535 153.202C177.138 153.122 174.748 152.888 172.381 152.502C171.205 152.32 170.022 152.096 168.881 151.802C167.74 151.508 166.515 151.242 165.339 150.885C162.86 150.187 160.465 149.218 158.199 147.994C157.585 147.656 156.99 147.287 156.414 146.888C156.12 146.678 155.826 146.475 155.532 146.23C155.213 145.987 154.907 145.728 154.615 145.453C153.499 144.373 152.529 143.152 151.731 141.82C150.405 139.558 149.321 137.162 148.497 134.673C147.711 132.357 147.045 130.002 146.502 127.617C145.97 125.272 145.501 122.927 145.158 120.575C144.976 119.399 144.815 118.223 144.661 117.075C144.507 115.927 144.395 114.744 144.297 113.463L154.055 112.581Z" fill="#B55B52"/>
<path d="M144.241 107.905C148.994 103.32 154.846 106.029 157.184 114.625C158.508 119.233 159.413 123.952 159.886 128.723L144.843 131.831C142.099 123.627 139.383 112.609 144.241 107.905Z" fill="#FF0400"/>
<path opacity="0.3" d="M149.101 117.292C148.023 116.326 144.971 120.659 143.102 126.028C143.634 128.03 144.236 130.004 144.845 131.838L153.896 129.962C153.168 124.6 151.502 119.469 149.101 117.292Z" fill="black"/>
<path d="M179.366 147.175L182.95 147.399L180.087 153.979C180.087 153.979 173.906 153.832 174.039 150.794L175.152 149.338C175.664 148.702 176.303 148.181 177.029 147.809C177.755 147.436 178.551 147.22 179.366 147.175V147.175Z" fill="#B55B52"/>
<path d="M186.857 147.931L183.763 153.979H180.088L182.951 147.399L186.857 147.931Z" fill="#B55B52"/>
<path d="M144.801 103.306L137.591 101.248L128.323 100.8C126.917 100.735 125.528 101.133 124.369 101.934C123.211 102.734 122.348 103.892 121.911 105.231C120.14 110.621 118.516 118.426 117.333 125.16C116.003 132.706 115.31 144.06 115.17 154.371H149.799C150.59 132.86 153.299 120.141 154.538 113.071C154.776 111.692 154.557 110.274 153.913 109.031C153.27 107.789 152.238 106.791 150.975 106.19L144.801 103.306Z" fill="#FF0400"/>
<path opacity="0.3" d="M120.806 108.969C119.469 113.869 118.265 119.868 117.306 125.167C116.446 130.576 115.878 136.027 115.605 141.498C121.31 140.931 127.61 134.365 129.605 125.524C131.6 116.9 126.973 107.926 120.806 108.969Z" fill="black"/>
<path d="M140.468 89.5371L143.268 93.8141L147.083 99.6451C146.589 100.143 146.191 100.726 145.907 101.367C145.207 102.767 144.633 103.824 147.58 105.833C147.898 106.035 148.151 106.325 148.308 106.668C148.464 107.011 148.518 107.392 148.462 107.765C148.294 108.675 147.384 109.557 144.199 108.997C141.135 108.408 138.339 106.856 136.219 104.566C135.155 103.509 135.4 102.711 136.422 101.612C139.299 98.5041 140.181 93.5411 140.468 89.5371Z" fill="#B55B52"/>
<path opacity="0.2" d="M146.146 98.2098L143.808 94.0518L143.647 94.3948C143.44 94.9136 143.271 95.4471 143.143 95.9908C142.716 97.8318 144.151 100.471 145.726 101.724L145.908 101.367C146.187 100.768 146.55 100.211 146.986 99.7147C147.015 99.6848 147.048 99.6589 147.084 99.6377L146.146 98.2098Z" fill="black"/>
<path d="M145.076 114.674C145.03 114.669 144.988 114.649 144.955 114.617C144.923 114.585 144.902 114.543 144.896 114.497C144.89 114.452 144.9 114.406 144.924 114.367C144.948 114.328 144.984 114.298 145.027 114.282L145.524 114.163C148.058 113.61 153.994 112.315 153.455 89.537C153.455 89.4843 153.475 89.4337 153.512 89.3959C153.548 89.358 153.598 89.3358 153.651 89.334V89.334C153.703 89.334 153.754 89.3544 153.792 89.3909C153.83 89.4275 153.852 89.4774 153.854 89.53C154.4 112.63 148.254 113.981 145.608 114.555C145.433 114.555 145.272 114.625 145.132 114.667L145.076 114.674Z" fill="#263238"/>
<path d="M159.298 83.1948C158.276 80.1428 154.608 82.1728 154.608 82.1728C154.608 82.1728 154.559 88.5638 156.526 90.2018C158.493 91.8398 160.299 86.2748 159.298 83.1948Z" fill="#263238"/>
<path d="M141.455 81.963C140.328 88.305 139.355 91.945 141.7 96.012C142.455 97.3328 143.555 98.4236 144.882 99.168C146.209 99.9124 147.713 100.282 149.234 100.239C150.755 100.195 152.235 99.7387 153.517 98.9191C154.799 98.0995 155.834 96.9471 156.512 95.585C159.193 90.356 160.579 80.885 155.112 76.685C153.955 75.759 152.576 75.1527 151.111 74.9267C149.646 74.7007 148.148 74.8629 146.766 75.3971C145.384 75.9313 144.166 76.8188 143.234 77.971C142.302 79.1231 141.689 80.4996 141.455 81.963V81.963Z" fill="#B55B52"/>
<path d="M140.259 85.6941C138.551 88.4101 142.814 89.4041 142.814 89.4041C142.814 89.4041 147.917 85.5611 148.022 83.0061C148.127 80.4511 141.617 83.5381 140.259 85.6941Z" fill="#263238"/>
<path d="M138.599 86.7158C137.759 86.0158 136.835 83.3488 137.542 81.0038C138.249 78.6588 140.503 76.1038 142.533 76.9368C143.289 74.7738 153.677 72.1138 157.149 76.9368C161.195 82.5718 159.074 85.4698 155.707 83.2858L149.547 81.2908L138.599 86.7158Z" fill="#263238"/>
<path d="M157.058 82.7751C155.413 84.7211 149.176 84.2801 149.176 84.2801L151.22 82.0401C149.859 83.0477 148.173 83.5141 146.488 83.3491C143.429 83.1741 145.088 80.0311 145.088 80.0311C145.088 80.0311 160.152 79.1001 157.058 82.7751Z" fill="#263238"/>
<path d="M138.039 86.5549C137.977 87.9543 138.433 89.3274 139.32 90.4119C140.482 91.8119 142.274 90.6919 142.694 88.9699C143.065 87.4229 142.582 85.0219 141.056 84.2799C139.53 83.5379 138.116 84.8189 138.039 86.5549Z" fill="#B55B52"/>
<path d="M137.431 82.53C137.272 81.4805 137.336 80.4093 137.62 79.3865C137.903 78.3636 138.399 77.4121 139.076 76.594C138.502 76.727 136.703 75.67 140.014 73.458C143.325 71.246 150.199 70.658 153.622 72.345C160.328 75.635 158.473 79.527 158.473 79.527L137.431 82.53Z" fill="#FF0400"/>
<path opacity="0.3" d="M137.431 82.53C137.272 81.4805 137.336 80.4093 137.62 79.3865C137.903 78.3636 138.399 77.4121 139.076 76.594C138.502 76.727 136.703 75.67 140.014 73.458C143.325 71.246 150.199 70.658 153.622 72.345C160.328 75.635 158.473 79.527 158.473 79.527L137.431 82.53Z" fill="black"/>
<path d="M137.563 86.52C138.725 86.562 139.852 83.055 149.701 81.284C153.677 80.584 157.842 81.844 159.004 82.992C160.166 84.14 159.62 80.367 159.2 79.016C158.78 77.665 152.627 76.587 148.63 77.07C141.693 77.903 137.528 81.438 136.954 82.327C136.38 83.216 136.499 86.492 137.563 86.52Z" fill="#FF0400"/>
<path d="M141.189 87.5C141.322 87.7791 141.343 88.0984 141.248 88.3925C141.153 88.6866 140.949 88.9333 140.678 89.082C140.167 89.243 139.565 88.809 139.334 88.102C139.201 87.8229 139.18 87.5036 139.275 87.2094C139.37 86.9153 139.574 86.6687 139.845 86.52C140.356 86.359 140.958 86.8 141.189 87.5Z" fill="#263238"/>
<path d="M142.015 153.678C140.811 153.678 140.013 153.356 139.572 152.691C138.494 151.081 139.873 147.756 141.336 144.235C142.736 140.945 144.136 137.536 143.744 135.198C143.044 130.739 143.688 125.111 144.318 119.672C144.528 117.88 144.724 116.172 144.871 114.548C142.162 111.748 139.432 108.157 140.867 100.765C141.819 95.865 141.609 91.805 140.244 88.655C140.233 88.6318 140.226 88.6064 140.225 88.5804C140.224 88.5544 140.228 88.5285 140.237 88.5042C140.246 88.4799 140.26 88.4577 140.278 88.4391C140.297 88.4205 140.318 88.4059 140.342 88.3961C140.391 88.3745 140.446 88.3726 140.495 88.3909C140.545 88.4092 140.586 88.4462 140.608 88.4941C142.008 91.728 142.225 95.879 141.259 100.842C139.859 108.101 142.561 111.615 145.221 114.331C145.258 114.376 145.276 114.434 145.27 114.492C145.123 116.165 144.927 117.894 144.71 119.721C144.087 125.132 143.436 130.732 144.136 135.121C144.528 137.571 143.093 141.029 141.7 144.375C140.307 147.721 138.942 151.025 139.901 152.46C140.265 153.006 140.958 153.272 142.001 153.272C142.053 153.272 142.103 153.293 142.14 153.329C142.177 153.366 142.197 153.416 142.197 153.468C142.197 153.52 142.177 153.57 142.14 153.607C142.103 153.643 142.053 153.664 142.001 153.664L142.015 153.678Z" fill="#263238"/>
<path d="M151.122 87.8288C150.961 88.3258 151.122 88.8228 151.409 88.9418C151.696 89.0608 152.109 88.7528 152.277 88.2418C152.445 87.7308 152.319 87.2478 151.997 87.1288C151.675 87.0098 151.283 87.3318 151.122 87.8288Z" fill="#263238"/>
<path d="M157.826 90.2421C157.976 89.7422 157.834 89.2577 157.508 89.16C157.182 89.0623 156.796 89.3883 156.646 89.8883C156.497 90.3882 156.639 90.8727 156.965 90.9704C157.291 91.0681 157.677 90.742 157.826 90.2421Z" fill="#263238"/>
<path d="M154.762 89.6001C154.739 91.0796 154.913 92.5556 155.28 93.9891C154.286 94.3531 153.18 93.4921 153.18 93.4921L154.762 89.6001Z" fill="#A02724"/>
<path d="M151.793 96.215C151.22 96.0231 150.691 95.7178 150.237 95.3174C149.784 94.917 149.416 94.4295 149.154 93.884C149.14 93.8468 149.141 93.8057 149.157 93.7692C149.173 93.7326 149.202 93.7036 149.238 93.688C149.257 93.68 149.277 93.6759 149.298 93.6758C149.318 93.6757 149.339 93.6797 149.358 93.6875C149.376 93.6953 149.394 93.7068 149.408 93.7213C149.422 93.7358 149.434 93.7531 149.441 93.7721C149.732 94.3613 150.153 94.8759 150.674 95.2764C151.195 95.6769 151.8 95.9525 152.444 96.082C152.484 96.0905 152.519 96.1143 152.542 96.1485C152.564 96.1826 152.572 96.2241 152.563 96.264C152.555 96.3039 152.531 96.3389 152.497 96.3612C152.463 96.3835 152.421 96.3913 152.381 96.383C152.182 96.3387 151.986 96.2826 151.793 96.215V96.215Z" fill="#263238"/>
<path d="M150.613 85.6869C150.567 85.6616 150.529 85.6256 150.501 85.5819C150.479 85.548 150.464 85.5102 150.457 85.4705C150.451 85.4309 150.452 85.3903 150.461 85.3512C150.47 85.312 150.487 85.2751 150.511 85.2426C150.534 85.2101 150.564 85.1826 150.599 85.1619C150.999 84.8926 151.459 84.7256 151.938 84.6756C152.418 84.6255 152.903 84.694 153.35 84.8749C153.39 84.8899 153.426 84.9132 153.456 84.9431C153.487 84.973 153.511 85.0089 153.527 85.0486C153.543 85.0882 153.55 85.1307 153.549 85.1734C153.547 85.2161 153.537 85.258 153.518 85.2965C153.5 85.335 153.474 85.3692 153.441 85.397C153.409 85.4248 153.371 85.4455 153.33 85.4579C153.289 85.4702 153.246 85.4739 153.204 85.4688C153.161 85.4636 153.12 85.4497 153.084 85.4279C152.731 85.2926 152.351 85.2442 151.976 85.2869C151.6 85.3295 151.241 85.4619 150.928 85.6729C150.881 85.7027 150.827 85.7197 150.772 85.7221C150.717 85.7246 150.662 85.7124 150.613 85.6869V85.6869Z" fill="#263238"/>
<path d="M157.758 86.66C157.745 86.6096 157.745 86.5564 157.758 86.506C157.789 86.4311 157.849 86.3715 157.923 86.3401C157.998 86.3086 158.082 86.3079 158.157 86.338C158.607 86.5131 159.006 86.7964 159.32 87.1627C159.634 87.529 159.852 87.967 159.956 88.438C159.958 88.5122 159.933 88.5844 159.885 88.6415C159.838 88.6985 159.771 88.7365 159.698 88.7484C159.625 88.7603 159.55 88.7454 159.486 88.7064C159.423 88.6673 159.376 88.6068 159.354 88.536C159.265 88.1675 159.088 87.8261 158.838 87.5409C158.588 87.2557 158.273 87.0351 157.919 86.898C157.874 86.876 157.835 86.8424 157.807 86.8006C157.779 86.7588 157.762 86.7103 157.758 86.66V86.66Z" fill="#263238"/>
<path d="M131.6 110.411C131.019 111.461 130.382 112.658 129.78 113.792C129.178 114.926 128.583 116.109 128.009 117.292C126.854 119.623 125.769 121.968 124.782 124.292C123.816 126.567 123.007 128.906 122.36 131.292C122.084 132.34 121.887 133.407 121.772 134.484C121.653 135.415 121.821 136.423 121.772 136.206C122.1 136.77 122.556 137.249 123.102 137.606C123.978 138.257 124.916 138.822 125.902 139.293C128.165 140.378 130.504 141.295 132.902 142.037C135.324 142.8 137.9 143.5 140.427 144.2C142.954 144.9 145.621 145.446 148.169 146.006L147.693 150.843C142.101 150.753 136.528 150.17 131.04 149.1C128.178 148.55 125.369 147.761 122.64 146.741C121.13 146.171 119.679 145.456 118.307 144.606C116.53 143.555 115.045 142.074 113.988 140.301C113.668 139.717 113.412 139.099 113.225 138.46L113.092 137.977L113.015 137.599C112.952 137.34 112.917 137.102 112.875 136.85C112.743 135.934 112.684 135.01 112.7 134.085C112.736 132.459 112.921 130.84 113.253 129.248C113.85 126.35 114.683 123.505 115.745 120.743C116.746 118.055 117.887 115.465 119.112 112.931C119.728 111.662 120.365 110.409 121.023 109.172C121.681 107.912 122.346 106.736 123.123 105.441L131.6 110.411Z" fill="#B55B52"/>
<path d="M126.273 100.919C132.797 99.9248 136.003 105.525 132.937 113.883C131.346 118.405 129.35 122.774 126.973 126.938L112.91 120.771C115.43 112.497 119.581 101.934 126.273 100.919Z" fill="#FF0400"/>
<path d="M148.736 146.062L152.642 147.399L147.455 152.355C147.455 152.355 141.12 150.08 142.415 147.329L144.011 146.419C144.729 146.031 145.521 145.798 146.335 145.737C147.149 145.675 147.967 145.786 148.736 146.062V146.062Z" fill="#B55B52"/>
<path d="M157.24 150.031L151.381 153.482L147.461 152.355L152.641 147.399L157.24 150.031Z" fill="#B55B52"/>
<path d="M249.404 153.776H104.07V158.508H249.404V153.776Z" fill="#FF0400"/>
<path opacity="0.6" d="M249.404 153.776H104.07V158.508H249.404V153.776Z" fill="white"/>
<path opacity="0.5" d="M104.063 158.508H133.064V153.776H104.063V158.508Z" fill="#FF0400"/>
<path d="M210.043 152.208H141.562C141.147 152.21 140.749 152.376 140.455 152.669C140.162 152.963 139.996 153.361 139.994 153.776H211.618C211.616 153.359 211.449 152.961 211.154 152.667C210.859 152.373 210.46 152.208 210.043 152.208V152.208Z" fill="#FF0400"/>
<path d="M219.101 120.169H172.306C172.006 120.184 171.719 120.292 171.483 120.478C171.247 120.663 171.075 120.917 170.99 121.205L163.29 150.073C163.246 150.193 163.232 150.321 163.25 150.448C163.268 150.574 163.317 150.694 163.392 150.797C163.468 150.899 163.568 150.982 163.683 151.036C163.799 151.091 163.926 151.116 164.053 151.109H210.869C211.169 151.1 211.459 150.994 211.695 150.807C211.93 150.621 212.1 150.363 212.178 150.073L219.878 121.205C219.923 121.084 219.937 120.954 219.918 120.826C219.9 120.699 219.849 120.578 219.772 120.475C219.695 120.372 219.593 120.29 219.476 120.236C219.358 120.183 219.229 120.16 219.101 120.169V120.169Z" fill="#FF0400"/>
<path opacity="0.2" d="M170.99 121.205L163.29 150.073C163.246 150.193 163.232 150.321 163.25 150.448C163.268 150.574 163.317 150.694 163.392 150.797C163.468 150.899 163.568 150.982 163.683 151.036C163.799 151.091 163.926 151.116 164.053 151.109L172.285 120.169C171.989 120.188 171.706 120.298 171.475 120.483C171.243 120.669 171.074 120.92 170.99 121.205Z" fill="black"/>
<path opacity="0.2" d="M161.547 152.208H141.562C141.147 152.21 140.749 152.376 140.455 152.669C140.162 152.963 139.996 153.361 139.994 153.776H163.094C163.092 153.364 162.929 152.97 162.64 152.677C162.351 152.384 161.959 152.215 161.547 152.208V152.208Z" fill="black"/>
<path d="M134.093 252.868H136.893L132.966 231.238H135.409V228.438H132.441L120.248 161.28H122.047V158.48H115.089V161.28H116.902L104.708 228.438H101.754V231.238H104.197L100.27 252.868H103.07L106.997 231.238H130.201L134.093 252.868ZM107.494 228.452L118.589 167.377L129.676 228.452H107.494Z" fill="#FF0400"/>
<path d="M249.37 250.292H252.17L248.243 231.238H250.686V228.438H247.732L235.538 161.28H237.302V158.48H230.344V161.28H232.143L219.949 228.438H217.002V231.238H219.445L215.518 250.292H218.318L222.245 231.238H245.443L249.37 250.292ZM222.77 228.452L233.858 167.377L244.953 228.452H222.77Z" fill="#FF0400"/>
<path d="M236.441 152.208H218.493C218.211 152.208 217.982 152.437 217.982 152.719V153.265C217.982 153.547 218.211 153.776 218.493 153.776H236.441C236.724 153.776 236.952 153.547 236.952 153.265V152.719C236.952 152.437 236.724 152.208 236.441 152.208Z" fill="#263238"/>
<path opacity="0.9" d="M186.618 114.758C186.491 114.759 186.364 114.734 186.246 114.683C186.129 114.632 186.024 114.557 185.938 114.462C185.852 114.368 185.787 114.256 185.747 114.134C185.708 114.013 185.695 113.884 185.708 113.757L188.585 81.3888C188.614 81.1176 188.741 80.8663 188.942 80.682C189.143 80.4977 189.405 80.3931 189.677 80.3878H229.073C229.201 80.386 229.328 80.4115 229.445 80.4624C229.563 80.5134 229.668 80.5886 229.754 80.6833C229.84 80.7779 229.905 80.8897 229.944 81.0114C229.984 81.133 229.997 81.2616 229.983 81.3888L227.106 113.757C227.078 114.028 226.951 114.279 226.75 114.464C226.548 114.648 226.287 114.752 226.014 114.758H186.618Z" fill="#263238"/>
<path d="M219.856 90.4606H197.057L197.134 89.6206H219.933L219.856 90.4606Z" fill="white"/>
<path d="M223.433 91.8048H199.283L199.353 90.9648H223.51L223.433 91.8048Z" fill="#FF0400"/>
<path d="M219.177 93.1486H199.164L199.234 92.3086H219.247L219.177 93.1486Z" fill="#FF0400"/>
<path d="M216.965 94.4924H199.045L199.115 93.6523H217.042L216.965 94.4924Z" fill="#FF0400"/>
<path d="M211.322 96.6834H196.51L196.58 95.8364H211.392L211.322 96.6834Z" fill="white"/>
<path d="M214.466 99.8687H198.562L198.492 100.716H214.389L214.466 99.8687Z" fill="#FF0400"/>
<path d="M211.86 98.5244H198.679L198.609 99.3714H211.783L211.86 98.5244Z" fill="#FF0400"/>
<path d="M213.318 97.1807H198.8L198.73 98.0277H213.241L213.318 97.1807Z" fill="#FF0400"/>
<path d="M210.406 106.932H195.594L195.671 106.092H210.483L210.406 106.932Z" fill="white"/>
<path d="M213.555 110.124H197.651L197.574 110.964H213.478L213.555 110.124Z" fill="#FF0400"/>
<path d="M210.952 108.78H197.771L197.701 109.62H210.875L210.952 108.78Z" fill="#FF0400"/>
<path d="M212.406 107.436H197.888L197.818 108.276H212.329L212.406 107.436Z" fill="#FF0400"/>
<path d="M204.426 84.1956H192.4L192.47 83.3486H204.503L204.426 84.1956Z" fill="white"/>
<path d="M206.933 87.3809H194.018L193.941 88.2279H206.856L206.933 87.3809Z" fill="white"/>
<path d="M204.834 86.0366H194.138L194.061 86.8836H204.764L204.834 86.0366Z" fill="white"/>
<path d="M206.038 84.6924H194.257L194.18 85.5394H205.968L206.038 84.6924Z" fill="white"/>
<path d="M214.108 103.9H198.204L198.127 104.747H214.031L214.108 103.9Z" fill="#FF0400"/>
<path d="M211.504 102.557H198.323L198.246 103.404H211.427L211.504 102.557Z" fill="#FF0400"/>
<path d="M212.961 101.212H198.443L198.373 102.059H212.884L212.961 101.212Z" fill="#FF0400"/>
<path d="M242.004 75.8934H215.747C215.515 75.8967 215.286 75.8508 215.073 75.7586C214.86 75.6665 214.669 75.5302 214.513 75.3588C214.357 75.1875 214.239 74.9849 214.167 74.7645C214.095 74.5441 214.071 74.311 214.095 74.0804L216.069 51.8835C216.119 51.4086 216.341 50.9683 216.693 50.6459C217.045 50.3234 217.503 50.1412 217.98 50.1335H244.23C244.462 50.1302 244.692 50.1761 244.905 50.2683C245.118 50.3604 245.308 50.4967 245.464 50.6681C245.621 50.8394 245.739 51.042 245.811 51.2624C245.883 51.4828 245.907 51.7159 245.882 51.9465L243.908 74.1434C243.86 74.6177 243.64 75.0579 243.289 75.3805C242.938 75.703 242.481 75.8856 242.004 75.8934ZM217.98 50.8335C217.677 50.8401 217.386 50.9565 217.162 51.1612C216.938 51.3659 216.796 51.6449 216.762 51.9465L214.795 74.1434C214.779 74.278 214.792 74.4146 214.833 74.5439C214.874 74.6731 214.942 74.792 215.033 74.8924C215.123 74.9878 215.232 75.0637 215.352 75.1154C215.473 75.1672 215.602 75.1938 215.733 75.1934H241.99C242.293 75.1867 242.583 75.07 242.806 74.8651C243.028 74.6603 243.169 74.3814 243.201 74.0804L245.175 51.8835C245.188 51.7496 245.173 51.6145 245.131 51.4868C245.088 51.3591 245.02 51.2415 244.93 51.1415C244.841 51.0445 244.733 50.9671 244.613 50.9141C244.492 50.8611 244.362 50.8336 244.23 50.8335H217.98Z" fill="#FF0400"/>
<path d="M245.14 56.7488H216.02C215.927 56.7488 215.838 56.7119 215.772 56.6463C215.707 56.5807 215.67 56.4917 215.67 56.3988C215.67 56.306 215.707 56.217 215.772 56.1513C215.838 56.0857 215.927 56.0488 216.02 56.0488H245.14C245.233 56.0488 245.322 56.0857 245.387 56.1513C245.453 56.217 245.49 56.306 245.49 56.3988C245.488 56.4911 245.451 56.5791 245.385 56.6443C245.32 56.7096 245.232 56.747 245.14 56.7488V56.7488Z" fill="#FF0400"/>
<path d="M221.2 75.8936H221.165C221.119 75.8901 221.074 75.8775 221.033 75.8564C220.993 75.8354 220.957 75.8064 220.927 75.7712C220.898 75.7359 220.876 75.6951 220.862 75.6512C220.849 75.6073 220.845 75.5612 220.85 75.5156L222.551 56.3636C222.561 56.2726 222.606 56.1892 222.677 56.1306C222.747 56.072 222.837 56.0426 222.929 56.0486C222.975 56.0522 223.019 56.0647 223.061 56.0857C223.102 56.1066 223.138 56.1355 223.168 56.1706C223.198 56.2058 223.221 56.2465 223.235 56.2904C223.249 56.3343 223.254 56.3806 223.251 56.4266L221.543 75.5996C221.528 75.6806 221.486 75.7542 221.423 75.8077C221.361 75.8613 221.282 75.8916 221.2 75.8936Z" fill="#FF0400"/>
<path d="M241.724 59.0237H225.918C225.826 59.0237 225.737 58.9868 225.671 58.9212C225.605 58.8556 225.568 58.7666 225.568 58.6737C225.568 58.5809 225.605 58.4919 225.671 58.4262C225.737 58.3606 225.826 58.3237 225.918 58.3237H241.724C241.817 58.3237 241.906 58.3606 241.972 58.4262C242.037 58.4919 242.074 58.5809 242.074 58.6737C242.074 58.7666 242.037 58.8556 241.972 58.9212C241.906 58.9868 241.817 59.0237 241.724 59.0237Z" fill="#FF0400"/>
<path d="M239.244 61.8167H225.664C225.572 61.8149 225.484 61.7775 225.419 61.7122C225.354 61.647 225.316 61.559 225.314 61.4667C225.314 61.3739 225.351 61.2849 225.417 61.2192C225.483 61.1536 225.572 61.1167 225.664 61.1167H239.244C239.337 61.1167 239.426 61.1536 239.492 61.2192C239.558 61.2849 239.594 61.3739 239.594 61.4667C239.594 61.5595 239.558 61.6486 239.492 61.7142C239.426 61.7798 239.337 61.8167 239.244 61.8167Z" fill="#FF0400"/>
<path d="M233.316 64.6937H225.399C225.306 64.6937 225.217 64.6568 225.151 64.5911C225.086 64.5255 225.049 64.4365 225.049 64.3437C225.049 64.2508 225.086 64.1618 225.151 64.0962C225.217 64.0305 225.306 63.9937 225.399 63.9937H233.302C233.394 63.9954 233.482 64.0329 233.547 64.0981C233.613 64.1634 233.65 64.2514 233.652 64.3437C233.652 64.4341 233.617 64.5211 233.554 64.5863C233.492 64.6516 233.406 64.69 233.316 64.6937V64.6937Z" fill="#FF0400"/>
<path d="M234.562 70.3147H224.909C224.816 70.3147 224.727 70.2779 224.661 70.2122C224.595 70.1466 224.559 70.0576 224.559 69.9647C224.56 69.8725 224.598 69.7845 224.663 69.7192C224.728 69.654 224.816 69.6165 224.909 69.6147H234.562C234.654 69.6165 234.742 69.654 234.807 69.7192C234.872 69.7845 234.91 69.8725 234.912 69.9647C234.912 70.0107 234.903 70.0562 234.885 70.0987C234.867 70.1412 234.842 70.1797 234.809 70.2122C234.777 70.2447 234.738 70.2705 234.696 70.2881C234.653 70.3057 234.608 70.3147 234.562 70.3147Z" fill="#FF0400"/>
<path d="M232.56 73.1985H224.657C224.564 73.1985 224.475 73.1617 224.409 73.096C224.344 73.0304 224.307 72.9414 224.307 72.8485C224.307 72.7557 224.344 72.6667 224.409 72.601C224.475 72.5354 224.564 72.4985 224.657 72.4985H232.56C232.652 72.4985 232.741 72.5354 232.807 72.601C232.873 72.6667 232.91 72.7557 232.91 72.8485C232.91 72.9414 232.873 73.0304 232.807 73.096C232.741 73.1617 232.652 73.1985 232.56 73.1985Z" fill="#FF0400"/>
<path d="M237.187 73.1985H234.653C234.56 73.1985 234.471 73.1617 234.405 73.096C234.34 73.0304 234.303 72.9414 234.303 72.8485C234.303 72.7557 234.34 72.6667 234.405 72.601C234.471 72.5354 234.56 72.4985 234.653 72.4985H237.187C237.28 72.4985 237.369 72.5354 237.434 72.601C237.5 72.6667 237.537 72.7557 237.537 72.8485C237.537 72.9414 237.5 73.0304 237.434 73.096C237.369 73.1617 237.28 73.1985 237.187 73.1985Z" fill="#FF0400"/>
<path d="M239.967 67.4866H225.162C225.07 67.4866 224.981 67.4497 224.915 67.3841C224.849 67.3185 224.812 67.2294 224.812 67.1366C224.812 67.0438 224.849 66.9548 224.915 66.8891C224.981 66.8235 225.07 66.7866 225.162 66.7866H239.967C240.06 66.7866 240.149 66.8235 240.215 66.8891C240.281 66.9548 240.317 67.0438 240.317 67.1366C240.317 67.2294 240.281 67.3185 240.215 67.3841C240.149 67.4497 240.06 67.4866 239.967 67.4866Z" fill="#FF0400"/>
<path d="M187.697 73.7167C187.602 73.7165 187.511 73.6787 187.445 73.6117C187.381 73.5463 187.345 73.4583 187.345 73.3667C187.345 73.2751 187.381 73.1872 187.445 73.1217L189.195 71.3717L187.445 69.6287C187.412 69.5961 187.386 69.5574 187.369 69.5147C187.351 69.4721 187.342 69.4264 187.342 69.3802C187.342 69.3341 187.351 69.2884 187.369 69.2458C187.386 69.2031 187.412 69.1644 187.445 69.1317C187.477 69.0991 187.516 69.0732 187.559 69.0556C187.601 69.0379 187.647 69.0288 187.693 69.0288C187.739 69.0288 187.785 69.0379 187.828 69.0556C187.87 69.0732 187.909 69.0991 187.942 69.1317L189.937 71.1267C190.001 71.1933 190.037 71.2825 190.037 71.3752C190.037 71.468 190.001 71.5571 189.937 71.6237L187.942 73.6117C187.91 73.6447 187.872 73.671 187.83 73.689C187.788 73.707 187.743 73.7165 187.697 73.7167V73.7167Z" fill="#263238"/>
<path d="M181.72 73.7167C181.674 73.7165 181.629 73.707 181.586 73.689C181.544 73.671 181.506 73.6447 181.475 73.6117L179.48 71.6237C179.415 71.5571 179.379 71.468 179.379 71.3752C179.379 71.2825 179.415 71.1933 179.48 71.1267L181.475 69.1317C181.507 69.0991 181.546 69.0732 181.589 69.0556C181.631 69.0379 181.677 69.0288 181.723 69.0288C181.769 69.0288 181.815 69.0379 181.858 69.0556C181.9 69.0732 181.939 69.0991 181.972 69.1317C182.004 69.1644 182.03 69.2031 182.048 69.2458C182.065 69.2884 182.075 69.3341 182.075 69.3802C182.075 69.4264 182.065 69.4721 182.048 69.5147C182.03 69.5574 182.004 69.5961 181.972 69.6287L180.222 71.3717L181.972 73.1217C182.036 73.1872 182.072 73.2751 182.072 73.3667C182.072 73.4583 182.036 73.5463 181.972 73.6117C181.905 73.6787 181.814 73.7165 181.72 73.7167V73.7167Z" fill="#263238"/>
<path d="M183.959 73.7169C183.919 73.7235 183.879 73.7235 183.84 73.7169C183.754 73.6839 183.684 73.6184 183.646 73.5345C183.608 73.4507 183.605 73.3552 183.637 73.2689L185.128 69.2789C185.161 69.1929 185.226 69.1234 185.31 69.0854C185.394 69.0474 185.49 69.044 185.576 69.0759C185.663 69.1074 185.734 69.1724 185.774 69.2564C185.813 69.3404 185.817 69.4366 185.786 69.5239L184.288 73.5139C184.26 73.5768 184.213 73.6299 184.155 73.6661C184.096 73.7023 184.028 73.72 183.959 73.7169V73.7169Z" fill="#263238"/>
<path d="M232.35 125.37C232.305 125.37 232.259 125.361 232.217 125.343C232.175 125.325 232.137 125.298 232.105 125.265C232.073 125.232 232.047 125.193 232.029 125.151C232.011 125.108 232.002 125.062 232.002 125.016C232.002 124.97 232.011 124.924 232.029 124.881C232.047 124.839 232.073 124.8 232.105 124.768L233.848 123.025L232.105 121.275C232.04 121.21 232.004 121.121 232.004 121.03C232.004 120.938 232.04 120.85 232.105 120.785C232.17 120.72 232.259 120.683 232.35 120.683C232.442 120.683 232.531 120.72 232.595 120.785L234.59 122.773C234.656 122.84 234.694 122.93 234.695 123.025C234.693 123.117 234.656 123.205 234.59 123.27L232.595 125.3C232.561 125.327 232.522 125.347 232.48 125.359C232.438 125.371 232.394 125.375 232.35 125.37V125.37Z" fill="#FF0400"/>
<path d="M226.373 125.37C226.325 125.378 226.276 125.376 226.229 125.364C226.182 125.351 226.138 125.33 226.1 125.3L224.105 123.305C224.04 123.238 224.004 123.149 224.004 123.056C224.004 122.964 224.04 122.874 224.105 122.808L226.1 120.82C226.132 120.787 226.171 120.761 226.213 120.743C226.256 120.725 226.302 120.716 226.348 120.716C226.394 120.716 226.44 120.725 226.483 120.743C226.525 120.761 226.564 120.787 226.597 120.82C226.661 120.885 226.697 120.973 226.697 121.065C226.697 121.156 226.661 121.244 226.597 121.31L224.847 123.06L226.597 124.803C226.661 124.869 226.697 124.959 226.697 125.051C226.697 125.144 226.661 125.233 226.597 125.3C226.532 125.348 226.453 125.372 226.373 125.37V125.37Z" fill="#FF0400"/>
<path d="M228.62 125.37C228.579 125.38 228.536 125.38 228.494 125.37C228.451 125.354 228.412 125.33 228.378 125.299C228.344 125.268 228.317 125.23 228.298 125.189C228.279 125.147 228.269 125.102 228.268 125.056C228.267 125.01 228.275 124.964 228.291 124.922L229.782 120.932C229.815 120.844 229.881 120.774 229.965 120.735C230.05 120.696 230.147 120.693 230.234 120.725C230.321 120.758 230.392 120.824 230.431 120.908C230.469 120.993 230.473 121.089 230.44 121.177L228.942 125.167C228.915 125.229 228.869 125.281 228.812 125.317C228.755 125.353 228.688 125.371 228.62 125.37V125.37Z" fill="#FF0400"/>
<path d="M216.544 45.9897C216.45 45.9895 216.359 45.9517 216.292 45.8847C216.228 45.8193 216.192 45.7313 216.192 45.6397C216.192 45.5481 216.228 45.4601 216.292 45.3947L218.042 43.6447L216.292 41.9017C216.226 41.8358 216.189 41.7464 216.189 41.6532C216.189 41.56 216.226 41.4706 216.292 41.4047C216.358 41.3388 216.448 41.3018 216.541 41.3018C216.634 41.3018 216.723 41.3388 216.789 41.4047L218.784 43.3997C218.849 43.4663 218.885 43.5554 218.885 43.6482C218.885 43.741 218.849 43.8301 218.784 43.8967L216.789 45.8847C216.758 45.9177 216.72 45.9439 216.677 45.962C216.635 45.98 216.59 45.9894 216.544 45.9897Z" fill="#FF0400"/>
<path d="M210.567 45.9897C210.475 45.9884 210.387 45.9506 210.322 45.8847L208.327 43.8967C208.263 43.8301 208.227 43.741 208.227 43.6482C208.227 43.5554 208.263 43.4663 208.327 43.3997L210.322 41.4047C210.388 41.3388 210.478 41.3018 210.571 41.3018C210.664 41.3018 210.753 41.3388 210.819 41.4047C210.885 41.4706 210.922 41.56 210.922 41.6532C210.922 41.7464 210.885 41.8358 210.819 41.9017L209.069 43.6447L210.819 45.3947C210.883 45.4601 210.919 45.5481 210.919 45.6397C210.919 45.7313 210.883 45.8193 210.819 45.8847C210.752 45.9517 210.662 45.9895 210.567 45.9897V45.9897Z" fill="#FF0400"/>
<path d="M212.799 45.9898H212.68C212.594 45.9568 212.524 45.8913 212.486 45.8075C212.448 45.7236 212.445 45.6282 212.477 45.5418L213.968 41.5518C214.001 41.4659 214.066 41.3963 214.15 41.3584C214.234 41.3204 214.329 41.3169 214.416 41.3488C214.503 41.3804 214.574 41.4453 214.613 41.5293C214.653 41.6133 214.657 41.7095 214.626 41.7968L213.128 45.7868C213.1 45.8498 213.053 45.9029 212.995 45.9391C212.936 45.9753 212.868 45.993 212.799 45.9898Z" fill="#FF0400"/>
</svg>
