<svg width="350" height="263" viewBox="0 0 350 263" fill="none" xmlns="http://www.w3.org/2000/svg">
<path d="M175 262.032C249.958 262.032 310.723 258.484 310.723 254.108C310.723 249.732 249.958 246.184 175 246.184C100.043 246.184 39.2773 249.732 39.2773 254.108C39.2773 258.484 100.043 262.032 175 262.032Z" fill="#F5F5F5"/>
<path d="M193.507 82.3141L193.962 82.6991C194.13 82.8461 194.319 82.9861 194.501 83.1261C194.865 83.4131 195.201 83.7001 195.621 83.9731C196.377 84.5261 197.182 85.0301 197.987 85.5341C199.611 86.535 201.313 87.4035 203.076 88.1311C204.832 88.8793 206.641 89.497 208.487 89.9791C208.949 90.1051 209.425 90.1891 209.887 90.2941L210.587 90.4481C210.734 90.4481 210.587 90.4481 210.587 90.4831C210.492 90.5055 210.401 90.5459 210.321 90.6021C210.258 90.6651 210.258 90.6651 210.286 90.6511C210.425 90.4459 210.533 90.222 210.608 89.9861C210.857 89.1785 211.009 88.3444 211.063 87.5011C211.147 86.5841 211.175 85.6181 211.168 84.6451C211.168 82.6921 211.014 80.6971 210.86 78.6951C210.706 76.6931 210.461 74.6841 210.202 72.6681C209.943 70.6521 209.656 68.6361 209.355 66.6481L211.987 66.0461C213.146 70.0414 214.081 74.0984 214.787 78.1981C215.154 80.283 215.409 82.386 215.55 84.4981C215.632 85.5881 215.658 86.6815 215.627 87.7741C215.617 88.9803 215.465 90.181 215.172 91.3511C214.975 92.0994 214.653 92.8093 214.22 93.4511C213.918 93.8887 213.541 94.2701 213.107 94.5781C212.609 94.934 212.037 95.1732 211.434 95.2781C210.915 95.3656 210.385 95.3656 209.866 95.2781L209.061 95.1451C208.522 95.0541 207.976 94.9841 207.444 94.8651C205.298 94.4389 203.19 93.8348 201.144 93.0591C199.099 92.2742 197.12 91.3238 195.229 90.2171C194.284 89.6501 193.36 89.0551 192.464 88.4041C192.016 88.0821 191.575 87.7041 191.134 87.3961C190.917 87.2141 190.7 87.0391 190.483 86.8431C190.266 86.6471 190.063 86.4861 189.783 86.2201L193.507 82.3141Z" fill="#E4897B"/>
<path d="M185.9 79.1291C193.6 78.0861 199.788 84.2951 199.788 84.2951L192.746 95.1591C192.746 95.1591 185.2 90.3291 183.87 87.0391C182.498 83.6161 181.959 79.6401 185.9 79.1291Z" fill="#FF0400"/>
<path opacity="0.6" d="M185.9 79.1291C193.6 78.0861 199.788 84.2951 199.788 84.2951L192.746 95.1591C192.746 95.1591 185.2 90.3291 183.87 87.0391C182.498 83.6161 181.959 79.6401 185.9 79.1291Z" fill="#FAFAFA"/>
<path d="M209.418 67.5931L206.863 62.4691L213.562 62.4131C213.562 62.4131 213.695 65.9901 212.001 68.0131L209.418 67.5931Z" fill="#E4897B"/>
<path d="M208.053 56.9602L213.037 57.8492L213.562 62.4132L206.863 62.4692L208.053 56.9602Z" fill="#E4897B"/>
<path d="M158.668 248.249L164.94 248.851L169.28 234.123L163.008 233.514L158.668 248.249Z" fill="#E4897B"/>
<path d="M118.789 226.465L123.437 230.833L133.475 219.801L128.827 215.433L118.789 226.465Z" fill="#E4897B"/>
<path d="M125.586 228.74L122.086 222.44C122.027 222.332 121.93 222.249 121.814 222.207C121.699 222.164 121.571 222.165 121.456 222.209L116.073 224.253C115.94 224.31 115.82 224.395 115.721 224.501C115.623 224.608 115.548 224.733 115.501 224.871C115.454 225.008 115.436 225.153 115.449 225.298C115.462 225.442 115.506 225.582 115.576 225.709C116.829 227.879 117.55 228.866 119.076 231.631C120.021 233.339 121.876 237.231 123.171 239.597C124.466 241.963 126.867 240.78 126.538 239.688C125.04 234.788 125.327 232.037 125.747 229.888C125.831 229.499 125.774 229.092 125.586 228.74V228.74Z" fill="#263238"/>
<path d="M165.675 246.94H158.073C157.937 246.941 157.805 246.987 157.698 247.071C157.59 247.154 157.513 247.271 157.478 247.402L155.819 253.415C155.78 253.557 155.775 253.707 155.803 253.852C155.832 253.996 155.894 254.133 155.984 254.249C156.074 254.366 156.191 254.46 156.324 254.525C156.456 254.589 156.603 254.621 156.75 254.619C159.431 254.619 160.698 254.619 164.044 254.619H174.257C177.057 254.619 177.617 251.819 176.469 251.553C171.317 250.419 168.342 248.844 166.753 247.353C166.459 247.084 166.074 246.937 165.675 246.94V246.94Z" fill="#263238"/>
<path d="M169.282 234.123L167.042 241.718H160.588L163.003 233.521L169.282 234.123Z" fill="#CE6F64"/>
<path d="M128.819 215.44L133.474 219.801L128.294 225.485L123.646 221.124L128.819 215.44Z" fill="#CE6F64"/>
<path d="M193.487 74.7821C193.438 69.6931 188.832 67.9151 188.832 67.9151C188.832 67.9151 194.593 57.0091 191.632 49.7711C188.671 42.5331 178.913 41.2591 175.819 44.6401C170.38 44.4091 168.651 52.2211 168.651 52.2211C168.651 52.2211 164.101 52.9841 162.876 56.2951C161.651 59.6061 165.382 63.3371 165.382 63.3371C165.382 63.3371 160.188 64.0371 158.277 68.0341C156.366 72.0311 157.542 77.3371 163.282 81.9151C171.626 88.5651 186.963 80.2211 186.963 80.2211C186.963 80.2211 193.543 80.6341 193.487 74.7821Z" fill="#263238"/>
<path d="M192.499 79.8432C192.499 79.8432 195.299 81.0682 185.947 118.007L160.047 115.76C161.391 105.26 161.972 98.7362 158.801 76.6443C162.496 76.2072 166.218 76.0411 169.938 76.1472C173.882 76.2067 177.816 76.5459 181.712 77.1623C185.35 77.8752 188.95 78.77 192.499 79.8432V79.8432Z" fill="#FF0400"/>
<path opacity="0.6" d="M192.499 79.8432C192.499 79.8432 195.299 81.0682 185.947 118.007L160.047 115.76C161.391 105.26 161.972 98.7362 158.801 76.6443C162.496 76.2072 166.218 76.0411 169.938 76.1472C173.882 76.2067 177.816 76.5459 181.712 77.1623C185.35 77.8752 188.95 78.77 192.499 79.8432V79.8432Z" fill="#FAFAFA"/>
<path d="M185.787 78.037C184.443 77.715 182.987 77.407 181.657 77.162C177.762 76.5433 173.827 76.2018 169.883 76.14C168.532 76.091 167.181 76.091 165.914 76.14L166.782 77.792C166.936 78.086 170.632 84.981 177.653 88.894L179.585 89.972L181.384 88.691C185.92 85.45 186.592 81.236 185.787 78.037Z" fill="#FAFAFA"/>
<path d="M172.199 62.9873C172.612 66.8443 172.752 73.8513 169.889 76.1473C169.889 76.1473 173.165 82.3703 179.367 85.8213C184.855 81.9153 181.663 77.1623 181.663 77.1623C177.526 75.7623 177.904 72.6683 178.863 69.7843L172.199 62.9873Z" fill="#E4897B"/>
<path d="M174.923 65.759L178.885 69.784C178.644 70.4529 178.461 71.1415 178.339 71.842C176.75 71.471 174.44 69.812 174.412 68.104C174.444 67.2985 174.617 66.5048 174.923 65.759V65.759Z" fill="#CE6F64"/>
<path d="M172.031 54.2371C171.268 60.5371 170.813 63.204 173.382 66.991C177.246 72.675 185.17 72.227 187.795 66.291C190.161 60.929 191.008 51.5071 185.345 47.9021C184.103 47.1029 182.678 46.6339 181.205 46.5397C179.731 46.4454 178.258 46.7289 176.925 47.3633C175.591 47.9978 174.442 48.9621 173.586 50.165C172.729 51.3679 172.194 52.7695 172.031 54.2371V54.2371Z" fill="#E4897B"/>
<path d="M176.919 46.4741C181.784 47.7341 176.975 62.5321 169.219 58.2411C169.219 58.2411 169.569 51.9901 171.725 49.3371C173.029 47.7565 174.886 46.7327 176.919 46.4741Z" fill="#263238"/>
<path d="M176.4 47.2932C178.5 50.7092 194.075 57.1842 188.839 49.8342C183.603 42.4842 176.4 47.2932 176.4 47.2932Z" fill="#263238"/>
<path d="M170.029 59.6902C169.942 60.9175 170.342 62.1298 171.142 63.0642C172.22 64.2892 173.641 63.5472 174.089 62.0632C174.488 60.7332 174.411 58.4932 172.976 57.8072C172.66 57.6675 172.313 57.6083 171.968 57.6348C171.623 57.6613 171.29 57.7727 170.998 57.9591C170.707 58.1454 170.466 58.401 170.297 58.703C170.128 59.005 170.036 59.3441 170.029 59.6902Z" fill="#E4897B"/>
<path d="M185.921 118.007C185.921 118.007 194.692 156.815 188.84 184.171C184.92 202.497 170.773 239.513 170.773 239.513L159.713 239.233C159.713 239.233 170.416 200.383 172.635 185.109C176.422 158.971 166.937 116.362 166.937 116.362L185.921 118.007Z" fill="#263238"/>
<path d="M175.805 125.84L170.275 134.562C171.942 144.905 172.999 155.336 173.439 165.803C181.216 151.88 177.534 133.211 175.805 125.84Z" fill="#263238"/>
<path d="M171.682 240.087L158.018 239.737L158.809 235.544L173.726 236.251L171.682 240.087Z" fill="#FF0400"/>
<path opacity="0.6" d="M171.682 240.087L158.018 239.737L158.809 235.544L173.726 236.251L171.682 240.087Z" fill="#FAFAFA"/>
<path d="M180.25 117.587C180.25 117.587 175.105 158.747 163.947 181.217C154.938 199.34 130.9 225.24 130.9 225.24L124.754 218.905C124.754 218.905 140.994 190.828 147.693 178.767C164.115 149.206 150.689 126.652 159.999 115.767L180.25 117.587Z" fill="#263238"/>
<path d="M131.516 226.052L123.578 218.317L126.217 214.733L134.862 223.672L131.516 226.052Z" fill="#FF0400"/>
<path opacity="0.6" d="M131.516 226.052L123.578 218.317L126.217 214.733L134.862 223.672L131.516 226.052Z" fill="#FAFAFA"/>
<path d="M159.732 114.206L158.367 116.425C158.255 116.6 158.458 116.803 158.752 116.824L185.947 119.176C186.185 119.176 186.388 119.099 186.416 118.952L186.85 116.656C186.85 116.495 186.689 116.341 186.43 116.32L160.173 114.045C160.092 114.032 160.009 114.039 159.931 114.067C159.854 114.096 159.786 114.143 159.732 114.206V114.206Z" fill="#FF0400"/>
<path opacity="0.3" d="M159.732 114.206L158.367 116.425C158.255 116.6 158.458 116.803 158.752 116.824L185.947 119.176C186.185 119.176 186.388 119.099 186.416 118.952L186.85 116.656C186.85 116.495 186.689 116.341 186.43 116.32L160.173 114.045C160.092 114.032 160.009 114.039 159.931 114.067C159.854 114.096 159.786 114.143 159.732 114.206V114.206Z" fill="black"/>
<path d="M163.009 117.44L162.309 117.377C162.169 117.377 162.071 117.286 162.085 117.195L162.68 114.213C162.68 114.122 162.827 114.059 162.967 114.073L163.667 114.136C163.807 114.136 163.905 114.227 163.891 114.318L163.303 117.3C163.275 117.398 163.149 117.44 163.009 117.44Z" fill="#263238"/>
<path d="M183.953 119.26L183.253 119.197C183.113 119.197 183.015 119.106 183.029 119.015L183.624 116.026C183.624 115.942 183.771 115.879 183.911 115.893L184.611 115.956C184.751 115.956 184.849 116.047 184.835 116.131L184.247 119.12C184.219 119.211 184.1 119.267 183.953 119.26Z" fill="#263238"/>
<path d="M173.48 118.35L172.78 118.294C172.64 118.294 172.542 118.196 172.556 118.112L173.151 115.123C173.151 115.039 173.298 114.976 173.438 114.99L174.138 115.046C174.278 115.046 174.376 115.144 174.362 115.228L173.774 118.217C173.746 118.301 173.599 118.364 173.48 118.35Z" fill="#263238"/>
<path d="M181.182 57.716C181.091 58.22 181.287 58.682 181.616 58.745C181.945 58.808 182.316 58.444 182.386 57.933C182.456 57.422 182.288 56.96 181.952 56.904C181.616 56.848 181.301 57.24 181.182 57.716Z" fill="#263238"/>
<path d="M186.901 58.766C186.81 59.27 187.006 59.732 187.335 59.795C187.664 59.858 188.035 59.494 188.105 58.983C188.175 58.472 188.007 58.01 187.671 57.954C187.335 57.898 187.027 58.255 186.901 58.766Z" fill="#263238"/>
<path d="M187.551 57.94L188.832 57.814C188.832 57.814 188.034 58.64 187.551 57.94Z" fill="#263238"/>
<path d="M185.247 59.3401C185.491 60.5823 185.904 61.7856 186.472 62.9171C186.178 63.0541 185.858 63.1251 185.534 63.1251C185.21 63.1251 184.889 63.0541 184.596 62.9171L185.247 59.3401Z" fill="#DE5753"/>
<path d="M182.468 64.5972C181.785 64.4914 181.137 64.2232 180.579 63.8151C180.022 63.407 179.57 62.8711 179.262 62.2522C179.25 62.2215 179.251 62.1875 179.264 62.1575C179.277 62.1274 179.302 62.1036 179.332 62.0912C179.347 62.0843 179.363 62.0804 179.379 62.0799C179.395 62.0794 179.411 62.0821 179.426 62.088C179.441 62.0939 179.455 62.1028 179.466 62.1142C179.478 62.1256 179.487 62.1392 179.493 62.1542C179.788 62.7311 180.215 63.2302 180.739 63.6109C181.263 63.9916 181.87 64.2432 182.51 64.3452C182.543 64.3452 182.575 64.3585 182.599 64.3821C182.623 64.4057 182.636 64.4378 182.636 64.4712C182.636 64.5046 182.623 64.5366 182.599 64.5603C182.575 64.5839 182.543 64.5972 182.51 64.5972H182.468Z" fill="#263238"/>
<path d="M179.815 53.7402C179.762 53.7412 179.709 53.7252 179.666 53.6944C179.622 53.6636 179.589 53.6197 179.572 53.5691C179.555 53.5184 179.554 53.4636 179.57 53.4125C179.586 53.3615 179.618 53.3169 179.661 53.2852C180.03 52.9882 180.465 52.7842 180.929 52.6904C181.393 52.5966 181.873 52.6157 182.328 52.7462C182.36 52.7572 182.388 52.7743 182.413 52.7964C182.438 52.8185 182.458 52.8454 182.472 52.8753C182.486 52.9052 182.495 52.9376 182.496 52.9707C182.498 53.0038 182.493 53.037 182.482 53.0682C182.471 53.0995 182.454 53.1283 182.432 53.153C182.41 53.1777 182.383 53.1978 182.353 53.2121C182.323 53.2264 182.291 53.2346 182.258 53.2364C182.225 53.2381 182.192 53.2333 182.16 53.2222C181.785 53.119 181.39 53.1071 181.009 53.1874C180.628 53.2678 180.271 53.4381 179.969 53.6842C179.925 53.7178 179.871 53.7373 179.815 53.7402V53.7402Z" fill="#263238"/>
<path d="M190.176 56.8341C190.138 56.8339 190.102 56.8257 190.068 56.81C190.034 56.7943 190.004 56.7715 189.98 56.7431C189.741 56.4347 189.432 56.1872 189.079 56.0205C188.727 55.8539 188.34 55.7729 187.95 55.7841C187.883 55.7901 187.817 55.7701 187.765 55.7284C187.712 55.6866 187.678 55.6264 187.67 55.5601C187.666 55.5274 187.669 55.4942 187.678 55.4625C187.687 55.4309 187.703 55.4014 187.724 55.3759C187.744 55.3504 187.77 55.3294 187.8 55.3142C187.829 55.2989 187.861 55.2897 187.894 55.2871C188.367 55.2627 188.84 55.353 189.272 55.5505C189.703 55.7479 190.08 56.0466 190.372 56.4211C190.417 56.4693 190.443 56.5332 190.443 56.5996C190.443 56.6661 190.417 56.73 190.372 56.7781C190.316 56.8207 190.246 56.8407 190.176 56.8341Z" fill="#263238"/>
<path d="M160.712 85.9399C159.659 88.0287 158.491 90.0572 157.212 92.0159C155.952 93.9479 154.622 95.8379 153.187 97.6579C151.737 99.4844 150.183 101.226 148.532 102.873C147.678 103.678 146.845 104.497 145.928 105.253L145.228 105.827L145.06 105.967L144.836 106.142C144.689 106.262 144.534 106.375 144.374 106.478C143.738 106.914 143.046 107.262 142.316 107.514C140.943 107.962 139.491 108.122 138.053 107.983C136.765 107.854 135.496 107.574 134.273 107.15C132.007 106.359 129.847 105.294 127.84 103.979C123.979 101.474 120.422 98.5283 117.242 95.2009L119.104 93.2479C120.777 94.5919 122.541 95.9289 124.347 97.1399C126.116 98.379 127.958 99.5104 129.863 100.528C131.677 101.524 133.592 102.324 135.575 102.915C137.465 103.44 139.362 103.531 140.671 102.985C141.411 102.663 142.072 102.186 142.61 101.585C143.387 100.885 144.108 100.108 144.843 99.3519C146.278 97.7909 147.608 96.1179 148.917 94.4519C150.226 92.7859 151.409 90.9519 152.557 89.1319C153.138 88.2219 153.691 87.2979 154.237 86.3739C154.783 85.4499 155.308 84.4769 155.763 83.6089L160.712 85.9399Z" fill="#E4897B"/>
<path d="M120.876 94.081L118.384 88.929L114.24 94.1929C114.24 94.1929 116.984 96.482 119.651 96.398L120.876 94.081Z" fill="#E4897B"/>
<path d="M115.661 87.4241L113.316 91.9111L114.24 94.1931L118.384 88.9291L115.661 87.4241Z" fill="#E4897B"/>
<path d="M158.746 76.644C155.568 77.204 151.109 86.325 151.109 86.325L159.838 94.214C159.838 94.214 165.494 86.619 165.158 82.475C164.871 78.94 162.792 75.93 158.746 76.644Z" fill="#FF0400"/>
<path opacity="0.6" d="M158.746 76.644C155.568 77.204 151.109 86.325 151.109 86.325L159.838 94.214C159.838 94.214 165.494 86.619 165.158 82.475C164.871 78.94 162.792 75.93 158.746 76.644Z" fill="#FAFAFA"/>
<path d="M126.811 232.121C126.728 232.122 126.645 232.108 126.566 232.079C125.803 231.827 125.306 230.42 125.075 229.601C125.068 229.577 125.069 229.552 125.076 229.528C125.084 229.505 125.098 229.484 125.117 229.468C125.139 229.456 125.163 229.449 125.187 229.449C125.212 229.449 125.236 229.456 125.257 229.468C125.488 229.587 127.518 230.679 127.581 231.477C127.591 231.565 127.575 231.653 127.537 231.732C127.499 231.812 127.439 231.878 127.364 231.925C127.207 232.05 127.012 232.119 126.811 232.121V232.121ZM125.411 229.825C125.761 230.952 126.216 231.694 126.65 231.841C126.749 231.871 126.854 231.874 126.955 231.851C127.056 231.827 127.148 231.778 127.224 231.708C127.262 231.686 127.293 231.652 127.313 231.613C127.333 231.573 127.341 231.528 127.336 231.484C127.294 230.994 126.104 230.217 125.404 229.825H125.411Z" fill="#FF0400"/>
<path d="M127.126 230.14C126.434 230.138 125.752 229.977 125.131 229.671C125.112 229.662 125.096 229.647 125.084 229.628C125.073 229.609 125.068 229.588 125.068 229.566C125.069 229.543 125.075 229.52 125.088 229.5C125.1 229.481 125.118 229.465 125.138 229.454C125.201 229.454 126.811 228.537 127.679 228.845C127.786 228.88 127.884 228.938 127.965 229.016C128.046 229.093 128.109 229.188 128.148 229.293C128.204 229.394 128.223 229.511 128.202 229.625C128.182 229.738 128.123 229.841 128.036 229.916C127.766 230.088 127.446 230.167 127.126 230.14V230.14ZM125.474 229.566C126.174 229.86 127.497 230.042 127.875 229.72C127.938 229.671 127.994 229.58 127.917 229.384C127.89 229.313 127.846 229.249 127.791 229.197C127.735 229.145 127.668 229.106 127.595 229.083C127 228.873 125.929 229.342 125.474 229.566Z" fill="#FF0400"/>
<path d="M169.049 248.172C168.342 248.156 167.638 248.067 166.949 247.906C166.923 247.9 166.899 247.886 166.882 247.866C166.864 247.846 166.853 247.821 166.851 247.794C166.847 247.768 166.852 247.742 166.865 247.719C166.877 247.697 166.897 247.679 166.921 247.668C167.236 247.521 169.987 246.268 170.687 246.716C170.749 246.759 170.799 246.819 170.831 246.887C170.863 246.956 170.876 247.033 170.869 247.108C170.861 247.245 170.822 247.379 170.757 247.5C170.692 247.621 170.601 247.726 170.491 247.808C170.058 248.072 169.555 248.199 169.049 248.172V248.172ZM167.411 247.738C168.23 247.892 169.742 248.088 170.365 247.619C170.447 247.558 170.515 247.479 170.563 247.388C170.612 247.297 170.64 247.197 170.645 247.094C170.649 247.062 170.645 247.03 170.632 247.001C170.62 246.971 170.6 246.946 170.575 246.926C170.183 246.66 168.552 247.234 167.411 247.738Z" fill="#FF0400"/>
<path d="M167.006 247.906C166.979 247.917 166.949 247.917 166.922 247.906C166.904 247.89 166.891 247.871 166.884 247.849C166.876 247.826 166.875 247.803 166.88 247.78C166.88 247.668 167.538 244.945 169.029 245.12C169.407 245.162 169.505 245.351 169.526 245.498C169.624 246.198 167.881 247.598 167.055 247.927L167.006 247.906ZM168.896 245.337C167.937 245.337 167.384 246.919 167.195 247.556C168.098 247.08 169.337 245.946 169.295 245.505C169.295 245.47 169.295 245.372 169.022 245.344L168.896 245.337Z" fill="#FF0400"/>
<path d="M181.803 56.904L183.084 56.771C183.084 56.771 182.286 57.611 181.803 56.904Z" fill="#263238"/>
<path opacity="0.6" d="M129.142 17.011L108.625 149.64L224.069 167.476L244.586 34.84L129.142 17.011ZM176.574 92.45C171.275 91.6299 166.339 89.2565 162.389 85.6302C158.439 82.0039 155.654 77.2876 154.385 72.0779C153.116 66.8682 153.421 61.3993 155.262 56.363C157.102 51.3267 160.394 46.9494 164.723 43.7848C169.051 40.6202 174.221 38.8106 179.579 38.5849C184.936 38.3592 190.239 39.7275 194.819 42.5168C199.398 45.306 203.047 49.3909 205.305 54.2545C207.562 59.1182 208.326 64.542 207.5 69.84C206.394 76.9375 202.515 83.3055 196.716 87.545C190.917 91.7844 183.673 93.5486 176.574 92.45Z" fill="#FF0400"/>
<g style="mix-blend-mode:multiply" opacity="0.3">
<path d="M220.583 162.443H220.408L104.789 144.53V144.355L125.362 11.572H125.53L241.149 29.485V29.66L220.583 162.443ZM105.188 144.243L220.289 162.044L240.75 29.744L125.649 11.971L105.188 144.243Z" fill="#FF0400"/>
</g>
<path d="M180.732 93.8222C179.286 93.8206 177.842 93.7083 176.413 93.4862V93.4862C169.232 92.3658 162.764 88.5077 158.366 82.7213C153.968 76.9349 151.982 69.67 152.824 62.4509C153.667 55.2318 157.273 48.6196 162.886 44.0017C168.498 39.3838 175.681 37.1192 182.927 37.6829C190.173 38.2466 196.92 41.5949 201.751 47.0252C206.581 52.4556 209.121 59.5459 208.837 66.8084C208.553 74.071 205.468 80.9413 200.228 85.9779C194.988 91.0145 188.001 93.8259 180.732 93.8222ZM176.735 91.4142C181.826 92.2007 187.036 91.4601 191.706 89.286C196.376 87.1119 200.296 83.602 202.971 79.2C205.646 74.798 206.956 69.7016 206.735 64.5552C206.514 59.4088 204.772 54.4434 201.73 50.287C198.687 46.1305 194.48 42.9695 189.641 41.2038C184.802 39.438 179.548 39.1467 174.543 40.3667C169.539 41.5867 165.008 44.2632 161.525 48.0578C158.041 51.8524 155.761 56.5948 154.972 61.6852C153.924 68.5123 155.627 75.4764 159.707 81.0497C163.787 86.623 169.911 90.3504 176.735 91.4142V91.4142Z" fill="#FAFAFA"/>
<path d="M154.275 100.656L128.846 96.7234L127.962 102.437L153.392 106.37L154.275 100.656Z" fill="#FF0400"/>
<path opacity="0.6" d="M154.275 100.656L128.846 96.7234L127.962 102.437L153.392 106.37L154.275 100.656Z" fill="#FAFAFA"/>
<path d="M174.83 103.835L157.625 101.175L156.741 106.889L173.946 109.549L174.83 103.835Z" fill="#FF0400"/>
<path opacity="0.6" d="M174.83 103.835L157.625 101.175L156.741 106.889L173.946 109.549L174.83 103.835Z" fill="#FAFAFA"/>
<path d="M219.009 122.522L127.051 108.302L126.167 114.016L218.125 128.236L219.009 122.522Z" fill="#FAFAFA"/>
<path d="M171.649 127.323L125.842 120.383L124.974 126.107L170.782 133.047L171.649 127.323Z" fill="#FAFAFA"/>
<path d="M209.317 133.463L178.727 128.733L177.843 134.447L208.433 139.177L209.317 133.463Z" fill="#FAFAFA"/>
<path d="M196.812 143.974L123.297 132.606L122.413 138.32L195.929 149.688L196.812 143.974Z" fill="#FAFAFA"/>
<path d="M245.82 167.476H245.12C245.122 165.739 244.908 164.008 244.483 162.324L245.183 162.156C245.616 163.896 245.83 165.683 245.82 167.476V167.476ZM243.076 158.432C241.535 155.209 239.207 152.426 236.307 150.34L236.713 149.773C239.708 151.924 242.115 154.793 243.713 158.117L243.076 158.432Z" fill="#FF0400"/>
<path opacity="0.6" d="M245.82 167.476H245.12C245.122 165.739 244.908 164.008 244.483 162.324L245.183 162.156C245.616 163.896 245.83 165.683 245.82 167.476V167.476ZM243.076 158.432C241.535 155.209 239.207 152.426 236.307 150.34L236.713 149.773C239.708 151.924 242.115 154.793 243.713 158.117L243.076 158.432Z" fill="#FAFAFA"/>
<path d="M224.069 148.177C220.252 148.177 216.52 149.309 213.347 151.43C210.173 153.55 207.699 156.564 206.239 160.091C204.778 163.617 204.396 167.498 205.14 171.241C205.885 174.985 207.723 178.424 210.422 181.123C213.121 183.822 216.56 185.66 220.304 186.404C224.047 187.149 227.928 186.767 231.454 185.306C234.98 183.845 237.994 181.372 240.115 178.198C242.236 175.024 243.368 171.293 243.368 167.476C243.368 162.358 241.334 157.449 237.715 153.83C234.096 150.211 229.187 148.177 224.069 148.177ZM224.069 184.276C220.746 184.276 217.498 183.291 214.735 181.445C211.972 179.599 209.819 176.975 208.547 173.905C207.276 170.836 206.943 167.458 207.591 164.199C208.24 160.94 209.84 157.946 212.189 155.597C214.539 153.247 217.532 151.647 220.791 150.999C224.05 150.351 227.428 150.684 230.498 151.955C233.567 153.227 236.191 155.38 238.037 158.143C239.883 160.905 240.869 164.154 240.869 167.476C240.869 171.932 239.099 176.205 235.948 179.356C232.797 182.506 228.524 184.276 224.069 184.276Z" fill="#FF0400"/>
<path opacity="0.6" d="M224.069 148.177C220.252 148.177 216.52 149.309 213.347 151.43C210.173 153.55 207.699 156.564 206.239 160.091C204.778 163.617 204.396 167.498 205.14 171.241C205.885 174.985 207.723 178.424 210.422 181.123C213.121 183.822 216.56 185.66 220.304 186.404C224.047 187.149 227.928 186.767 231.454 185.306C234.98 183.845 237.994 181.372 240.115 178.198C242.236 175.024 243.368 171.293 243.368 167.476C243.368 162.358 241.334 157.449 237.715 153.83C234.096 150.211 229.187 148.177 224.069 148.177ZM224.069 184.276C220.746 184.276 217.498 183.291 214.735 181.445C211.972 179.599 209.819 176.975 208.547 173.905C207.276 170.836 206.943 167.458 207.591 164.199C208.24 160.94 209.84 157.946 212.189 155.597C214.539 153.247 217.532 151.647 220.791 150.999C224.05 150.351 227.428 150.684 230.498 151.955C233.567 153.227 236.191 155.38 238.037 158.143C239.883 160.905 240.869 164.154 240.869 167.476C240.869 171.932 239.099 176.205 235.948 179.356C232.797 182.506 228.524 184.276 224.069 184.276Z" fill="#FAFAFA"/>
<path d="M224.07 184.269C233.345 184.269 240.863 176.751 240.863 167.476C240.863 158.202 233.345 150.683 224.07 150.683C214.796 150.683 207.277 158.202 207.277 167.476C207.277 176.751 214.796 184.269 224.07 184.269Z" fill="#FF0400"/>
<path opacity="0.2" d="M224.07 184.269C233.345 184.269 240.863 176.751 240.863 167.476C240.863 158.202 233.345 150.683 224.07 150.683C214.796 150.683 207.277 158.202 207.277 167.476C207.277 176.751 214.796 184.269 224.07 184.269Z" fill="black"/>
<path d="M221.458 178.102L211.602 168.246L214.08 165.775L221.458 173.153L234.065 160.546L236.536 163.024L221.458 178.102Z" fill="#FAFAFA"/>
</svg>
