<svg width="778" height="580" viewBox="0 0 778 580" fill="none" xmlns="http://www.w3.org/2000/svg">
<path d="M777.844 509.333H0V509.721H777.844V509.333Z" fill="#EBEBEB"/>
<path d="M690.555 524.143H639.03V524.532H690.555V524.143Z" fill="#EBEBEB"/>
<path d="M282.093 529.417H204.526V529.805H282.093V529.417Z" fill="#EBEBEB"/>
<path d="M637.475 538.595H591.535V538.984H637.475V538.595Z" fill="#EBEBEB"/>
<path d="M115.214 535.981H81.6113V536.37H115.214V535.981Z" fill="#EBEBEB"/>
<path d="M188.751 535.981H129.06V536.37H188.751V535.981Z" fill="#EBEBEB"/>
<path d="M515.275 519.927H369.538V520.316H515.275V519.927Z" fill="#EBEBEB"/>
<path d="M368.699 439.949H68.3108C65.9576 439.945 63.7021 439.007 62.0396 437.342C60.3771 435.676 59.4434 433.419 59.4434 431.066V8.8052C59.4638 6.46548 60.4066 4.22833 62.0669 2.57967C63.7272 0.931015 65.971 0.00400806 68.3108 0H368.699C371.055 0 373.314 0.935883 374.98 2.60177C376.646 4.26765 377.582 6.52707 377.582 8.88298V431.066C377.582 433.422 376.646 435.681 374.98 437.347C373.314 439.013 371.055 439.949 368.699 439.949V439.949ZM68.3108 0.311139C66.0607 0.31526 63.9042 1.21198 62.3146 2.80448C60.7251 4.39698 59.8323 6.55513 59.8323 8.8052V431.066C59.8323 433.316 60.7251 435.474 62.3146 437.066C63.9042 438.659 66.0607 439.556 68.3108 439.56H368.699C370.95 439.556 373.108 438.66 374.7 437.067C376.292 435.475 377.189 433.317 377.193 431.066V8.8052C377.189 6.5537 376.292 4.39559 374.7 2.80353C373.108 1.21148 370.95 0.315251 368.699 0.311139H68.3108Z" fill="#EBEBEB"/>
<path d="M705.209 439.949H404.806C402.451 439.945 400.194 439.007 398.529 437.342C396.864 435.677 395.927 433.42 395.923 431.066V8.8052C395.947 6.46406 396.894 4.22693 398.556 2.5787C400.219 0.930471 402.465 0.00396435 404.806 0H705.209C707.546 0.00809658 709.786 0.936912 711.443 2.58513C713.1 4.23335 714.041 6.46817 714.061 8.8052V431.066C714.061 433.416 713.13 435.671 711.47 437.336C709.811 439.001 707.56 439.941 705.209 439.949V439.949ZM404.806 0.311139C402.554 0.315251 400.396 1.21148 398.804 2.80353C397.212 4.39559 396.316 6.5537 396.312 8.8052V431.066C396.316 433.317 397.212 435.475 398.804 437.067C400.396 438.66 402.554 439.556 404.806 439.56H705.209C707.461 439.556 709.619 438.66 711.211 437.067C712.803 435.475 713.699 433.317 713.703 431.066V8.8052C713.699 6.5537 712.803 4.39559 711.211 2.80353C709.619 1.21148 707.461 0.315251 705.209 0.311139H404.806Z" fill="#EBEBEB"/>
<path d="M169.119 248.366L591.037 248.366V42.2992L169.119 42.2992V248.366Z" fill="#E6E6E6"/>
<path d="M161.215 248.366L587.35 248.366V42.2992L161.215 42.2992V248.366Z" fill="#F0F0F0"/>
<path d="M169.119 263.051L591.037 263.051V248.366L169.119 248.366V263.051Z" fill="#E6E6E6"/>
<path d="M148.04 263.051L574.174 263.051V248.366L148.04 248.366V263.051Z" fill="#F0F0F0"/>
<path d="M576.289 237.32V53.3757L172.277 53.3757V237.32L576.289 237.32Z" fill="#FAFAFA"/>
<path d="M283.4 237.32L265.696 53.3757H235.049L252.753 237.32H283.4Z" fill="white"/>
<path d="M519.32 237.32L501.601 53.3757H470.954L488.673 237.32H519.32Z" fill="white"/>
<path d="M571.171 174.968C571.395 174.964 571.609 174.872 571.766 174.712C571.923 174.552 572.011 174.337 572.011 174.113V60.5474C572.028 60.4264 572.018 60.3033 571.983 60.1864C571.948 60.0695 571.888 59.9614 571.808 59.8694C571.727 59.7775 571.628 59.7038 571.517 59.6533C571.406 59.6028 571.285 59.5767 571.163 59.5767C571.041 59.5767 570.92 59.6028 570.809 59.6533C570.698 59.7038 570.599 59.7775 570.519 59.8694C570.438 59.9614 570.379 60.0695 570.344 60.1864C570.309 60.3033 570.299 60.4264 570.315 60.5474V174.113C570.315 174.225 570.338 174.336 570.381 174.44C570.424 174.544 570.487 174.638 570.566 174.718C570.645 174.797 570.74 174.86 570.844 174.903C570.947 174.946 571.059 174.968 571.171 174.968V174.968Z" fill="#F0F0F0"/>
<path d="M246.172 237.32L228.453 53.3757H216.505L234.224 237.32H246.172Z" fill="white"/>
<path d="M173.677 237.32V53.3757H172.277V237.32H173.677Z" fill="#E6E6E6"/>
<path opacity="0.5" d="M158.603 73.4286H580.521L581.532 57.6694H159.614L158.603 73.4286Z" fill="#E0E0E0"/>
<path opacity="0.5" d="M158.603 99.3307H580.521L581.532 83.5715H159.614L158.603 99.3307Z" fill="#E0E0E0"/>
<path opacity="0.5" d="M158.603 125.233H580.521L581.532 109.474H159.614L158.603 125.233Z" fill="#E0E0E0"/>
<path opacity="0.5" d="M158.603 151.135H580.521L581.532 135.376H159.614L158.603 151.135Z" fill="#E0E0E0"/>
<path opacity="0.5" d="M158.603 177.037H580.521L581.532 161.278H159.614L158.603 177.037Z" fill="#E0E0E0"/>
<path opacity="0.5" d="M158.603 202.94H580.521L581.532 187.18H159.614L158.603 202.94Z" fill="#E0E0E0"/>
<path d="M411.697 509.333H438.237V331.922H411.697V509.333Z" fill="#E6E6E6"/>
<path d="M418.667 509.332H411.697V485.173H425.994L418.667 509.332Z" fill="#F0F0F0"/>
<path d="M656.454 509.333H682.994V331.922H656.454V509.333Z" fill="#E6E6E6"/>
<path d="M411.682 494.507L662.521 494.507V331.922H411.682V494.507Z" fill="#F0F0F0"/>
<path d="M417.096 383.695L657.107 383.695V339.109H417.096V383.695Z" fill="#E6E6E6"/>
<path d="M458.928 352.97H610.608C617.422 352.97 623.924 347.479 628.607 337.756H440.929C445.611 347.479 452.114 352.97 458.928 352.97Z" fill="#F0F0F0"/>
<path d="M655.552 509.332H662.537V485.173H648.24L655.552 509.332Z" fill="#F0F0F0"/>
<path d="M417.096 435.5L657.107 435.5V390.913H417.096V435.5Z" fill="#E6E6E6"/>
<path d="M458.928 404.775H610.608C617.422 404.775 623.924 399.268 628.607 389.56H440.929C445.611 399.268 452.114 404.775 458.928 404.775Z" fill="#F0F0F0"/>
<path d="M417.096 487.304L657.107 487.304V442.718H417.096V487.304Z" fill="#E6E6E6"/>
<path d="M458.928 456.564H610.608C617.422 456.564 623.924 451.056 628.607 441.349H440.929C445.611 451.056 452.114 456.564 458.928 456.564Z" fill="#F0F0F0"/>
<path d="M236.947 277.177H206.175C202.274 277.177 199.112 280.339 199.112 284.24V296.063C199.112 299.964 202.274 303.126 206.175 303.126H236.947C240.847 303.126 244.009 299.964 244.009 296.063V284.24C244.009 280.339 240.847 277.177 236.947 277.177Z" fill="#F5F5F5"/>
<path d="M293.122 277.177H262.351C258.45 277.177 255.288 280.339 255.288 284.24V296.063C255.288 299.964 258.45 303.126 262.351 303.126H293.122C297.023 303.126 300.185 299.964 300.185 296.063V284.24C300.185 280.339 297.023 277.177 293.122 277.177Z" fill="#F5F5F5"/>
<path d="M128.313 271.981C128.313 271.981 129.387 303.095 170.426 303.095C211.465 303.095 212.523 271.981 212.523 271.981H128.313Z" fill="#F0F0F0"/>
<path d="M304.806 499.189H349.983V312.927H304.806V499.189Z" fill="#F0F0F0"/>
<path d="M118.544 509.333H341.318V499.189H118.544V509.333Z" fill="#F0F0F0"/>
<path d="M304.806 312.911H109.862V499.174H304.806V312.911Z" fill="#F5F5F5"/>
<path d="M287.056 384.582H127.629V427.519H287.056V384.582Z" fill="#F0F0F0"/>
<path d="M287.056 437.102H127.629V480.039H287.056V437.102Z" fill="#F0F0F0"/>
<path d="M188.627 390.338H226.041C226.993 390.334 227.905 389.954 228.578 389.281C229.251 388.608 229.631 387.696 229.635 386.744V386.744C229.635 385.79 229.257 384.874 228.583 384.198C227.91 383.521 226.996 383.139 226.041 383.135H188.627C187.672 383.139 186.758 383.521 186.085 384.198C185.411 384.874 185.033 385.79 185.033 386.744C185.037 387.696 185.417 388.608 186.09 389.281C186.763 389.954 187.675 390.334 188.627 390.338V390.338Z" fill="#F5F5F5"/>
<path d="M287.056 332.077H127.629V375.014H287.056V332.077Z" fill="#F0F0F0"/>
<path d="M188.627 337.833H226.041C226.996 337.829 227.91 337.447 228.583 336.771C229.257 336.094 229.635 335.179 229.635 334.224C229.631 333.272 229.251 332.361 228.578 331.688C227.905 331.015 226.993 330.635 226.041 330.631H188.627C187.675 330.635 186.763 331.015 186.09 331.688C185.417 332.361 185.037 333.272 185.033 334.224V334.224C185.033 335.179 185.411 336.094 186.085 336.771C186.758 337.447 187.672 337.829 188.627 337.833V337.833Z" fill="#F5F5F5"/>
<path d="M188.628 442.842H226.042C228.027 442.842 229.636 441.233 229.636 439.249V439.233C229.636 437.248 228.027 435.639 226.042 435.639H188.628C186.643 435.639 185.034 437.248 185.034 439.233V439.249C185.034 441.233 186.643 442.842 188.628 442.842Z" fill="#F5F5F5"/>
<path d="M103.842 312.911H304.806V303.11H103.842V312.911Z" fill="#F0F0F0"/>
<path d="M356.299 303.126H304.806V312.927H356.299V303.126Z" fill="#E6E6E6"/>
<path d="M606.346 199.424L595.191 182.529C595.58 280.32 597.229 285.951 597.183 302.784H606.128C607.372 220.908 610.826 220.426 606.346 199.424Z" fill="#E0E0E0"/>
<path d="M602.052 331.906C627.705 331.906 649.345 321.499 654.603 307.42C655.948 303.568 657.789 299.907 660.079 296.53L660.483 295.954H543.589L543.993 296.53C546.294 299.903 548.14 303.564 549.485 307.42C554.743 321.499 576.383 331.906 602.052 331.906Z" fill="#FAFAFA"/>
<path d="M543.356 299.439H660.717C662.302 299.435 663.84 298.906 665.093 297.935C666.345 296.964 667.241 295.606 667.64 294.072V294.072C667.91 293.016 667.935 291.912 667.714 290.845C667.492 289.778 667.03 288.775 666.362 287.914C665.695 287.052 664.839 286.355 663.86 285.874C662.882 285.394 661.807 285.144 660.717 285.142H543.356C542.265 285.141 541.188 285.389 540.208 285.868C539.228 286.348 538.371 287.045 537.702 287.908C537.034 288.77 536.572 289.774 536.352 290.842C536.132 291.911 536.16 293.016 536.433 294.072V294.072C536.827 295.608 537.721 296.97 538.975 297.942C540.228 298.913 541.77 299.44 543.356 299.439V299.439Z" fill="#F0F0F0"/>
<path d="M602.97 185.812C600.745 159.365 573.536 156.751 522.634 144.29C547.603 216.241 611.386 285.422 602.97 185.812Z" fill="#E0E0E0"/>
<path d="M595.595 171.919C591.83 150.917 595.766 128.656 654.711 130.833C639.947 188.658 613.112 269.43 595.595 171.919Z" fill="#E0E0E0"/>
<path d="M598.272 223.195C600.061 199.004 618.698 170.301 679.712 190.945C652.581 237.896 593.947 281.58 598.272 223.195Z" fill="#E0E0E0"/>
<path d="M388.922 579.587C555.509 579.587 690.554 571.703 690.554 561.977C690.554 552.251 555.509 544.367 388.922 544.367C222.335 544.367 87.2891 552.251 87.2891 561.977C87.2891 571.703 222.335 579.587 388.922 579.587Z" fill="#F5F5F5"/>
<path d="M209.629 344.18H400.527V333.882H209.629V344.18Z" fill="#FF0400"/>
<path opacity="0.5" d="M209.629 344.18H400.527V333.882H209.629V344.18Z" fill="white"/>
<path d="M209.629 333.882H122.215V344.18H209.629V333.882Z" fill="#FF0400"/>
<path opacity="0.5" d="M209.629 333.882H122.215V344.18H209.629V333.882Z" fill="white"/>
<path opacity="0.2" d="M209.629 333.882H122.215V344.18H209.629V333.882Z" fill="black"/>
<path d="M128.127 355.164H394.647L396.934 344.18H125.824L128.127 355.164Z" fill="#FF0400"/>
<path opacity="0.6" d="M128.127 355.164H394.647L396.934 344.18H125.824L128.127 355.164Z" fill="black"/>
<path d="M366.972 355.164V556.205H360.951L353.359 355.164H366.972Z" fill="#FF0400"/>
<path opacity="0.5" d="M366.972 355.164V556.205H360.951L353.359 355.164H366.972Z" fill="white"/>
<path d="M295.814 355.164V556.205H289.794L282.202 355.164H295.814Z" fill="#FF0400"/>
<path opacity="0.5" d="M295.814 355.164V556.205H289.794L282.202 355.164H295.814Z" fill="white"/>
<path d="M141.552 355.164V556.205H147.572L155.164 355.164H141.552Z" fill="#FF0400"/>
<path opacity="0.5" d="M141.552 355.164V556.205H147.572L155.164 355.164H141.552Z" fill="white"/>
<path d="M212.71 355.164V556.205H218.73L226.322 355.164H212.71Z" fill="#FF0400"/>
<path opacity="0.5" d="M212.71 355.164V556.205H218.73L226.322 355.164H212.71Z" fill="white"/>
<path d="M618.091 204.635C621.498 211.278 624.625 217.905 627.627 224.688C630.63 231.471 633.414 238.331 635.981 245.394C636.588 247.199 637.241 248.941 637.801 250.793L638.237 252.162L638.47 252.846C638.47 253.079 638.704 253.655 638.797 254.044C639.135 255.575 639.251 257.147 639.139 258.711C638.913 261.221 638.288 263.678 637.288 265.992C636.469 267.968 635.485 269.873 634.348 271.685C630.129 278.26 624.942 284.16 618.962 289.187L613.222 283.929C617.076 278.244 620.463 272.256 623.349 266.023C623.959 264.621 624.479 263.182 624.905 261.713C625.235 260.615 625.377 259.468 625.325 258.322C625.327 258.078 625.268 257.837 625.154 257.622C625.154 257.622 625.154 257.7 625.076 257.513L624.843 256.906L624.36 255.693C623.738 254.137 623.007 252.457 622.322 250.824C619.522 244.305 616.489 237.787 613.393 231.269L604.059 211.745L618.091 204.635Z" fill="#FF8B7B"/>
<path d="M614.933 282.046L607.886 285.064L614.902 294.787C614.902 294.787 620.005 291.925 620.642 286.931L614.933 282.046Z" fill="#FF8B7B"/>
<path d="M598.349 289.918L606.112 297.199L614.901 294.788L607.885 285.064L598.349 289.918Z" fill="#FF8B7B"/>
<path d="M569.491 155.864C569.32 156.689 568.76 157.265 568.216 157.156C567.671 157.047 567.391 156.285 567.547 155.476C567.702 154.667 568.293 154.075 568.822 154.184C569.351 154.293 569.662 155.04 569.491 155.864Z" fill="#263238"/>
<path d="M568.838 157.28C567.347 159.589 565.546 161.683 563.486 163.503C563.962 164.022 564.545 164.43 565.196 164.699C565.846 164.968 566.548 165.091 567.251 165.058L568.838 157.28Z" fill="#ED847E"/>
<path d="M573.427 151.929C573.356 151.926 573.287 151.91 573.223 151.881C573.158 151.851 573.101 151.809 573.053 151.757C572.647 151.296 572.139 150.936 571.569 150.706C570.999 150.477 570.383 150.384 569.771 150.435C569.707 150.446 569.642 150.445 569.58 150.431C569.517 150.417 569.457 150.391 569.405 150.354C569.352 150.317 569.307 150.271 569.272 150.216C569.238 150.162 569.214 150.102 569.203 150.038C569.192 149.975 569.193 149.91 569.207 149.847C569.221 149.784 569.247 149.725 569.284 149.672C569.32 149.62 569.367 149.575 569.421 149.54C569.476 149.505 569.536 149.482 569.6 149.471C570.371 149.377 571.153 149.47 571.881 149.74C572.609 150.011 573.261 150.452 573.784 151.026C573.846 151.097 573.887 151.184 573.901 151.277C573.915 151.37 573.903 151.465 573.866 151.551C573.828 151.638 573.767 151.712 573.689 151.765C573.612 151.818 573.521 151.847 573.427 151.851V151.929Z" fill="#263238"/>
<path d="M592.842 167.392C591.287 174.984 589.871 188.876 595.176 193.948C595.176 193.948 593.107 201.633 579.012 201.633C563.455 201.633 571.607 193.948 571.607 193.948C580.055 191.925 579.837 185.64 578.375 179.744L592.842 167.392Z" fill="#FF8B7B"/>
<path d="M598.816 196.359C599.952 193.932 601.227 191.148 598.381 190.401C595.269 189.576 578.234 189.218 572.447 191.21C566.66 193.201 568.511 197.961 568.511 197.961L598.816 196.359Z" fill="#FF0400"/>
<path d="M567.593 550.714C566.271 550.714 564.98 550.527 564.482 549.92C564.373 549.762 564.315 549.575 564.315 549.384C564.315 549.192 564.373 549.005 564.482 548.847C564.567 548.705 564.68 548.58 564.813 548.482C564.947 548.383 565.098 548.311 565.26 548.271C566.986 547.805 570.611 549.827 570.751 549.967C570.796 549.99 570.832 550.026 570.855 550.071C570.877 550.116 570.884 550.167 570.876 550.216C570.868 550.264 570.846 550.309 570.813 550.345C570.78 550.381 570.737 550.407 570.689 550.418C569.667 550.601 568.631 550.7 567.593 550.714V550.714ZM565.96 548.691C565.8 548.666 565.637 548.666 565.477 548.691C565.377 548.711 565.282 548.751 565.199 548.81C565.116 548.869 565.046 548.946 564.995 549.034C564.824 549.345 564.886 549.485 564.995 549.578C565.477 550.247 568.107 550.263 570.02 549.983C568.757 549.319 567.379 548.902 565.96 548.754V548.691Z" fill="#FF0400"/>
<path d="M570.736 550.481H570.627C569.383 549.92 566.894 547.665 567.08 546.498C567.08 546.218 567.329 545.876 567.998 545.813C568.243 545.788 568.49 545.812 568.725 545.884C568.96 545.957 569.179 546.075 569.367 546.233C570.298 547.367 570.843 548.767 570.923 550.232C570.928 550.273 570.922 550.315 570.906 550.353C570.889 550.392 570.863 550.425 570.829 550.449L570.736 550.481ZM568.2 546.28H568.045C567.609 546.28 567.578 546.498 567.578 546.56C567.454 547.26 569.134 549.034 570.425 549.796C570.299 548.615 569.822 547.499 569.056 546.591C568.814 546.394 568.512 546.284 568.2 546.28Z" fill="#FF0400"/>
<path d="M582.139 550.232H571.762L570.735 526.227H581.096L582.139 550.232Z" fill="#FF8B7B"/>
<path d="M656.874 538.797L646.56 539.917L638.781 516.598L649.095 515.478L656.874 538.797Z" fill="#FF8B7B"/>
<path d="M641.846 542.266C640.555 542.609 639.263 542.749 638.734 542.266C638.589 542.141 638.487 541.972 638.442 541.785C638.397 541.598 638.413 541.402 638.486 541.224C638.532 541.063 638.612 540.914 638.719 540.786C638.826 540.657 638.958 540.552 639.108 540.477C640.664 539.591 644.677 540.695 644.848 540.742C644.897 540.756 644.941 540.785 644.974 540.823C645.007 540.862 645.028 540.909 645.035 540.96C645.038 541.01 645.026 541.06 645.001 541.105C644.977 541.149 644.94 541.185 644.895 541.208C643.914 541.656 642.893 542.011 641.846 542.266V542.266ZM639.761 540.711C639.606 540.753 639.455 540.81 639.31 540.882C639.221 540.928 639.141 540.992 639.077 541.069C639.013 541.147 638.965 541.236 638.937 541.333C638.843 541.675 638.937 541.8 639.014 541.877C639.652 542.406 642.204 541.769 643.993 541.037C642.616 540.659 641.178 540.553 639.761 540.726V540.711Z" fill="#FF0400"/>
<path d="M644.817 541.224C644.817 541.224 644.739 541.224 644.708 541.224C643.355 540.991 640.399 539.435 640.306 538.253C640.306 537.973 640.383 537.584 641.021 537.35C641.245 537.255 641.486 537.206 641.729 537.206C641.972 537.206 642.213 537.255 642.437 537.35C643.993 538.082 644.942 540.711 644.988 540.82C645.012 540.857 645.024 540.9 645.024 540.944C645.024 540.988 645.012 541.031 644.988 541.068L644.817 541.224ZM641.332 537.77H641.177C640.772 537.926 640.788 538.097 640.788 538.159C640.788 538.859 642.919 540.151 644.35 540.586C643.949 539.47 643.209 538.508 642.235 537.833C641.952 537.7 641.63 537.677 641.332 537.77V537.77Z" fill="#FF0400"/>
<path d="M645.969 538.953L657.154 535.701C657.352 535.641 657.564 535.652 657.754 535.732C657.944 535.811 658.101 535.954 658.197 536.137L662.724 544.491C662.826 544.694 662.883 544.918 662.89 545.146C662.897 545.374 662.853 545.601 662.763 545.81C662.672 546.019 662.537 546.206 662.366 546.357C662.195 546.508 661.993 546.62 661.775 546.684C657.854 547.758 655.894 548.085 650.978 549.5C647.945 550.387 641.8 552.518 637.615 553.732C633.43 554.945 631.688 550.963 633.29 550.091C640.477 546.187 642.702 543.029 644.506 540.119C644.827 539.558 645.351 539.141 645.969 538.953V538.953Z" fill="#263238"/>
<path d="M571.824 549.034H583.15C583.357 549.033 583.559 549.103 583.72 549.234C583.882 549.364 583.993 549.546 584.036 549.749L586.09 558.959C586.134 559.186 586.127 559.421 586.068 559.645C586.01 559.87 585.903 560.078 585.753 560.256C585.604 560.433 585.417 560.575 585.207 560.671C584.996 560.767 584.766 560.814 584.534 560.81C580.443 560.732 574.547 560.499 569.413 560.499C563.408 560.499 560.079 560.826 553.094 560.826C548.831 560.826 547.664 556.517 549.438 556.159C557.558 554.385 562.257 554.199 569.273 549.936C570.02 549.398 570.905 549.085 571.824 549.034V549.034Z" fill="#263238"/>
<path d="M564.358 212.74C562.989 216.381 561.511 219.57 559.924 222.899C558.337 226.228 556.641 229.417 554.821 232.622C551.134 239.194 546.747 245.349 541.738 250.979C541.069 251.695 540.384 252.411 539.669 253.111C539.327 253.453 538.969 253.811 538.595 254.153L537.382 255.257C536.22 256.301 534.829 257.057 533.322 257.467C532.221 257.756 531.073 257.825 529.946 257.669C529.384 257.596 528.832 257.466 528.297 257.28C527.826 257.113 527.368 256.91 526.928 256.673C525.739 256.018 524.705 255.116 523.894 254.028C523.378 253.365 522.929 252.651 522.556 251.897C521.579 249.844 520.848 247.682 520.378 245.457C519.958 243.496 519.678 241.63 519.429 239.778C518.578 232.551 518.37 225.263 518.807 217.999L526.585 217.439C528.141 224.144 529.697 230.989 531.439 237.336C531.875 238.892 532.388 240.447 532.902 241.879C533.279 243.059 533.802 244.187 534.457 245.239C534.551 245.363 534.644 245.425 534.582 245.239C534.302 244.846 533.927 244.53 533.493 244.321C533.249 244.185 532.994 244.071 532.73 243.979C532.403 243.861 532.064 243.778 531.719 243.73C531.029 243.637 530.327 243.674 529.65 243.839C528.982 244.001 528.357 244.303 527.814 244.725L528.483 243.979C528.748 243.714 528.997 243.434 529.246 243.139C529.744 242.579 530.226 241.972 530.708 241.381C534.653 236.221 538.136 230.724 541.116 224.953C542.671 222.028 544.227 219.01 545.643 215.992C547.058 212.974 548.49 209.769 549.734 206.938L564.358 212.74Z" fill="#FF8B7B"/>
<path d="M613.75 196.281C623.474 198.521 633.29 226.928 633.29 226.928L613.284 241.287C613.284 241.287 607.699 228.048 602.192 216.474C596.436 204.34 603.81 194.01 613.75 196.281Z" fill="#263238"/>
<path d="M555.646 196.826C555.646 196.826 544.616 209.271 555.039 286.449H610.499C610.888 277.939 605.536 236.402 613.751 196.219C607.615 195.043 601.411 194.264 595.176 193.885C587.326 193.426 579.456 193.426 571.607 193.885C566.218 194.448 560.881 195.431 555.646 196.826V196.826Z" fill="#263238"/>
<path d="M569.382 207.327C572.867 216.661 556.936 241.365 556.936 241.365L533.259 227.13C539.288 220.26 544.465 212.686 548.676 204.573C556.345 188.612 566.582 199.813 569.382 207.327Z" fill="#263238"/>
<path d="M521.467 222.603L511.526 218.419L516.707 210.313C516.707 210.313 523.754 211.06 526.352 215.696C526.723 216.372 526.83 217.162 526.652 217.912C526.473 218.662 526.023 219.32 525.388 219.756L521.467 222.603Z" fill="#FF8B7B"/>
<path d="M503.452 212.352L512.133 206.611L516.707 210.314L511.526 218.419L503.452 212.352Z" fill="#FF8B7B"/>
<path opacity="0.2" d="M570.735 526.227L571.264 538.611H581.641L581.112 526.227H570.735Z" fill="black"/>
<path opacity="0.2" d="M649.095 515.493L638.781 516.613L643.106 529.541L653.109 527.503L649.095 515.493Z" fill="black"/>
<path d="M597.182 159.676C594.522 169.617 593.464 175.575 587.335 179.713C578.109 185.936 566.613 178.795 566.255 168.263C565.928 158.774 570.347 144.103 581.019 142.112C583.368 141.651 585.797 141.801 588.073 142.546C590.348 143.292 592.394 144.608 594.016 146.37C595.637 148.132 596.78 150.281 597.334 152.61C597.889 154.94 597.836 157.372 597.182 159.676V159.676Z" fill="#FF8B7B"/>
<path d="M603.685 153.826C605.054 154.153 607.839 153.951 610.343 148.288C613.813 140.51 598.582 142.688 598.582 142.688C598.582 142.688 612.584 136.341 600.636 130.242C592.858 126.275 589.933 129.947 588.875 132.965C589.186 129.853 588.424 125.715 581.283 127.909C570.393 131.238 578.25 139.856 578.25 139.856C577.103 139.039 575.707 138.648 574.303 138.753C572.899 138.859 571.576 139.453 570.565 140.432C567.08 143.543 569.818 147.946 573.178 151.866C571.171 154.698 570.3 158.089 575.683 159.349C576.645 159.525 577.516 160.029 578.148 160.775C578.781 161.521 579.136 162.463 579.152 163.441C579.152 168.746 579.354 173.07 583.041 176.462C586.728 179.853 599.578 175.015 598.925 167.439C602.054 167.106 605.031 165.916 607.528 164.001C614.155 158.82 606.376 154.931 603.685 153.826Z" fill="#263238"/>
<path d="M583.01 159.847C581.948 162.175 580.149 164.088 577.891 165.292C574.904 166.848 573.224 164.576 573.909 161.589C574.516 158.898 576.802 154.853 579.867 154.527C582.932 154.2 584.239 157.031 583.01 159.847Z" fill="#FF8B7B"/>
<path d="M574.718 286.449C574.718 286.449 586.479 365.711 592.935 395.347C600.013 427.861 637.225 527.41 637.225 527.41L655.894 523.972C655.894 523.972 628.078 430.49 624.033 398.303C619.662 363.362 610.483 286.402 610.483 286.402L574.718 286.449Z" fill="#FF0400"/>
<path opacity="0.2" d="M582.155 314.685C595.829 317.36 594.273 368.107 592.718 394.212C588.782 375.761 583.041 340.26 579.121 315.058C580.062 314.597 581.13 314.465 582.155 314.685V314.685Z" fill="black"/>
<path d="M555.038 286.449C555.038 286.449 553.607 363.984 554.743 395.612C555.91 428.499 567.39 536.215 567.39 536.215H584.939C584.939 536.215 585.577 430.428 586.354 398.116C587.21 362.911 591.473 286.449 591.473 286.449H555.038Z" fill="#FF0400"/>
<path d="M632.979 521.156C632.901 521.156 636.23 527.97 636.23 527.97L657.248 524.111L655.692 517.78L632.979 521.156Z" fill="#263238"/>
<path d="M564.015 529.214C563.937 529.214 565.01 536.51 565.01 536.51H586.386L586.961 529.992L564.015 529.214Z" fill="#263238"/>
<path d="M387.988 549.78H399.127L399.049 524.018H387.926L387.988 549.78Z" fill="#7F3E3B"/>
<path d="M328.872 549.78H339.995L343.682 524.018H332.543L328.872 549.78Z" fill="#7F3E3B"/>
<path d="M340.695 548.505H328.249C328.033 548.499 327.823 548.574 327.659 548.715C327.495 548.856 327.389 549.053 327.362 549.267L325.9 559.146C325.872 559.396 325.896 559.649 325.972 559.889C326.048 560.129 326.174 560.35 326.342 560.538C326.509 560.726 326.714 560.876 326.944 560.979C327.173 561.083 327.422 561.136 327.674 561.137C332.045 561.059 334.145 560.795 339.637 560.795C343.028 560.795 350.013 561.152 354.68 561.152C359.347 561.152 359.627 556.485 357.683 556.112C348.971 554.245 345.548 551.647 342.608 549.189C342.078 548.731 341.396 548.487 340.695 548.505V548.505Z" fill="#263238"/>
<path d="M398.987 548.504H386.837C386.618 548.501 386.405 548.576 386.237 548.716C386.069 548.856 385.956 549.051 385.919 549.267L384.254 559.145C384.215 559.38 384.224 559.62 384.283 559.85C384.341 560.081 384.447 560.297 384.593 560.484C384.74 560.671 384.923 560.826 385.133 560.939C385.342 561.051 385.573 561.118 385.81 561.137C390.182 561.059 396.513 560.794 402.02 560.794C408.461 560.794 414.046 561.152 421.591 561.152C426.165 561.152 427.223 556.485 425.293 556.112C416.504 554.214 409.379 554.012 401.647 549.36C400.851 548.846 399.933 548.551 398.987 548.504V548.504Z" fill="#263238"/>
<path d="M390.478 197.79L405.677 192.921C405.677 192.921 419.678 231.315 423.723 235.376C429.199 240.898 437.039 255.6 441.364 263.751C440.866 265.572 438.253 269.803 436.697 270.596C425.978 262.911 411.728 248.257 408.695 241.801C401.787 227.13 390.478 197.79 390.478 197.79Z" fill="#7F3E3B"/>
<path d="M386.961 189.42C381.859 198.755 399.842 230.086 399.842 230.086L422.54 219.57C422.54 219.57 417.344 204.931 411.292 192.392C405.536 180.46 392.624 179.091 386.961 189.42Z" fill="#FF0400"/>
<path d="M440.399 262.196L451.849 269.149L443.371 280.786C439.834 277.202 436.865 273.1 434.565 268.621L440.399 262.196Z" fill="#7F3E3B"/>
<path d="M460.235 278.951L452.845 284.271L443.387 280.786L451.85 269.15L460.235 278.951Z" fill="#7F3E3B"/>
<path opacity="0.2" d="M399.049 524.018L399.08 537.304H387.957L387.91 524.018H399.049Z" fill="black"/>
<path opacity="0.2" d="M332.543 524.018H343.682L341.784 537.304H330.646L332.543 524.018Z" fill="black"/>
<path d="M401.507 183.104C401.507 183.104 415.508 221.359 404.525 283.944H345.005C344.367 274.797 349.018 225.59 339.14 182.544C345.7 181.272 352.336 180.43 359.006 180.024C367.436 179.534 375.887 179.534 384.317 180.024C390.117 180.611 395.864 181.641 401.507 183.104V183.104Z" fill="#FF0400"/>
<path d="M370.145 183.322C370.145 183.322 380.194 196.421 378.079 283.944H389.124C389.124 283.944 393.309 209.022 380.972 182.56C377.348 182.51 373.726 182.765 370.145 183.322V183.322Z" fill="white"/>
<path opacity="0.2" d="M352.332 193.17C353.499 200.248 351.679 217.205 345.409 236.729C345.104 219.948 343.319 203.227 340.073 186.76V186.683C343.978 186.34 351.228 186.527 352.332 193.17Z" fill="black"/>
<path d="M361.728 156.362C363.533 164.498 364.575 174.595 359.006 180.024C359.006 180.024 362.475 188.285 377.674 188.285C391.504 188.285 384.379 180.024 384.379 180.024C375.247 177.862 375.434 166.63 376.865 160.298L361.728 156.362Z" fill="#7F3E3B"/>
<path d="M359.006 179.324C363.958 183.76 369.978 186.832 376.476 188.238C373.816 190.043 370.394 196.515 370.394 196.515C370.394 196.515 357.544 191.614 355.023 179.915C356.252 179.651 359.006 179.324 359.006 179.324Z" fill="#FF0400"/>
<path opacity="0.3" d="M359.006 179.324C363.958 183.76 369.978 186.832 376.476 188.238C373.816 190.043 370.394 196.515 370.394 196.515C370.394 196.515 357.544 191.614 355.023 179.915C356.252 179.651 359.006 179.324 359.006 179.324Z" fill="black"/>
<path d="M383.15 179.013C383.15 179.013 386.682 186.434 380.21 188.16C383.425 189.779 386.121 192.27 387.988 195.348C387.988 195.348 392.562 186.216 387.071 179.635C385.888 179.34 383.15 179.013 383.15 179.013Z" fill="#FF0400"/>
<path opacity="0.3" d="M383.15 179.013C383.15 179.013 386.682 186.434 380.21 188.16C383.425 189.779 386.121 192.27 387.988 195.348C387.988 195.348 392.562 186.216 387.071 179.635C385.888 179.34 383.15 179.013 383.15 179.013Z" fill="black"/>
<path opacity="0.2" d="M376.819 160.314C375.694 164.716 375.829 169.347 377.208 173.677C375.915 174.291 374.47 174.508 373.054 174.299C369.725 173.63 367.718 172.106 364.949 166.521C364.716 165.089 362.04 157.793 361.744 156.424L376.819 160.314Z" fill="black"/>
<path d="M388.999 148.023C389.144 149.379 389.015 150.749 388.619 152.053C388.224 153.358 387.57 154.569 386.697 155.615C384.347 158.384 381.049 156.751 379.945 153.437C378.934 150.466 378.949 145.426 382.169 143.87C382.887 143.541 383.674 143.392 384.461 143.438C385.249 143.484 386.014 143.722 386.688 144.132C387.362 144.542 387.925 145.111 388.328 145.79C388.731 146.468 388.961 147.235 388.999 148.023V148.023Z" fill="#7F3E3B"/>
<path opacity="0.2" d="M388.999 148.023C389.144 149.379 389.015 150.749 388.619 152.053C388.224 153.358 387.57 154.569 386.697 155.615C384.347 158.384 381.049 156.751 379.945 153.437C378.934 150.466 378.949 145.426 382.169 143.87C382.887 143.541 383.674 143.392 384.461 143.438C385.249 143.484 386.014 143.722 386.688 144.132C387.362 144.542 387.925 145.111 388.328 145.79C388.731 146.468 388.961 147.235 388.999 148.023V148.023Z" fill="black"/>
<path d="M354.245 147.619C358.787 157.793 359.456 163.503 366.161 167.843C376.258 174.424 388.283 166.599 388.268 155.242C388.268 145.037 382.978 129.48 371.529 127.24C359.005 124.891 348.473 134.629 354.245 147.619Z" fill="#7F3E3B"/>
<path d="M352.518 157.124C354.208 159.168 356.518 160.605 359.099 161.216C362.21 161.869 362.755 158.836 360.95 155.849C359.317 153.157 356.439 147.93 352.969 150.295C350.667 151.928 350.294 154.573 352.518 157.124Z" fill="#7F3E3B"/>
<path d="M389.264 155.304C389.606 162.18 396.483 170.861 384.146 172.837C377.707 173.851 371.12 172.438 365.664 168.87C360.266 165.525 358.664 156.098 354.479 149.781C354.292 149.548 354.386 149.268 354.603 148.988C354.855 148.701 355.172 148.48 355.528 148.342C355.884 148.205 356.267 148.155 356.646 148.198C357.025 148.241 357.388 148.374 357.704 148.588C358.021 148.801 358.28 149.088 358.462 149.424C359.862 151.866 362.475 155.429 365.991 155.646C371.374 156.066 388.922 148.272 389.264 155.304Z" fill="#263238"/>
<path d="M365.399 283.944C365.399 283.944 366.955 297.945 368.775 316.909C370.953 338.393 373.645 366.302 375.356 387.569C375.347 387.662 375.347 387.755 375.356 387.849C375.683 391.893 375.963 395.627 376.211 399.143C378.623 433.819 384.239 534.737 384.239 534.737H403.094C403.094 534.737 410.405 431.75 410.063 396.451C409.752 362.475 404.478 283.944 404.478 283.944H365.399Z" fill="#263238"/>
<path d="M382.699 528.109C382.605 528.109 382.979 535.126 382.979 535.126H404.758L405.349 527.238L382.699 528.109Z" fill="#FF0400"/>
<path opacity="0.2" d="M368.775 316.909C370.953 338.393 373.645 366.302 375.356 387.569C375.348 387.662 375.348 387.755 375.356 387.849C379.541 367.702 383.368 349.345 379.261 319.398L368.775 316.909Z" fill="black"/>
<path d="M383.399 283.944C383.399 283.944 376.912 364.358 372.353 396.218C367.36 431.112 346.778 534.674 346.778 534.674H326.383C326.383 534.674 337.444 433.866 339.202 399.33C341.115 361.837 344.989 283.897 344.989 283.897L383.399 283.944Z" fill="#263238"/>
<path d="M325.808 527.892C325.73 527.892 325.403 535.126 325.403 535.126H347.805L349.361 527.674L325.808 527.892Z" fill="#FF0400"/>
<path d="M371.809 145.939C372.026 146.81 372.649 147.495 373.224 147.308C373.8 147.121 374.08 146.359 373.878 145.488C373.675 144.617 373.038 143.932 372.462 144.119C371.886 144.305 371.606 145.052 371.809 145.939Z" fill="#263238"/>
<path d="M381.641 143.792C381.858 144.679 382.481 145.348 383.056 145.161C383.632 144.975 383.912 144.228 383.71 143.341C383.507 142.454 382.87 141.785 382.294 141.972C381.718 142.159 381.438 142.906 381.641 143.792Z" fill="#263238"/>
<path d="M378.623 144.912C380.3 147.376 382.299 149.605 384.566 151.54C384.072 152.099 383.46 152.542 382.774 152.835C382.087 153.128 381.344 153.265 380.599 153.235L378.623 144.912Z" fill="#630F0F"/>
<path d="M378.654 159.256C378.688 159.247 378.72 159.231 378.747 159.21C378.775 159.188 378.798 159.162 378.816 159.131C378.833 159.101 378.844 159.068 378.848 159.033C378.853 158.998 378.85 158.963 378.841 158.929C378.819 158.863 378.774 158.807 378.713 158.773C378.653 158.738 378.582 158.727 378.514 158.742C377.431 159.032 376.296 159.063 375.198 158.834C374.101 158.604 373.074 158.12 372.198 157.42C372.175 157.396 372.147 157.377 372.116 157.364C372.085 157.351 372.052 157.344 372.019 157.344C371.986 157.344 371.953 157.351 371.922 157.364C371.891 157.377 371.863 157.396 371.84 157.42C371.814 157.443 371.792 157.472 371.778 157.504C371.763 157.537 371.756 157.571 371.756 157.607C371.756 157.642 371.763 157.677 371.778 157.709C371.792 157.741 371.814 157.77 371.84 157.793C372.777 158.564 373.884 159.098 375.069 159.353C376.255 159.607 377.484 159.574 378.654 159.256V159.256Z" fill="#7F3E3B"/>
<path d="M368.091 143.372C368.169 143.353 368.242 143.317 368.304 143.266C368.366 143.215 368.415 143.15 368.448 143.077C368.691 142.467 369.078 141.926 369.577 141.501C370.076 141.075 370.671 140.778 371.311 140.634C371.386 140.631 371.46 140.612 371.527 140.578C371.595 140.543 371.654 140.495 371.701 140.436C371.748 140.377 371.782 140.309 371.801 140.236C371.819 140.163 371.822 140.086 371.809 140.012C371.786 139.873 371.71 139.748 371.596 139.664C371.483 139.58 371.342 139.543 371.202 139.561C370.379 139.728 369.612 140.101 368.973 140.645C368.333 141.189 367.843 141.887 367.546 142.672C367.492 142.801 367.49 142.945 367.539 143.075C367.588 143.205 367.685 143.312 367.811 143.372C367.903 143.393 367.998 143.393 368.091 143.372V143.372Z" fill="#263238"/>
<path d="M385.234 139.312C385.308 139.282 385.377 139.24 385.437 139.187C385.535 139.088 385.591 138.954 385.591 138.814C385.591 138.674 385.535 138.54 385.437 138.441C384.891 137.803 384.201 137.305 383.425 136.985C382.649 136.666 381.808 136.536 380.972 136.605C380.834 136.628 380.71 136.704 380.629 136.818C380.547 136.932 380.514 137.073 380.536 137.212C380.563 137.349 380.64 137.472 380.752 137.555C380.864 137.638 381.004 137.677 381.143 137.663C381.806 137.612 382.473 137.719 383.087 137.976C383.701 138.233 384.245 138.632 384.674 139.141C384.743 139.218 384.831 139.275 384.93 139.305C385.029 139.335 385.134 139.338 385.234 139.312Z" fill="#263238"/>
<path d="M332.699 197.106L347.463 203.935C347.463 203.935 333.228 240.214 335.655 245.332C338.969 252.317 341.567 267.827 346.965 275.326C346.685 277.146 344.507 281.549 343.06 282.466C331.252 276.104 319.6 252.908 318.962 245.939C317.5 230.055 332.699 197.106 332.699 197.106Z" fill="#7F3E3B"/>
<path d="M339.14 182.544C328.654 184.1 317.484 220.55 317.484 220.55L343.013 231.797C343.013 231.797 349.236 215.696 353.716 202.799C358.415 189.312 350.403 180.895 339.14 182.544Z" fill="#FF0400"/>
<path d="M344.523 550.449C345.269 550.508 346.011 550.305 346.623 549.874C346.811 549.702 346.95 549.483 347.027 549.24C347.103 548.997 347.114 548.738 347.058 548.489C347.053 548.331 347.003 548.177 346.915 548.045C346.827 547.913 346.705 547.808 346.561 547.742C345.285 547.104 341.894 549.298 341.474 549.562C341.432 549.591 341.4 549.632 341.38 549.679C341.361 549.726 341.356 549.777 341.365 549.827C341.379 549.879 341.407 549.926 341.445 549.965C341.483 550.003 341.53 550.03 341.582 550.045C342.545 550.288 343.531 550.423 344.523 550.449V550.449ZM346.001 548.147C346.118 548.121 346.241 548.121 346.358 548.147C346.413 548.178 346.459 548.224 346.492 548.278C346.525 548.333 346.543 548.394 346.545 548.458C346.58 548.628 346.571 548.805 346.52 548.97C346.468 549.136 346.375 549.287 346.25 549.407C345.015 549.988 343.601 550.061 342.314 549.609C343.43 548.876 344.685 548.378 346.001 548.147V548.147Z" fill="#FF0400"/>
<path d="M341.644 550.045C341.685 550.059 341.728 550.059 341.769 550.045C342.873 549.423 344.88 546.934 344.585 545.751C344.534 545.554 344.419 545.378 344.259 545.252C344.099 545.125 343.902 545.055 343.698 545.051C343.5 545.024 343.298 545.041 343.108 545.1C342.917 545.159 342.741 545.259 342.593 545.393C341.38 546.451 341.364 549.656 341.364 549.796C341.365 549.846 341.378 549.895 341.402 549.938C341.427 549.982 341.462 550.019 341.504 550.045H341.644ZM343.558 545.533H343.667C344.025 545.533 344.056 545.736 344.071 545.798C344.273 546.529 342.998 548.38 341.909 549.236C341.89 547.993 342.26 546.774 342.967 545.751C343.129 545.606 343.34 545.528 343.558 545.533V545.533Z" fill="#FF0400"/>
<path d="M403.7 550.449C404.645 550.538 405.59 550.296 406.376 549.765C406.55 549.603 406.681 549.4 406.757 549.174C406.833 548.949 406.852 548.708 406.812 548.473C406.798 548.327 406.748 548.187 406.667 548.065C406.585 547.942 406.475 547.842 406.345 547.773C404.96 547.011 400.589 549.329 400.122 549.547C400.077 549.576 400.04 549.619 400.018 549.668C399.996 549.718 399.989 549.773 399.998 549.827C400.007 549.881 400.033 549.932 400.072 549.971C400.111 550.01 400.161 550.036 400.216 550.045C401.362 550.286 402.529 550.421 403.7 550.449ZM405.614 548.147C405.785 548.14 405.955 548.172 406.112 548.24C406.162 548.268 406.205 548.308 406.235 548.357C406.265 548.406 406.281 548.462 406.283 548.52C406.314 548.672 406.304 548.83 406.255 548.978C406.206 549.125 406.119 549.257 406.003 549.36C405.349 549.982 403.529 550.076 401.056 549.671C402.474 548.901 404.017 548.385 405.614 548.147V548.147Z" fill="#FF0400"/>
<path d="M400.247 550.045H400.34C401.662 549.438 404.214 547.042 403.949 545.782C403.949 545.487 403.669 545.113 402.938 545.035C402.679 545.008 402.417 545.034 402.168 545.112C401.919 545.189 401.689 545.317 401.491 545.487C400.138 546.653 399.936 549.656 399.936 549.78C399.935 549.826 399.947 549.872 399.968 549.913C399.99 549.953 400.022 549.988 400.06 550.014C400.116 550.047 400.183 550.058 400.247 550.045V550.045ZM402.751 545.533H402.907C403.389 545.533 403.42 545.767 403.436 545.829C403.591 546.591 401.88 548.473 400.542 549.298C400.599 548.046 401.057 546.846 401.849 545.876C402.096 545.652 402.418 545.53 402.751 545.533Z" fill="#FF0400"/>
<path d="M345.642 275.123L356.143 276.679L348.365 286.931C348.365 286.931 339.233 285.282 339.108 277.986L345.642 275.123Z" fill="#7F3E3B"/>
<path d="M363.486 283.804L356.018 292.718L348.396 286.916L356.143 276.664L363.486 283.804Z" fill="#7F3E3B"/>
<path d="M246.08 191.007C246.08 191.007 235.968 186.683 227.863 191.863C219.757 197.043 226.416 197.961 217.517 202.022C208.619 206.082 218.56 211.62 217.517 216.847C216.273 223.07 205.834 225.746 211.73 233.011C217.626 240.276 262.026 243.994 266.864 234.956C271.702 225.917 260.641 225.979 263.332 218.294C266.024 210.609 267.408 205.662 259.956 200.855C252.505 196.048 254.512 187.46 246.08 191.007Z" fill="#263238"/>
<path d="M277.178 256.688C277.613 259.209 278.158 262.071 278.733 264.747C279.309 267.423 279.978 270.192 280.74 272.868C282.215 278.215 284.029 283.463 286.17 288.58C286.683 289.871 287.29 291.085 287.85 292.329L288.005 292.672V292.78C288.005 292.78 288.005 292.78 287.927 292.78C287.648 292.578 287.308 292.474 286.963 292.485C286.698 292.485 286.776 292.609 287.041 292.485C287.426 292.366 287.796 292.204 288.145 292.003C289.162 291.409 290.12 290.722 291.008 289.949C295.108 286.236 298.891 282.188 302.318 277.846L306.985 280.693C304.381 286.247 301.037 291.422 297.044 296.079C295.891 297.377 294.608 298.555 293.217 299.594C292.366 300.206 291.453 300.727 290.494 301.15C289.185 301.736 287.759 302.013 286.325 301.959C284.527 301.863 282.813 301.167 281.456 299.983C280.878 299.487 280.356 298.929 279.9 298.319C279.698 298.039 279.527 297.774 279.371 297.51C279.216 297.245 279.107 297.043 279.013 296.872C278.298 295.518 277.458 294.181 276.882 292.812C274.208 287.357 271.992 281.691 270.255 275.87C269.368 272.992 268.559 270.083 267.906 267.143C267.252 264.202 266.646 261.324 266.226 258.12L277.178 256.688Z" fill="#FFB573"/>
<path d="M272.931 244.554C277.427 245.394 281.658 263.378 281.658 263.378L270.006 272.416C270.006 272.416 257.187 254.822 260.283 249.75C263.379 244.679 266.381 243.325 272.931 244.554Z" fill="#263238"/>
<path opacity="0.2" d="M272.79 248.63L277.333 266.738L270.783 271.81L272.79 248.63Z" fill="black"/>
<path d="M306.736 275.186L315.495 273.708L310.376 283.337C310.376 283.337 303.485 283.446 301.322 279.542L301.836 278.624C302.348 277.725 303.054 276.95 303.901 276.356C304.748 275.761 305.716 275.362 306.736 275.186V275.186Z" fill="#FFB573"/>
<path d="M323.055 276.29L320.021 284.94L310.376 283.337L315.494 273.708L323.055 276.29Z" fill="#FFB573"/>
<path d="M294.352 550.543L304.713 547.696L298.833 523.536L288.472 526.383L294.352 550.543Z" fill="#FFB573"/>
<path d="M304.713 545.875L293.139 549.236C292.937 549.291 292.763 549.417 292.648 549.592C292.533 549.767 292.487 549.978 292.517 550.185L293.855 559.721C293.897 559.961 293.99 560.189 294.127 560.39C294.263 560.591 294.441 560.761 294.648 560.889C294.855 561.017 295.087 561.1 295.328 561.132C295.57 561.163 295.815 561.144 296.048 561.074C300.062 559.83 301.944 559.037 307.031 557.559C310.143 556.641 319.259 554.354 323.584 553.094C327.909 551.834 326.897 547.493 324.984 547.633C316.397 548.24 310.003 547.509 306.627 546.078C306.033 545.786 305.355 545.715 304.713 545.875Z" fill="#263238"/>
<g opacity="0.2">
<path opacity="0.2" d="M298.833 523.552L301.851 535.997L291.505 538.844L288.472 526.383L298.833 523.552Z" fill="black"/>
</g>
<path d="M272.931 244.554C272.931 244.554 278.158 246.11 271.889 309.535L228.329 312.273C227.956 294.523 227.287 283.602 216.537 247.79C222.567 246.164 228.708 244.978 234.91 244.243C241.457 243.358 248.06 242.942 254.667 242.998C263.192 243.185 272.931 244.554 272.931 244.554Z" fill="#FF0400"/>
<g opacity="0.4">
<path opacity="0.4" d="M272.931 244.554C272.931 244.554 278.158 246.11 271.889 309.535L228.329 312.273C227.956 294.523 227.287 283.602 216.537 247.79C222.567 246.164 228.708 244.978 234.91 244.243C241.457 243.358 248.06 242.942 254.667 242.998C263.192 243.185 272.931 244.554 272.931 244.554Z" fill="#263238"/>
</g>
<path d="M235.454 221.825C237.103 228.048 239.078 239.669 234.894 244.196C234.894 244.196 237.04 250.528 248.895 249.797C261.885 248.972 254.697 242.952 254.697 242.952C247.51 241.707 247.355 236.433 248.272 231.424L235.454 221.825Z" fill="#FFB573"/>
<path d="M234.91 244.243C241.452 243.358 248.049 242.942 254.651 242.998H255.958C257.716 245.892 258.416 250.466 255.056 257.435C255.056 257.435 237.29 251.555 232.312 244.539L234.91 244.243Z" fill="#FFB573"/>
<path opacity="0.2" d="M240.665 225.746L248.226 231.409C247.999 232.578 247.869 233.765 247.837 234.956C245.115 234.738 240.805 232.155 240.339 229.339C240.072 228.137 240.187 226.881 240.665 225.746V225.746Z" fill="black"/>
<path d="M227.909 211.247C231.021 221.437 232.063 225.824 238.55 229.915C248.289 236.06 260.143 230.055 260.174 219.134C260.174 209.318 255.165 194.243 244.073 192.563C241.629 192.168 239.124 192.404 236.797 193.25C234.47 194.096 232.398 195.522 230.778 197.395C229.158 199.267 228.044 201.523 227.542 203.948C227.04 206.372 227.166 208.885 227.909 211.247Z" fill="#FFB573"/>
<path d="M246.049 191.956C247.34 196.888 235.579 214.249 229.014 219.01C222.791 212.18 223.134 203.359 225.825 198.864C228.516 194.368 234.91 189.529 246.049 191.956Z" fill="#263238"/>
<path d="M246.888 192.112C252.1 193.59 257.56 199.766 254.667 199.517C251.773 199.268 239.203 193.699 246.888 192.112Z" fill="#263238"/>
<path d="M271.889 309.582C271.889 309.582 284.116 387.755 288.27 420.223C292.579 454.012 303.189 532.543 303.189 532.543L289.188 536.588C289.188 536.588 268.388 459.628 262.166 426.741C255.398 390.96 239.966 311.62 239.966 311.62L271.889 309.582Z" fill="#FF0400"/>
<g opacity="0.2">
<path opacity="0.2" d="M271.889 309.582C271.889 309.582 284.116 387.755 288.27 420.223C292.579 454.012 303.189 532.543 303.189 532.543L289.188 536.588C289.188 536.588 268.388 459.628 262.166 426.741C255.398 390.96 239.966 311.62 239.966 311.62L271.889 309.582Z" fill="black"/>
</g>
<path d="M288.177 537.397L304.527 532.637L304.216 527.083L285.719 531.765L288.177 537.397Z" fill="#263238"/>
<path d="M262.679 545.922L273.008 548.8L275.778 526.243H265.043L262.679 545.922Z" fill="#FFB573"/>
<path opacity="0.2" d="M263.689 537.459L274.128 539.731L275.777 526.243H265.043L263.689 537.459Z" fill="black"/>
<path d="M273.475 547.758L261.652 544.506C261.446 544.451 261.228 544.465 261.031 544.546C260.834 544.628 260.669 544.773 260.563 544.958L256.923 553.592C256.812 553.804 256.752 554.04 256.747 554.28C256.743 554.52 256.794 554.757 256.896 554.974C256.998 555.191 257.15 555.381 257.338 555.53C257.526 555.679 257.746 555.782 257.981 555.832C262.134 556.89 263.301 557.061 268.513 558.492C271.702 559.363 279.309 563.066 287.554 563.066C291.957 563.066 291.49 558.399 289.639 558.01C281.347 556.205 277.007 551.787 275.015 548.847C274.646 548.314 274.101 547.928 273.475 547.758V547.758Z" fill="#263238"/>
<path d="M261.994 310.126C261.994 310.126 303.873 399.579 300.186 427.628C295.69 461.775 276.477 533.71 276.477 533.71L261.838 530.816C261.838 530.816 269.617 458.601 272.635 425.154C275.964 388.704 230.849 360.422 228.002 312.304L261.994 310.126Z" fill="#FF0400"/>
<path d="M260.438 534.192L277.535 537.957L279.169 532.123L260.718 528.016L260.438 534.192Z" fill="#263238"/>
<path d="M276.99 550.574C277.879 550.904 278.851 550.937 279.76 550.667C279.984 550.58 280.185 550.442 280.347 550.264C280.509 550.085 280.627 549.872 280.693 549.64C280.744 549.515 280.757 549.376 280.729 549.243C280.701 549.11 280.634 548.989 280.537 548.894C279.557 547.867 274.579 548.754 274.019 548.894C273.965 548.907 273.915 548.934 273.874 548.972C273.833 549.01 273.803 549.058 273.786 549.111C273.773 549.159 273.777 549.21 273.797 549.255C273.816 549.3 273.851 549.337 273.895 549.36C274.883 549.867 275.92 550.274 276.99 550.574V550.574ZM279.713 549.018C279.867 549.05 280.012 549.12 280.133 549.22C280.16 549.268 280.175 549.321 280.175 549.376C280.175 549.431 280.16 549.484 280.133 549.531C280.088 549.681 280.011 549.819 279.906 549.935C279.801 550.051 279.671 550.142 279.526 550.2C278.671 550.574 276.928 550.2 274.781 549.189C276.406 548.868 278.072 548.816 279.713 549.034V549.018Z" fill="#FF0400"/>
<path d="M273.942 549.329H274.051C275.513 549.127 278.858 547.665 279.153 546.482C279.153 546.202 279.153 545.813 278.516 545.549C278.016 545.351 277.46 545.351 276.96 545.549C275.62 546.366 274.541 547.548 273.848 548.956C273.825 548.993 273.812 549.036 273.812 549.08C273.812 549.124 273.825 549.167 273.848 549.205L273.942 549.329ZM278.111 545.984H278.267C278.687 546.156 278.64 546.327 278.624 546.389C278.453 547.105 276.089 548.333 274.517 548.707C275.121 547.575 276.033 546.637 277.147 546C277.465 545.913 277.803 545.929 278.111 546.047V545.984Z" fill="#FF0400"/>
<path d="M245.053 210.096C245.255 210.951 245.862 211.527 246.406 211.387C246.951 211.247 247.246 210.469 247.044 209.629C246.842 208.789 246.251 208.213 245.691 208.338C245.131 208.462 244.851 209.256 245.053 210.096Z" fill="#263238"/>
<path d="M254.574 207.855C254.776 208.695 255.383 209.271 255.943 209.147C256.503 209.022 256.768 208.229 256.581 207.389C256.394 206.549 255.772 205.957 255.212 206.097C254.652 206.237 254.387 207.015 254.574 207.855Z" fill="#263238"/>
<path d="M254.993 206.206L256.876 205.133C256.876 205.133 256.207 206.907 254.993 206.206Z" fill="#263238"/>
<path d="M252.022 210.018C253.222 211.762 254.657 213.332 256.285 214.685C255.931 215.095 255.491 215.421 254.996 215.642C254.501 215.862 253.964 215.971 253.423 215.961L252.022 210.018Z" fill="#ED893E"/>
<path d="M249.58 220.394C250.009 220.361 250.436 220.294 250.855 220.192C250.92 220.174 250.976 220.131 251.01 220.074C251.045 220.016 251.056 219.947 251.042 219.881C251.024 219.816 250.981 219.761 250.923 219.726C250.866 219.691 250.797 219.68 250.731 219.694C249.689 219.965 248.598 219.987 247.547 219.757C246.495 219.527 245.513 219.053 244.679 218.372C244.63 218.327 244.566 218.302 244.5 218.302C244.434 218.302 244.37 218.327 244.321 218.372C244.272 218.422 244.244 218.489 244.244 218.559C244.244 218.629 244.272 218.696 244.321 218.745C245.787 219.969 247.678 220.562 249.58 220.394Z" fill="#263238"/>
<path d="M227.333 221.39C228.48 223.101 230.259 224.287 232.28 224.688C234.971 225.201 236.076 222.759 235.142 220.348C234.302 218.17 231.891 215.292 229.293 215.867C228.728 216.004 228.205 216.28 227.773 216.67C227.341 217.059 227.013 217.55 226.819 218.098C226.624 218.646 226.569 219.235 226.659 219.809C226.749 220.384 226.98 220.927 227.333 221.39Z" fill="#FFB573"/>
<path d="M240.774 209.069C240.881 209.061 240.983 209.019 241.065 208.949C241.146 208.879 241.202 208.785 241.226 208.68C241.525 207.905 241.98 207.199 242.563 206.608C243.147 206.016 243.846 205.551 244.617 205.242C244.743 205.19 244.843 205.091 244.895 204.965C244.948 204.84 244.948 204.699 244.897 204.573C244.873 204.511 244.837 204.455 244.791 204.407C244.745 204.36 244.69 204.322 244.629 204.296C244.568 204.27 244.503 204.256 244.437 204.255C244.37 204.255 244.305 204.268 244.244 204.293C243.319 204.656 242.484 205.213 241.794 205.927C241.104 206.641 240.576 207.495 240.245 208.431C240.227 208.496 240.222 208.565 240.231 208.632C240.24 208.7 240.263 208.765 240.298 208.823C240.332 208.881 240.379 208.932 240.434 208.971C240.49 209.011 240.552 209.039 240.619 209.053L240.774 209.069Z" fill="#263238"/>
<path d="M256.41 202.784C256.497 202.773 256.58 202.742 256.653 202.694C256.726 202.645 256.786 202.58 256.83 202.504C256.885 202.381 256.891 202.243 256.848 202.115C256.805 201.988 256.715 201.882 256.596 201.819C255.876 201.442 255.076 201.245 254.263 201.245C253.45 201.245 252.649 201.442 251.929 201.819C251.873 201.853 251.824 201.897 251.785 201.95C251.746 202.003 251.717 202.062 251.701 202.126C251.685 202.19 251.682 202.256 251.692 202.321C251.702 202.385 251.724 202.448 251.758 202.504C251.826 202.621 251.938 202.707 252.07 202.742C252.201 202.777 252.34 202.758 252.458 202.691V202.691C253.027 202.401 253.656 202.25 254.294 202.25C254.932 202.25 255.561 202.401 256.13 202.691C256.216 202.74 256.311 202.772 256.41 202.784V202.784Z" fill="#263238"/>
<path d="M223.195 262.304C222.246 267.998 221.312 273.832 220.441 279.604C219.57 285.375 218.792 291.163 218.341 296.887L218.185 298.941C218.142 299.391 218.142 299.844 218.185 300.294C218.351 301.552 218.59 302.799 218.901 304.028C219.586 306.657 220.457 309.395 221.406 312.118C223.257 317.594 225.451 323.085 227.629 328.561L222.837 331.113C219.48 326.053 216.44 320.79 213.736 315.353C212.343 312.559 211.112 309.687 210.049 306.751C209.465 305.149 209.002 303.506 208.665 301.835C208.46 300.81 208.356 299.768 208.354 298.723V296.343C208.509 290.203 208.95 284.141 209.676 278.157C210.36 272.152 211.232 266.24 212.398 260.251L223.195 262.304Z" fill="#FFB573"/>
<path d="M216.584 247.79C212.305 249.346 208.012 264.731 208.012 264.731L225.684 275.761C225.684 275.761 231.067 262.834 228.873 257.326C226.602 251.57 221.453 245.97 216.584 247.79Z" fill="#263238"/>
<path d="M309.115 546.545C310.014 546.366 310.825 545.889 311.418 545.191C311.539 544.995 311.612 544.773 311.631 544.543C311.65 544.313 311.614 544.082 311.527 543.869C311.477 543.738 311.395 543.621 311.29 543.529C311.184 543.436 311.057 543.371 310.92 543.34C309.458 543.013 305.957 546.311 305.553 546.685C305.524 546.728 305.508 546.78 305.508 546.832C305.508 546.885 305.524 546.936 305.553 546.98C305.573 547.028 305.608 547.067 305.653 547.093C305.699 547.118 305.751 547.128 305.802 547.12C306.923 547.038 308.033 546.845 309.115 546.545V546.545ZM310.329 543.884C310.488 543.848 310.653 543.848 310.811 543.884C310.865 543.898 310.915 543.925 310.956 543.963C310.997 544.001 311.028 544.049 311.045 544.102C311.114 544.237 311.15 544.386 311.15 544.538C311.15 544.689 311.114 544.839 311.045 544.973C310.578 545.72 308.913 546.311 306.517 546.529C307.628 545.437 308.917 544.542 310.329 543.884V543.884Z" fill="#FF0400"/>
<path d="M305.802 547.12C305.802 547.12 305.88 547.12 305.896 547.12C306.969 546.218 308.758 543.293 308.229 542.173C308.105 541.908 307.809 541.628 307.109 541.753C306.86 541.797 306.622 541.891 306.411 542.03C306.199 542.169 306.019 542.35 305.88 542.562C305.284 543.956 305.147 545.503 305.491 546.98C305.498 547.024 305.516 547.066 305.543 547.101C305.57 547.136 305.606 547.164 305.647 547.182L305.802 547.12ZM307.047 542.22H307.202C307.654 542.22 307.731 542.313 307.763 542.36C308.089 543.029 306.938 545.253 305.911 546.373C305.66 545.175 305.796 543.927 306.3 542.811C306.468 542.529 306.734 542.318 307.047 542.22V542.22Z" fill="#FF0400"/>
<path d="M245.457 208.462L247.355 207.404C247.355 207.404 246.686 209.209 245.457 208.462Z" fill="#263238"/>
<path d="M227.567 309.753L226.711 313.72C226.571 314.031 226.945 314.327 227.458 314.296L272.246 311.464C272.635 311.464 272.946 311.231 272.962 310.982L273.102 307.062C273.102 306.797 272.76 306.58 272.324 306.611L228.267 309.395C228.13 309.392 227.994 309.423 227.872 309.485C227.749 309.548 227.645 309.64 227.567 309.753V309.753Z" fill="#263238"/>
<path d="M233.805 314.249H232.623C232.39 314.249 232.203 314.156 232.203 314L232.436 308.913C232.436 308.757 232.639 308.633 232.872 308.617L234.054 308.54C234.288 308.54 234.474 308.633 234.474 308.788L234.241 313.876C234.226 314.249 234.039 314.249 233.805 314.249Z" fill="#FF0400"/>
<path d="M268.932 312.102H267.766C267.517 312.102 267.33 311.993 267.346 311.853L267.579 306.751C267.579 306.611 267.781 306.471 268.015 306.455H269.197C269.43 306.455 269.617 306.548 269.617 306.688L269.384 311.791C269.368 311.947 269.135 312.087 268.932 312.102Z" fill="#FF0400"/>
<path d="M251.369 313.207L250.187 313.285C249.953 313.285 249.767 313.191 249.767 313.036L250.016 307.949C250.016 307.793 250.218 307.653 250.451 307.637H251.633C251.867 307.637 252.053 307.731 252.038 307.871L251.805 312.973C251.805 313.051 251.602 313.191 251.369 313.207Z" fill="#FF0400"/>
<path d="M227.349 327.519L236.17 335.049L225.389 336.822C225.389 336.822 221.142 331.408 222.931 327.317L227.349 327.519Z" fill="#FFB573"/>
<path d="M237.959 343.9L228.858 344.896L225.389 336.822L236.17 335.049L237.959 343.9Z" fill="#FFB573"/>
<path d="M473.536 172.324C516.323 172.324 551.009 137.638 551.009 94.8505C551.009 52.0632 516.323 17.3772 473.536 17.3772C430.749 17.3772 396.062 52.0632 396.062 94.8505C396.062 137.638 430.749 172.324 473.536 172.324Z" fill="#FF0400"/>
<path d="M316.878 64.0633L315.852 62.8966C322.117 57.3098 330.217 54.2203 338.611 54.2158V55.7715C330.595 55.7755 322.86 58.7266 316.878 64.0633V64.0633Z" fill="#FF0400"/>
<path d="M308.027 76.9912L306.564 76.4467C307.482 74.0049 308.677 71.6767 310.127 69.5083L311.418 70.3795C310.044 72.4494 308.906 74.6672 308.027 76.9912V76.9912Z" fill="#FF0400"/>
<path d="M358.988 108.837C370.24 97.5858 370.24 79.3434 358.988 68.0919C347.737 56.8404 329.494 56.8404 318.243 68.0919C306.991 79.3434 306.991 97.5858 318.243 108.837C329.494 120.089 347.737 120.089 358.988 108.837Z" fill="#FF0400"/>
<path d="M280.678 163.861C290.438 163.861 298.35 155.949 298.35 146.188C298.35 136.428 290.438 128.516 280.678 128.516C270.917 128.516 263.005 136.428 263.005 146.188C263.005 155.949 270.917 163.861 280.678 163.861Z" fill="#FF0400"/>
<path d="M592.157 109.256C599.899 109.256 606.174 102.981 606.174 95.2394C606.174 87.4982 599.899 81.2227 592.157 81.2227C584.416 81.2227 578.141 87.4982 578.141 95.2394C578.141 102.981 584.416 109.256 592.157 109.256Z" fill="#FF0400"/>
<path d="M514.762 81.4094C514.767 73.9965 512.774 66.7193 508.991 60.344C505.209 53.9688 499.777 48.7314 493.269 45.1832C486.76 41.6351 479.415 39.9075 472.007 40.1824C464.6 40.4573 457.403 42.7245 451.175 46.7453C444.948 50.7661 439.919 56.3917 436.62 63.0297C433.32 69.6678 431.871 77.0727 432.426 84.4649C432.981 91.857 435.518 98.9628 439.772 105.034C444.025 111.105 449.837 115.917 456.595 118.964V126.26H490.478V118.964C497.712 115.707 503.852 110.431 508.16 103.769C512.468 97.1069 514.76 89.3428 514.762 81.4094V81.4094Z" fill="white"/>
<path opacity="0.2" d="M487.553 146.188H459.519L456.595 126.26H490.478L487.553 146.188Z" fill="black"/>
<path opacity="0.4" d="M480.459 149.502H466.614L465.183 146.188H481.891L480.459 149.502Z" fill="black"/>
<path d="M469.134 90.8058C468.18 88.0421 466.58 85.5461 464.467 83.5251C459.598 78.6714 453.577 77.0379 450.855 79.807C449.455 81.2072 449.128 83.4629 449.952 86.1387C450.907 88.8978 452.507 91.3888 454.619 93.4037C457.871 96.6707 461.636 98.4753 464.607 98.4753C465.296 98.4832 465.981 98.3673 466.629 98.133L469.383 126.353C469.406 126.609 469.525 126.847 469.715 127.02C469.905 127.192 470.153 127.288 470.41 127.287H470.503C470.64 127.275 470.772 127.236 470.894 127.172C471.015 127.109 471.122 127.021 471.209 126.916C471.296 126.81 471.361 126.688 471.4 126.556C471.439 126.425 471.451 126.287 471.436 126.151L468.558 96.7329C469.131 95.8668 469.482 94.874 469.582 93.8408C469.683 92.8077 469.529 91.7657 469.134 90.8058ZM456.082 91.9414C454.225 90.1569 452.813 87.9615 451.959 85.532C451.646 84.8458 451.519 84.0896 451.59 83.3389C451.661 82.5881 451.928 81.8692 452.364 81.2538C452.662 80.991 453.01 80.7897 453.386 80.6616C453.762 80.5334 454.16 80.4809 454.557 80.5071C456.782 80.5071 460.018 81.9539 463.051 84.9875C464.915 86.7664 466.328 88.9634 467.174 91.3969C467.49 92.0823 467.619 92.8391 467.548 93.5904C467.477 94.3418 467.208 95.061 466.769 95.6751C465.151 97.3552 460.484 96.2507 456.082 91.9414V91.9414Z" fill="#FF0400"/>
<path d="M496.172 79.807C494.756 78.3913 492.516 78.0646 489.84 78.8892C487.107 79.8872 484.626 81.471 482.57 83.5296C480.514 85.5882 478.933 88.0716 477.939 90.8057C477.544 91.765 477.389 92.8059 477.487 93.8385C477.584 94.8711 477.932 95.8645 478.499 96.7329L475.621 126.151C475.595 126.425 475.678 126.699 475.853 126.911C476.028 127.124 476.28 127.259 476.554 127.287H476.648C476.905 127.288 477.152 127.192 477.343 127.02C477.533 126.847 477.651 126.609 477.674 126.353L480.428 98.133C481.081 98.3688 481.772 98.4847 482.466 98.4753C485.422 98.4753 489.186 96.6707 492.438 93.4037C494.551 91.3887 496.151 88.8978 497.105 86.1387C497.898 83.4629 497.572 81.2071 496.172 79.807ZM495.114 85.532C494.266 87.9644 492.853 90.161 490.991 91.9414C486.682 96.2506 481.984 97.3552 480.303 95.675C479.865 95.061 479.596 94.3418 479.525 93.5904C479.454 92.8391 479.583 92.0823 479.899 91.3969C480.751 88.9663 482.163 86.7705 484.022 84.9875V84.9875C485.806 83.1232 488.008 81.7102 490.447 80.8649C491.125 80.6428 491.833 80.5223 492.547 80.5071C493.336 80.4723 494.109 80.7393 494.709 81.2538C495.154 81.8712 495.425 82.596 495.497 83.3535C495.568 84.111 495.435 84.8737 495.114 85.5631V85.532Z" fill="#FF0400"/>
</svg>
