<svg width="400" height="299" viewBox="0 0 400 299" fill="none" xmlns="http://www.w3.org/2000/svg">
<path d="M108.152 232.624C163.832 256.936 175.504 217.328 217.448 191.376C250.88 170.68 284.904 176.352 310.304 141.392C332.44 110.928 337.336 57.6641 315.432 36.8561C288.752 11.4961 244.664 14.6801 213.168 42.4561C189.168 63.5921 174.656 110.408 143.864 116.856C108.432 124.288 88.4321 90.1441 55.2241 110.992C-5.96789 149.368 98.1201 228.24 108.152 232.624Z" fill="#FF0400"/>
<path opacity="0.9" d="M108.152 232.624C163.832 256.936 175.504 217.328 217.448 191.376C250.88 170.68 284.904 176.352 310.304 141.392C332.44 110.928 337.336 57.6641 315.432 36.8561C288.752 11.4961 244.664 14.6801 213.168 42.4561C189.168 63.5921 174.656 110.408 143.864 116.856C108.432 124.288 88.4321 90.1441 55.2241 110.992C-5.96789 149.368 98.1201 228.24 108.152 232.624Z" fill="white"/>
<path d="M200 298.048C285.666 298.048 355.112 293.994 355.112 288.992C355.112 283.991 285.666 279.936 200 279.936C114.334 279.936 44.8877 283.991 44.8877 288.992C44.8877 293.994 114.334 298.048 200 298.048Z" fill="#F5F5F5"/>
<path d="M60.4411 129.992H179.833C176.289 129.948 172.892 128.573 170.316 126.139C167.74 123.705 166.174 120.391 165.929 116.856L163.817 81.272H44.4331L46.5371 116.856C46.7819 120.391 48.348 123.705 50.924 126.139C53.5001 128.573 56.8975 129.948 60.4411 129.992V129.992Z" fill="#FF0400"/>
<path opacity="0.6" d="M60.4411 129.992H179.833C176.289 129.948 172.892 128.573 170.316 126.139C167.74 123.705 166.174 120.391 165.929 116.856L163.817 81.272H44.4331L46.5371 116.856C46.7819 120.391 48.348 123.705 50.924 126.139C53.5001 128.573 56.8975 129.948 60.4411 129.992V129.992Z" fill="white"/>
<path d="M188.682 57.6002H82.4017C80.7074 57.5802 79.0274 57.9123 77.4681 58.5753C75.9087 59.2383 74.5041 60.2178 73.343 61.4519C72.1818 62.6859 71.2896 64.1476 70.7227 65.7444C70.1558 67.3412 69.9267 69.0383 70.0497 70.7282L72.8017 116.864C72.9272 118.555 72.6998 120.253 72.1338 121.851C71.5678 123.449 70.6757 124.911 69.5141 126.146C68.3524 127.38 66.9468 128.36 65.3863 129.022C63.8258 129.684 62.1447 130.015 60.4497 129.992H179.834C181.529 130.015 183.21 129.684 184.77 129.022C186.331 128.36 187.736 127.38 188.898 126.146C190.06 124.911 190.952 123.449 191.518 121.851C192.084 120.253 192.311 118.555 192.186 116.864L192.482 121.856L189.458 70.7602C189.328 69.0672 189.552 67.3656 190.115 65.7639C190.679 64.1622 191.571 62.6955 192.733 61.4574C193.895 60.2193 195.302 59.2369 196.865 58.5728C198.428 57.9087 200.112 57.5774 201.81 57.6002H188.682Z" fill="#FF0400"/>
<path d="M201.809 57.6001H82.4009C85.9443 57.64 89.3427 59.0131 91.9194 61.4459C94.496 63.8787 96.0618 67.1928 96.3049 70.7281L106.585 244.08H225.969L215.713 70.7601C215.474 67.2204 213.91 63.9006 211.334 61.4619C208.757 59.0231 205.356 57.6443 201.809 57.6001V57.6001Z" fill="#FF0400"/>
<path opacity="0.8" d="M201.809 57.6001H82.4009C85.9443 57.64 89.3427 59.0131 91.9194 61.4459C94.496 63.8787 96.0618 67.1928 96.3049 70.7281L106.585 244.08H225.969L215.713 70.7601C215.474 67.2204 213.91 63.9006 211.334 61.4619C208.757 59.0231 205.356 57.6443 201.809 57.6001V57.6001Z" fill="white"/>
<path d="M136.529 106.944H114.401L113.065 84.8003H135.201L136.529 106.944ZM116.801 104.336H133.737L132.801 87.4003H115.833L116.801 104.336Z" fill="white"/>
<path d="M139.617 159.032H117.465L116.153 136.88H138.305L139.617 159.032ZM119.913 156.424H136.849L135.849 139.488H118.913L119.913 156.424Z" fill="white"/>
<path d="M142.696 211.12H120.544L119.2 188.968H141.352L142.696 211.12ZM123 208.512H139.936L138.928 191.576H121.992L123 208.512Z" fill="white"/>
<path d="M198.274 84.7925H147.346V87.4005H198.274V84.7925Z" fill="white"/>
<path d="M192.865 94.5684H147.921V97.1764H192.865V94.5684Z" fill="white"/>
<path d="M199.425 104.336H148.497V106.944H199.425V104.336Z" fill="white"/>
<path d="M201.353 136.88H150.425V139.488H201.353V136.88Z" fill="white"/>
<path d="M180.898 146.656H151.002V149.264H180.898V146.656Z" fill="white"/>
<path d="M167.017 156.424H151.585V159.032H167.017V156.424Z" fill="white"/>
<path d="M202.513 156.424H177.049V159.032H202.513V156.424Z" fill="white"/>
<path d="M204.433 188.968H153.505V191.576H204.433V188.968Z" fill="white"/>
<path d="M205.017 198.744H154.089V201.352H205.017V198.744Z" fill="white"/>
<path d="M182.834 208.512H154.666V211.12H182.834V208.512Z" fill="white"/>
<path d="M126.905 101.728C126.351 101.729 125.819 101.517 125.417 101.136L120.001 96.0004C119.794 95.8045 119.628 95.5697 119.511 95.3095C119.395 95.0493 119.331 94.7687 119.324 94.4838C119.308 93.9085 119.521 93.3504 119.917 92.9324C120.313 92.5144 120.858 92.2708 121.434 92.255C122.009 92.2393 122.567 92.4527 122.985 92.8484L126.841 96.4884L135.521 87.2644C135.916 86.8454 136.461 86.6003 137.036 86.583C137.611 86.5658 138.17 86.7778 138.589 87.1724C139.008 87.5671 139.253 88.112 139.27 88.6874C139.288 89.2627 139.076 89.8214 138.681 90.2404L128.513 101.048C128.318 101.258 128.083 101.426 127.822 101.543C127.561 101.659 127.279 101.723 126.993 101.728H126.905Z" fill="#FF0400"/>
<path d="M129.993 153.816C129.439 153.819 128.906 153.606 128.505 153.224L123.065 148.088C122.851 147.895 122.677 147.66 122.555 147.399C122.432 147.137 122.363 146.854 122.352 146.566C122.34 146.277 122.387 145.989 122.488 145.719C122.589 145.448 122.743 145.201 122.942 144.991C123.14 144.781 123.378 144.613 123.642 144.496C123.906 144.379 124.191 144.317 124.48 144.312C124.769 144.307 125.055 144.359 125.323 144.466C125.592 144.574 125.835 144.733 126.041 144.936L129.905 148.576L138.577 139.352C138.972 138.933 139.517 138.688 140.092 138.671C140.667 138.654 141.226 138.866 141.645 139.26C142.064 139.655 142.309 140.2 142.326 140.775C142.344 141.351 142.132 141.909 141.737 142.328L131.569 153.136C131.375 153.345 131.142 153.513 130.882 153.63C130.622 153.746 130.342 153.81 130.057 153.816H129.993Z" fill="#FF0400"/>
<path d="M133.073 205.912C132.518 205.912 131.985 205.697 131.585 205.312L126.145 200.176C125.931 199.983 125.757 199.749 125.635 199.487C125.512 199.226 125.443 198.942 125.432 198.654C125.42 198.365 125.467 198.077 125.568 197.807C125.669 197.537 125.824 197.289 126.022 197.079C126.22 196.869 126.458 196.701 126.722 196.584C126.986 196.468 127.271 196.405 127.56 196.4C127.849 196.395 128.135 196.447 128.404 196.555C128.672 196.662 128.916 196.822 129.121 197.024L132.985 200.664L141.665 191.44C142.072 191.091 142.593 190.905 143.129 190.918C143.664 190.93 144.176 191.141 144.566 191.508C144.956 191.876 145.195 192.375 145.239 192.909C145.282 193.443 145.126 193.975 144.801 194.4L134.633 205.208C134.437 205.417 134.202 205.584 133.941 205.701C133.68 205.818 133.399 205.881 133.113 205.888L133.073 205.912Z" fill="#FF0400"/>
<path d="M247.806 83.2984L232.269 87.1177L278.636 275.75L294.174 271.931L247.806 83.2984Z" fill="#FF0400"/>
<path opacity="0.2" d="M247.798 83.297L243.066 84.46L289.434 273.093L294.165 271.93L247.798 83.297Z" fill="black"/>
<path d="M292.999 274.737L280.958 277.697C279.993 277.935 279.402 278.91 279.64 279.875L281.656 288.079C281.893 289.044 282.868 289.634 283.834 289.397L295.875 286.437C296.841 286.2 297.431 285.225 297.194 284.259L295.177 276.056C294.94 275.09 293.965 274.5 292.999 274.737Z" fill="#FF0400"/>
<path opacity="0.7" d="M292.999 274.737L280.958 277.697C279.993 277.935 279.402 278.91 279.64 279.875L281.656 288.079C281.893 289.044 282.868 289.634 283.834 289.397L295.875 286.437C296.841 286.2 297.431 285.225 297.194 284.259L295.177 276.056C294.94 275.09 293.965 274.5 292.999 274.737Z" fill="white"/>
<path d="M293.093 269.217L278.325 272.847C277.432 273.067 276.887 273.968 277.106 274.861L278.428 280.236C278.647 281.129 279.548 281.675 280.441 281.455L295.209 277.825C296.102 277.606 296.647 276.704 296.428 275.812L295.106 270.436C294.887 269.543 293.986 268.998 293.093 269.217Z" fill="#E0E0E0"/>
<path d="M247.808 83.2796L232.272 87.1036L234.096 74.1036L235.264 65.7676L240.168 72.6076L247.808 83.2796Z" fill="#E0E0E0"/>
<path d="M240.169 72.6076L234.097 74.1036L235.265 65.7676L240.169 72.6076Z" fill="#FF0400"/>
<path d="M287.937 70.9438C287.857 75.7438 286.929 84.7918 289.457 87.7438C283.646 89.6548 278.436 93.0526 274.345 97.5999C270.881 91.9359 275.401 88.8879 275.401 88.8879C280.385 87.2879 280.081 83.5359 279.033 80.0879L287.937 70.9438Z" fill="#FFB573"/>
<path d="M272.873 92.7118C274.193 87.8078 270.473 87.1118 276.673 84.7118C281.521 82.7918 290.681 82.5198 292.833 84.0638C294.025 84.9278 292.385 87.9518 292.385 87.9518L272.873 92.7118Z" fill="#263238"/>
<path d="M299.744 91.6556C300.104 92.2316 300.36 92.6715 300.648 93.1755C300.936 93.6795 301.176 94.1435 301.448 94.6315C301.96 95.6075 302.44 96.5835 302.904 97.5755C303.832 99.5515 304.64 101.576 305.384 103.624C306.878 107.772 307.95 112.06 308.584 116.424L308.792 118.072C308.832 118.304 308.864 118.72 308.888 119.08C308.912 119.44 308.888 119.768 308.888 120.088C308.87 121.268 308.781 122.446 308.624 123.616C308.344 125.824 307.92 127.912 307.456 130.016C306.511 134.119 305.317 138.161 303.88 142.12C303.689 142.656 303.309 143.105 302.811 143.382C302.314 143.659 301.732 143.745 301.175 143.625C300.619 143.504 300.125 143.185 299.786 142.727C299.448 142.269 299.288 141.703 299.336 141.136C299.656 137.072 300.032 132.976 300.328 128.976C300.472 126.976 300.584 124.976 300.616 123.088C300.616 122.152 300.616 121.224 300.528 120.448L300.456 119.912L300.352 119.392L300.056 118C299.201 114.25 298.051 110.575 296.616 107.008C295.896 105.216 295.12 103.44 294.304 101.688C293.899 100.808 293.475 99.9435 293.032 99.0955L292.36 97.8315L291.728 96.6715L291.616 96.4635C291.033 95.3893 290.892 94.1302 291.222 92.9536C291.553 91.777 292.329 90.7756 293.386 90.1622C294.443 89.5488 295.698 89.3716 296.884 89.6684C298.069 89.9652 299.092 90.7125 299.736 91.7515L299.744 91.6556Z" fill="#FFB573"/>
<path d="M297.601 143.736L298.265 142.632L300.137 139.48L303.569 141.424C304.281 144.624 302.105 147.456 302.105 147.456L301.137 148.256C300.807 148.543 300.38 148.694 299.943 148.677C299.506 148.661 299.092 148.479 298.785 148.168L298.041 147.48C297.572 146.987 297.277 146.356 297.197 145.681C297.118 145.006 297.259 144.324 297.601 143.736V143.736Z" fill="#FFB573"/>
<path d="M252 142.104L251.448 140.104C251.319 139.633 251.01 139.232 250.588 138.987C250.167 138.742 249.665 138.672 249.192 138.792L246.792 139.408L245.312 139.776C244.534 139.979 243.843 140.43 243.343 141.061C242.844 141.691 242.564 142.467 242.544 143.272V144.464C242.541 144.983 242.735 145.484 243.087 145.866C243.439 146.247 243.923 146.481 244.44 146.52L245.92 146.664C248.141 146.31 250.176 145.216 251.696 143.56C251.861 143.36 251.975 143.123 252.028 142.869C252.081 142.616 252.071 142.353 252 142.104Z" fill="#FFB573"/>
<path d="M295.744 88.1357C299.944 89.9997 303.792 94.4397 306.944 102.656C305.936 106.04 295.528 111.584 295.528 111.584C295.528 111.584 282.544 84.0557 295.744 88.1357Z" fill="#FF0400"/>
<path d="M261 98.6558C261.04 101.704 255.992 108.768 261.8 112.864C262.304 119.032 262.984 125.104 264.304 135.224H295.368C292.416 124.024 294.968 116.504 299.704 96.8238C299.975 95.7663 300.013 94.6628 299.818 93.5889C299.622 92.515 299.197 91.4961 298.571 90.6019C297.945 89.7077 297.133 88.9593 296.191 88.408C295.248 87.8567 294.198 87.5155 293.112 87.4078C291.872 87.2878 290.56 87.1838 289.224 87.1118C284.526 86.7752 279.81 86.7752 275.112 87.1118C273.584 87.2478 272.008 87.4398 270.496 87.6478C267.854 88.0328 265.439 89.358 263.694 91.38C261.95 93.4021 260.993 95.9854 261 98.6558V98.6558Z" fill="#FF0400"/>
<path d="M271.289 95.6876C271.361 97.9756 271.289 100.168 271.289 102.408C271.289 104.648 271.145 106.864 271.001 109.104C270.753 113.645 270.219 118.166 269.401 122.64C269.305 123.208 269.153 123.8 269.017 124.376C268.881 124.952 268.761 125.528 268.577 126.136L268.321 127.024L268.185 127.472C268.133 127.673 268.069 127.871 267.993 128.064C267.658 128.925 267.2 129.734 266.633 130.464C265.852 131.476 264.999 132.431 264.081 133.32C263.241 134.16 262.385 134.92 261.521 135.72C258.119 138.651 254.503 141.325 250.705 143.72C250.228 144.019 249.659 144.138 249.102 144.054C248.545 143.969 248.037 143.688 247.67 143.261C247.303 142.834 247.101 142.289 247.102 141.726C247.102 141.163 247.305 140.618 247.673 140.192V140.192C250.529 136.936 253.473 133.704 256.217 130.504C256.889 129.704 257.545 128.904 258.169 128.104C258.755 127.393 259.289 126.642 259.769 125.856C259.961 125.56 260.081 125.2 259.977 125.4C259.873 125.6 259.977 125.296 259.977 125.208L260.049 124.856L260.201 124.16C260.313 123.712 260.377 123.208 260.457 122.72C260.537 122.232 260.633 121.744 260.681 121.232C261.225 117.192 261.481 112.936 261.633 108.68C261.785 104.424 261.881 100.088 261.905 95.8796C261.898 95.263 262.013 94.651 262.242 94.0786C262.472 93.5062 262.812 92.9847 263.243 92.5438C264.114 91.6534 265.303 91.1454 266.549 91.1316C267.794 91.1178 268.994 91.5994 269.885 92.4703C270.775 93.3412 271.283 94.5302 271.297 95.7756L271.289 95.6876Z" fill="#FFB573"/>
<path d="M267.864 88.3597C264.032 90.2637 260.232 93.9597 258.656 102.424C259.656 105.776 273.352 112.232 273.352 112.232C273.352 112.232 280.976 83.4637 267.864 88.3597Z" fill="#FF0400"/>
<path d="M268.704 67.8878C268.808 68.4878 268.568 69.0478 268.168 69.1198C267.768 69.1918 267.368 68.7758 267.264 68.1678C267.16 67.5598 267.408 67.0078 267.8 66.9358C268.192 66.8638 268.608 67.2798 268.704 67.8878Z" fill="#263238"/>
<path d="M268.001 66.9278L266.473 66.7998C266.473 66.7998 267.393 67.7838 268.001 66.9278Z" fill="#263238"/>
<path d="M268.56 68.5596C268.246 70.0511 267.732 71.4935 267.032 72.8476C267.382 73.0113 267.765 73.0961 268.152 73.0961C268.539 73.0961 268.921 73.0113 269.272 72.8476L268.56 68.5596Z" fill="#ED893E"/>
<path d="M267.121 63.7595C267.029 63.7588 266.941 63.7246 266.873 63.6635C266.839 63.63 266.812 63.5901 266.793 63.5462C266.775 63.5023 266.766 63.4551 266.766 63.4075C266.766 63.3599 266.775 63.3127 266.793 63.2688C266.812 63.2248 266.839 63.185 266.873 63.1515C267.263 62.7211 267.751 62.3894 268.294 62.1836C268.838 61.9778 269.423 61.9038 270.001 61.9675C270.046 61.9761 270.09 61.9938 270.129 62.0194C270.168 62.045 270.202 62.0782 270.228 62.1169C270.254 62.1556 270.272 62.1991 270.281 62.2449C270.29 62.2907 270.29 62.3378 270.281 62.3835C270.261 62.4793 270.205 62.5638 270.125 62.6191C270.044 62.6743 269.945 62.696 269.849 62.6795C269.391 62.6379 268.93 62.7037 268.502 62.8718C268.074 63.0399 267.692 63.3055 267.385 63.6475C267.315 63.7182 267.22 63.7585 267.121 63.7595V63.7595Z" fill="#263238"/>
<path d="M288.504 61.9279C289.304 69.4479 289.784 72.6159 286.72 77.1279C282.104 83.9679 272.824 83.5279 269.84 76.4639C267.152 70.0639 266.312 58.8639 273 54.4959C274.439 53.5147 276.11 52.9289 277.847 52.7971C279.583 52.6652 281.323 52.9921 282.894 53.7448C284.464 54.4975 285.809 55.6497 286.794 57.0859C287.778 58.5221 288.368 60.1919 288.504 61.9279V61.9279Z" fill="#FFB573"/>
<path d="M274.825 67.4237C270.025 66.5757 268.865 61.0637 270.641 58.6637C262.553 59.0237 257.105 49.9757 265.841 44.8157C274.577 39.6557 282.289 47.6477 281.665 50.6637C292.425 49.6877 298.729 58.5437 292.865 65.1277C300.601 66.3837 312.185 75.1037 303.681 84.2637C315.177 85.9517 316.425 121.952 285.129 115.552C252.137 108.8 280.801 80.0877 280.801 80.0877C280.801 80.0877 272.441 77.7357 274.825 67.4237Z" fill="#263238"/>
<path d="M305.473 86.6075L304.793 86.1915C307.697 81.4715 308.177 77.1755 306.217 73.3915C303.697 68.5915 297.585 65.7595 292.841 65.4875L292.889 64.6875C297.849 64.9675 304.273 67.8875 306.929 73.0155C308.993 77.0155 308.489 81.7035 305.473 86.6075Z" fill="#263238"/>
<path d="M296.377 65.9358C299.137 65.4798 297.833 60.9758 295.801 59.7838C293.769 58.5918 284.033 60.5278 285.105 63.6318C286.177 66.7358 292.673 66.5518 296.377 65.9358Z" fill="white"/>
<path d="M296.873 64.7998C299.625 64.2718 298.521 60.6238 296.457 59.4798C294.393 58.3358 285.889 59.1837 287.049 62.2477C288.209 65.3117 293.193 65.5278 296.873 64.7998Z" fill="#FF0400"/>
<path d="M268.041 59.5757C266.198 59.5509 264.416 58.9118 262.977 57.7597C260.681 55.9757 259.417 53.3037 259.777 50.9517C259.993 49.4557 260.929 47.3997 264.193 46.0957L264.489 46.8397C262.185 47.7597 260.833 49.2397 260.569 51.0637C260.281 53.1437 261.425 55.5197 263.497 57.1277C264.458 57.9292 265.616 58.4599 266.85 58.6652C268.085 58.8705 269.352 58.743 270.521 58.2957L270.825 59.0397C269.942 59.4011 268.995 59.5833 268.041 59.5757V59.5757Z" fill="#263238"/>
<path d="M276.72 68.3039C276.36 70.2719 276.248 71.1119 275.224 72.0319C274.933 72.3574 274.551 72.5874 274.127 72.6919C273.703 72.7963 273.257 72.7704 272.848 72.6173C272.439 72.4643 272.086 72.1914 271.835 71.8342C271.584 71.4771 271.446 71.0525 271.44 70.6159C271.28 68.8079 271.896 65.8959 273.728 65.2879C275.56 64.6799 277.08 66.3439 276.72 68.3039Z" fill="#FFB573"/>
<path d="M272.305 74.5679L271.657 73.4079C271.629 73.3605 271.615 73.3067 271.615 73.2519C271.615 73.1971 271.629 73.1433 271.657 73.0959L272.305 71.9439C272.332 71.8939 272.373 71.8522 272.422 71.8232C272.471 71.7941 272.527 71.7788 272.585 71.7788C272.642 71.7788 272.698 71.7941 272.747 71.8232C272.796 71.8522 272.837 71.8939 272.865 71.9439L273.513 73.0959C273.54 73.1433 273.554 73.1971 273.554 73.2519C273.554 73.3067 273.54 73.3605 273.513 73.4079L272.865 74.5679C272.837 74.6179 272.796 74.6596 272.747 74.6886C272.698 74.7177 272.642 74.733 272.585 74.733C272.527 74.733 272.471 74.7177 272.422 74.6886C272.373 74.6596 272.332 74.6179 272.305 74.5679V74.5679Z" fill="white"/>
<path d="M264.321 135.2C264.321 135.2 263.225 175.312 261.761 201.696C260.209 225.912 258.217 282.544 258.217 282.544L264.337 282.864C264.337 282.864 277.873 235.208 277.305 206.416C293.193 166.144 287.481 136.408 287.481 136.408L264.321 135.2Z" fill="#FFB573"/>
<path d="M258.673 280C258.537 279.902 258.373 279.849 258.205 279.849C258.037 279.849 257.873 279.902 257.737 280C254.8 282.18 251.243 283.363 247.585 283.376C243.521 283.552 244.521 285.776 250.337 286.52C257.177 287.368 258.641 288.776 260.849 289.328C263.057 289.88 264.809 288.2 264.769 283.56C264.765 283.401 264.715 283.248 264.624 283.118C264.532 282.988 264.405 282.889 264.257 282.832C262.291 282.11 260.417 281.16 258.673 280V280Z" fill="#263238"/>
<path d="M272.44 135.2C272.44 135.2 283.64 182.672 290.128 204.8C296.952 228 302.36 280.944 302.32 282.696H307.616C307.616 282.696 314.456 239.784 306.016 204.776C305.216 147.976 295.424 135.24 295.424 135.24L272.44 135.2Z" fill="#FFB573"/>
<path d="M302.184 280.8C302.046 280.743 301.894 280.733 301.749 280.77C301.605 280.808 301.477 280.891 301.384 281.008C300.016 282.784 299.024 284.752 294.984 286.48C291.64 287.904 293.488 289.856 298.72 289.144C304.872 288.296 304.96 289.296 307.032 289.296C309.104 289.296 310.08 287.232 308.568 282.744C308.52 282.595 308.432 282.463 308.313 282.361C308.195 282.259 308.05 282.193 307.896 282.168C305.944 281.944 304.026 281.485 302.184 280.8V280.8Z" fill="#263238"/>
<path d="M264.321 135.2C264.321 135.2 259.041 170.352 259.785 218.4C276.488 218.305 293.086 215.744 309.041 210.8C309.041 210.8 309.281 148.544 295.385 135.224C287.361 133.064 264.505 134.496 264.321 135.2Z" fill="#263238"/>
<path opacity="0.2" d="M264.936 211.576C264.885 211.576 264.835 211.556 264.798 211.52C264.76 211.484 264.738 211.436 264.736 211.384C263.24 180.704 266.872 137.392 266.904 136.984C266.905 136.957 266.912 136.931 266.923 136.907C266.935 136.883 266.951 136.861 266.972 136.844C266.992 136.827 267.016 136.814 267.041 136.806C267.067 136.799 267.094 136.797 267.12 136.8C267.147 136.802 267.172 136.809 267.196 136.821C267.219 136.833 267.24 136.849 267.257 136.87C267.274 136.89 267.287 136.913 267.295 136.938C267.303 136.963 267.306 136.99 267.304 137.016C267.264 137.456 263.64 180.736 265.136 211.416C265.138 211.442 265.135 211.469 265.126 211.494C265.118 211.519 265.104 211.543 265.086 211.562C265.068 211.582 265.046 211.597 265.022 211.608C264.997 211.618 264.971 211.624 264.944 211.624L264.936 211.576Z" fill="white"/>
<path opacity="0.2" d="M285.84 180.896L290.392 156.784L292.224 162.552L285.84 180.896Z" fill="black"/>
</svg>
