<svg width="851" height="634" viewBox="0 0 851 634" fill="none" xmlns="http://www.w3.org/2000/svg">
<path d="M850.227 556.729H0V557.154H850.227V556.729Z" fill="#EBEBEB"/>
<path d="M765.034 584.089H708.715V584.514H765.034V584.089Z" fill="#EBEBEB"/>
<path d="M563.224 588.714H548.447V589.139H563.224V588.714Z" fill="#EBEBEB"/>
<path d="M707.015 568.309H674.383V568.734H707.015V568.309Z" fill="#EBEBEB"/>
<path d="M162.648 571.165H89.2051V571.59H162.648V571.165Z" fill="#EBEBEB"/>
<path d="M188.563 571.165H177.799V571.59H188.563V571.165Z" fill="#EBEBEB"/>
<path d="M382.857 578.341H223.559V578.766H382.857V578.341Z" fill="#EBEBEB"/>
<path d="M403.008 480.888H74.6672C72.095 480.884 69.6297 479.859 67.8125 478.038C65.9952 476.218 64.9746 473.751 64.9746 471.179V9.62457C64.997 7.06713 66.0275 4.6218 67.8423 2.81972C69.6571 1.01765 72.1097 0.00438103 74.6672 0H403.008C405.583 0 408.053 1.02297 409.873 2.84387C411.694 4.66477 412.717 7.13444 412.717 9.70959V471.179C412.717 473.754 411.694 476.223 409.873 478.044C408.053 479.865 405.583 480.888 403.008 480.888V480.888ZM74.6672 0.340092C72.2077 0.344596 69.8506 1.32476 68.1131 3.06545C66.3756 4.80614 65.3997 7.16511 65.3997 9.62457V471.179C65.3997 473.638 66.3756 475.997 68.1131 477.738C69.8506 479.478 72.2077 480.459 74.6672 480.463H403.008C405.469 480.459 407.828 479.479 409.568 477.739C411.308 475.999 412.288 473.64 412.292 471.179V9.62457C412.288 7.16355 411.308 4.80462 409.568 3.06441C407.828 1.32421 405.469 0.344587 403.008 0.340092H74.6672Z" fill="#EBEBEB"/>
<path d="M770.833 480.888H442.475C439.901 480.884 437.434 479.859 435.614 478.039C433.795 476.219 432.77 473.752 432.766 471.179V9.62457C432.792 7.06558 433.827 4.62026 435.644 2.81866C437.462 1.01706 439.916 0.00433325 442.475 0H770.833C773.387 0.00885 775.835 1.0241 777.647 2.82569C779.458 4.62728 780.486 7.07006 780.508 9.62457V471.179C780.508 473.748 779.49 476.212 777.676 478.032C775.863 479.852 773.402 480.879 770.833 480.888V480.888ZM442.475 0.340092C440.014 0.344587 437.655 1.32421 435.915 3.06441C434.175 4.80462 433.195 7.16355 433.191 9.62457V471.179C433.195 473.64 434.175 475.999 435.915 477.739C437.655 479.479 440.014 480.459 442.475 480.463H770.833C773.294 480.459 775.653 479.479 777.393 477.739C779.133 475.999 780.113 473.64 780.117 471.179V9.62457C780.113 7.16355 779.133 4.80462 777.393 3.06441C775.653 1.32421 773.294 0.344587 770.833 0.340092H442.475Z" fill="#EBEBEB"/>
<path d="M145.184 494.543C145.184 493.863 147.48 427.069 158.346 416.509C168.905 406.306 181.03 416.118 181.54 416.509L182.628 415.2C182.492 415.098 168.803 403.926 157.121 415.2C145.762 426.236 143.518 491.618 143.518 494.39L145.184 494.543Z" fill="#E0E0E0"/>
<path d="M144.266 507.653C144.266 506.871 151.68 427.477 122.687 394.199L121.412 395.322C149.929 428.038 142.651 506.701 142.566 507.551L144.266 507.653Z" fill="#E0E0E0"/>
<path d="M145.337 499.27L147.038 499.151C147.038 498.25 141.375 408.891 162.631 389.336L161.491 388.077C139.607 408.194 145.082 495.546 145.337 499.27Z" fill="#E0E0E0"/>
<path d="M142.566 499.219H144.267C144.267 496.753 143.57 438.87 127.109 429.5C125.548 428.494 123.77 427.875 121.921 427.694C120.072 427.514 118.208 427.778 116.481 428.463C106.534 432.578 101.602 450.28 101.398 451.028L103.099 451.487C103.099 451.3 108.013 433.837 117.179 430.045C118.668 429.461 120.275 429.242 121.866 429.404C123.457 429.567 124.987 430.107 126.327 430.98C141.869 439.839 142.566 498.624 142.566 499.219Z" fill="#E0E0E0"/>
<path d="M148.961 499.253L150.661 499.151C150.661 498.709 148.178 453.409 160.405 437.459C163.363 433.616 166.645 431.745 170.046 431.915C178.055 432.476 184.772 444.192 184.84 444.311L186.32 443.478C186.03 442.951 179.093 430.844 170.165 430.215C166.186 429.926 162.462 431.915 159.129 436.353C146.444 452.882 148.859 497.366 148.961 499.253Z" fill="#E0E0E0"/>
<path d="M146.24 505.409C146.563 501.022 154.232 397.6 140.747 379.388L139.387 380.391C152.48 398.11 144.624 504.218 144.488 505.29L146.24 505.409Z" fill="#E0E0E0"/>
<path d="M112.808 438.87C112.808 438.87 120.903 441.846 118.488 448.886C116.073 455.925 90.5325 467.489 90.5325 467.489C90.5325 467.489 79.8197 457.677 89.6483 441.727C99.4769 425.776 112.587 433.837 112.808 438.87Z" fill="#EBEBEB"/>
<path d="M147.939 425.47C147.939 425.47 139.437 425.113 138.858 432.527C138.28 439.941 157.563 460.466 157.563 460.466C157.563 460.466 171.167 455.534 168.293 437.017C165.42 418.499 150.098 420.913 147.939 425.47Z" fill="#EBEBEB"/>
<path d="M155.235 389.965C155.235 389.965 149.505 389.353 149.964 385.85C150.423 382.347 172.274 373.368 185.163 387.907C185.163 387.907 176.916 402.089 164.979 402.276C153.041 402.463 155.235 389.965 155.235 389.965Z" fill="#EBEBEB"/>
<path d="M144.538 381.48C144.538 381.48 149.741 383.979 151.204 380.783C152.666 377.586 138.875 358.371 120.238 363.897C120.238 363.897 119.745 380.306 129.778 386.768C139.811 393.23 144.538 381.48 144.538 381.48Z" fill="#EBEBEB"/>
<path d="M171.746 436.03C171.746 436.03 167.784 432.833 172.069 431.286C176.354 429.739 197.303 430.164 197.576 450.943C197.576 450.943 173.157 454.99 170.13 447.083C167.103 439.176 171.746 436.03 171.746 436.03Z" fill="#EBEBEB"/>
<path d="M121.905 389.404C121.905 389.404 125.867 386.207 121.599 384.642C117.33 383.078 96.3469 383.537 96.0918 404.3C96.0918 404.3 120.527 408.364 123.537 400.457C126.547 392.55 121.905 389.404 121.905 389.404Z" fill="#EBEBEB"/>
<path d="M134.813 406.17C134.813 406.17 135.17 402.293 132.024 403.807C128.878 405.32 117.961 417.138 129.286 428.327C129.286 428.327 144.59 417.019 141.801 411.136C139.013 405.252 134.813 406.17 134.813 406.17Z" fill="#EBEBEB"/>
<path d="M175.265 411.714C175.265 411.714 172.885 408.619 176.354 408.228C179.823 407.837 195.365 411.986 191.743 427.511C191.743 427.511 172.817 426.083 172.001 419.638C171.184 413.193 175.265 411.714 175.265 411.714Z" fill="#EBEBEB"/>
<path d="M111.295 556.796H176.252L183.258 485.683H104.289L111.295 556.796Z" fill="#F0F0F0"/>
<path d="M100.837 493.54H186.744V477.844H100.837V493.54Z" fill="#E6E6E6"/>
<path d="M704.362 494.543C704.362 493.863 702.083 427.069 691.217 416.509C680.658 406.306 668.516 416.118 668.023 416.509L666.918 415.2C667.071 415.098 680.743 403.926 692.425 415.2C703.784 426.236 706.028 491.618 706.028 494.39L704.362 494.543Z" fill="#E0E0E0"/>
<path d="M705.296 507.653C705.296 506.871 697.882 427.477 726.875 394.199L728.15 395.322C699.634 428.038 706.912 506.701 706.997 507.551L705.296 507.653Z" fill="#E0E0E0"/>
<path d="M704.225 499.27L702.525 499.151C702.525 498.25 708.204 408.891 686.932 389.336L688.088 388.077C709.956 408.194 704.48 495.546 704.225 499.27Z" fill="#E0E0E0"/>
<path d="M706.997 499.219H705.297C705.297 496.753 705.994 438.87 722.437 429.501C724.002 428.494 725.783 427.875 727.634 427.694C729.486 427.514 731.353 427.778 733.082 428.463C743.03 432.578 747.961 450.28 748.165 451.028L746.465 451.487C746.465 451.3 741.551 433.837 732.385 430.045C730.896 429.461 729.289 429.242 727.698 429.405C726.106 429.567 724.577 430.107 723.237 430.98C707.678 439.839 706.997 498.624 706.997 499.219Z" fill="#E0E0E0"/>
<path d="M700.588 499.253L698.887 499.151C698.887 498.709 701.37 453.409 689.144 437.459C686.185 433.582 682.954 431.745 679.57 431.983C671.561 432.544 664.844 444.261 664.776 444.38L663.297 443.546C663.586 443.019 670.524 430.912 679.451 430.283C683.43 429.994 687.154 431.983 690.487 436.421C703.104 452.882 700.707 497.366 700.588 499.253Z" fill="#E0E0E0"/>
<path d="M703.273 505.409C702.933 501.022 695.281 397.6 708.765 379.388L710.126 380.391C697.015 398.11 704.888 504.218 705.024 505.29L703.273 505.409Z" fill="#E0E0E0"/>
<path d="M736.756 438.87C736.756 438.87 728.662 441.846 731.077 448.886C733.491 455.925 759.032 467.489 759.032 467.489C759.032 467.489 769.745 457.677 759.899 441.727C750.054 425.776 736.96 433.837 736.756 438.87Z" fill="#EBEBEB"/>
<path d="M701.606 425.47C701.606 425.47 710.211 425.113 710.704 432.527C711.197 439.941 691.999 460.466 691.999 460.466C691.999 460.466 678.395 455.534 681.286 437.017C684.177 418.499 699.464 420.913 701.606 425.47Z" fill="#EBEBEB"/>
<path d="M694.328 389.965C694.328 389.965 700.059 389.353 699.6 385.85C699.141 382.347 677.29 373.368 664.4 387.907C664.4 387.907 672.648 402.089 684.585 402.276C696.522 402.463 694.328 389.965 694.328 389.965Z" fill="#EBEBEB"/>
<path d="M705.007 381.48C705.007 381.48 699.821 383.979 698.358 380.783C696.896 377.586 710.687 358.371 729.324 363.897C729.324 363.897 729.817 380.306 719.784 386.768C709.751 393.23 705.007 381.48 705.007 381.48Z" fill="#EBEBEB"/>
<path d="M677.851 436.03C677.851 436.03 681.813 432.833 677.528 431.286C673.243 429.739 652.277 430.164 652.021 450.943C652.021 450.943 676.44 454.99 679.467 447.083C682.494 439.176 677.851 436.03 677.851 436.03Z" fill="#EBEBEB"/>
<path d="M727.657 389.404C727.657 389.404 723.695 386.207 727.963 384.642C732.232 383.078 753.215 383.537 753.47 404.3C753.47 404.3 729.035 408.364 726.025 400.457C723.015 392.55 727.657 389.404 727.657 389.404Z" fill="#EBEBEB"/>
<path d="M714.735 406.17C714.735 406.17 714.395 402.293 717.524 403.807C720.653 405.32 731.604 417.138 720.279 428.327C720.279 428.327 704.975 417.019 707.763 411.136C710.552 405.252 714.735 406.17 714.735 406.17Z" fill="#EBEBEB"/>
<path d="M674.298 411.714C674.298 411.714 676.678 408.619 673.209 408.228C669.74 407.837 654.198 411.986 657.905 427.511C657.905 427.511 676.831 426.083 677.647 419.638C678.464 413.193 674.298 411.714 674.298 411.714Z" fill="#EBEBEB"/>
<path d="M738.251 556.796H673.311L666.305 485.683H745.274L738.251 556.796Z" fill="#F0F0F0"/>
<path d="M748.743 477.827H662.836V493.523H748.743V477.827Z" fill="#E6E6E6"/>
<path d="M404.265 123.742H231.295V471.553H404.265V123.742Z" fill="#FAFAFA"/>
<path d="M408.261 119.015H227.299V136.087H408.261V119.015Z" fill="#F0F0F0"/>
<path d="M408.261 137.975H227.299V146.511H408.261V137.975Z" fill="#F0F0F0"/>
<path d="M408.261 150.643H227.299V159.179H408.261V150.643Z" fill="#F0F0F0"/>
<path d="M408.261 163.312H227.299V171.848H408.261V163.312Z" fill="#F0F0F0"/>
<path d="M408.261 175.98H227.299V184.516H408.261V175.98Z" fill="#F0F0F0"/>
<path d="M408.261 188.631H227.299V197.168H408.261V188.631Z" fill="#F0F0F0"/>
<path d="M408.261 201.3H227.299V209.836H408.261V201.3Z" fill="#F0F0F0"/>
<path d="M408.261 213.968H227.299V222.504H408.261V213.968Z" fill="#F0F0F0"/>
<path d="M408.261 226.636H227.299V235.173H408.261V226.636Z" fill="#F0F0F0"/>
<path d="M408.261 239.305H227.299V247.841H408.261V239.305Z" fill="#F0F0F0"/>
<path d="M408.261 251.973H227.299V260.509H408.261V251.973Z" fill="#F0F0F0"/>
<path d="M408.261 264.625H227.299V273.161H408.261V264.625Z" fill="#F0F0F0"/>
<path d="M408.261 277.293H227.299V285.829H408.261V277.293Z" fill="#F0F0F0"/>
<path d="M408.261 289.961H227.299V298.498H408.261V289.961Z" fill="#F0F0F0"/>
<path d="M408.261 302.63H227.299V311.166H408.261V302.63Z" fill="#F0F0F0"/>
<path d="M408.261 315.298H227.299V323.834H408.261V315.298Z" fill="#F0F0F0"/>
<path d="M408.261 327.949H227.299V336.486H408.261V327.949Z" fill="#F0F0F0"/>
<path d="M408.261 340.618H227.299V349.154H408.261V340.618Z" fill="#F0F0F0"/>
<path d="M408.261 353.286H227.299V361.822H408.261V353.286Z" fill="#F0F0F0"/>
<path d="M408.261 365.955H227.299V374.491H408.261V365.955Z" fill="#F0F0F0"/>
<path d="M408.261 378.623H227.299V387.159H408.261V378.623Z" fill="#F0F0F0"/>
<path d="M408.261 391.291H227.299V399.828H408.261V391.291Z" fill="#F0F0F0"/>
<path d="M408.261 403.943H227.299V412.479H408.261V403.943Z" fill="#F0F0F0"/>
<path d="M408.261 416.611H227.299V425.147H408.261V416.611Z" fill="#F0F0F0"/>
<path d="M408.261 429.28H227.299V437.816H408.261V429.28Z" fill="#F0F0F0"/>
<path d="M408.261 441.948H227.299V450.484H408.261V441.948Z" fill="#F0F0F0"/>
<path d="M408.261 454.616H227.299V463.152H408.261V454.616Z" fill="#F0F0F0"/>
<path d="M408.261 467.268H227.299V475.804H408.261V467.268Z" fill="#F0F0F0"/>
<path d="M618.931 123.742H445.961V471.553H618.931V123.742Z" fill="#FAFAFA"/>
<path d="M622.927 119.015H441.965V136.087H622.927V119.015Z" fill="#F0F0F0"/>
<path d="M622.927 137.975H441.965V139.539H622.927V137.975Z" fill="#F0F0F0"/>
<path d="M622.927 141.546H441.965V143.11H622.927V141.546Z" fill="#F0F0F0"/>
<path d="M622.927 145.1H441.965V146.664H622.927V145.1Z" fill="#F0F0F0"/>
<path d="M622.927 148.671H441.965V150.235H622.927V148.671Z" fill="#F0F0F0"/>
<path d="M622.927 152.225H441.965V153.789H622.927V152.225Z" fill="#F0F0F0"/>
<path d="M622.927 155.795H441.965V157.36H622.927V155.795Z" fill="#F0F0F0"/>
<path d="M622.927 159.349H441.965V160.914H622.927V159.349Z" fill="#F0F0F0"/>
<path d="M622.927 162.92H441.965V164.485H622.927V162.92Z" fill="#F0F0F0"/>
<path d="M622.927 166.491H441.965V168.056H622.927V166.491Z" fill="#F0F0F0"/>
<path d="M622.927 170.045H441.965V171.61H622.927V170.045Z" fill="#F0F0F0"/>
<path d="M622.927 173.616H441.965V175.181H622.927V173.616Z" fill="#F0F0F0"/>
<path d="M622.927 177.17H441.965V178.735H622.927V177.17Z" fill="#F0F0F0"/>
<path d="M622.927 180.741H441.965V182.306H622.927V180.741Z" fill="#F0F0F0"/>
<path d="M622.927 184.295H441.965V185.86H622.927V184.295Z" fill="#F0F0F0"/>
<path d="M622.927 187.866H441.965V189.43H622.927V187.866Z" fill="#F0F0F0"/>
<path d="M622.927 191.437H441.965V193.001H622.927V191.437Z" fill="#F0F0F0"/>
<path d="M622.927 194.991H441.965V196.555H622.927V194.991Z" fill="#F0F0F0"/>
<path d="M622.927 198.562H441.965V200.126H622.927V198.562Z" fill="#F0F0F0"/>
<path d="M450.597 74.3389C452.88 60.2763 443.331 47.0258 429.268 44.7431C415.205 42.4604 401.955 52.0099 399.672 66.0726C397.39 80.1352 406.939 93.3856 421.002 95.6683C435.064 97.951 448.315 88.4015 450.597 74.3389Z" fill="#F0F0F0"/>
<path d="M446.786 73.7202C448.727 61.7619 440.607 50.4942 428.649 48.5531C416.69 46.612 405.423 54.7325 403.481 66.6908C401.54 78.6491 409.661 89.9168 421.619 91.8579C433.578 93.7991 444.845 85.6785 446.786 73.7202Z" fill="#FAFAFA"/>
<path d="M424.076 55.1458V70.4838L413.924 64.7363" fill="#F0F0F0"/>
<path d="M424.076 55.1458V70.4838L413.924 64.7363" stroke="#E0E0E0" stroke-width="2" stroke-linecap="round" stroke-linejoin="round"/>
<path d="M425.113 633.521C607.202 633.521 754.814 624.903 754.814 614.272C754.814 603.641 607.202 595.023 425.113 595.023C243.024 595.023 95.4121 603.641 95.4121 614.272C95.4121 624.903 243.024 633.521 425.113 633.521Z" fill="#F5F5F5"/>
<path opacity="0.5" d="M745.615 167.937H434.908C431.48 167.937 428.701 170.716 428.701 174.143V513.316C428.701 516.744 431.48 519.522 434.908 519.522H745.615C749.042 519.522 751.821 516.744 751.821 513.316V174.143C751.821 170.716 749.042 167.937 745.615 167.937Z" fill="#FF0400"/>
<path d="M735.412 161.135H424.705C421.277 161.135 418.498 163.914 418.498 167.342V506.514C418.498 509.942 421.277 512.721 424.705 512.721H735.412C738.839 512.721 741.618 509.942 741.618 506.514V167.342C741.618 163.914 738.839 161.135 735.412 161.135Z" fill="#FF0400"/>
<path opacity="0.8" d="M735.412 161.135H424.705C421.277 161.135 418.498 163.914 418.498 167.342V506.514C418.498 509.942 421.277 512.721 424.705 512.721H735.412C738.839 512.721 741.618 509.942 741.618 506.514V167.342C741.618 163.914 738.839 161.135 735.412 161.135Z" fill="white"/>
<path opacity="0.5" d="M321.556 159.622H163.89C160.462 159.622 157.684 162.4 157.684 165.828V453.987C157.684 457.415 160.462 460.194 163.89 460.194H321.556C324.984 460.194 327.763 457.415 327.763 453.987V165.828C327.763 162.4 324.984 159.622 321.556 159.622Z" fill="#FF0400"/>
<path d="M311.353 149.419H153.687C150.259 149.419 147.48 152.198 147.48 155.625V443.784C147.48 447.212 150.259 449.991 153.687 449.991H311.353C314.781 449.991 317.56 447.212 317.56 443.784V155.625C317.56 152.198 314.781 149.419 311.353 149.419Z" fill="#FF0400"/>
<path opacity="0.8" d="M311.353 149.419H153.687C150.259 149.419 147.48 152.198 147.48 155.625V443.784C147.48 447.212 150.259 449.991 153.687 449.991H311.353C314.781 449.991 317.56 447.212 317.56 443.784V155.625C317.56 152.198 314.781 149.419 311.353 149.419Z" fill="white"/>
<path d="M736.432 61.7434H154.027C150.412 61.7434 147.48 64.6745 147.48 68.2902V94.7492C147.48 98.3649 150.412 101.296 154.027 101.296H736.432C740.048 101.296 742.979 98.3649 742.979 94.7492V68.2902C742.979 64.6745 740.048 61.7434 736.432 61.7434Z" fill="#FF0400"/>
<path opacity="0.6" d="M682.545 81.5199C682.528 83.0262 682.066 84.4939 681.217 85.7382C680.368 86.9826 679.17 87.9479 677.773 88.5128C676.377 89.0777 674.844 89.2168 673.369 88.9127C671.894 88.6085 670.541 87.8747 669.482 86.8036C668.423 85.7326 667.704 84.372 667.416 82.8934C667.128 81.4147 667.284 79.8839 667.865 78.4937C668.445 77.1036 669.423 75.9161 670.677 75.0809C671.931 74.2456 673.404 73.7999 674.91 73.7998C675.918 73.8043 676.916 74.0076 677.846 74.3982C678.776 74.7888 679.62 75.3589 680.329 76.076C681.038 76.7931 681.599 77.6431 681.979 78.5772C682.359 79.5114 682.552 80.5113 682.545 81.5199V81.5199Z" fill="white"/>
<path opacity="0.6" d="M706.42 81.5199C706.403 83.0262 705.941 84.4939 705.092 85.7382C704.243 86.9826 703.045 87.9479 701.648 88.5128C700.252 89.0777 698.719 89.2168 697.244 88.9127C695.769 88.6085 694.416 87.8747 693.357 86.8036C692.298 85.7326 691.579 84.372 691.291 82.8934C691.003 81.4147 691.159 79.8839 691.74 78.4937C692.32 77.1036 693.298 75.9161 694.552 75.0809C695.806 74.2456 697.279 73.7999 698.785 73.7998C699.794 73.8043 700.791 74.0076 701.721 74.3982C702.651 74.7888 703.495 75.3589 704.204 76.076C704.913 76.7931 705.474 77.6431 705.854 78.5772C706.234 79.5114 706.427 80.5113 706.42 81.5199V81.5199Z" fill="white"/>
<path opacity="0.6" d="M730.277 81.5198C730.261 83.0283 729.797 84.498 728.946 85.7434C728.094 86.9888 726.893 87.9541 725.494 88.5174C724.094 89.0807 722.559 89.2168 721.083 88.9085C719.606 88.6002 718.253 87.8614 717.196 86.7852C716.139 85.709 715.424 84.3437 715.142 82.8617C714.86 81.3797 715.024 79.8474 715.612 78.4582C716.2 77.0689 717.186 75.8851 718.447 75.056C719.707 74.2269 721.185 73.7897 722.693 73.7997C724.721 73.8222 726.658 74.6471 728.079 76.0939C729.501 77.5407 730.291 79.4917 730.277 81.5198V81.5198Z" fill="white"/>
<path opacity="0.6" d="M180.979 71.5891H161.355V91.4334H180.979V71.5891Z" fill="white"/>
<path d="M306.951 197.321H123.574V232.401H306.951V197.321Z" fill="#FF0400"/>
<path opacity="0.2" d="M306.951 197.321H123.574V232.401H306.951V197.321Z" fill="black"/>
<path d="M149.965 207.54H135.324V222.181H149.965V207.54Z" fill="white"/>
<path d="M138.52 214.903L141.257 218.406L146.767 211.315" stroke="#FF0400" stroke-width="1.5" stroke-linecap="round" stroke-linejoin="round"/>
<path d="M297.292 223.083H282.566V213.118H297.292V223.083ZM289.929 205.755C288.273 205.755 286.684 206.412 285.511 207.582C284.337 208.752 283.676 210.339 283.672 211.996H285.372C285.443 210.837 285.953 209.75 286.798 208.954C287.644 208.159 288.76 207.717 289.921 207.717C291.081 207.717 292.198 208.159 293.043 208.954C293.889 209.75 294.399 210.837 294.47 211.996H296.17C296.166 210.342 295.507 208.757 294.337 207.588C293.168 206.418 291.583 205.759 289.929 205.755Z" fill="#FF0400"/>
<path d="M279.998 262.176H96.6211V297.256H279.998V262.176Z" fill="#FF0400"/>
<path opacity="0.4" d="M279.998 262.176H96.6211V297.256H279.998V262.176Z" fill="white"/>
<path d="M123.012 272.378H108.371V287.019H123.012V272.378Z" fill="white"/>
<path d="M270.339 277.973H255.613V287.921H270.339V277.973Z" fill="white"/>
<path d="M269.218 276.885H267.517C267.517 275.681 267.039 274.526 266.187 273.674C265.336 272.823 264.181 272.344 262.977 272.344C261.773 272.344 260.618 272.823 259.767 273.674C258.915 274.526 258.437 275.681 258.437 276.885H256.736C256.736 275.23 257.394 273.642 258.564 272.472C259.735 271.302 261.322 270.644 262.977 270.644C264.632 270.644 266.219 271.302 267.39 272.472C268.56 273.642 269.218 275.23 269.218 276.885Z" fill="white"/>
<path d="M307.902 330.058H124.525V365.138H307.902V330.058Z" fill="#FF0400"/>
<path opacity="0.4" d="M307.902 330.058H124.525V365.138H307.902V330.058Z" fill="white"/>
<path d="M150.916 340.278H136.275V354.918H150.916V340.278Z" fill="white"/>
<path d="M139.473 347.624L142.21 351.144L147.72 344.053" stroke="#FF0400" stroke-width="1.5" stroke-linecap="round" stroke-linejoin="round"/>
<g opacity="0.6">
<path opacity="0.6" d="M298.245 345.855H283.52V355.803H298.245V345.855Z" fill="white"/>
<path opacity="0.6" d="M297.124 344.784H295.424C295.462 344.163 295.372 343.541 295.161 342.956C294.949 342.371 294.62 341.836 294.194 341.383C293.768 340.93 293.254 340.569 292.683 340.322C292.112 340.076 291.497 339.948 290.875 339.948C290.253 339.948 289.638 340.076 289.067 340.322C288.496 340.569 287.982 340.93 287.556 341.383C287.129 341.836 286.8 342.371 286.589 342.956C286.378 343.541 286.288 344.163 286.326 344.784H284.626C284.581 343.936 284.71 343.087 285.004 342.291C285.298 341.494 285.752 340.766 286.336 340.15C286.921 339.534 287.625 339.043 288.405 338.708C289.185 338.373 290.026 338.2 290.875 338.2C291.724 338.2 292.564 338.373 293.345 338.708C294.125 339.043 294.829 339.534 295.414 340.15C295.998 340.766 296.451 341.494 296.745 342.291C297.039 343.087 297.168 343.936 297.124 344.784Z" fill="white"/>
</g>
<path d="M699.191 291.832H555.996V384.966H699.191V291.832Z" fill="#FF0400"/>
<path opacity="0.5" d="M699.191 291.832H555.996V384.966H699.191V291.832Z" fill="white"/>
<path d="M693.953 309.278H561.232V380.289H693.953V309.278Z" fill="#FF0400"/>
<path d="M670.216 319.889H572.049V322.95H670.216V319.889Z" fill="white"/>
<path d="M619.151 329.259H572.049V332.32H619.151V329.259Z" fill="white"/>
<path d="M631.378 338.611H572.049V341.672H631.378V338.611Z" fill="white"/>
<path d="M592.964 347.964H572.049V351.025H592.964V347.964Z" fill="white"/>
<path d="M585.584 357.316H572.049V360.377H585.584V357.316Z" fill="white"/>
<path d="M703.289 475.481V527.413C703.292 528.819 702.788 530.179 701.87 531.243C700.952 532.308 699.681 533.007 698.29 533.211C697.996 533.237 697.7 533.237 697.406 533.211H630.697C629.141 533.211 627.649 532.593 626.548 531.493C625.448 530.393 624.83 528.901 624.83 527.345V475.481C624.825 474.59 625.029 473.711 625.425 472.913C625.904 471.921 626.652 471.084 627.585 470.498C628.517 469.912 629.595 469.599 630.697 469.597H656.85C658.071 469.577 659.257 469.185 660.251 468.475C661.252 467.747 662.001 466.724 662.393 465.55C662.777 464.369 663.525 463.34 664.53 462.609C665.535 461.879 666.746 461.486 667.988 461.486H681.88C683.123 461.484 684.335 461.876 685.34 462.606C686.345 463.337 687.093 464.368 687.475 465.55C687.862 466.728 688.611 467.754 689.616 468.481C690.621 469.207 691.829 469.598 693.069 469.597H697.337C698.116 469.588 698.888 469.734 699.61 470.025C700.332 470.317 700.988 470.749 701.542 471.296C702.095 471.843 702.535 472.495 702.835 473.213C703.135 473.932 703.289 474.702 703.289 475.481V475.481Z" fill="#FF0400"/>
<path opacity="0.3" d="M698.29 477.929V533.211H630.697C629.141 533.211 627.649 532.593 626.548 531.493C625.448 530.393 624.83 528.901 624.83 527.345V475.481C624.825 474.59 625.029 473.711 625.425 472.913H693.273C694.597 472.935 695.86 473.471 696.796 474.407C697.732 475.343 698.268 476.606 698.29 477.929V477.929Z" fill="white"/>
<path d="M544.093 399.045V463.986L531.407 476.671H484.883V399.045H544.093Z" fill="#FF0400"/>
<path opacity="0.4" d="M544.093 399.045V463.986L531.407 476.671H484.883V399.045H544.093Z" fill="white"/>
<path d="M544.092 463.986H531.406V476.671L544.092 463.986Z" fill="#FF0400"/>
<path d="M536.916 412.224H492.262V414.656H536.916V412.224Z" fill="#FF0400"/>
<path d="M529.825 419.689H492.262V422.121H529.825V419.689Z" fill="#FF0400"/>
<path d="M536.916 427.137H492.262V429.569H536.916V427.137Z" fill="#FF0400"/>
<path d="M508.926 434.602H492.262V437.033H508.926V434.602Z" fill="#FF0400"/>
<path d="M503.06 442.067H492.262V444.499H503.06V442.067Z" fill="#FF0400"/>
<path d="M584.003 151.17H462.947V251.191H584.003V151.17Z" fill="#FF0400"/>
<path opacity="0.6" d="M462.947 151.17V251.191H584.003V151.17H462.947ZM580.057 247.246H466.909V155.115H580.057V247.246Z" fill="white"/>
<path opacity="0.3" d="M466.91 219.937L501.599 194.736L527.378 219.937L553.157 205.211L580.058 221.773V247.246H466.91V219.937Z" fill="white"/>
<path opacity="0.6" d="M548.635 177.85C548.631 179.488 548.143 181.087 547.231 182.447C546.319 183.806 545.024 184.865 543.511 185.489C541.997 186.113 540.333 186.275 538.727 185.953C537.122 185.632 535.648 184.842 534.492 183.683C533.335 182.524 532.548 181.049 532.23 179.443C531.912 177.837 532.077 176.173 532.704 174.66C533.332 173.148 534.393 171.856 535.754 170.947C537.116 170.038 538.716 169.552 540.353 169.552C541.442 169.552 542.521 169.767 543.526 170.184C544.532 170.601 545.446 171.213 546.215 171.984C546.984 172.755 547.594 173.669 548.009 174.676C548.424 175.683 548.637 176.762 548.635 177.85V177.85Z" fill="white"/>
<path d="M591.911 255.34V258.741H588.51" stroke="#263238" stroke-miterlimit="10"/>
<path d="M583.17 258.758H461.418" stroke="#263238" stroke-miterlimit="10" stroke-dasharray="4.18 3.14"/>
<path d="M458.749 258.741H455.348V255.34" stroke="#263238" stroke-miterlimit="10"/>
<path d="M455.348 250.426V149.657" stroke="#263238" stroke-miterlimit="10" stroke-dasharray="3.85 2.89"/>
<path d="M455.348 147.191V143.79H458.749" stroke="#263238" stroke-miterlimit="10"/>
<path d="M464.088 143.79H585.84" stroke="#263238" stroke-miterlimit="10" stroke-dasharray="4.18 3.14"/>
<path d="M588.51 143.79H591.911V147.191" stroke="#263238" stroke-miterlimit="10"/>
<path d="M591.91 152.105V252.891" stroke="#263238" stroke-miterlimit="10" stroke-dasharray="3.85 2.89"/>
<path d="M594.581 141.104H589.225V146.46H594.581V141.104Z" fill="#263238"/>
<path d="M594.581 256.071H589.225V261.428H594.581V256.071Z" fill="#263238"/>
<path d="M458.017 256.071H452.66V261.428H458.017V256.071Z" fill="#263238"/>
<path d="M458.017 141.104H452.66V146.46H458.017V141.104Z" fill="#263238"/>
<path d="M526.155 141.104H520.799V146.46H526.155V141.104Z" fill="#263238"/>
<path d="M526.308 256.071H520.951V261.428H526.308V256.071Z" fill="#263238"/>
<path d="M594.581 198.596H589.225V203.952H594.581V198.596Z" fill="#263238"/>
<path d="M458.017 198.596H452.66V203.952H458.017V198.596Z" fill="#263238"/>
<path d="M297.579 308.836L279.486 323.528C279.486 323.528 275.065 323.613 273.671 325.076C272.276 326.538 266.869 337.404 267.702 338.883C268.535 340.363 277.378 343.288 279.265 341.536C281.153 339.785 284.366 329.735 284.366 328.664L307.493 313.156L297.579 308.836Z" fill="#EBB376"/>
<path d="M287.852 315.621L291.899 324.447C291.899 324.447 316.776 312.883 322.167 306.082C323.544 304.381 325.449 301.541 327.506 298.362C330.907 293.107 334.716 286.781 337.369 282.343C339.341 279.027 340.668 276.766 340.668 276.766L326.588 254.558C323.51 256.921 314.09 294.876 312.406 296.916C310.723 298.957 287.852 315.621 287.852 315.621Z" fill="#FF0400"/>
<path opacity="0.1" d="M327.508 298.293C330.908 293.039 334.717 286.713 337.37 282.275L330.823 266.121C330.823 266.121 327.269 284.656 327.508 298.293Z" fill="black"/>
<path d="M442.203 224.885L460.024 211.043C460.024 211.043 461.469 206.86 463.289 205.942C465.108 205.024 477.079 203.306 478.253 204.48C479.426 205.653 479.477 215.056 477.232 216.383C474.988 217.709 464.428 217.675 463.425 217.284L443.955 231.5L442.203 224.885Z" fill="#EBB376"/>
<path d="M291.678 605.361L302.34 607.249L306.727 592.693L310.706 579.328L298.412 575.025L294.841 591.078L291.678 605.361Z" fill="#EBB376"/>
<path opacity="0.2" d="M294.773 591.418L306.677 592.982L310.69 579.48L298.395 575.093L294.773 591.418Z" fill="black"/>
<path d="M362.928 605.616H373.777L375.545 591.078L377.161 577.508L364.288 575.552L363.574 591.503L362.928 605.616Z" fill="#EBB376"/>
<path opacity="0.2" d="M363.574 592.455L375.545 591.928L377.161 577.933L364.288 575.756L363.574 592.455Z" fill="black"/>
<path d="M293.77 579.736L311.318 582.83C329.02 538.721 341.62 501.889 350.429 471.332C355.224 454.837 359.016 440.179 361.89 427.12L361.142 475.158V583.494H378.843C422.188 377.739 391.478 329.905 391.478 329.905L339.614 321.233C337.557 330.836 336.109 340.559 335.278 350.344L332.931 367.536L312.662 472.25L293.77 579.736Z" fill="#263238"/>
<path d="M314.072 580.671L292.307 573.444L292.596 582.711L310.604 588.442L314.072 580.671Z" fill="#FF0400"/>
<path opacity="0.6" d="M314.072 580.671L292.307 573.444L292.596 582.711L310.604 588.442L314.072 580.671Z" fill="white"/>
<path d="M381.258 581.674L358.574 578.341L360.462 587.422L379.184 589.938L381.258 581.674Z" fill="#FF0400"/>
<path opacity="0.6" d="M381.258 581.674L358.574 578.341L360.462 587.422L379.184 589.938L381.258 581.674Z" fill="white"/>
<path opacity="0.2" d="M348.133 479.409C348.949 476.654 349.833 473.967 350.581 471.332C354.935 456.351 357.825 442.9 361.226 430.81L362.927 408.568C362.927 408.568 351.823 384.132 355.972 366.941C355.598 367.91 348.252 386.649 351.143 405.371C351.82 430.09 350.815 454.827 348.133 479.409V479.409Z" fill="black"/>
<path d="M346.638 232.163C346.781 232.264 346.935 232.35 347.097 232.418C349.266 233.676 351.666 234.486 354.154 234.799C361.398 235.513 366.057 233.931 368.778 230.343C372.553 225.004 372.536 216.417 370.597 206.299C369.96 202.258 368.686 198.344 366.822 194.702C366.822 194.702 366.822 194.549 366.822 194.515C366.822 194.481 366.669 194.226 366.584 194.107C365.444 192.063 363.811 190.336 361.833 189.086C359.854 187.835 357.594 187.1 355.259 186.948C353.226 186.762 351.179 186.802 349.154 187.067C329.225 189.43 329.888 222.759 346.638 232.163Z" fill="#EBB376"/>
<path opacity="0.2" d="M347.096 232.418C349.27 233.587 351.659 234.305 354.119 234.526C361.363 235.241 366.022 233.421 368.708 229.782C364.644 231.372 360.17 231.587 355.972 230.394C354.436 230.034 352.838 230.03 351.3 230.38C349.762 230.731 348.324 231.428 347.096 232.418V232.418Z" fill="black"/>
<path d="M345.599 248.691C343.813 254.235 350.938 257.279 350.938 257.279C363.471 253.317 366.327 247.076 366.327 247.076C356.805 240.852 361.226 226.347 361.226 226.347L359.083 227.147L344.477 228.541C344.477 228.541 347.707 236.567 348.065 238.353C349.816 247.824 345.599 248.691 345.599 248.691Z" fill="#EBB376"/>
<path d="M366.838 194.566C366.838 194.566 369.746 208.357 357.316 216.06C357.316 216.06 353.541 231.262 345.208 232.554C333.866 234.254 321.742 219.427 323.528 202.422C325.857 180.384 358.03 174.433 366.838 194.566Z" fill="#263238"/>
<path d="M363.489 211.179C363.2 209.003 360.973 205.585 357.657 206.52C354.341 207.455 353.423 216.366 362.265 217.165C363.523 217.284 364.084 215.72 363.489 211.179Z" fill="#EBB376"/>
<path d="M374.916 603.661H362.825C362.573 603.656 362.328 603.741 362.132 603.899C361.936 604.058 361.802 604.281 361.754 604.528L359.272 615.734C359.219 615.973 359.215 616.22 359.258 616.461C359.302 616.702 359.392 616.931 359.525 617.137C359.658 617.342 359.83 617.52 360.032 617.658C360.233 617.797 360.46 617.894 360.7 617.945C360.835 617.961 360.972 617.961 361.108 617.945C366.056 617.945 366.464 617.57 372.671 617.57C376.497 617.57 388.06 617.962 393.349 617.962C398.637 617.962 399.317 612.741 397.158 612.265C387.448 610.14 380.153 607.164 377.041 604.426C376.456 603.909 375.696 603.635 374.916 603.661V603.661Z" fill="#263238"/>
<path d="M375.8 605.361C375.74 605.35 375.686 605.319 375.645 605.272C375.605 605.226 375.582 605.167 375.579 605.106C375.571 605.05 375.58 604.993 375.604 604.941C375.628 604.89 375.667 604.847 375.715 604.817C376.174 604.528 380.238 602.028 381.633 602.76C381.79 602.833 381.923 602.951 382.013 603.099C382.104 603.248 382.149 603.419 382.143 603.593C382.189 603.891 382.156 604.196 382.045 604.477C381.935 604.758 381.751 605.005 381.514 605.191C380.81 605.684 379.955 605.912 379.099 605.837C377.985 605.805 376.878 605.646 375.8 605.361ZM376.668 604.953C378.139 605.443 379.74 605.364 381.157 604.732C381.304 604.599 381.416 604.431 381.485 604.245C381.553 604.058 381.574 603.858 381.548 603.661C381.548 603.406 381.446 603.304 381.361 603.304C381.24 603.242 381.105 603.213 380.97 603.219C379.436 603.502 377.971 604.073 376.651 604.902L376.668 604.953Z" fill="#FF0400"/>
<path d="M375.697 605.361C375.653 605.332 375.617 605.291 375.593 605.244C375.569 605.196 375.558 605.143 375.561 605.089C375.561 604.919 375.884 601.297 377.261 600.107C377.435 599.957 377.638 599.846 377.858 599.781C378.078 599.717 378.31 599.7 378.537 599.733C378.763 599.729 378.982 599.806 379.157 599.949C379.331 600.093 379.449 600.293 379.489 600.515C379.761 601.842 377.244 604.613 375.935 605.31H375.799C375.769 605.334 375.734 605.351 375.697 605.361ZM377.721 600.464C376.83 601.595 376.308 602.972 376.224 604.409C377.534 603.423 379.132 601.331 378.979 600.515C378.979 600.43 378.979 600.209 378.537 600.209H378.401C378.148 600.211 377.905 600.308 377.721 600.481V600.464Z" fill="#FF0400"/>
<path d="M302.765 603.661H290.657C290.407 603.663 290.165 603.75 289.97 603.907C289.775 604.065 289.64 604.284 289.586 604.528L287.104 615.734C287.051 615.973 287.047 616.22 287.09 616.461C287.134 616.702 287.224 616.931 287.357 617.137C287.49 617.343 287.662 617.52 287.864 617.658C288.065 617.797 288.292 617.894 288.532 617.945C288.667 617.961 288.804 617.961 288.94 617.945C293.905 617.945 294.296 617.571 300.52 617.571C304.346 617.571 315.824 617.962 321.181 617.962C326.537 617.962 327.166 612.741 325.007 612.265C315.297 610.14 308.002 607.164 304.873 604.426C304.294 603.91 303.54 603.637 302.765 603.661V603.661Z" fill="#263238"/>
<path d="M303.617 605.361C303.556 605.35 303.502 605.319 303.462 605.272C303.422 605.226 303.398 605.167 303.395 605.106C303.391 605.049 303.403 604.991 303.43 604.94C303.457 604.888 303.498 604.846 303.548 604.817C303.991 604.528 308.055 602.028 309.466 602.76C309.62 602.838 309.749 602.957 309.839 603.104C309.929 603.251 309.976 603.42 309.976 603.593C310.023 603.891 309.989 604.196 309.878 604.477C309.768 604.758 309.584 605.005 309.347 605.191C308.641 605.678 307.788 605.907 306.932 605.837C305.812 605.807 304.7 605.647 303.617 605.361V605.361ZM304.484 604.953C305.955 605.443 307.557 605.364 308.973 604.732C309.122 604.6 309.237 604.433 309.308 604.246C309.379 604.06 309.404 603.859 309.381 603.661C309.381 603.406 309.262 603.304 309.177 603.304C309.063 603.24 308.933 603.211 308.803 603.219C307.271 603.506 305.806 604.077 304.484 604.902V604.953Z" fill="#FF0400"/>
<path d="M303.548 605.361C303.499 605.335 303.459 605.296 303.432 605.248C303.405 605.199 303.392 605.144 303.395 605.089C303.395 604.919 303.718 601.297 305.18 600.107C305.349 599.955 305.55 599.843 305.768 599.778C305.985 599.713 306.214 599.698 306.439 599.733C306.667 599.729 306.888 599.805 307.066 599.948C307.243 600.091 307.364 600.291 307.408 600.515C307.663 601.841 305.146 604.613 303.854 605.31H303.701L303.548 605.361ZM305.555 600.464C304.669 601.597 304.153 602.974 304.075 604.409C305.368 603.423 306.966 601.331 306.813 600.515C306.813 600.43 306.813 600.209 306.388 600.209H306.235C305.982 600.211 305.739 600.308 305.555 600.481V600.464Z" fill="#FF0400"/>
<path d="M391.564 330.126C391.564 330.126 401.461 269.845 384.456 242.825C384.456 242.825 350.447 240.716 326.641 254.507C326.641 254.507 336.503 281.34 337.983 330.126H391.564Z" fill="#FF0400"/>
<path opacity="0.1" d="M394.658 283.976C395.389 275.797 392.957 267.923 392.617 260.986C388.364 257.231 384.604 252.951 381.428 248.249C381.428 248.249 378.351 272.685 394.658 283.976Z" fill="black"/>
<path d="M380.238 242.706C380.238 242.706 413.89 238.761 418.958 236.635C422.12 235.309 446.862 219.137 446.862 219.137L452.661 227.861C452.661 227.861 427.358 248.266 423.073 250.647C413.04 256.156 390.492 263.944 390.492 263.944C390.492 263.944 376.871 254.388 380.238 242.706Z" fill="#FF0400"/>
<path d="M366.329 203.697C366.329 203.697 380.324 189.703 367.128 180.282C353.933 170.862 340.669 183.156 340.669 183.156C340.669 183.156 309.109 190.774 315.826 211.774C322.542 232.775 326.93 234.544 316.931 245.307C306.932 256.071 296.73 272.073 306.949 282.275C317.169 292.478 352.862 281.986 363.727 266.597C374.593 251.208 355.395 218.134 366.329 203.697Z" fill="#263238"/>
<path d="M337.948 330.126L337.727 324.412L392.175 325.79V331.078L337.948 330.126Z" fill="black"/>
<path d="M355.207 324.804H353.014V330.432H355.207V324.804Z" fill="#263238"/>
<path d="M380.341 325.433H378.402V331.588H380.341V325.433Z" fill="#263238"/>
<path d="M341.076 324.498H339.223V331.078H341.076V324.498Z" fill="#263238"/>
</svg>
