<svg width="778" height="579" viewBox="0 0 778 579" fill="none" xmlns="http://www.w3.org/2000/svg">
<path d="M699.904 534.363H648.38V534.752H699.904V534.363Z" fill="#EBEBEB"/>
<path d="M515.275 538.595H501.756V538.984H515.275V538.595Z" fill="#EBEBEB"/>
<path d="M646.824 519.927H616.971V520.316H646.824V519.927Z" fill="#EBEBEB"/>
<path d="M148.802 522.54H81.6113V522.929H148.802V522.54Z" fill="#EBEBEB"/>
<path d="M172.511 522.54H162.663V522.929H172.511V522.54Z" fill="#EBEBEB"/>
<path d="M350.263 529.105H204.526V529.494H350.263V529.105Z" fill="#EBEBEB"/>
<path d="M368.698 439.949H68.3098C65.9566 439.945 63.7012 439.007 62.0386 437.341C60.3761 435.676 59.4424 433.419 59.4424 431.066V8.8052C59.4629 6.46548 60.4057 4.22833 62.066 2.57967C63.7263 0.931015 65.97 0.00400806 68.3098 0H368.698C371.054 0 373.313 0.935883 374.979 2.60177C376.645 4.26765 377.581 6.52707 377.581 8.88298V431.066C377.581 433.422 376.645 435.681 374.979 437.347C373.313 439.013 371.054 439.949 368.698 439.949V439.949ZM68.3098 0.311139C66.0597 0.31526 63.9032 1.21198 62.3137 2.80448C60.7241 4.39698 59.8313 6.55513 59.8313 8.8052V431.066C59.8313 433.316 60.7241 435.474 62.3137 437.066C63.9032 438.659 66.0597 439.556 68.3098 439.56H368.698C370.949 439.556 373.107 438.659 374.699 437.067C376.291 435.475 377.188 433.317 377.192 431.066V8.8052C377.188 6.5537 376.291 4.39559 374.699 2.80353C373.107 1.21148 370.949 0.315251 368.698 0.311139H68.3098Z" fill="#EBEBEB"/>
<path d="M705.209 439.949H404.806C402.451 439.945 400.194 439.007 398.529 437.342C396.864 435.677 395.927 433.42 395.923 431.066V8.8052C395.947 6.46406 396.894 4.22693 398.556 2.5787C400.219 0.930471 402.465 0.00396435 404.806 0H705.209C707.546 0.00809658 709.786 0.936912 711.443 2.58513C713.1 4.23335 714.041 6.46817 714.061 8.8052V431.066C714.061 433.416 713.13 435.671 711.47 437.336C709.811 439.001 707.56 439.94 705.209 439.949V439.949ZM404.806 0.311139C402.554 0.315251 400.396 1.21148 398.804 2.80353C397.212 4.39559 396.316 6.5537 396.312 8.8052V431.066C396.316 433.317 397.212 435.475 398.804 437.067C400.396 438.659 402.554 439.556 404.806 439.56H705.209C707.461 439.556 709.619 438.659 711.211 437.067C712.803 435.475 713.699 433.317 713.703 431.066V8.8052C713.699 6.5537 712.803 4.39559 711.211 2.80353C709.619 1.21148 707.461 0.315251 705.209 0.311139H404.806Z" fill="#EBEBEB"/>
<path d="M777.844 509.333H0V509.721H777.844V509.333Z" fill="#EBEBEB"/>
<path d="M708.865 25.4668H598.022V401.492H708.865V25.4668Z" fill="#FAFAFA"/>
<path d="M711.68 158.571H573.1V398.21H711.68V158.571Z" fill="#E0E0E0"/>
<path d="M599.718 125.093V185.189H610.654H674.142H685.078V125.093H599.718Z" fill="#E0E0E0"/>
<path d="M599.718 167.454H581.983V185.189H599.718V167.454Z" fill="#FAFAFA"/>
<path d="M634.083 167.454H616.349V185.189H634.083V167.454Z" fill="#FAFAFA"/>
<path d="M668.449 167.454H650.714V185.189H668.449V167.454Z" fill="#FAFAFA"/>
<path d="M702.83 167.454H685.079V185.189H702.83V167.454Z" fill="#F0F0F0"/>
<path d="M599.718 199.688H581.983V217.439H599.718V199.688Z" fill="#F0F0F0"/>
<path d="M634.083 199.688H616.349V217.439H634.083V199.688Z" fill="#F0F0F0"/>
<path d="M668.449 199.688H650.714V217.439H668.449V199.688Z" fill="#FAFAFA"/>
<path d="M702.83 199.688H685.079V217.439H702.83V199.688Z" fill="#FAFAFA"/>
<path d="M599.718 231.922H581.983V249.657H599.718V231.922Z" fill="#F0F0F0"/>
<path d="M634.083 231.922H616.349V249.657H634.083V231.922Z" fill="#FAFAFA"/>
<path d="M668.449 231.922H650.714V249.657H668.449V231.922Z" fill="#FAFAFA"/>
<path d="M634.083 139.576H616.349V157.311H634.083V139.576Z" fill="#FAFAFA"/>
<path d="M668.449 139.576H650.714V157.311H668.449V139.576Z" fill="#F0F0F0"/>
<path d="M702.83 231.922H685.079V249.657H702.83V231.922Z" fill="#F0F0F0"/>
<path d="M599.718 264.156H581.983V281.891H599.718V264.156Z" fill="#FAFAFA"/>
<path d="M634.083 264.156H616.349V281.891H634.083V264.156Z" fill="#F0F0F0"/>
<path d="M668.449 264.156H650.714V281.891H668.449V264.156Z" fill="#F0F0F0"/>
<path d="M702.83 264.156H685.079V281.891H702.83V264.156Z" fill="#FAFAFA"/>
<path d="M599.718 296.405H581.983V314.156H599.718V296.405Z" fill="#F0F0F0"/>
<path d="M634.083 296.405H616.349V314.156H634.083V296.405Z" fill="#FAFAFA"/>
<path d="M668.449 296.405H650.714V314.156H668.449V296.405Z" fill="#FAFAFA"/>
<path d="M702.83 296.405H685.079V314.156H702.83V296.405Z" fill="#F0F0F0"/>
<path d="M599.718 328.64H581.983V346.374H599.718V328.64Z" fill="#F0F0F0"/>
<path d="M634.083 328.64H616.349V346.374H634.083V328.64Z" fill="#FAFAFA"/>
<path d="M668.449 328.64H650.714V346.374H668.449V328.64Z" fill="#F0F0F0"/>
<path d="M702.83 328.64H685.079V346.374H702.83V328.64Z" fill="#FAFAFA"/>
<path d="M599.718 360.873H581.983V378.623H599.718V360.873Z" fill="#FAFAFA"/>
<path d="M634.083 360.873H616.349V378.623H634.083V360.873Z" fill="#FAFAFA"/>
<path d="M668.449 360.873H650.714V378.623H668.449V360.873Z" fill="#F0F0F0"/>
<path d="M702.83 360.873H685.079V378.623H702.83V360.873Z" fill="#F0F0F0"/>
<path opacity="0.1" d="M708.648 25.4668H597.805V401.492H708.648V25.4668Z" fill="white"/>
<g opacity="0.3">
<path opacity="0.3" d="M697.804 25.4668H662.459L623.8 401.492H659.129L697.804 25.4668Z" fill="white"/>
</g>
<path d="M709.799 20.7061H597.089V30.2424H709.799V20.7061Z" fill="#E0E0E0"/>
<path d="M709.799 398.21H597.089V407.746H709.799V398.21Z" fill="#EBEBEB"/>
<path d="M714.17 415.882H591.986V11.4033H714.17V415.882ZM601.305 406.548H704.867V20.7375H601.305V406.548Z" fill="#EBEBEB"/>
<path d="M587.957 25.4668H477.114V401.492H587.957V25.4668Z" fill="#FAFAFA"/>
<path d="M579.572 283.197H484.784V399.516H579.572V283.197Z" fill="#E6E6E6"/>
<path d="M571.327 296.094H549.267H543.2H537.133V308.228H543.2H549.267H571.327V296.094Z" fill="#E6E6E6"/>
<path d="M571.327 319.601H549.267H543.2H537.133V331.735H543.2H549.267H571.327V319.601Z" fill="#FAFAFA"/>
<path d="M571.327 343.107H549.267H543.2H537.133V355.242H543.2H549.267H571.327V343.107Z" fill="#E6E6E6"/>
<path d="M571.327 366.613H549.267H539.902H537.133V378.748H539.902H549.267H571.327V366.613Z" fill="#FAFAFA"/>
<path d="M527.222 296.094H505.178H499.111H493.044V308.228H499.111H505.178H527.222V296.094Z" fill="#FAFAFA"/>
<path d="M527.222 319.601H505.178H496.622H493.044V331.735H496.622H505.178H527.222V319.601Z" fill="#FAFAFA"/>
<path d="M527.222 343.107H505.178H499.111H493.044V355.242H499.111H505.178H527.222V343.107Z" fill="#E6E6E6"/>
<path d="M527.222 366.613H505.178H499.111H493.044V378.748H499.111H505.178H527.222V366.613Z" fill="#FAFAFA"/>
<path opacity="0.1" d="M587.6 25.4668H476.757V401.492H587.6V25.4668Z" fill="white"/>
<g opacity="0.3">
<path opacity="0.3" d="M576.897 25.4668H541.567L502.893 401.492H538.238L576.897 25.4668Z" fill="white"/>
</g>
<path d="M588.89 20.7061H476.181V30.2424H588.89V20.7061Z" fill="#E0E0E0"/>
<path d="M588.89 398.21H476.181V407.746H588.89V398.21Z" fill="#EBEBEB"/>
<path d="M593.278 415.882H471.094V11.4033H593.278V415.882ZM480.397 406.548H583.959V20.7375H480.397V406.548Z" fill="#EBEBEB"/>
<path d="M297.525 25.4668H186.683V401.492H297.525V25.4668Z" fill="#FAFAFA"/>
<path opacity="0.1" d="M297.308 25.4668H186.465V401.492H297.308V25.4668Z" fill="white"/>
<g opacity="0.3">
<path opacity="0.3" d="M286.48 25.4668H251.134L212.476 401.492H247.805L286.48 25.4668Z" fill="white"/>
</g>
<path d="M298.474 20.7061H185.765V30.2424H298.474V20.7061Z" fill="#E0E0E0"/>
<path d="M298.474 398.21H185.765V407.746H298.474V398.21Z" fill="#EBEBEB"/>
<path d="M302.846 415.882H180.662V11.4033H302.846V415.882ZM189.981 406.548H293.527V20.7375H189.981V406.548Z" fill="#EBEBEB"/>
<path d="M176.788 25.4668H65.9453V401.492H176.788V25.4668Z" fill="#FAFAFA"/>
<path d="M160.08 184.707H74.2842V256.704H160.08V184.707Z" fill="#E6E6E6"/>
<path d="M90.7586 193.684H79.7754V204.667H90.7586V193.684Z" fill="#FAFAFA"/>
<path d="M112.041 193.684H101.058V204.667H112.041V193.684Z" fill="#FAFAFA"/>
<path d="M133.323 193.684H122.34V204.667H133.323V193.684Z" fill="#FAFAFA"/>
<path d="M154.589 193.684H143.605V204.667H154.589V193.684Z" fill="#FAFAFA"/>
<path d="M90.7586 213.643H79.7754V224.626H90.7586V213.643Z" fill="#FAFAFA"/>
<path d="M112.041 213.643H101.058V224.626H112.041V213.643Z" fill="#FAFAFA"/>
<path d="M133.323 213.643H122.34V224.626H133.323V213.643Z" fill="#FAFAFA"/>
<path d="M154.589 213.643H143.605V224.626H154.589V213.643Z" fill="#E6E6E6"/>
<path d="M90.7586 233.587H79.7754V244.57H90.7586V233.587Z" fill="#E6E6E6"/>
<path d="M112.041 233.587H101.058V244.57H112.041V233.587Z" fill="#E6E6E6"/>
<path d="M133.323 233.587H122.34V244.57H133.323V233.587Z" fill="#FAFAFA"/>
<path d="M154.589 233.587H143.605V244.57H154.589V233.587Z" fill="#E6E6E6"/>
<path d="M160.08 255.802H74.2842V327.799H160.08V255.802Z" fill="#E6E6E6"/>
<path d="M90.7586 264.763H79.7754V275.746H90.7586V264.763Z" fill="#FAFAFA"/>
<path d="M112.041 264.763H101.058V275.746H112.041V264.763Z" fill="#FAFAFA"/>
<path d="M133.323 264.763H122.34V275.746H133.323V264.763Z" fill="#FAFAFA"/>
<path d="M154.589 264.763H143.605V275.746H154.589V264.763Z" fill="#FAFAFA"/>
<path d="M90.7586 284.723H79.7754V295.706H90.7586V284.723Z" fill="#FAFAFA"/>
<path d="M112.041 284.723H101.058V295.706H112.041V284.723Z" fill="#FAFAFA"/>
<path d="M133.323 284.723H122.34V295.706H133.323V284.723Z" fill="#FAFAFA"/>
<path d="M154.589 284.723H143.605V295.706H154.589V284.723Z" fill="#E6E6E6"/>
<path d="M90.7586 304.682H79.7754V315.665H90.7586V304.682Z" fill="#E6E6E6"/>
<path d="M112.041 304.682H101.058V315.665H112.041V304.682Z" fill="#E6E6E6"/>
<path d="M133.323 304.682H122.34V315.665H133.323V304.682Z" fill="#FAFAFA"/>
<path d="M154.589 304.682H143.605V315.665H154.589V304.682Z" fill="#E6E6E6"/>
<path d="M160.08 326.881H74.2842V398.878H160.08V326.881Z" fill="#E6E6E6"/>
<path d="M90.7586 335.857H79.7754V346.841H90.7586V335.857Z" fill="#FAFAFA"/>
<path d="M112.041 335.857H101.058V346.841H112.041V335.857Z" fill="#FAFAFA"/>
<path d="M133.323 335.857H122.34V346.841H133.323V335.857Z" fill="#FAFAFA"/>
<path d="M154.589 335.857H143.605V346.841H154.589V335.857Z" fill="#FAFAFA"/>
<path d="M90.7586 355.817H79.7754V366.801H90.7586V355.817Z" fill="#FAFAFA"/>
<path d="M112.041 355.817H101.058V366.801H112.041V355.817Z" fill="#FAFAFA"/>
<path d="M133.323 355.817H122.34V366.801H133.323V355.817Z" fill="#FAFAFA"/>
<path d="M154.589 355.817H143.605V366.801H154.589V355.817Z" fill="#E6E6E6"/>
<path d="M90.7586 375.776H79.7754V386.76H90.7586V375.776Z" fill="#E6E6E6"/>
<path d="M112.041 375.776H101.058V386.76H112.041V375.776Z" fill="#E6E6E6"/>
<path d="M133.323 375.776H122.34V386.76H133.323V375.776Z" fill="#FAFAFA"/>
<path d="M154.589 375.776H143.605V386.76H154.589V375.776Z" fill="#E6E6E6"/>
<path opacity="0.1" d="M175.326 25.4668H64.4834V401.492H175.326V25.4668Z" fill="white"/>
<g opacity="0.3">
<path opacity="0.3" d="M165.728 25.4668H130.398L91.7393 401.492H127.069L165.728 25.4668Z" fill="white"/>
</g>
<path d="M177.737 20.7061H65.0273V30.2424H177.737V20.7061Z" fill="#E0E0E0"/>
<path d="M177.737 398.21H65.0273V407.746H177.737V398.21Z" fill="#EBEBEB"/>
<path d="M182.109 415.882H59.9248V11.4033H182.109V415.882ZM69.2434 406.548H172.79V20.7375H69.2434V406.548Z" fill="#EBEBEB"/>
<path d="M378.842 466.1L377.597 466.256C377.519 465.618 369.959 402.333 385.562 350.622C401.119 299.284 390.385 266.459 390.229 266.148L391.427 265.743C391.536 266.07 402.317 299.206 386.76 350.979C371.234 402.441 378.764 465.478 378.842 466.1Z" fill="#E0E0E0"/>
<path d="M392.5 273.195C389.783 269.959 386.095 267.684 381.983 266.708L382.279 265.479C386.654 266.517 390.576 268.94 393.464 272.386L392.5 273.195Z" fill="#E0E0E0"/>
<path d="M397.836 278.43L394.247 280.458L394.867 281.555L398.456 279.527L397.836 278.43Z" fill="#E0E0E0"/>
<path d="M391.147 307.606C388.017 300.472 382.222 294.845 374.999 291.925L375.466 290.773C382.99 293.81 389.03 299.666 392.298 307.093L391.147 307.606Z" fill="#E0E0E0"/>
<path d="M387.786 347.136H386.526C386.485 344.591 385.88 342.087 384.756 339.803C383.631 337.519 382.015 335.513 380.023 333.928L380.801 332.948C382.94 334.651 384.676 336.807 385.884 339.26C387.091 341.713 387.741 344.402 387.786 347.136V347.136Z" fill="#E0E0E0"/>
<path d="M384.986 357.248L383.804 356.797C384.449 355.193 385.418 353.738 386.649 352.523C387.88 351.308 389.347 350.359 390.96 349.734L391.395 350.917C389.949 351.474 388.633 352.324 387.53 353.414C386.427 354.503 385.561 355.809 384.986 357.248V357.248Z" fill="#E0E0E0"/>
<path d="M376.835 421.389L375.87 420.596C377.426 418.745 378.561 411.729 379.184 407.964C379.324 407.062 379.448 406.299 379.557 405.739L380.786 405.973C380.693 406.517 380.568 407.279 380.413 408.166C379.495 413.813 378.453 419.445 376.835 421.389Z" fill="#E0E0E0"/>
<path d="M376.119 441.535C375.244 439.07 373.613 436.944 371.46 435.458C369.307 433.972 366.74 433.203 364.125 433.259V431.999C367.017 431.93 369.857 432.778 372.237 434.421C374.618 436.064 376.418 438.418 377.379 441.146L376.119 441.535Z" fill="#E0E0E0"/>
<path d="M385.72 454.694L376.866 464.6L377.806 465.44L386.659 455.534L385.72 454.694Z" fill="#E0E0E0"/>
<path d="M392.033 390.089C394.04 396.576 380.055 408.944 380.055 408.944C380.055 408.944 361.526 406.626 359.52 400.123C357.513 393.62 362.211 383.01 371.187 380.241C380.164 377.472 389.964 383.602 392.033 390.089Z" fill="#F0F0F0"/>
<path d="M407.497 311.309C405.723 318.201 392.469 323.101 392.469 323.101C392.469 323.101 383.228 312.414 385.002 305.522C386.775 298.63 394.102 291.023 400.31 292.625C406.517 294.228 409.27 304.417 407.497 311.309Z" fill="#EBEBEB"/>
<path d="M354.34 414.326C362.647 417.578 367.75 432.279 367.75 432.279C367.75 432.279 354.044 439.669 345.721 436.433C337.398 433.197 328.608 423.987 330.973 417.967C333.338 411.946 346.017 411.091 354.34 414.326Z" fill="#F5F5F5"/>
<path d="M372.572 333.384C374.25 334.798 376.175 335.89 378.25 336.604C379.296 336.938 380.413 336.982 381.482 336.73C382.551 336.478 383.531 335.939 384.317 335.173C386.106 333.119 385.624 329.946 384.504 327.472C382.279 322.572 374.081 314.264 367.78 316.582C358.695 320.083 368.511 330.381 372.572 333.384Z" fill="#E6E6E6"/>
<path d="M391.178 345.876C389.98 347.354 388.72 349.205 389.373 350.994C389.743 351.753 390.355 352.367 391.113 352.739C391.871 353.111 392.731 353.22 393.558 353.048C395.202 352.664 396.739 351.914 398.054 350.854C401.259 348.614 407.839 343.947 403.639 339.576C399.438 335.204 393.682 342.749 391.178 345.876Z" fill="#EBEBEB"/>
<path d="M364.327 283.649C363.635 283.686 362.972 283.941 362.433 284.377C361.894 284.812 361.506 285.407 361.324 286.075C361.06 287.631 362.382 289.062 363.658 290.042C366.847 292.5 376.414 299.128 378.561 292.734C380.584 286.698 368.558 283.135 364.327 283.649Z" fill="#E0E0E0"/>
<path d="M381.984 262.615C380.008 262.802 378.032 262.086 376.057 262.211C374.081 262.335 371.872 263.922 372.323 265.867C372.774 267.811 374.952 268.247 376.772 268.371C379.899 268.558 383.036 268.338 386.106 267.718C386.832 267.653 387.505 267.313 387.989 266.769C388.798 265.587 387.522 264 386.153 263.658C384.743 263.477 383.356 263.148 382.015 262.678L381.984 262.615Z" fill="#E6E6E6"/>
<path d="M401.368 276.212C403.359 276.212 405.273 275.419 407.264 275.419C409.255 275.419 411.542 276.85 411.231 278.81C410.92 280.771 408.757 281.377 406.937 281.611C403.839 282.021 400.701 282.021 397.603 281.611C396.869 281.595 396.168 281.3 395.643 280.786C394.772 279.65 395.938 278.001 397.198 277.488C398.599 277.217 399.965 276.794 401.274 276.228L401.368 276.212Z" fill="#F0F0F0"/>
<path d="M399.33 422.385C399.78 421.917 400.38 421.62 401.026 421.545C401.449 421.593 401.845 421.782 402.149 422.08C402.454 422.379 402.649 422.771 402.706 423.194C402.797 424.042 402.69 424.899 402.395 425.699C401.041 430.195 385.951 462.786 382.466 456.937C380.413 453.468 385.469 442.018 386.962 438.766C389.834 432.466 394.057 426.873 399.33 422.385Z" fill="#F0F0F0"/>
<path d="M390.307 263.845C391.281 261.085 392.947 258.621 395.145 256.689C397.525 254.962 401.368 254.837 403.079 257.218C405.023 259.878 403.079 263.923 400.107 265.338C397.136 266.754 393.667 266.318 390.4 265.867C390.4 265.385 390.4 264.903 390.322 264.42L390.307 263.845Z" fill="#E6E6E6"/>
<path d="M400.854 509.566C384.688 512.32 368.172 512.32 352.006 509.566V509.566L333.011 453.561H419.865L400.854 509.566Z" fill="#F0F0F0"/>
<path d="M389.84 90.1991C407.651 90.1991 422.09 75.7605 422.09 57.9496C422.09 40.1388 407.651 25.7002 389.84 25.7002C372.029 25.7002 357.591 40.1388 357.591 57.9496C357.591 75.7605 372.029 90.1991 389.84 90.1991Z" fill="#E0E0E0"/>
<path d="M419.52 61.7799C422.374 44.1992 410.435 27.6337 392.855 24.7799C375.274 21.9262 358.708 33.8648 355.855 51.4455C353.001 69.0263 364.94 85.5917 382.52 88.4455C400.101 91.2993 416.666 79.3607 419.52 61.7799Z" fill="#EBEBEB"/>
<path opacity="0.8" d="M413.549 56.8134C413.549 61.9333 412.031 66.9382 409.186 71.1953C406.342 75.4523 402.299 78.7703 397.568 80.7296C392.838 82.6889 387.633 83.2015 382.612 82.2027C377.59 81.2038 372.978 78.7384 369.357 75.1181C365.737 71.4977 363.272 66.8852 362.273 61.8637C361.274 56.8421 361.787 51.6372 363.746 46.907C365.705 42.1769 369.023 38.1339 373.28 35.2895C377.537 32.445 382.542 30.9268 387.662 30.9268C394.528 30.9268 401.112 33.6541 405.967 38.5088C410.821 43.3635 413.549 49.9478 413.549 56.8134V56.8134Z" fill="white"/>
<path d="M386.262 59.2558C385.773 58.762 385.499 58.0944 385.5 57.399C385.501 56.7036 385.778 56.0371 386.27 55.5454C386.762 55.0537 387.428 54.7769 388.124 54.7754C388.819 54.7739 389.487 55.048 389.98 55.5377C390.226 55.7814 390.421 56.0713 390.555 56.3908C390.688 56.7102 390.757 57.0528 390.758 57.399C390.759 57.7452 390.691 58.0881 390.559 58.4081C390.427 58.7281 390.233 59.0188 389.988 59.2636C389.743 59.5084 389.453 59.7024 389.133 59.8345C388.813 59.9667 388.47 60.0343 388.124 60.0336C387.777 60.0329 387.435 59.9638 387.115 59.8303C386.796 59.6968 386.506 59.5016 386.262 59.2558Z" fill="#E0E0E0"/>
<path d="M387.662 56.5028L402.939 56.0361L402.986 57.6229L389.14 58.043L387.646 82.125L386.075 82.0317L387.662 56.5028Z" fill="#E0E0E0"/>
<path d="M388.923 578.732C555.51 578.732 690.555 570.847 690.555 561.121C690.555 551.395 555.51 543.511 388.923 543.511C222.336 543.511 87.29 551.395 87.29 561.121C87.29 570.847 222.336 578.732 388.923 578.732Z" fill="#F5F5F5"/>
<path d="M669.491 479.011L677.394 353.218C678.089 342.155 676.51 331.067 672.754 320.638C668.999 310.208 663.146 300.659 655.557 292.579C647.968 284.499 638.805 278.06 628.631 273.658C618.458 269.256 607.49 266.986 596.405 266.986V266.986C575.678 266.989 555.737 274.924 540.675 289.162C525.612 303.4 516.569 322.863 515.4 343.557L507.155 490.477H657.279C660.391 490.475 663.385 489.289 665.653 487.159C667.921 485.03 669.294 482.116 669.491 479.011Z" fill="#FF0400"/>
<path opacity="0.1" d="M669.771 474.484L677.394 353.249C678.089 342.186 676.51 331.098 672.754 320.669C668.999 310.24 663.146 300.69 655.557 292.611C647.968 284.531 638.805 278.091 628.631 273.689C618.458 269.288 607.49 267.017 596.405 267.018V267.018C575.678 267.02 555.737 274.955 540.675 289.193C525.612 303.432 516.569 322.894 515.4 343.589L507.155 490.477H652.752C657.087 490.462 661.255 488.803 664.414 485.835C667.573 482.867 669.488 478.81 669.771 474.484V474.484Z" fill="black"/>
<path d="M645.129 490.477L653.748 353.218C654.44 342.156 652.86 331.068 649.103 320.64C645.346 310.212 639.493 300.664 631.905 292.584C624.317 284.505 615.154 278.065 604.982 273.663C594.809 269.26 583.843 266.988 572.758 266.986V266.986C552.03 266.985 532.088 274.919 517.024 289.158C501.96 303.397 492.918 322.862 491.754 343.557L483.462 490.477H645.129Z" fill="#FF0400"/>
<path d="M647.712 514.108H649.781C650.338 514.078 650.867 513.85 651.272 513.465C651.677 513.08 651.931 512.563 651.99 512.008L655.101 490.493H642.5L645.611 512.008C645.669 512.545 645.908 513.047 646.291 513.429C646.673 513.811 647.174 514.051 647.712 514.108Z" fill="#FF0400"/>
<path opacity="0.7" d="M647.712 514.108H649.781C650.338 514.078 650.867 513.85 651.272 513.465C651.677 513.08 651.931 512.563 651.99 512.008L655.101 490.493H642.5L645.611 512.008C645.669 512.545 645.908 513.047 646.291 513.429C646.673 513.811 647.174 514.051 647.712 514.108Z" fill="white"/>
<path d="M444.461 514.108H446.327C446.857 514.053 447.35 513.812 447.717 513.427C448.085 513.042 448.304 512.539 448.334 512.008L451.15 490.493H439.7L442.485 512.008C442.514 512.534 442.729 513.034 443.09 513.418C443.451 513.802 443.937 514.047 444.461 514.108V514.108Z" fill="#FF0400"/>
<path opacity="0.5" d="M444.461 514.108H446.327C446.857 514.053 447.35 513.812 447.717 513.427C448.085 513.042 448.304 512.539 448.334 512.008L451.15 490.493H439.7L442.485 512.008C442.514 512.534 442.729 513.034 443.09 513.418C443.451 513.802 443.937 514.047 444.461 514.108V514.108Z" fill="white"/>
<path d="M502.97 514.108H504.853C505.382 514.053 505.875 513.812 506.243 513.427C506.61 513.042 506.829 512.539 506.86 512.008L509.629 490.493H498.194L500.932 512.008C500.964 512.544 501.187 513.051 501.561 513.437C501.935 513.822 502.435 514.06 502.97 514.108V514.108Z" fill="#FF0400"/>
<path opacity="0.7" d="M502.97 514.108H504.853C505.382 514.053 505.875 513.812 506.243 513.427C506.61 513.042 506.829 512.539 506.86 512.008L509.629 490.493H498.194L500.932 512.008C500.964 512.544 501.187 513.051 501.561 513.437C501.935 513.822 502.435 514.06 502.97 514.108V514.108Z" fill="white"/>
<path d="M584.706 514.108H586.775C587.333 514.075 587.862 513.847 588.269 513.463C588.676 513.079 588.935 512.564 588.999 512.008L592.111 490.493H579.494L582.606 512.008C582.66 512.546 582.899 513.049 583.282 513.432C583.664 513.815 584.167 514.053 584.706 514.108V514.108Z" fill="#FF0400"/>
<path opacity="0.5" d="M584.706 514.108H586.775C587.333 514.075 587.862 513.847 588.269 513.463C588.676 513.079 588.935 512.564 588.999 512.008L592.111 490.493H579.494L582.606 512.008C582.66 512.546 582.899 513.049 583.282 513.432C583.664 513.815 584.167 514.053 584.706 514.108V514.108Z" fill="white"/>
<path d="M516.209 438.703H460.889L457.233 385.374L456.44 373.924L456.082 368.651C455.982 367.267 455.8 365.89 455.537 364.528C455.537 364.233 455.413 363.906 455.351 363.61C455.317 363.387 455.26 363.168 455.179 362.957C453.689 357.521 450.785 352.578 446.763 348.629C442.123 344.045 435.988 341.284 429.479 340.851H481.517C482.077 340.851 482.653 340.851 483.229 340.851C490.284 340.882 497.046 343.674 502.068 348.629C506.094 352.577 509.003 357.52 510.5 362.957C510.58 363.168 510.638 363.387 510.671 363.61C511.036 365.271 511.281 366.955 511.402 368.651L511.76 373.924L516.209 438.703Z" fill="#FF0400"/>
<path opacity="0.1" d="M516.209 438.703H460.889L457.233 385.374L456.44 373.924L456.082 368.651C455.982 367.267 455.8 365.89 455.537 364.528C455.537 364.233 455.413 363.906 455.351 363.61C455.317 363.387 455.26 363.168 455.179 362.957C453.689 357.521 450.785 352.578 446.763 348.629C442.123 344.045 435.988 341.284 429.479 340.851H481.517C482.077 340.851 482.653 340.851 483.229 340.851C490.284 340.882 497.046 343.674 502.068 348.629C506.094 352.577 509.003 357.52 510.5 362.957C510.58 363.168 510.638 363.387 510.671 363.61C511.036 365.271 511.281 366.955 511.402 368.651L511.76 373.924L516.209 438.703Z" fill="black"/>
<g opacity="0.1">
<path opacity="0.1" d="M560.048 410.234H582.263C587.677 410.234 592.048 413.657 592.048 417.873V431.003C592.048 435.234 587.677 438.641 582.263 438.641H560.048V410.234Z" fill="black"/>
</g>
<path d="M469.335 438.642H567.188C571.845 438.642 575.62 434.867 575.62 430.21V418.651C575.62 413.994 571.845 410.219 567.188 410.219H469.335C464.679 410.219 460.904 413.994 460.904 418.651V430.21C460.904 434.867 464.679 438.642 469.335 438.642Z" fill="#FF0400"/>
<path d="M700.06 372.229C700.073 379.667 697.455 386.871 692.669 392.565C687.884 398.259 681.238 402.076 673.909 403.343L668.231 479.152C667.733 485.592 663.05 490.524 657.45 490.524H596.436C602.036 490.524 606.703 485.592 607.201 479.152L610.312 438.704L612.941 403.296C617.737 402.473 622.275 400.546 626.197 397.668C630.12 394.79 633.321 391.04 635.546 386.713C635.851 386.163 636.127 385.597 636.37 385.017C638.168 380.994 639.09 376.635 639.077 372.229C639.074 370.071 638.855 367.919 638.424 365.804C638.252 364.964 638.035 364.124 637.801 363.3C636.693 359.594 634.922 356.121 632.574 353.048V353.048C629.63 349.213 625.845 346.106 621.511 343.964C617.176 341.823 612.409 340.705 607.574 340.696H668.588C673.478 340.678 678.303 341.819 682.667 344.025C686.934 346.148 690.658 349.219 693.557 353.001V353.001C697.791 358.515 700.078 365.277 700.06 372.229V372.229Z" fill="#FF0400"/>
<path opacity="0.1" d="M700.06 372.229C700.073 379.667 697.455 386.871 692.669 392.565C687.884 398.259 681.238 402.076 673.909 403.343L668.231 479.152C667.733 485.592 663.05 490.524 657.45 490.524H596.436C602.036 490.524 606.703 485.592 607.201 479.152L610.312 438.704L612.941 403.296C617.737 402.473 622.275 400.546 626.197 397.668C630.12 394.79 633.321 391.04 635.546 386.713C635.851 386.163 636.127 385.597 636.37 385.017C638.168 380.994 639.09 376.635 639.077 372.229C639.074 370.071 638.855 367.919 638.424 365.804C638.252 364.964 638.035 364.124 637.801 363.3C636.693 359.594 634.922 356.121 632.574 353.048V353.048C629.63 349.213 625.845 346.106 621.511 343.964C617.176 341.823 612.409 340.705 607.574 340.696H668.588C673.478 340.678 678.303 341.819 682.667 344.025C686.934 346.148 690.658 349.219 693.557 353.001V353.001C697.791 358.515 700.078 365.277 700.06 372.229V372.229Z" fill="black"/>
<path d="M639.092 372.245C639.092 387.802 628.84 400.761 615.384 403.359L610.188 479.152C609.736 485.592 605.521 490.54 600.418 490.54H437.475C432.403 490.54 428.141 485.592 427.705 479.152L422.494 403.219C409.301 400.45 399.329 387.662 399.329 372.292C399.298 365.838 401.129 359.513 404.603 354.075C407.231 349.927 410.851 346.5 415.135 344.103C419.035 341.91 423.434 340.758 427.907 340.758C434.965 340.8 441.728 343.59 446.762 348.536C450.783 352.479 453.688 357.418 455.179 362.849C455.259 363.07 455.317 363.3 455.35 363.533C455.718 365.188 455.962 366.867 456.081 368.558L456.454 373.832L460.888 438.704H577.005L581.812 368.698C582.496 358.804 587.319 350.559 594.008 346.654C598.236 343.271 603.4 341.267 608.803 340.913C609.372 340.856 609.943 340.83 610.514 340.836C614.858 340.811 619.138 341.881 622.96 343.947C623.079 344 623.193 344.062 623.302 344.134C627.247 346.324 630.633 349.396 633.196 353.11C637.058 358.742 639.114 365.416 639.092 372.245V372.245Z" fill="#FF0400"/>
<path opacity="0.1" d="M574.314 490.493H437.413C432.342 490.493 428.079 485.546 427.644 479.105L422.432 403.172C409.24 400.403 399.268 387.615 399.268 372.245C399.237 365.791 401.068 359.466 404.542 354.028C407.17 349.881 410.789 346.453 415.074 344.056C418.973 341.863 423.372 340.711 427.846 340.711C434.903 340.753 441.667 343.543 446.701 348.489C450.722 352.432 453.626 357.371 455.117 362.802C455.198 363.023 455.255 363.253 455.288 363.486C455.656 365.141 455.901 366.82 456.02 368.511L456.393 373.785L460.889 438.704H577.005L574.314 490.493Z" fill="white"/>
<path d="M556.564 274.921C553.857 276.477 551.383 277.768 548.785 279.09C546.187 280.412 543.636 281.626 541.007 282.839C535.78 285.22 530.49 287.506 525.045 289.482C519.557 291.523 513.971 293.289 508.306 294.772C502.414 296.355 496.398 297.433 490.323 297.992L489.031 298.116H488.425C482.933 297.478 478.064 296.561 473.179 295.472C468.294 294.383 463.456 293.309 458.664 292.08C453.873 290.851 449.112 289.591 444.352 288.222C439.592 286.853 434.878 285.437 430.164 283.835L432.326 273.039C442.112 273.661 451.881 274.594 461.558 275.605L476.01 277.052C480.771 277.519 485.64 277.923 489.902 278.079H488.02C492.902 277.209 497.716 275.993 502.426 274.439C507.295 272.883 512.164 271.109 517.034 269.025C521.903 266.94 526.726 264.793 531.517 262.507C533.975 261.386 536.355 260.204 538.689 259.037C541.022 257.871 543.512 256.626 545.643 255.521L556.564 274.921Z" fill="#263238"/>
<path opacity="0.1" d="M556.564 274.921C553.857 276.477 551.383 277.768 548.785 279.09C546.187 280.412 543.636 281.626 541.007 282.839C535.78 285.22 530.49 287.506 525.045 289.482C519.557 291.523 513.971 293.289 508.306 294.772C502.414 296.355 496.398 297.433 490.323 297.992L489.031 298.116H488.425C482.933 297.478 478.064 296.561 473.179 295.472C468.294 294.383 463.456 293.309 458.664 292.08C453.873 290.851 449.112 289.591 444.352 288.222C439.592 286.853 434.878 285.437 430.164 283.835L432.326 273.039C442.112 273.661 451.881 274.594 461.558 275.605L476.01 277.052C480.771 277.519 485.64 277.923 489.902 278.079H488.02C492.902 277.209 497.716 275.993 502.426 274.439C507.295 272.883 512.164 271.109 517.034 269.025C521.903 266.94 526.726 264.793 531.517 262.507C533.975 261.386 536.355 260.204 538.689 259.037C541.022 257.871 543.512 256.626 545.643 255.521L556.564 274.921Z" fill="black"/>
<path d="M430.35 267.111C428.05 265.497 425.508 264.258 422.82 263.439L418.791 279.167L430.863 284.239L432.232 282.559C433.16 281.437 433.85 280.137 434.26 278.74C434.669 277.342 434.789 275.876 434.613 274.43C434.437 272.984 433.968 271.59 433.235 270.331C432.502 269.073 431.52 267.977 430.35 267.111V267.111Z" fill="#FFC3BD"/>
<path d="M418.791 279.168L422.821 263.44L411.557 257.295L408.166 268.371L418.791 279.168Z" fill="#FFC3BD"/>
<path opacity="0.2" d="M518.683 290.913H519.118H519.305C525.248 290.275 542.718 287.335 555.35 274.874C553.468 271.234 550.885 268.418 547.727 267.78C539.015 266.131 528.343 272.369 518.683 290.913Z" fill="black"/>
<path d="M528.935 372.229C543.838 331.983 534.037 294.973 535.904 274.485C536.363 269.434 538.454 264.671 541.862 260.915C545.269 257.159 549.808 254.616 554.79 253.67C564.964 251.709 577.55 249.5 589.544 247.882C592.896 247.42 596.308 247.688 599.546 248.668C602.785 249.648 605.773 251.316 608.306 253.56C610.839 255.803 612.857 258.567 614.221 261.664C615.585 264.76 616.263 268.115 616.209 271.498C615.166 332.17 595.72 372.229 595.72 372.229L564.295 372.089L528.935 372.229Z" fill="#FF0400"/>
<path opacity="0.8" d="M528.935 372.229C543.838 331.983 534.037 294.973 535.904 274.485C536.363 269.434 538.454 264.671 541.862 260.915C545.269 257.159 549.808 254.616 554.79 253.67C564.964 251.709 577.55 249.5 589.544 247.882C592.896 247.42 596.308 247.688 599.546 248.668C602.785 249.648 605.773 251.316 608.306 253.56C610.839 255.803 612.857 258.567 614.221 261.664C615.585 264.76 616.263 268.115 616.209 271.498C615.166 332.17 595.72 372.229 595.72 372.229L564.295 372.089L528.935 372.229Z" fill="white"/>
<path d="M409.706 509.55L405.724 535.732H418.371L426.679 509.55H409.706Z" fill="#FFC3BD"/>
<path d="M404.106 529.898L421.016 529.494C421.148 529.478 421.282 529.491 421.409 529.531C421.536 529.571 421.653 529.637 421.753 529.725C421.853 529.813 421.933 529.921 421.988 530.042C422.043 530.163 422.073 530.294 422.074 530.427V542.873C421.998 543.562 421.674 544.2 421.161 544.667C420.648 545.134 419.983 545.397 419.289 545.408C413.409 545.408 410.608 545.19 403.172 545.408C395.255 545.383 387.347 544.864 379.495 543.853C373.474 542.826 375.108 537.179 377.83 537.085C390.12 536.634 396.996 534.067 401.414 530.863C402.184 530.26 403.128 529.922 404.106 529.898V529.898Z" fill="#263238"/>
<path opacity="0.2" d="M408.104 520.051L409.706 509.55H426.678L422.603 522.649L408.104 520.051Z" fill="black"/>
<path d="M521.156 362.801C521.156 362.801 418.247 363.828 416.645 396.42C414.374 443.277 406.455 514.652 406.455 514.652L425.855 519.988C425.855 519.988 453.546 449.158 454.619 412.552C483.571 406.796 557.979 412.552 566.722 393.542C570.995 383.866 572.148 373.1 570.02 362.739L521.156 362.801Z" fill="#FF0400"/>
<path opacity="0.6" d="M521.156 362.801C521.156 362.801 418.247 363.828 416.645 396.42C414.374 443.277 406.455 514.652 406.455 514.652L425.855 519.988C425.855 519.988 453.546 449.158 454.619 412.552C483.571 406.796 557.979 412.552 566.722 393.542C570.995 383.866 572.148 373.1 570.02 362.739L521.156 362.801Z" fill="black"/>
<path d="M500.247 519.677L507.108 537.443H520.984L516.208 518.759L500.247 519.677Z" fill="#FFC3BD"/>
<path opacity="0.2" d="M517.499 523.8L514.808 510.125L497.275 512.303L501.771 524.188L517.499 523.8Z" fill="black"/>
<path d="M503.343 531.563H521.062C521.349 531.541 521.632 531.634 521.851 531.82C522.069 532.007 522.205 532.272 522.229 532.558L523.085 545.828C523.069 546.546 522.771 547.229 522.256 547.73C521.741 548.23 521.049 548.508 520.331 548.504C514.109 548.395 511.215 548.053 503.421 548.053C498.645 548.053 488.969 548.52 482.357 548.52C475.745 548.52 475.932 542.297 478.717 541.815C491.318 539.294 496.187 535.825 500.621 532.48C501.409 531.896 502.362 531.575 503.343 531.563V531.563Z" fill="#263238"/>
<path d="M548.832 362.802C548.832 362.802 455.49 369.133 457.793 401.694C460.298 437.35 497.681 520.035 497.681 520.035H516.489C516.489 520.035 504.044 445.02 498.319 408.679C524.641 408.679 585.639 412.646 594.413 393.589C598.669 383.908 599.811 373.144 597.68 362.786L548.832 362.802Z" fill="#FF0400"/>
<path opacity="0.5" d="M548.832 362.802C548.832 362.802 455.49 369.133 457.793 401.694C460.298 437.35 497.681 520.035 497.681 520.035H516.489C516.489 520.035 504.044 445.02 498.319 408.679C524.641 408.679 585.639 412.646 594.413 393.589C598.669 383.908 599.811 373.144 597.68 362.786L548.832 362.802Z" fill="black"/>
<path d="M562.973 230.895C565.12 239.202 565.789 249.563 554.183 253.841C550.963 258.975 549.392 264.389 561.791 262.46C571.661 261.184 580.642 256.104 586.822 248.303C579.401 241.8 580.754 221.856 582.637 210.608L562.973 230.895Z" fill="#FFC3BD"/>
<path d="M561.604 246.017C550.948 247.837 542.189 256.082 537.491 265.805C532.793 275.528 531.657 286.605 531.75 297.417C531.844 308.229 533.073 318.994 532.777 329.79C532.45 342.236 529.448 351.057 525.154 362.787C525.154 365.571 529.37 367.143 532.933 367.874C540.369 351.648 545.254 336.122 544.74 318.294C544.351 305.351 544.18 290.603 546.296 277.846C548.412 265.089 563.673 248.428 562.942 246.126L561.604 246.017Z" fill="#263238"/>
<path opacity="0.3" d="M572.027 236.993C570.91 237.823 569.637 238.418 568.285 238.744C566.932 239.07 565.528 239.12 564.155 238.891C564.181 236.87 564.035 234.851 563.72 232.855L576.601 222.276C576.883 223.651 577.064 225.045 577.145 226.446C577.284 228.497 576.885 230.549 575.988 232.399C575.09 234.249 573.725 235.833 572.027 236.993V236.993Z" fill="black"/>
<path d="M552.768 181.766C539.156 189.467 539.016 211.231 543.216 223.77C544.276 227.06 546.219 229.995 548.834 232.256C551.45 234.516 554.636 236.013 558.045 236.585C561.454 237.157 564.954 236.78 568.164 235.497C571.373 234.213 574.168 232.072 576.243 229.308C582.902 220.892 581.937 212.398 581.61 197.774C581.284 183.151 566.396 174.081 552.768 181.766Z" fill="#FFC3BD"/>
<path opacity="0.2" d="M557.154 220.907C552.767 222.789 547.96 225.232 543.526 224.703C544.719 227.856 546.736 230.631 549.367 232.738C551.997 234.846 555.145 236.21 558.483 236.686C561.82 237.163 565.223 236.736 568.339 235.449C571.455 234.162 574.168 232.063 576.196 229.37C581.687 222.463 583.383 217.796 581.827 205.226C573.302 215.213 566.535 216.862 557.154 220.907Z" fill="black"/>
<path d="M570.316 186.682C568.903 188.978 568.274 191.672 568.523 194.357C568.773 197.042 569.888 199.573 571.7 201.57C572.929 202.861 574.438 203.856 575.621 205.179C577.465 207.254 578.425 209.967 578.297 212.739C578.573 210.955 579.462 209.323 580.81 208.123C582.158 206.922 583.882 206.228 585.686 206.159C583.84 211.873 581.994 217.578 580.148 223.271C583.802 221.567 586.96 218.958 589.323 215.691C591.686 212.424 593.176 208.607 593.651 204.603C594.834 193.558 581.206 169.896 570.316 186.682Z" fill="#263238"/>
<path d="M538.549 187.444C537.507 188.601 536.765 189.995 536.386 191.505C536.204 192.253 536.256 193.038 536.534 193.756C536.812 194.474 537.303 195.089 537.942 195.518C539.12 195.993 540.424 196.059 541.644 195.705L554.09 193.543C561.215 192.298 568.34 191.069 575.372 189.373C578.483 188.627 582.077 187.429 583.321 184.442C587.35 174.719 570.145 173.459 564.389 173.723C554.588 174.237 544.678 179.868 538.549 187.444Z" fill="#263238"/>
<path d="M583.819 203.671C579.743 204.588 578 210.453 578.109 214.218C578.109 218.496 581.221 221.281 584.83 218.699C587.51 216.706 589.334 213.77 589.933 210.485C590.664 206.455 587.91 202.753 583.819 203.671Z" fill="#FFC3BD"/>
<path d="M555.023 218.527C554.406 218.939 553.705 219.209 552.971 219.319C552.237 219.43 551.488 219.377 550.776 219.165C552.332 215.649 552.145 216.443 552.628 210.469L555.023 218.527Z" fill="#ED847E"/>
<path d="M562.195 199.127C561.028 197.821 557.839 197.323 556.112 197.572C555.937 197.594 555.76 197.549 555.618 197.445C555.476 197.34 555.38 197.185 555.35 197.012C555.326 196.825 555.374 196.636 555.484 196.484C555.593 196.331 555.756 196.225 555.941 196.187C558.119 195.86 561.743 196.514 563.221 198.147C563.35 198.278 563.421 198.454 563.421 198.637C563.421 198.821 563.35 198.997 563.221 199.127C563.134 199.218 563.028 199.287 562.91 199.33C562.784 199.368 562.65 199.37 562.523 199.334C562.396 199.298 562.282 199.226 562.195 199.127V199.127Z" fill="#263238"/>
<path d="M542.064 202.037C541.918 201.936 541.817 201.782 541.782 201.608C541.747 201.434 541.781 201.253 541.877 201.103C542.422 200.122 543.188 199.28 544.114 198.646C545.04 198.011 546.101 197.601 547.213 197.447C547.298 197.445 547.383 197.46 547.462 197.491C547.541 197.523 547.614 197.569 547.674 197.629C547.735 197.688 547.784 197.759 547.817 197.838C547.85 197.916 547.867 198 547.867 198.085C547.875 198.274 547.811 198.459 547.686 198.601C547.561 198.743 547.386 198.832 547.198 198.848C546.321 198.988 545.487 199.325 544.759 199.834C544.032 200.344 543.429 201.012 542.997 201.788C542.941 201.889 542.86 201.975 542.763 202.037C542.665 202.1 542.553 202.137 542.437 202.146C542.304 202.157 542.171 202.118 542.064 202.037Z" fill="#263238"/>
<path d="M553.825 224.859C555.321 226.763 556.698 228.758 557.948 230.833L558.912 230.428C563.299 228.53 564.544 225.886 564.606 223.537C564.553 221.668 563.976 219.851 562.942 218.294C561.386 220.985 557.45 223.132 555.303 224.174C554.385 224.626 553.825 224.859 553.825 224.859Z" fill="#2E353A"/>
<path d="M555.272 224.174L555.91 225.046C556.085 225.279 556.334 225.448 556.616 225.524C556.898 225.6 557.197 225.58 557.466 225.466C560.702 223.91 562.849 222.354 563.689 220.596C563.765 220.431 563.805 220.25 563.805 220.067C563.805 219.885 563.765 219.704 563.689 219.538C563.481 219.107 563.242 218.691 562.973 218.294C561.34 220.985 557.419 223.132 555.272 224.174Z" fill="white"/>
<path d="M558.882 230.428C563.269 228.53 564.513 225.885 564.576 223.536C562.909 224.305 561.429 225.425 560.235 226.819C559.413 227.848 558.94 229.112 558.882 230.428Z" fill="#DE5753"/>
<path d="M547.058 206.906C546.296 207.046 545.876 208.135 546.093 209.302C546.311 210.469 547.136 211.309 547.898 211.153C548.66 210.998 549.08 209.94 548.863 208.773C548.645 207.606 547.82 206.906 547.058 206.906Z" fill="#263238"/>
<path d="M560.406 204.76C559.643 204.9 559.223 205.973 559.441 207.155C559.659 208.338 560.483 209.162 561.246 209.007C562.008 208.851 562.428 207.778 562.21 206.611C561.993 205.444 561.168 204.62 560.406 204.76Z" fill="#263238"/>
<path opacity="0.9" d="M541.178 213.222L550.994 211.013L551.165 215.182L542.033 217.36L541.178 213.222Z" fill="white"/>
<g opacity="0.8">
<path opacity="0.9" d="M553.98 210.36L555.147 214.187L567.748 211.48L567.002 207.062L553.98 210.36Z" fill="white"/>
</g>
<path d="M551.056 212.553L550.994 211.013L553.981 210.359L554.417 211.806L551.056 212.553Z" fill="#263238"/>
<path d="M547.479 370.44C547.479 370.44 565.198 377.3 569.258 378.638C573.926 380.465 578.838 381.593 583.835 381.983C586.369 382.153 588.91 381.782 591.289 380.894C593.668 380.006 595.831 378.622 597.634 376.834C601.865 372.322 603.188 365.477 604.292 359.052C607.528 340.187 610.774 321.321 614.031 302.456C615.587 293.122 619.678 279.121 619.336 273.847C618.698 264.046 612.46 252.472 596.576 246.109C590.353 243.636 584.302 244.553 579.106 250.776C575.994 254.479 566.94 263.408 564.716 279.136C562.942 291.737 560.173 308.057 560.344 320.86C560.546 337.693 553.826 358.912 547.479 370.44Z" fill="#263238"/>
<path d="M618.464 268.666C620.269 285.063 611.199 326.398 609.457 328.887C602.02 352.86 581.594 339.932 578.639 338.828C573.489 336.93 568.246 333.212 563.346 330.738C553.841 326.071 544.833 322.213 535.997 316.348L540.975 306.516C550.667 309.814 578.094 316.908 582.621 318.013C584.581 318.526 592.22 322.524 592.142 317.251C593.215 315.493 594.709 281.252 597.991 269.149C598.366 267.791 599.017 266.525 599.905 265.431L600.2 265.057C601.398 263.556 602.986 262.412 604.79 261.751C606.594 261.09 608.545 260.938 610.429 261.31C612.314 261.683 614.06 262.566 615.477 263.863C616.894 265.16 617.927 266.822 618.464 268.666V268.666Z" fill="#263238"/>
<path opacity="0.1" d="M618.464 268.666C620.269 285.063 611.199 326.398 609.457 328.887C602.02 352.86 581.594 339.932 578.639 338.828C573.489 336.93 568.246 333.212 563.346 330.738C553.841 326.071 544.833 322.213 535.997 316.348L540.975 306.516C550.667 309.814 578.094 316.908 582.621 318.013C584.581 318.526 592.22 322.524 592.142 317.251C593.215 315.493 594.709 281.252 597.991 269.149C598.366 267.791 599.017 266.525 599.905 265.431L600.2 265.057C601.398 263.556 602.986 262.412 604.79 261.751C606.594 261.09 608.545 260.938 610.429 261.31C612.314 261.683 614.06 262.566 615.477 263.863C616.894 265.16 617.927 266.822 618.464 268.666V268.666Z" fill="white"/>
<path d="M537.086 330.584H491.038L485.779 270.503H531.828L537.086 330.584Z" fill="#263238"/>
<path opacity="0.5" d="M537.086 330.584H491.038L485.779 270.503H531.828L537.086 330.584Z" fill="white"/>
<path d="M535.452 330.288H489.404L484.146 270.207H530.194L535.452 330.288Z" fill="#FF0400"/>
<path opacity="0.8" d="M535.452 330.288H489.404L484.146 270.207H530.194L535.452 330.288Z" fill="white"/>
<path d="M517.189 273.956H497.82L497.167 266.442H516.52L517.189 273.956Z" fill="#FF0400"/>
<path d="M497.167 266.442L499.065 265.789H519.118L519.398 268.978L517.904 270.705L517.811 273.319L517.189 273.956L516.52 266.442H497.167Z" fill="#FF0400"/>
<path opacity="0.5" d="M497.167 266.442L499.065 265.789H519.118L519.398 268.978L517.904 270.705L517.811 273.319L517.189 273.956L516.52 266.442H497.167Z" fill="black"/>
<path d="M544.647 309.768L545.689 315.384C543.2 321.871 528.935 320.16 528.935 320.16V303.561L541.52 306.485C542.301 306.676 543.01 307.087 543.564 307.668C544.119 308.25 544.494 308.979 544.647 309.768V309.768Z" fill="#FFC3BD"/>
<path d="M528.903 303.561L528.965 320.191L516.333 320.502L513.439 305.879L528.903 303.561Z" fill="#FFC3BD"/>
<path d="M577.005 438.704L581.812 368.698C582.496 358.804 587.319 350.559 594.008 346.654C598.236 343.271 603.4 341.267 608.803 340.913C609.372 340.856 609.943 340.83 610.514 340.836C614.858 340.812 619.138 341.882 622.96 343.947C623.079 344 623.193 344.062 623.302 344.134C627.247 346.324 630.633 349.396 633.196 353.11C637.075 358.758 639.138 365.456 639.108 372.307C639.108 387.864 628.856 400.823 615.399 403.421L610.188 479.152C609.737 485.593 605.521 490.54 600.418 490.54H574.313L577.005 438.704Z" fill="#FF0400"/>
<path opacity="0.1" d="M577.005 438.704L581.812 368.698C582.496 358.804 587.319 350.559 594.008 346.654C598.236 343.271 603.4 341.267 608.803 340.913C609.372 340.856 609.943 340.83 610.514 340.836C614.858 340.812 619.138 341.882 622.96 343.947C623.079 344 623.193 344.062 623.302 344.134C627.247 346.324 630.633 349.396 633.196 353.11C637.075 358.758 639.138 365.456 639.108 372.307C639.108 387.864 628.856 400.823 615.399 403.421L610.188 479.152C609.737 485.593 605.521 490.54 600.418 490.54H574.313L577.005 438.704Z" fill="white"/>
<path d="M339.606 112.943V177.986C339.606 179.636 338.95 181.219 337.783 182.386C336.616 183.553 335.034 184.209 333.383 184.209H266.769L242.967 202.613C242.291 203.123 241.487 203.434 240.644 203.511C239.802 203.589 238.954 203.429 238.197 203.051C237.44 202.672 236.804 202.09 236.36 201.369C235.917 200.649 235.683 199.819 235.686 198.972V184.209H231.968C230.317 184.209 228.735 183.553 227.568 182.386C226.401 181.219 225.745 179.636 225.745 177.986V112.927C225.749 112.117 225.914 111.316 226.229 110.569C226.545 109.823 227.006 109.147 227.584 108.58C228.163 108.013 228.848 107.566 229.601 107.265C230.353 106.965 231.158 106.816 231.968 106.829H333.492C335.114 106.829 336.669 107.473 337.815 108.62C338.962 109.766 339.606 111.321 339.606 112.943V112.943Z" stroke="#FF0400" stroke-miterlimit="10"/>
<path d="M277.224 97.666H264.514V99.2217H277.224V97.666Z" fill="#FF0400"/>
<path d="M217.796 115.992H216.24V108.322C216.244 105.491 217.372 102.776 219.376 100.775C221.38 98.7743 224.096 97.6504 226.928 97.6504H255.288V99.2061H226.897C224.479 99.2102 222.161 100.171 220.449 101.88C218.738 103.588 217.773 105.904 217.765 108.322L217.796 115.992Z" fill="#FF0400"/>
<path d="M307.668 154.48C306.992 154.484 306.323 154.348 305.702 154.08C305.081 153.813 304.522 153.42 304.06 152.926C303.598 152.432 303.244 151.848 303.019 151.21C302.794 150.573 302.703 149.896 302.752 149.221V149.221C304.417 130.258 319.445 128.515 321.327 106.953C321.872 100.731 319.6 98.3971 315.26 98.3971C310.92 98.3971 308.244 100.746 307.699 106.953L307.388 110.5C307.248 112.103 306.512 113.594 305.325 114.68C304.138 115.766 302.587 116.368 300.979 116.365V116.365C300.088 116.364 299.208 116.178 298.393 115.819C297.579 115.46 296.847 114.935 296.246 114.278C295.645 113.622 295.187 112.847 294.901 112.004C294.615 111.161 294.507 110.267 294.585 109.38L294.725 107.825C295.938 93.9478 303.452 86.0449 316.722 86.0449C329.992 86.0449 336.106 93.9789 334.893 107.825C332.917 130.304 316.505 133.789 315.105 149.641C315.112 149.719 315.112 149.797 315.105 149.875C315.033 151.132 314.485 152.315 313.571 153.183C312.658 154.05 311.448 154.536 310.189 154.542L307.668 154.48ZM314.404 167.672C314.264 169.303 313.516 170.823 312.309 171.929C311.102 173.035 309.524 173.648 307.886 173.646C306.979 173.647 306.081 173.459 305.25 173.095C304.419 172.73 303.673 172.196 303.06 171.527C302.447 170.859 301.98 170.069 301.688 169.21C301.397 168.351 301.288 167.44 301.368 166.536C301.508 164.902 302.258 163.381 303.469 162.274C304.679 161.167 306.262 160.556 307.902 160.562C308.807 160.566 309.702 160.756 310.53 161.123C311.358 161.489 312.101 162.023 312.712 162.691C313.323 163.36 313.789 164.147 314.08 165.004C314.371 165.862 314.482 166.77 314.404 167.672V167.672Z" fill="#FF0400"/>
<path d="M290.135 139.249H254.355C253.529 139.249 252.738 138.921 252.154 138.338C251.571 137.754 251.243 136.963 251.243 136.138C251.243 135.313 251.571 134.521 252.154 133.938C252.738 133.354 253.529 133.026 254.355 133.026H290.135C290.961 133.026 291.752 133.354 292.335 133.938C292.919 134.521 293.247 135.313 293.247 136.138C293.247 136.963 292.919 137.754 292.335 138.338C291.752 138.921 290.961 139.249 290.135 139.249Z" fill="#FF0400"/>
<path d="M285.189 151.57H254.417C253.592 151.57 252.8 151.243 252.217 150.659C251.633 150.076 251.306 149.284 251.306 148.459C251.306 147.634 251.633 146.842 252.217 146.259C252.8 145.675 253.592 145.348 254.417 145.348H285.189C286.014 145.348 286.805 145.675 287.389 146.259C287.972 146.842 288.3 147.634 288.3 148.459C288.3 149.284 287.972 150.076 287.389 150.659C286.805 151.243 286.014 151.57 285.189 151.57Z" fill="#FF0400"/>
<path d="M280.241 163.876H254.417C253.592 163.876 252.8 163.548 252.217 162.965C251.633 162.381 251.306 161.59 251.306 160.765C251.306 159.94 251.633 159.148 252.217 158.565C252.8 157.981 253.592 157.653 254.417 157.653H280.241C281.067 157.653 281.858 157.981 282.442 158.565C283.025 159.148 283.353 159.94 283.353 160.765C283.353 161.59 283.025 162.381 282.442 162.965C281.858 163.548 281.067 163.876 280.241 163.876Z" fill="#FF0400"/>
<path d="M207.03 417.717H184.302C178.764 417.717 174.283 421.217 174.283 425.495V438.936C174.283 443.261 178.764 446.715 184.302 446.715H207.03V417.717Z" fill="#FF0400"/>
<path d="M101.399 481.018L93.4966 355.225C92.8016 344.164 94.3804 333.078 98.1354 322.65C101.89 312.223 107.742 302.676 115.329 294.597C122.917 286.519 132.079 280.08 142.25 275.679C152.422 271.278 163.387 269.008 174.47 269.009V269.009C195.2 269.008 215.144 276.94 230.211 291.179C245.277 305.418 254.322 324.883 255.49 345.58L263.767 492.499H113.565C110.459 492.485 107.475 491.292 105.216 489.16C102.957 487.028 101.593 484.118 101.399 481.018V481.018Z" fill="#FF0400"/>
<path opacity="0.1" d="M101.119 476.46L93.4966 355.225C92.8016 344.164 94.3804 333.078 98.1354 322.65C101.89 312.223 107.742 302.676 115.329 294.597C122.917 286.519 132.079 280.08 142.25 275.679C152.422 271.278 163.387 269.008 174.47 269.009V269.009C195.2 269.008 215.144 276.94 230.211 291.179C245.277 305.418 254.322 324.883 255.49 345.58L263.767 492.499H118.232C113.873 492.508 109.676 490.853 106.496 487.872C103.316 484.892 101.393 480.81 101.119 476.46Z" fill="black"/>
<path d="M125.762 492.499L117.143 355.225C116.448 344.163 118.027 333.075 121.783 322.647C125.539 312.218 131.392 302.67 138.981 294.591C146.57 286.513 155.734 280.075 165.907 275.675C176.081 271.275 187.048 269.006 198.132 269.009V269.009C218.859 269.012 238.8 276.946 253.863 291.184C268.925 305.423 277.969 324.886 279.137 345.58L287.429 492.499H125.762Z" fill="#FF0400"/>
<path d="M123.179 516.13H121.109C120.55 516.094 120.02 515.862 119.614 515.475C119.207 515.089 118.949 514.572 118.885 514.014L115.773 492.499H128.39L125.279 514.014C125.225 514.554 124.986 515.059 124.604 515.445C124.222 515.83 123.718 516.072 123.179 516.13V516.13Z" fill="#FF0400"/>
<path opacity="0.7" d="M123.179 516.13H121.109C120.55 516.094 120.02 515.862 119.614 515.475C119.207 515.089 118.949 514.572 118.885 514.014L115.773 492.499H128.39L125.279 514.014C125.225 514.554 124.986 515.059 124.604 515.445C124.222 515.83 123.718 516.072 123.179 516.13V516.13Z" fill="white"/>
<path d="M326.43 516.13H324.547C324.017 516.072 323.524 515.827 323.156 515.44C322.789 515.053 322.571 514.547 322.541 514.014L319.771 492.499H331.206L328.437 514.014C328.407 514.547 328.189 515.053 327.821 515.44C327.454 515.827 326.961 516.072 326.43 516.13V516.13Z" fill="#FF0400"/>
<path opacity="0.5" d="M326.43 516.13H324.547C324.017 516.072 323.524 515.827 323.156 515.44C322.789 515.053 322.571 514.547 322.541 514.014L319.771 492.499H331.206L328.437 514.014C328.407 514.547 328.189 515.053 327.821 515.44C327.454 515.827 326.961 516.072 326.43 516.13V516.13Z" fill="white"/>
<path d="M267.92 516.13H266.022C265.491 516.072 264.998 515.827 264.631 515.44C264.263 515.053 264.045 514.547 264.015 514.014L261.23 492.499H272.68L269.911 514.014C269.879 514.544 269.662 515.046 269.298 515.432C268.934 515.819 268.447 516.065 267.92 516.13Z" fill="#FF0400"/>
<path opacity="0.7" d="M267.92 516.13H266.022C265.491 516.072 264.998 515.827 264.631 515.44C264.263 515.053 264.045 514.547 264.015 514.014L261.23 492.499H272.68L269.911 514.014C269.879 514.544 269.662 515.046 269.298 515.432C268.934 515.819 268.447 516.065 267.92 516.13Z" fill="white"/>
<path d="M186.184 516.13H184.115C183.554 516.097 183.023 515.866 182.616 515.479C182.209 515.091 181.952 514.573 181.891 514.014L178.779 492.499H191.396L188.285 514.014C188.231 514.554 187.992 515.059 187.61 515.445C187.227 515.83 186.724 516.072 186.184 516.13V516.13Z" fill="#FF0400"/>
<path opacity="0.5" d="M186.184 516.13H184.115C183.554 516.097 183.023 515.866 182.616 515.479C182.209 515.091 181.952 514.573 181.891 514.014L178.779 492.499H191.396L188.285 514.014C188.231 514.554 187.992 515.059 187.61 515.445C187.227 515.83 186.724 516.072 186.184 516.13V516.13Z" fill="white"/>
<path d="M254.682 440.648H310.002L313.658 387.366L314.436 375.916L314.809 370.642C314.905 369.259 315.081 367.882 315.338 366.519C315.338 366.224 315.478 365.913 315.54 365.617C315.573 365.389 315.631 365.164 315.711 364.948C317.202 359.517 320.107 354.579 324.128 350.636C328.763 346.054 334.893 343.293 341.396 342.857H289.358C288.782 342.857 288.222 342.857 287.647 342.857C280.588 342.893 273.822 345.684 268.792 350.636C264.771 354.579 261.867 359.517 260.375 364.948C260.295 365.164 260.237 365.389 260.204 365.617C259.839 367.272 259.595 368.952 259.473 370.642L259.115 375.916L254.682 440.648Z" fill="#FF0400"/>
<path opacity="0.1" d="M254.682 440.648H310.002L313.658 387.366L314.436 375.916L314.809 370.642C314.905 369.259 315.081 367.882 315.338 366.519C315.338 366.224 315.478 365.913 315.54 365.617C315.573 365.389 315.631 365.164 315.711 364.948C317.202 359.517 320.107 354.579 324.128 350.636C328.763 346.054 334.893 343.293 341.396 342.857H289.358C288.782 342.857 288.222 342.857 287.647 342.857C280.588 342.893 273.822 345.684 268.792 350.636C264.771 354.579 261.867 359.517 260.375 364.948C260.295 365.164 260.237 365.389 260.204 365.617C259.839 367.272 259.595 368.952 259.473 370.642L259.115 375.916L254.682 440.648Z" fill="black"/>
<g opacity="0.1">
<path opacity="0.1" d="M210.842 412.257H188.612C183.213 412.257 178.842 415.679 178.842 419.895V433.041C178.842 437.257 183.213 440.679 188.612 440.679H210.842V412.257Z" fill="black"/>
</g>
<path d="M301.554 412.241H203.701C199.045 412.241 195.27 416.016 195.27 420.673V432.232C195.27 436.889 199.045 440.664 203.701 440.664H301.554C306.211 440.664 309.986 436.889 309.986 432.232V420.673C309.986 416.016 306.211 412.241 301.554 412.241Z" fill="#FF0400"/>
<path d="M70.7833 374.252C70.7701 381.69 73.3879 388.893 78.1737 394.587C82.9595 400.281 89.6049 404.099 96.9344 405.365L102.675 481.112C103.173 487.553 107.84 492.5 113.44 492.5H174.47C168.869 492.5 164.202 487.553 163.705 481.112L160.593 440.664L157.917 405.334C153.129 404.497 148.6 402.562 144.684 399.682C140.768 396.803 137.571 393.056 135.344 388.735C135.049 388.175 134.784 387.6 134.535 387.024C132.731 383.008 131.802 378.654 131.813 374.252C131.813 372.088 132.038 369.929 132.482 367.811C132.653 366.971 132.871 366.131 133.089 365.322C134.205 361.612 135.981 358.134 138.331 355.055V355.055C141.239 351.28 144.961 348.212 149.221 346.078C153.565 343.894 158.36 342.754 163.222 342.749H102.302C99.1365 342.747 95.9895 343.225 92.9674 344.165C86.7435 346.084 81.2695 349.89 77.3016 355.055V355.055C73.0687 360.558 70.7767 367.308 70.7833 374.252Z" fill="#FF0400"/>
<path opacity="0.1" d="M70.7833 374.252C70.7701 381.69 73.3879 388.893 78.1737 394.587C82.9595 400.281 89.6049 404.099 96.9344 405.365L102.675 481.112C103.173 487.553 107.84 492.5 113.44 492.5H174.47C168.869 492.5 164.202 487.553 163.705 481.112L160.593 440.664L157.917 405.334C153.129 404.497 148.6 402.562 144.684 399.682C140.768 396.803 137.571 393.056 135.344 388.735C135.049 388.175 134.784 387.6 134.535 387.024C132.731 383.008 131.802 378.654 131.813 374.252C131.813 372.088 132.038 369.929 132.482 367.811C132.653 366.971 132.871 366.131 133.089 365.322C134.205 361.612 135.981 358.134 138.331 355.055V355.055C141.239 351.28 144.961 348.212 149.221 346.078C153.565 343.894 158.36 342.754 163.222 342.749H102.302C99.1365 342.747 95.9895 343.225 92.9674 344.165C86.7435 346.084 81.2695 349.89 77.3016 355.055V355.055C73.0687 360.558 70.7767 367.308 70.7833 374.252Z" fill="black"/>
<path d="M131.797 374.251C131.797 389.808 142.049 402.782 155.506 405.365L160.702 481.173C161.153 487.63 165.369 492.561 170.472 492.561H333.415C338.486 492.561 342.749 487.63 343.184 481.173L348.396 405.256C361.573 402.487 371.545 389.699 371.545 374.313C371.58 367.861 369.755 361.536 366.286 356.096C363.651 351.95 360.026 348.523 355.739 346.124C351.84 343.945 347.449 342.799 342.982 342.795C335.923 342.827 329.156 345.618 324.127 350.573C320.103 354.517 317.194 359.455 315.695 364.886C315.627 365.105 315.575 365.328 315.54 365.555C315.167 367.208 314.922 368.888 314.809 370.579L314.435 375.853L310.001 440.632H193.885L189.078 370.626C188.378 360.732 183.571 352.487 176.881 348.582C172.647 345.211 167.486 343.209 162.087 342.842C161.511 342.842 160.951 342.842 160.375 342.842C156.031 342.817 151.751 343.887 147.93 345.953C147.805 345.997 147.685 346.054 147.572 346.124C143.636 348.328 140.253 351.397 137.678 355.1C133.813 360.736 131.761 367.417 131.797 374.251V374.251Z" fill="#FF0400"/>
<path opacity="0.1" d="M196.561 492.5H333.461C338.533 492.5 342.795 487.568 343.231 481.112L348.442 405.194C361.619 402.425 371.591 389.637 371.591 374.252C371.627 367.8 369.801 361.475 366.333 356.035C363.697 351.888 360.073 348.461 355.785 346.063C351.886 343.884 347.495 342.738 343.029 342.733C335.969 342.765 329.202 345.557 324.174 350.512C320.15 354.455 317.241 359.393 315.742 364.824C315.674 365.043 315.622 365.267 315.586 365.493C315.213 367.147 314.969 368.827 314.855 370.518L314.482 375.792L310.048 440.571H193.885L196.561 492.5Z" fill="white"/>
<path d="M238.222 519.273L251.492 522.944L263.408 491.753L250.138 488.081L238.222 519.273Z" fill="#FFC3BD"/>
<path d="M257.435 518.806C256.388 517.449 254.874 516.529 253.188 516.223L239.576 513.563C239.258 513.471 238.917 513.507 238.626 513.665C238.335 513.822 238.117 514.087 238.02 514.403L233.804 526.849C233.683 527.187 233.631 527.545 233.649 527.904C233.668 528.262 233.757 528.613 233.911 528.937C234.066 529.261 234.283 529.551 234.551 529.791C234.818 530.03 235.13 530.215 235.469 530.333H235.562C240.602 532.325 244.009 531.64 251.881 533.165C256.75 534.098 266.94 537.334 273.754 537.054C280.568 536.774 280.552 530.038 277.69 529.54C267.578 527.984 259.799 521.886 257.435 518.806Z" fill="#263238"/>
<g opacity="0.2">
<path opacity="0.2" d="M263.408 491.768L257.263 507.854L243.993 504.151L250.123 488.081L263.408 491.768Z" fill="black"/>
</g>
<path d="M219.118 373.364C219.118 373.364 299.019 372.929 296.529 399.687C294.849 417.764 286.169 436.759 279.417 455.1C269.601 481.687 261.091 504.882 261.091 504.882L242.889 498.582C242.889 498.582 259.24 421.7 270.254 413.828H202.69C180.335 413.828 170.674 389.279 192.438 360.654C205.739 360.701 219.118 373.364 219.118 373.364Z" fill="#FF0400"/>
<path opacity="0.6" d="M219.118 373.364C219.118 373.364 299.019 372.929 296.529 399.686C297.758 416.317 261.075 504.851 261.075 504.851L242.874 498.55C242.874 498.55 259.224 421.668 270.238 413.796H202.69C180.335 413.796 170.674 389.248 192.438 360.623C205.739 360.701 219.118 373.364 219.118 373.364Z" fill="black"/>
<path d="M275.465 324.78C265.633 333.756 246.327 312.506 243.216 309.985C236.557 304.541 216.987 286.277 218.014 279.93C221.125 261.261 251.741 287.708 260.593 305.941L275.465 324.78Z" fill="#263238"/>
<path d="M189.42 268.605C184.488 269.647 179.152 267.874 175.683 271.529C172.214 275.185 170.767 280.319 170.269 285.328C169.831 292.327 170.196 299.353 171.358 306.268C172.395 314.7 173.479 323.126 174.609 331.548C175.311 338.484 175.044 345.485 173.816 352.347V352.347C173.687 353.076 173.803 353.828 174.146 354.484C174.49 355.14 175.041 355.663 175.714 355.972C175.714 355.972 213.968 357.279 225.092 356.859C231.003 356.641 226.943 341.084 228.763 331.968C229.168 329.946 233.119 321.638 233.71 319.522C236.448 309.488 234.628 302.581 232.154 292.5C230.303 285.173 229.541 274.61 225.807 273.832C219.087 272.447 203.141 265.68 189.42 268.605Z" fill="#FF0400"/>
<path opacity="0.8" d="M189.42 268.605C184.488 269.647 179.152 267.874 175.683 271.529C172.214 275.185 170.767 280.319 170.269 285.328C169.831 292.327 170.196 299.353 171.358 306.268C172.395 314.7 173.479 323.126 174.609 331.548C175.311 338.484 175.044 345.485 173.816 352.347V352.347C173.687 353.076 173.803 353.828 174.146 354.484C174.49 355.14 175.041 355.663 175.714 355.972C175.714 355.972 213.968 357.279 225.092 356.859C231.003 356.641 226.943 341.084 228.763 331.968C229.168 329.946 233.119 321.638 233.71 319.522C236.448 309.488 234.628 302.581 232.154 292.5C230.303 285.173 229.541 274.61 225.807 273.832C219.087 272.447 203.141 265.68 189.42 268.605Z" fill="white"/>
<path d="M183.96 275.792C183.447 275.014 169.959 263.689 167.547 276.772C164.141 294.989 171.188 312.911 171.188 312.911C171.188 312.911 172.743 332.621 178.531 334.597C184.318 336.573 189.7 337.055 191.63 333.679C192.877 331.047 193.535 328.175 193.559 325.263C193.559 325.263 192.905 289.357 183.96 275.792Z" fill="#263238"/>
<path d="M193.278 243.604C194.662 251.99 195.829 267.313 189.84 272.711C189.84 272.711 204.479 280.381 214.093 293.76C216.228 292.167 217.806 289.942 218.605 287.4C219.404 284.859 219.382 282.131 218.542 279.603C218.06 278.008 217.261 276.527 216.191 275.249C215.122 273.971 213.805 272.923 212.32 272.167C206.641 269.056 207.186 263.175 208.741 257.668L193.278 243.604Z" fill="#E8BFBF"/>
<path opacity="0.2" d="M195.191 257.839L200.652 259.939C202.99 260.843 205.491 261.246 207.995 261.121C207.605 262.831 207.605 264.607 207.995 266.317C206.037 266.853 203.966 266.808 202.033 266.19C200.1 265.571 198.388 264.405 197.105 262.833C196.222 261.272 195.577 259.589 195.191 257.839V257.839Z" fill="black"/>
<path d="M330.739 492.452H345.611L330.039 455.163L319.958 472.275L330.739 492.452Z" fill="#FFC3BD"/>
<path d="M344.382 488.921L326.943 484.954C326.644 484.879 326.328 484.919 326.057 485.066C325.786 485.213 325.581 485.456 325.481 485.747L320.611 499.158C320.514 499.496 320.484 499.85 320.524 500.199C320.563 500.549 320.671 500.887 320.842 501.195C321.013 501.503 321.242 501.774 321.517 501.993C321.793 502.212 322.109 502.374 322.447 502.471C328.561 503.747 331.563 504.027 339.233 505.785C343.9 506.858 355.91 510.001 362.428 511.479C368.947 512.956 370.658 506.578 368.06 505.365C356.423 499.982 350.123 494.833 346.747 490.446C346.158 489.681 345.322 489.142 344.382 488.921V488.921Z" fill="#263238"/>
<g opacity="0.2">
<path opacity="0.2" d="M330.039 455.163L336.666 471.046L323.287 478.514L319.958 472.291L330.039 455.163Z" fill="black"/>
</g>
<path d="M173.521 356.143L171.966 361.214C171.764 361.603 172.215 362.008 172.868 362.039L230.429 363.781C230.957 363.781 231.378 363.563 231.424 363.237L232.093 358.134C232.093 357.792 231.689 357.481 231.144 357.449L174.517 355.738C174.33 355.709 174.139 355.731 173.963 355.802C173.788 355.873 173.635 355.991 173.521 356.143V356.143Z" fill="#263238"/>
<path d="M245.518 397.758C226.585 405.832 206.05 413.891 194.88 413.891C172.51 413.891 152.643 397.743 173.816 360.997C187.133 360.997 210.266 361.371 210.266 361.371C210.266 361.371 253.825 348.925 285.53 352.597C293.043 353.473 300.085 356.709 305.644 361.838C311.204 366.967 314.995 373.725 316.473 381.143C324.5 421.591 336.868 465.337 336.868 465.337L320.953 476.227C320.953 476.227 296.14 424.065 281.859 382.699C274.298 385.079 260.406 391.411 245.518 397.758Z" fill="#FF0400"/>
<path opacity="0.5" d="M316.474 381.143C315.001 373.719 311.213 366.953 305.653 361.818C300.093 356.683 293.048 353.443 285.531 352.565C253.888 348.955 210.267 361.339 210.267 361.339C210.267 361.339 187.134 360.919 173.817 360.965C152.302 397.555 172.51 413.859 194.881 413.859C206.051 413.859 226.586 405.8 245.519 397.726C260.407 391.379 274.299 385.047 281.859 382.621C296.141 424.033 320.954 476.211 320.954 476.211L336.869 465.321C336.869 465.321 324.501 421.591 316.474 381.143Z" fill="black"/>
<path d="M296.529 399.811C296.023 405.008 295.244 410.175 294.195 415.29C294.117 415.119 294.055 414.963 293.993 414.792C293.931 414.621 293.993 414.714 293.993 414.668C293.942 414.496 293.874 414.329 293.791 414.17C289.559 403.653 285.421 392.873 281.921 382.714H282.03C291.084 386.556 297.26 392.032 296.529 399.811Z" fill="#FF0400"/>
<path opacity="0.6" d="M296.529 399.811C296.023 405.008 295.244 410.175 294.195 415.29C294.117 415.119 294.055 414.963 293.993 414.792C293.931 414.621 293.993 414.714 293.993 414.668C293.942 414.496 293.874 414.329 293.791 414.17C289.559 403.653 285.421 392.873 281.921 382.714H282.03C291.084 386.556 297.26 392.032 296.529 399.811Z" fill="black"/>
<path d="M183.073 235.546C187.74 248.692 189.451 254.355 198.194 259.286C211.371 266.722 226.461 258.073 225.807 243.729C225.216 230.895 217.671 211.542 203.048 209.986C199.821 209.624 196.556 210.092 193.562 211.348C190.568 212.603 187.945 214.604 185.943 217.16C183.941 219.716 182.626 222.741 182.124 225.949C181.621 229.156 181.948 232.439 183.073 235.484V235.546Z" fill="#E8BFBF"/>
<path d="M206.704 233.835C207.03 234.971 207.855 235.639 208.571 235.391C209.286 235.142 209.566 234.146 209.286 233.042C209.006 231.937 208.151 231.237 207.419 231.486C206.688 231.735 206.393 232.746 206.704 233.835Z" fill="#263238"/>
<path d="M218.916 229.976C219.243 231.128 220.067 231.797 220.783 231.532C221.499 231.268 221.779 230.288 221.499 229.183C221.219 228.079 220.347 227.379 219.647 227.627C218.947 227.876 218.605 228.903 218.916 229.976Z" fill="#263238"/>
<path d="M219.352 227.799L221.747 226.243C221.747 226.243 220.985 228.686 219.352 227.799Z" fill="#263238"/>
<path d="M214.545 232.466C216.228 234.676 218.207 236.644 220.425 238.315C219.98 238.866 219.419 239.312 218.781 239.621C218.144 239.93 217.447 240.095 216.738 240.104L214.545 232.466Z" fill="#ED847E"/>
<path d="M174.485 244.242C175.441 246.609 176.165 249.063 176.648 251.569C176.78 254.09 175.969 256.57 174.373 258.526C172.777 260.481 170.51 261.773 168.014 262.148C170.188 262.727 172.495 262.537 174.545 261.61C176.594 260.683 178.261 259.076 179.261 257.061C178.072 260.228 175.718 262.821 172.681 264.31C174.852 264.334 176.999 263.856 178.955 262.915C180.911 261.973 182.624 260.593 183.959 258.881C183.228 260.779 182.404 262.661 181.75 264.559C185.444 262.322 188.478 259.144 190.54 255.35C191.365 253.794 191.987 251.771 190.898 250.402C189.809 249.033 188.082 249.127 186.495 249.096C184.908 249.065 182.995 248.691 182.419 247.213C181.844 245.735 182.902 244.257 184.053 243.246C185.204 242.235 186.589 241.302 187.009 239.824C187.208 238.754 187.133 237.652 186.791 236.619C186.075 233.757 185.37 230.889 184.675 228.016C184.486 227.002 184.123 226.028 183.602 225.138C180.49 220.471 177.021 227.316 175.823 229.634C173.581 234.169 173.104 239.375 174.485 244.242V244.242Z" fill="#263238"/>
<path d="M182.155 248.427C183.917 250.717 186.511 252.221 189.374 252.612C193.185 253.079 194.523 249.501 192.998 246.249C191.614 243.262 187.973 239.451 184.38 240.462C180.786 241.473 180.008 245.565 182.155 248.427Z" fill="#E8BFBF"/>
<path d="M206.906 224.438C206.88 224.583 206.812 224.717 206.709 224.823C206.606 224.928 206.474 225 206.33 225.03C203.219 225.621 201.414 229.37 201.414 229.401C201.336 229.571 201.195 229.703 201.02 229.77C200.846 229.837 200.652 229.833 200.481 229.759C200.315 229.681 200.186 229.541 200.122 229.37C200.058 229.198 200.064 229.008 200.138 228.841C200.278 228.701 202.207 224.392 206.066 223.645C206.246 223.617 206.431 223.66 206.582 223.764C206.732 223.868 206.837 224.026 206.875 224.205C206.908 224.278 206.919 224.359 206.906 224.438V224.438Z" fill="#263238"/>
<path d="M215.213 221.328C215.109 221.311 215.003 221.317 214.901 221.343C214.8 221.37 214.705 221.418 214.622 221.483C214.451 221.67 213.875 221.996 214.202 222.168C216.1 223.132 218.729 224.719 220.752 224.392C221.094 224.392 221.903 224.034 221.732 223.786C221.615 223.66 221.467 223.567 221.304 223.515C221.14 223.463 220.966 223.455 220.798 223.49C219.243 223.708 217.049 222.199 215.556 221.421C215.446 221.375 215.331 221.344 215.213 221.328Z" fill="#263238"/>
<path d="M207.124 231.642L209.535 230.086C209.535 230.086 208.773 232.559 207.124 231.642Z" fill="#263238"/>
<path d="M206.906 204.23C201.601 203.266 200.916 202.908 195.534 203.25C190.097 203.42 184.84 205.238 180.459 208.462C176.366 211.844 173.479 216.462 172.229 221.623C171.006 226.765 170.869 232.106 171.825 237.304C171.997 239.787 173.07 242.122 174.843 243.869C175.023 241.073 175.498 238.305 176.259 235.608C177.052 232.886 178.685 230.485 180.926 228.748C181.914 228.213 182.766 227.457 183.415 226.539C183.751 225.631 183.94 224.675 183.975 223.707C184.463 221.529 185.765 219.62 187.615 218.371C189.453 217.152 191.42 216.139 193.48 215.353C200.029 212.537 207.17 210.919 213.206 207.124C211.231 205.907 209.115 204.935 206.906 204.23V204.23Z" fill="#263238"/>
<path d="M179.759 225.045C181.184 226.775 183.134 227.993 185.313 228.514C187.895 229.105 194.352 228.95 194.74 228.281C195.129 227.612 192.827 220.363 190.213 219.927C192.016 221.667 194.17 223.004 196.53 223.847C199.2 224.381 201.949 224.381 204.619 223.847C205.988 223.536 202.923 217.873 200.699 216.256C207.404 217.656 214.498 219.258 219.367 224.034C224.236 228.81 226.337 236.371 226.088 243.418C227.229 242.499 228.145 241.332 228.768 240.006C229.391 238.679 229.703 237.229 229.681 235.764C230.856 239.408 231.286 243.251 230.947 247.064C230.607 250.878 229.505 254.584 227.706 257.964C234.831 252.114 237.491 241.893 235.624 232.87C233.757 223.847 227.846 215.991 220.674 210.219C214.451 205.288 207.046 201.601 199.159 201.414C188.813 201.103 169.647 212.864 179.759 225.045Z" fill="#263238"/>
<path d="M188.144 266.644C188.144 266.131 188.268 265.446 188.331 264.731C188.467 263.088 187.988 261.453 186.988 260.142C185.988 258.832 184.537 257.939 182.917 257.637C182.436 257.551 181.986 257.338 181.614 257.021C181.243 256.704 180.962 256.293 180.801 255.832C179.603 252.347 179.137 251.289 177.985 247.867C174.874 247.105 171.125 248.271 167.873 248.614C166.972 252.518 166.908 256.569 167.687 260.499C167.811 261.378 168.154 262.212 168.682 262.926C171.635 265.345 174.9 267.354 178.39 268.9C181.19 269.755 185.126 266.908 188.144 266.644Z" fill="#E8BFBF"/>
<path d="M178.717 268.977C178.717 268.977 170.145 324.282 178.981 332.761C184.162 337.708 188.642 334.97 191.427 331.874C192.448 330.72 193.216 329.366 193.682 327.898C194.148 326.429 194.302 324.88 194.134 323.349L188.113 266.691C188.113 266.691 182.202 263.19 178.717 268.977Z" fill="#E8BFBF"/>
<path d="M270.814 318.915C274.333 315.843 276.857 311.792 278.063 307.278C278.338 305.686 278.442 304.07 278.374 302.456C278.296 292.437 275.465 274.064 275.465 274.064L267.329 271.373C267.329 271.373 264.793 285.374 264.217 293.028C264.108 294.584 263.937 296.311 263.751 298.193C263.393 301.616 262.957 305.38 262.568 308.507L270.814 318.915Z" fill="#E8BFBF"/>
<path d="M275.466 324.78C277.97 322.493 278.39 319.724 279.681 313.89C280.91 308.321 279.526 301.445 278.375 302.487C278.231 302.618 278.124 302.784 278.064 302.97C276.088 307.637 268.403 303.545 266.225 301.212C265.287 300.32 264.461 299.317 263.767 298.225C263.481 297.808 263.328 297.314 263.328 296.809C263.328 296.304 263.481 295.81 263.767 295.393C261.402 294.413 259.504 303.716 260.655 306.003L261.247 307.73C262.184 310.532 263.629 313.137 265.509 315.415L269.787 320.564L275.466 324.78Z" fill="#263238"/>
<path d="M267.111 272.54L266.146 258.321C268.663 259.519 271.262 260.533 273.925 261.355C277.876 262.708 283.259 260.328 282.015 262.911C280.03 266.753 277.817 270.472 275.387 274.049L267.111 272.54Z" fill="#E8BFBF"/>
<path d="M266.146 258.321L272.245 244.087L280.21 248.956C282.403 253.717 282.139 262.957 282.139 262.957C282.139 262.957 271.062 263.393 266.146 258.321Z" fill="#E8BFBF"/>
<path d="M213.611 247.354C213.813 248.365 214.544 249.081 215.166 248.91C215.789 248.739 216.178 247.836 215.96 246.825C215.742 245.814 215.026 245.098 214.404 245.269C213.782 245.441 213.393 246.405 213.611 247.354Z" fill="#263238"/>
<path d="M193.885 440.648L189.078 370.642C188.378 360.748 183.571 352.503 176.881 348.598C172.646 345.228 167.486 343.225 162.086 342.858C161.511 342.858 160.951 342.858 160.375 342.858C156.031 342.834 151.751 343.904 147.93 345.969C147.805 346.013 147.685 346.071 147.572 346.14C143.636 348.344 140.253 351.413 137.678 355.117C133.792 360.762 131.729 367.461 131.766 374.314C131.766 389.871 142.018 402.845 155.475 405.428L160.671 481.236C161.122 487.692 165.338 492.624 170.441 492.624H196.529L193.885 440.648Z" fill="#FF0400"/>
<path opacity="0.1" d="M193.885 440.648L189.078 370.642C188.378 360.748 183.571 352.503 176.881 348.598C172.646 345.228 167.486 343.225 162.086 342.858C161.511 342.858 160.951 342.858 160.375 342.858C156.031 342.834 151.751 343.904 147.93 345.969C147.805 346.013 147.685 346.071 147.572 346.14C143.636 348.344 140.253 351.413 137.678 355.117C133.792 360.762 131.729 367.461 131.766 374.314C131.766 389.871 142.018 402.845 155.475 405.428L160.671 481.236C161.122 487.692 165.338 492.624 170.441 492.624H196.529L193.885 440.648Z" fill="white"/>
<path d="M379.838 568.557C408.655 568.557 432.016 562.581 432.016 555.209C432.016 547.837 408.655 541.861 379.838 541.861C351.021 541.861 327.66 547.837 327.66 555.209C327.66 562.581 351.021 568.557 379.838 568.557Z" fill="#263238"/>
<path opacity="0.3" d="M379.838 564.108C408.655 564.108 432.016 559.128 432.016 552.984C432.016 546.841 408.655 541.861 379.838 541.861C351.021 541.861 327.66 546.841 327.66 552.984C327.66 559.128 351.021 564.108 379.838 564.108Z" fill="white"/>
<path d="M384.147 552.969H375.529L365.572 445.595H394.104L384.147 552.969Z" fill="#263238"/>
<path d="M394.104 445.595C394.104 448.707 387.725 451.258 379.838 451.258C371.951 451.258 365.572 448.722 365.572 445.595C365.572 442.468 371.966 439.933 379.838 439.933C387.71 439.933 394.104 442.468 394.104 445.595Z" fill="#263238"/>
<path opacity="0.7" d="M394.104 445.595C394.104 448.707 387.725 451.258 379.838 451.258C371.951 451.258 365.572 448.722 365.572 445.595C365.572 442.468 371.966 439.933 379.838 439.933C387.71 439.933 394.104 442.468 394.104 445.595Z" fill="white"/>
<path opacity="0.7" d="M205.352 447.275C205.391 446.632 205.558 446.004 205.844 445.427C206.13 444.85 206.528 444.336 207.016 443.915C219.073 456.049 295.566 465.399 388.129 465.399C480.693 465.399 557.186 456.065 569.258 443.915C569.746 444.336 570.145 444.85 570.431 445.427C570.716 446.004 570.884 446.632 570.923 447.275C570.923 460.981 489.078 472.166 388.129 472.166C287.181 472.166 205.352 460.981 205.352 447.275Z" fill="white"/>
<path opacity="0.7" d="M207.078 450.371C219.135 438.236 295.628 428.902 388.191 428.902C480.755 428.902 557.248 438.236 569.32 450.371C557.248 462.505 480.755 471.855 388.191 471.855C295.628 471.855 219.135 462.505 207.078 450.371Z" fill="white"/>
<path opacity="0.7" d="M205.352 446.793C205.352 433.072 287.181 421.902 388.129 421.902C489.078 421.902 570.923 433.01 570.923 446.793C570.885 447.434 570.718 448.061 570.432 448.636C570.146 449.211 569.747 449.722 569.258 450.138C557.186 438.004 480.693 428.67 388.129 428.67C295.566 428.67 219.073 438.004 207.016 450.138C206.527 449.722 206.128 449.211 205.842 448.636C205.556 448.061 205.389 447.434 205.352 446.793Z" fill="white"/>
<path d="M458.696 434.705L382.218 433.258C382.012 433.237 381.812 433.175 381.63 433.076C381.448 432.976 381.288 432.841 381.159 432.679C381.03 432.516 380.935 432.33 380.879 432.13C380.823 431.931 380.808 431.722 380.834 431.516V431.516C380.817 431.309 380.841 431.101 380.906 430.904C380.971 430.707 381.074 430.524 381.211 430.368C381.347 430.211 381.513 430.084 381.699 429.992C381.886 429.901 382.089 429.848 382.296 429.836L458.774 431.283C458.981 431.302 459.183 431.363 459.366 431.461C459.55 431.56 459.712 431.695 459.843 431.857C459.973 432.02 460.07 432.207 460.127 432.408C460.184 432.608 460.2 432.818 460.174 433.025C460.191 433.233 460.165 433.443 460.1 433.641C460.034 433.839 459.929 434.022 459.791 434.179C459.653 434.336 459.485 434.463 459.297 434.553C459.109 434.644 458.904 434.695 458.696 434.705Z" fill="#263238"/>
<path opacity="0.2" d="M458.696 434.705L382.218 433.258C382.012 433.237 381.812 433.175 381.63 433.076C381.448 432.976 381.288 432.841 381.159 432.679C381.03 432.516 380.935 432.33 380.879 432.13C380.823 431.931 380.808 431.722 380.834 431.516V431.516C380.817 431.309 380.841 431.101 380.906 430.904C380.971 430.707 381.074 430.524 381.211 430.368C381.347 430.211 381.513 430.084 381.699 429.992C381.886 429.901 382.089 429.848 382.296 429.836L458.774 431.283C458.981 431.302 459.183 431.363 459.366 431.461C459.55 431.56 459.712 431.695 459.843 431.857C459.973 432.02 460.07 432.207 460.127 432.408C460.184 432.608 460.2 432.818 460.174 433.025C460.191 433.233 460.165 433.443 460.1 433.641C460.034 433.839 459.929 434.022 459.791 434.179C459.653 434.336 459.485 434.463 459.297 434.553C459.109 434.644 458.904 434.695 458.696 434.705Z" fill="white"/>
<path d="M495.83 429.121L459.271 434.644C458.872 434.644 458.488 434.491 458.198 434.216C457.908 433.941 457.736 433.565 457.716 433.166C457.652 432.747 457.746 432.32 457.978 431.967C458.211 431.614 458.566 431.359 458.976 431.252L495.535 425.729C495.934 425.729 496.318 425.882 496.608 426.157C496.898 426.432 497.07 426.808 497.09 427.207C497.154 427.626 497.06 428.053 496.828 428.406C496.595 428.76 496.24 429.014 495.83 429.121V429.121Z" fill="#263238"/>
<path d="M495.503 425.729H418.217L382.296 429.836L456.689 431.237L495.503 425.729Z" fill="#263238"/>
<path opacity="0.6" d="M495.503 425.729H418.217L382.296 429.836L456.689 431.237L495.503 425.729Z" fill="white"/>
<path opacity="0.5" d="M495.83 429.121L459.271 434.644C458.872 434.644 458.488 434.491 458.198 434.216C457.908 433.941 457.736 433.565 457.716 433.166C457.652 432.747 457.746 432.32 457.978 431.967C458.211 431.614 458.566 431.359 458.976 431.252L495.535 425.729C495.934 425.729 496.318 425.882 496.608 426.157C496.898 426.432 497.07 426.808 497.09 427.207C497.154 427.626 497.06 428.053 496.828 428.406C496.595 428.76 496.24 429.014 495.83 429.121V429.121Z" fill="white"/>
<path d="M456.688 431.236L385.376 429.898C384.031 429.727 382.796 429.069 381.905 428.048C381.013 427.027 380.527 425.715 380.537 424.36L378.391 381.298C378.235 378.296 380.18 375.885 382.684 375.931L453.997 377.285C455.344 377.45 456.583 378.106 457.476 379.128C458.369 380.15 458.853 381.466 458.835 382.823L460.998 425.869C461.138 428.871 459.209 431.283 456.688 431.236Z" fill="#FF0400"/>
<path opacity="0.2" d="M456.688 431.236L385.376 429.898C384.031 429.727 382.796 429.069 381.905 428.048C381.013 427.027 380.527 425.715 380.537 424.36L378.391 381.298C378.235 378.296 380.18 375.885 382.684 375.931L453.997 377.285C455.344 377.45 456.583 378.106 457.476 379.128C458.369 380.15 458.853 381.466 458.835 382.823L460.998 425.869C461.138 428.871 459.209 431.283 456.688 431.236Z" fill="white"/>
<path d="M454.604 431.019L383.292 429.665C381.944 429.497 380.706 428.841 379.811 427.82C378.916 426.799 378.427 425.484 378.438 424.127L376.291 381.143C376.135 378.141 378.08 375.729 380.6 375.776L451.897 377.114C453.245 377.282 454.483 377.938 455.378 378.96C456.273 379.981 456.762 381.295 456.751 382.652L458.929 425.651C459.054 428.654 457.109 431.065 454.604 431.019Z" fill="#FF0400"/>
<path opacity="0.6" d="M454.604 431.019L383.292 429.665C381.944 429.497 380.706 428.841 379.811 427.82C378.916 426.799 378.427 425.484 378.438 424.127L376.291 381.143C376.135 378.141 378.08 375.729 380.6 375.776L451.897 377.114C453.245 377.282 454.483 377.938 455.378 378.96C456.273 379.981 456.762 381.295 456.751 382.652L458.929 425.651C459.054 428.654 457.109 431.065 454.604 431.019Z" fill="white"/>
<path d="M408.151 402.658C408.36 404.707 409.313 406.608 410.83 408.002C412.346 409.395 414.321 410.184 416.38 410.219C417.349 410.236 418.309 410.046 419.199 409.663C420.088 409.28 420.886 408.712 421.54 407.997C422.193 407.282 422.686 406.436 422.988 405.516C423.289 404.595 423.391 403.621 423.288 402.658C423.061 400.621 422.102 398.734 420.588 397.352C419.073 395.969 417.108 395.185 415.058 395.144C414.094 395.129 413.138 395.317 412.252 395.697C411.366 396.078 410.57 396.641 409.918 397.351C409.265 398.061 408.771 398.901 408.466 399.816C408.161 400.73 408.054 401.699 408.151 402.658V402.658Z" fill="white"/>
</svg>
