<svg width="350" height="261" viewBox="0 0 350 261" fill="none" xmlns="http://www.w3.org/2000/svg">
<path d="M175 260.792C249.958 260.792 310.723 257.244 310.723 252.868C310.723 248.492 249.958 244.944 175 244.944C100.043 244.944 39.2773 248.492 39.2773 252.868C39.2773 257.244 100.043 260.792 175 260.792Z" fill="#F5F5F5"/>
<path d="M65.5969 136.5L230.356 136.5C234.995 136.5 238.756 132.739 238.756 128.1V24.892C238.756 20.2528 234.995 16.492 230.356 16.492L65.5969 16.492C60.9577 16.492 57.1969 20.2528 57.1969 24.892V128.1C57.1969 132.739 60.9577 136.5 65.5969 136.5Z" fill="#263238"/>
<path d="M104.841 246.288L144.65 206.5L145.63 205.527V87.5C145.63 87.0804 145.796 86.678 146.093 86.3813C146.39 86.0846 146.792 85.918 147.212 85.918H148.752C149.171 85.918 149.574 86.0846 149.87 86.3813C150.167 86.678 150.334 87.0804 150.334 87.5V205.506L151.307 206.479L191.102 246.288C191.228 246.414 191.329 246.563 191.397 246.728C191.466 246.892 191.501 247.069 191.501 247.247C191.501 247.425 191.466 247.602 191.397 247.766C191.329 247.931 191.228 248.08 191.102 248.206L189.702 249.606C189.447 249.858 189.104 249.999 188.746 249.999C188.388 249.999 188.045 249.858 187.791 249.606L150.334 212.149V248.43C150.334 248.85 150.167 249.252 149.87 249.549C149.574 249.845 149.171 250.012 148.752 250.012H147.212C147.002 250.016 146.793 249.977 146.598 249.9C146.402 249.822 146.225 249.706 146.075 249.559C145.925 249.411 145.806 249.236 145.725 249.042C145.643 248.848 145.602 248.64 145.602 248.43V212.163L108.173 249.62C107.913 249.864 107.57 250 107.214 250C106.857 250 106.514 249.864 106.255 249.62L104.855 248.22C104.605 247.961 104.464 247.616 104.461 247.257C104.458 246.897 104.594 246.55 104.841 246.288Z" fill="#263238"/>
<path d="M218.114 14.042H212.801V14.742H218.114V14.042Z" fill="#FF0400"/>
<path d="M207.899 14.042H196.818V14.742H207.899V14.042Z" fill="#FF0400"/>
<path d="M67.3137 136.5L232.073 136.5C236.712 136.5 240.473 132.739 240.473 128.1V24.892C240.473 20.2528 236.712 16.492 232.073 16.492L67.3137 16.492C62.6745 16.492 58.9137 20.2528 58.9137 24.892V128.1C58.9137 132.739 62.6745 136.5 67.3137 136.5Z" fill="#FF0400"/>
<path d="M235.572 128.093V24.885C235.572 22.952 234.005 21.385 232.072 21.385L67.3133 21.385C65.3803 21.385 63.8133 22.952 63.8133 24.885V128.093C63.8133 130.026 65.3803 131.593 67.3133 131.593H232.072C234.005 131.593 235.572 130.026 235.572 128.093Z" fill="#FAFAFA"/>
<path d="M143.374 207.081H152.586C153.811 207.081 154.805 206.088 154.805 204.862V198.569C154.805 197.344 153.811 196.35 152.586 196.35H143.374C142.148 196.35 141.155 197.344 141.155 198.569V204.862C141.155 206.088 142.148 207.081 143.374 207.081Z" fill="#FF0400"/>
<path opacity="0.1" d="M127.744 113.533C133.974 113.533 140.064 111.686 145.245 108.224C150.425 104.763 154.462 99.8434 156.846 94.0875C159.23 88.3316 159.854 81.998 158.639 75.8876C157.423 69.7772 154.423 64.1645 150.018 59.7591C145.613 55.3538 140 52.3537 133.889 51.1382C127.779 49.9228 121.445 50.5466 115.69 52.9308C109.934 55.3149 105.014 59.3524 101.553 64.5325C98.0916 69.7127 96.2441 75.8029 96.2441 82.033C96.2441 90.3873 99.5629 98.3994 105.47 104.307C111.378 110.214 119.39 113.533 127.744 113.533V113.533ZM127.744 51.177C133.85 51.177 139.818 52.9875 144.895 56.3795C149.971 59.7715 153.928 64.5928 156.264 70.2335C158.601 75.8743 159.212 82.0812 158.021 88.0694C156.83 94.0576 153.89 99.5581 149.573 103.875C145.255 108.193 139.755 111.133 133.767 112.324C127.778 113.515 121.571 112.904 115.931 110.567C110.29 108.231 105.469 104.274 102.077 99.1974C98.6846 94.1209 96.8741 88.1525 96.8741 82.047C96.8834 73.8626 100.139 66.0161 105.926 60.2288C111.713 54.4416 119.56 51.1862 127.744 51.177V51.177Z" fill="black"/>
<path d="M90.1597 34.874H117.887C118.874 34.874 119.822 35.2664 120.52 35.9648C121.218 36.6631 121.611 37.6104 121.611 38.598V89.838C121.611 90.8257 121.218 91.7729 120.52 92.4713C119.822 93.1697 118.874 93.562 117.887 93.562H82.4037C81.416 93.562 80.4688 93.1697 79.7704 92.4713C79.072 91.7729 78.6797 90.8257 78.6797 89.838V46.354L90.1597 34.874Z" fill="#FF0400"/>
<path d="M91.7912 88.4378H114.891C115.318 88.4268 115.723 88.2492 116.02 87.943C116.317 87.6368 116.482 87.2264 116.48 86.7998V86.7998C116.48 86.3691 116.309 85.956 116.004 85.6514C115.7 85.3469 115.287 85.1758 114.856 85.1758H91.7562C91.3309 85.1849 90.926 85.3598 90.6279 85.6632C90.3297 85.9666 90.1619 86.3744 90.1602 86.7998V86.7998C90.1602 87.233 90.3318 87.6486 90.6374 87.9556C90.9431 88.2625 91.3579 88.4359 91.7912 88.4378V88.4378Z" fill="white"/>
<path d="M102.655 43.2529H114.856C115.287 43.2529 115.7 43.0818 116.005 42.7772C116.309 42.4727 116.48 42.0596 116.48 41.6289V41.6289C116.48 41.1982 116.309 40.7851 116.005 40.4805C115.7 40.176 115.287 40.0049 114.856 40.0049H102.655C102.225 40.0049 101.811 40.176 101.507 40.4805C101.202 40.7851 101.031 41.1982 101.031 41.6289V41.6289C101.031 42.0596 101.202 42.4727 101.507 42.7772C101.811 43.0818 102.225 43.2529 102.655 43.2529Z" fill="white"/>
<path d="M94.6963 49.6999H114.856C115.287 49.6999 115.7 49.5288 116.005 49.2242C116.309 48.9197 116.48 48.5066 116.48 48.0759V48.0759C116.48 47.6452 116.309 47.2321 116.005 46.9276C115.7 46.623 115.287 46.4519 114.856 46.4519H94.6963C94.2655 46.4519 93.8525 46.623 93.5479 46.9276C93.2434 47.2321 93.0723 47.6452 93.0723 48.0759V48.0759C93.0723 48.5066 93.2434 48.9197 93.5479 49.2242C93.8525 49.5288 94.2655 49.6999 94.6963 49.6999Z" fill="white"/>
<path d="M85.4357 56.1611H114.836C115.266 56.1611 115.679 55.99 115.984 55.6854C116.289 55.3809 116.46 54.9678 116.46 54.5371V54.5371C116.46 54.1064 116.289 53.6933 115.984 53.3887C115.679 53.0842 115.266 52.9131 114.836 52.9131H85.4357C85.0043 52.9131 84.5905 53.084 84.2849 53.3883C83.9792 53.6927 83.8065 54.1057 83.8047 54.5371C83.8065 54.9684 83.9792 55.3815 84.2849 55.6859C84.5905 55.9902 85.0043 56.1611 85.4357 56.1611V56.1611Z" fill="white"/>
<path d="M85.4357 62.6149H102.537C102.968 62.6149 103.382 62.4441 103.688 62.1397C103.993 61.8354 104.166 61.4223 104.168 60.9909V60.9909C104.166 60.5596 103.993 60.1465 103.688 59.8422C103.382 59.5378 102.968 59.3669 102.537 59.3669H85.4357C85.0043 59.3669 84.5905 59.5378 84.2849 59.8422C83.9792 60.1465 83.8065 60.5596 83.8047 60.9909V60.9909C83.8065 61.4223 83.9792 61.8354 84.2849 62.1397C84.5905 62.4441 85.0043 62.6149 85.4357 62.6149V62.6149Z" fill="white"/>
<path d="M110.384 62.6149H114.857C115.287 62.6149 115.701 62.4438 116.005 62.1393C116.31 61.8347 116.481 61.4217 116.481 60.9909V60.9909C116.481 60.5602 116.31 60.1472 116.005 59.8426C115.701 59.538 115.287 59.3669 114.857 59.3669H110.384C109.953 59.3669 109.54 59.538 109.235 59.8426C108.931 60.1472 108.76 60.5602 108.76 60.9909V60.9909C108.76 61.4217 108.931 61.8347 109.235 62.1393C109.54 62.4438 109.953 62.6149 110.384 62.6149V62.6149Z" fill="white"/>
<path d="M85.4357 69.069H114.836C115.266 69.069 115.679 68.898 115.984 68.5934C116.289 68.2888 116.46 67.8758 116.46 67.4451V67.4451C116.46 67.0143 116.289 66.6013 115.984 66.2967C115.679 65.9921 115.266 65.821 114.836 65.821H85.4357C85.0043 65.821 84.5905 65.9919 84.2849 66.2963C83.9792 66.6006 83.8065 67.0137 83.8047 67.4451V67.4451C83.8065 67.8764 83.9792 68.2895 84.2849 68.5938C84.5905 68.8982 85.0043 69.069 85.4357 69.069V69.069Z" fill="white"/>
<path d="M96.7892 75.5229H114.856C115.287 75.5229 115.7 75.3518 116.005 75.0472C116.309 74.7427 116.48 74.3296 116.48 73.8989V73.8989C116.48 73.4682 116.309 73.0551 116.005 72.7506C115.7 72.446 115.287 72.2749 114.856 72.2749H96.7892C96.3578 72.2749 95.944 72.4458 95.6384 72.7501C95.3327 73.0545 95.1601 73.4676 95.1582 73.8989V73.8989C95.1601 74.3303 95.3327 74.7433 95.6384 75.0477C95.944 75.352 96.3578 75.5229 96.7892 75.5229Z" fill="white"/>
<path d="M85.4357 75.5229H90.2587C90.6894 75.5229 91.1025 75.3518 91.407 75.0472C91.7116 74.7427 91.8827 74.3296 91.8827 73.8989V73.8989C91.8827 73.4682 91.7116 73.0551 91.407 72.7506C91.1025 72.446 90.6894 72.2749 90.2587 72.2749H85.4357C85.0043 72.2749 84.5905 72.4458 84.2849 72.7501C83.9792 73.0545 83.8065 73.4676 83.8047 73.8989V73.8989C83.8065 74.3303 83.9792 74.7433 84.2849 75.0477C84.5905 75.352 85.0043 75.5229 85.4357 75.5229Z" fill="white"/>
<path d="M85.4357 81.977H114.836C115.266 81.977 115.679 81.8059 115.984 81.5013C116.289 81.1968 116.46 80.7837 116.46 80.353V80.353C116.46 79.9223 116.289 79.5092 115.984 79.2047C115.679 78.9001 115.266 78.729 114.836 78.729H85.4357C85.0043 78.729 84.5905 78.8999 84.2849 79.2042C83.9792 79.5086 83.8065 79.9216 83.8047 80.353V80.353C83.8065 80.7844 83.9792 81.1974 84.2849 81.5018C84.5905 81.8061 85.0043 81.977 85.4357 81.977V81.977Z" fill="white"/>
<path opacity="0.2" d="M90.1597 34.874V42.63C90.1597 43.6177 89.7673 44.5649 89.069 45.2633C88.3706 45.9617 87.4234 46.354 86.4357 46.354H78.6797L90.1597 34.874Z" fill="black"/>
<path d="M183.169 39.5709V28.4829C173.807 28.4732 164.703 31.5559 157.273 37.2521C149.843 42.9483 144.502 50.9391 142.081 59.9829C139.659 69.0267 140.292 78.6171 143.882 87.264C147.472 95.9108 153.817 103.13 161.931 107.8L167.475 98.1959C161.486 94.7415 156.804 89.4067 154.156 83.0195C151.508 76.6323 151.042 69.5498 152.831 62.8708C154.619 56.1918 158.562 50.2899 164.048 46.0808C169.533 41.8717 176.255 39.5908 183.169 39.5919V39.5709Z" fill="#263238"/>
<path opacity="0.2" d="M225.66 70.9799C225.658 59.7108 221.181 48.9036 213.213 40.9345C205.245 32.9654 194.439 28.4866 183.17 28.4829V39.5709C191.5 39.5728 199.487 42.8825 205.377 48.7724C211.267 54.6624 214.577 62.6503 214.579 70.9799H225.66Z" fill="black"/>
<path d="M225.66 70.98H214.579C214.579 76.4922 213.128 81.9073 210.372 86.681C207.615 91.4547 203.651 95.4189 198.878 98.175C194.104 100.931 188.689 102.382 183.177 102.382C177.664 102.382 172.249 100.931 167.476 98.175L161.932 107.8C168.39 111.521 175.714 113.477 183.167 113.472C190.621 113.468 197.942 111.503 204.396 107.774C210.85 104.046 216.21 98.6853 219.937 92.2307C223.665 85.7761 225.628 78.4545 225.632 71.001L225.66 70.98Z" fill="#FF0400"/>
<path d="M123.383 101.479L136.816 84.126L150.249 101.479H143.928V123.949H129.704V101.479H123.383Z" fill="#FF0400"/>
<path d="M236.603 244.111L231.297 242.277L234.139 229.488L239.452 231.329L236.603 244.111Z" fill="#FF8B7B"/>
<path opacity="0.2" d="M234.139 229.495L232.676 236.082L237.982 237.923L239.452 231.336L234.139 229.495Z" fill="black"/>
<path d="M287.652 247.128H282.038L277.656 234.115H283.277L287.652 247.128Z" fill="#FF8B7B"/>
<path opacity="0.2" d="M283.277 234.122H277.656L279.917 240.828H285.538L283.277 234.122Z" fill="black"/>
<path d="M281.291 246.477H288.137C288.248 246.477 288.356 246.516 288.442 246.586C288.529 246.656 288.589 246.753 288.613 246.862L289.726 251.86C289.752 251.981 289.751 252.107 289.722 252.227C289.693 252.348 289.637 252.46 289.558 252.556C289.479 252.652 289.379 252.728 289.267 252.78C289.154 252.831 289.031 252.857 288.907 252.854C286.702 252.819 285.092 252.686 282.313 252.686C280.605 252.686 275.46 252.868 273.101 252.868C270.742 252.868 270.434 250.537 271.4 250.32C275.726 249.375 278.988 248.073 280.374 246.82C280.628 246.599 280.954 246.477 281.291 246.477Z" fill="#263238"/>
<path d="M231.549 241.675L237.345 243.684C237.451 243.72 237.541 243.791 237.601 243.885C237.66 243.979 237.686 244.091 237.674 244.202L237.086 249.284C237.075 249.409 237.036 249.529 236.971 249.637C236.906 249.744 236.818 249.835 236.712 249.902C236.607 249.97 236.487 250.013 236.362 250.027C236.238 250.041 236.112 250.026 235.994 249.984C233.894 249.228 230.933 248.059 228.294 247.184C225.221 246.12 222.505 245.364 218.9 244.118C216.723 243.362 216.877 240.947 217.864 241.066C222.33 241.598 225.753 242.669 230.107 241.703C230.575 241.558 231.075 241.548 231.549 241.675Z" fill="#263238"/>
<path d="M166.063 58.6951L223.407 109.739L222.427 110.838L165.594 59.2131L166.063 58.6951Z" fill="#263238"/>
<path d="M262.074 78.218C261.668 79.436 261.276 80.493 260.828 81.599C260.38 82.705 259.932 83.776 259.428 84.854C258.466 87.0006 257.405 89.117 256.243 91.203C255.058 93.3229 253.735 95.362 252.281 97.307C250.75 99.3965 248.955 101.279 246.94 102.907L246.093 103.537C245.806 103.74 245.484 103.936 245.176 104.132C244.566 104.504 243.932 104.836 243.279 105.126C242.04 105.677 240.751 106.106 239.429 106.407C236.968 106.953 234.451 107.202 231.932 107.149C229.535 107.094 227.146 106.86 224.785 106.449C223.623 106.26 222.468 106.001 221.327 105.749C220.186 105.497 219.073 105.182 217.883 104.79L218.821 100.681C219.836 100.765 220.963 100.849 222.034 100.905C223.105 100.961 224.204 100.968 225.282 100.982C227.407 101.007 229.532 100.904 231.645 100.674C233.635 100.474 235.599 100.066 237.504 99.456C238.36 99.1747 239.188 98.8114 239.975 98.371C240.34 98.1771 240.691 97.9572 241.025 97.713C241.179 97.587 241.333 97.482 241.494 97.349L241.984 96.929C243.385 95.6111 244.632 94.1387 245.701 92.54C246.853 90.8073 247.909 89.0126 248.865 87.164C249.845 85.281 250.762 83.342 251.63 81.375C252.068 80.3856 252.488 79.394 252.89 78.4C253.282 77.413 253.702 76.363 254.038 75.46L262.074 78.218Z" fill="#FF8B7B"/>
<path d="M264.357 75.46C265.561 80.689 255.887 95.403 255.887 95.403L243.756 86.534C246.043 82.1956 248.789 78.1146 251.946 74.361C256.678 69.027 263.034 69.713 264.357 75.46Z" fill="#263238"/>
<path d="M219.535 100.688L213.543 99.3369L214.418 106.456C215.53 106.753 216.709 106.686 217.78 106.265C218.852 105.844 219.761 105.092 220.375 104.118L219.535 100.688Z" fill="#FF8B7B"/>
<path d="M209.631 99.1619L211.577 104.545L214.419 106.456L213.544 99.3369L209.631 99.1619Z" fill="#FF8B7B"/>
<path d="M289.494 74.676C282.179 95.62 282.046 118.3 281.227 122.85C276.859 122.269 260.409 120.05 251.442 118.839C249.426 86.681 258.26 70.749 258.26 70.749C258.26 70.749 260.206 70.49 262.838 70.378C263.664 70.378 264.553 70.322 265.477 70.329C265.988 70.329 266.506 70.329 267.031 70.364C271.281 70.6998 275.509 71.2794 279.694 72.1C280.485 72.247 281.29 72.415 282.067 72.59C282.844 72.765 283.467 72.933 284.167 73.108C287.177 73.871 289.494 74.676 289.494 74.676Z" fill="#263238"/>
<path d="M284.159 73.08L281.807 74.858C278.818 77.119 275.381 79.212 270.446 79.212C269.886 79.212 269.312 79.212 268.738 79.128C264.65 78.722 263.089 76.734 262.494 75.131C262.228 74.3566 262.121 73.5362 262.18 72.7194C262.239 71.9026 262.462 71.1061 262.837 70.378C263.663 70.378 264.552 70.322 265.476 70.329C265.987 70.329 266.505 70.329 267.03 70.364C271.281 70.6998 275.509 71.2794 279.693 72.1C280.484 72.247 281.289 72.415 282.066 72.59C282.843 72.765 283.501 72.905 284.159 73.08Z" fill="#FF0400"/>
<path d="M280.359 57.6448C279.015 61.6138 277.209 68.9708 279.694 72.0718C277.181 73.9758 273.947 76.1248 269.082 75.6418C264.217 75.1588 265.519 71.9458 267.031 70.3638C271.721 69.8948 272.057 66.5068 271.693 63.2308L280.359 57.6448Z" fill="#FF8B7B"/>
<path opacity="0.2" d="M276.823 59.9268L271.699 63.2308C271.793 63.9923 271.821 64.7604 271.783 65.5268C273.554 65.5268 276.193 63.9308 276.62 62.1388C276.823 61.4201 276.892 60.6703 276.823 59.9268V59.9268Z" fill="black"/>
<path d="M270.046 41.7269C265.692 41.3699 264.187 51.8489 266.903 53.8579C269.619 55.8669 278.194 42.3919 270.046 41.7269Z" fill="#263238"/>
<path d="M281.669 51.5829C280.591 57.0499 280.234 60.3049 277.063 62.7829C272.303 66.4789 265.863 63.0349 265.261 57.3509C264.743 52.2339 266.598 44.1489 272.296 42.6509C273.551 42.3222 274.869 42.3198 276.125 42.644C277.381 42.9682 278.534 43.6082 279.473 44.5032C280.412 45.3982 281.107 46.5185 281.491 47.7576C281.876 48.9967 281.937 50.3135 281.669 51.5829Z" fill="#FF8B7B"/>
<path d="M280.555 56.9309C277.86 58.6109 275.263 43.6729 282.746 44.0229C291.902 44.4569 286.302 53.3679 280.555 56.9309Z" fill="#263238"/>
<path d="M282.886 46.1579C278.889 47.4599 261.956 45.7449 259.856 41.5519C261.06 41.6873 262.279 41.5337 263.412 41.1039C263.412 41.1039 259.828 40.1309 259.254 36.8479C265.596 40.0889 278.987 35.8679 283.754 39.4659C287.737 42.4339 285.994 45.1499 282.886 46.1579Z" fill="#263238"/>
<path d="M284.824 44.7999C284.824 44.7999 284.593 43.1759 289.304 45.0379C285.412 44.3379 284.95 45.5069 284.95 45.5069L284.824 44.7999Z" fill="#263238"/>
<path d="M283.34 57.9949C282.896 58.5279 282.35 58.968 281.735 59.2899C281.12 59.6118 280.448 59.8092 279.756 59.8709C277.901 60.0249 277.327 58.2889 278.132 56.7209C278.832 55.3209 280.701 53.5359 282.416 54.1169C284.131 54.6979 284.432 56.6999 283.34 57.9949Z" fill="#FF8B7B"/>
<path d="M231.107 234.171L240.102 237.3C240.102 237.3 248.908 202.587 251.666 185.297C252.506 180.04 254.382 172.76 256.65 164.997C259.506 155.197 262.985 144.641 265.806 136.374C268.788 127.666 271.021 121.513 271.021 121.513L251.421 118.874C251.421 118.874 236.504 164.605 234.824 181.671C233.102 199.381 231.107 234.171 231.107 234.171Z" fill="#FF0400"/>
<path opacity="0.2" d="M256.65 164.962C259.506 155.162 262.985 144.606 265.806 136.339L264.049 131.81C258.799 137.298 256.335 155.155 256.65 164.962Z" fill="black"/>
<path d="M262.004 120.267C262.004 120.267 261.038 168.406 262.361 184.814C263.803 202.79 277.271 239.526 277.271 239.526H287.568C287.568 239.526 280.701 205.926 278.594 188.426C276.193 168.546 281.226 122.836 281.226 122.836L262.004 120.267Z" fill="#FF0400"/>
<path d="M276.047 239.75H288.164V236.131L274.619 235.893L276.047 239.75Z" fill="#263238"/>
<path d="M229.902 233.989L240.619 237.699L241.816 234.234L229.902 229.908V233.989Z" fill="#263238"/>
<path d="M273.093 51.996C273.037 52.444 272.75 52.773 272.456 52.738C272.162 52.703 271.973 52.2971 272.036 51.8491C272.099 51.4011 272.379 51.072 272.673 51.107C272.967 51.142 273.156 51.548 273.093 51.996Z" fill="#263238"/>
<path d="M268.017 51.3099C267.961 51.7579 267.674 52.0939 267.38 52.0519C267.086 52.0099 266.897 51.6179 266.953 51.1699C267.009 50.7219 267.303 50.3859 267.597 50.4279C267.891 50.4699 268.101 50.8619 268.017 51.3099Z" fill="#263238"/>
<path d="M269.599 51.751C268.881 53.051 267.986 54.2454 266.939 55.3C267.216 55.5642 267.548 55.7639 267.911 55.8849C268.274 56.0059 268.659 56.0452 269.039 56L269.599 51.751Z" fill="#FF5652"/>
<path d="M270.761 57.4491C271.27 57.4575 271.775 57.3618 272.246 57.168C272.717 56.9742 273.143 56.6864 273.498 56.3221C273.521 56.2952 273.533 56.2601 273.53 56.2247C273.528 56.1892 273.511 56.1563 273.484 56.1331C273.457 56.1099 273.422 56.0983 273.387 56.101C273.351 56.1036 273.318 56.1202 273.295 56.1471C272.896 56.5455 272.408 56.8439 271.872 57.0178C271.335 57.1918 270.765 57.2364 270.208 57.1481C270.173 57.1434 270.137 57.153 270.109 57.1747C270.081 57.1963 270.062 57.2283 270.058 57.2636C270.053 57.2989 270.063 57.3345 270.084 57.3628C270.106 57.391 270.138 57.4095 270.173 57.4141C270.368 57.4393 270.565 57.451 270.761 57.4491Z" fill="#263238"/>
<path d="M274.886 50.5679C274.927 50.5772 274.97 50.5772 275.012 50.5679C275.043 50.551 275.07 50.5282 275.092 50.5007C275.114 50.4733 275.131 50.4417 275.14 50.4078C275.15 50.3739 275.153 50.3385 275.149 50.3035C275.145 50.2684 275.134 50.2346 275.117 50.2039C274.918 49.8282 274.633 49.5053 274.285 49.2619C273.937 49.0184 273.536 48.8614 273.115 48.8039C273.08 48.802 273.045 48.807 273.012 48.8186C272.979 48.8303 272.949 48.8483 272.923 48.8717C272.897 48.8952 272.875 48.9235 272.86 48.9551C272.845 48.9867 272.837 49.0209 272.835 49.0559C272.832 49.0904 272.836 49.1252 272.847 49.1582C272.858 49.1912 272.875 49.2216 272.898 49.2477C272.921 49.2739 272.949 49.2951 272.98 49.3103C273.011 49.3254 273.045 49.3341 273.08 49.3359V49.3359C273.41 49.3824 273.725 49.507 273.998 49.6993C274.27 49.8916 274.493 50.1462 274.648 50.4419C274.673 50.4821 274.708 50.515 274.75 50.5372C274.792 50.5593 274.839 50.5699 274.886 50.5679V50.5679Z" fill="#263238"/>
<path d="M266.064 49.2659C266.108 49.267 266.152 49.2566 266.191 49.2357C266.231 49.2149 266.264 49.1843 266.288 49.1469C266.465 48.8627 266.707 48.6248 266.994 48.4531C267.281 48.2814 267.606 48.1809 267.94 48.1599C268.01 48.1582 268.076 48.1296 268.126 48.0801C268.175 48.0306 268.204 47.9639 268.206 47.8939C268.206 47.8234 268.178 47.7557 268.128 47.7058C268.078 47.656 268.01 47.6279 267.94 47.6279C267.517 47.6477 267.105 47.7694 266.739 47.9827C266.374 48.196 266.065 48.4945 265.84 48.8529C265.82 48.8818 265.806 48.9144 265.799 48.9487C265.791 48.9831 265.791 49.0185 265.798 49.053C265.804 49.0875 265.817 49.1203 265.837 49.1497C265.856 49.179 265.881 49.2043 265.91 49.2239C265.956 49.2519 266.01 49.2664 266.064 49.2659V49.2659Z" fill="#263238"/>
<path d="M279.428 247.464C279.924 247.45 280.417 247.382 280.898 247.261C280.923 247.253 280.945 247.239 280.961 247.219C280.978 247.2 280.989 247.176 280.994 247.151C280.998 247.126 280.995 247.1 280.986 247.076C280.977 247.052 280.961 247.031 280.94 247.016C280.73 246.89 278.924 245.777 278.301 246.092C278.232 246.128 278.175 246.183 278.134 246.249C278.093 246.316 278.071 246.392 278.07 246.47C278.058 246.6 278.076 246.732 278.125 246.854C278.174 246.976 278.251 247.084 278.35 247.17C278.667 247.386 279.046 247.489 279.428 247.464ZM280.513 247.072C279.561 247.261 278.826 247.226 278.518 246.967C278.451 246.909 278.398 246.835 278.367 246.752C278.335 246.669 278.324 246.579 278.336 246.491C278.334 246.459 278.341 246.427 278.356 246.399C278.371 246.37 278.393 246.346 278.42 246.33C278.742 246.162 279.778 246.645 280.513 247.1V247.072Z" fill="#FF0400"/>
<path d="M280.87 247.261C280.893 247.267 280.917 247.267 280.94 247.261C280.959 247.248 280.975 247.23 280.986 247.209C280.997 247.189 281.003 247.165 281.003 247.142C281.003 247.072 280.863 245.448 280.205 244.916C280.128 244.848 280.038 244.798 279.94 244.769C279.842 244.74 279.739 244.733 279.638 244.748C279.539 244.748 279.443 244.782 279.366 244.844C279.29 244.907 279.237 244.994 279.218 245.091C279.099 245.721 280.226 246.953 280.807 247.268L280.87 247.261ZM279.736 245C279.848 244.999 279.955 245.042 280.037 245.119C280.432 245.623 280.664 246.236 280.702 246.876C280.128 246.435 279.407 245.476 279.477 245.14C279.477 245.105 279.477 245.021 279.673 245H279.736V245Z" fill="#FF0400"/>
<path d="M230.772 242.2C230.796 242.199 230.819 242.192 230.84 242.18C230.861 242.168 230.878 242.15 230.891 242.13C230.906 242.107 230.914 242.08 230.914 242.053C230.914 242.026 230.906 241.999 230.891 241.976C230.695 241.766 228.938 239.946 228.168 240.079C228.096 240.092 228.028 240.123 227.972 240.17C227.916 240.216 227.872 240.277 227.846 240.345C227.789 240.453 227.76 240.573 227.76 240.695C227.76 240.817 227.789 240.937 227.846 241.045C228.252 241.745 229.841 242.081 230.758 242.207L230.772 242.2ZM228.238 240.338C228.686 240.338 229.694 241.178 230.394 241.871C229.155 241.661 228.294 241.311 228.07 240.905C228.032 240.835 228.012 240.757 228.012 240.677C228.012 240.598 228.032 240.52 228.07 240.45C228.077 240.422 228.092 240.398 228.113 240.379C228.134 240.36 228.161 240.348 228.189 240.345L228.238 240.338Z" fill="#FF0400"/>
<path d="M230.77 242.2H230.805C230.828 242.195 230.849 242.182 230.865 242.165C230.881 242.147 230.892 242.126 230.896 242.102C230.896 242.039 231.267 240.562 230.784 239.771C230.715 239.657 230.625 239.559 230.518 239.481C230.411 239.402 230.29 239.346 230.161 239.316V239.316C229.797 239.232 229.643 239.372 229.566 239.505C229.265 240.072 230.133 241.661 230.679 242.172C230.705 242.192 230.737 242.202 230.77 242.2ZM229.958 239.547H230.098C230.193 239.568 230.282 239.609 230.361 239.667C230.439 239.725 230.504 239.798 230.553 239.883C230.792 240.481 230.839 241.14 230.686 241.766C230.168 241.143 229.622 239.946 229.804 239.603C229.811 239.631 229.846 239.575 229.958 239.575V239.547Z" fill="#FF0400"/>
<path d="M290.552 77.8889C291.105 78.9039 291.56 79.7999 292.008 80.7659C292.456 81.7319 292.89 82.6769 293.317 83.6359C294.143 85.5679 294.913 87.5349 295.592 89.5369C296.271 91.5389 296.873 93.5969 297.384 95.6899L297.741 97.2789L298.035 98.8959C298.14 99.4279 298.203 99.9879 298.28 100.541L298.385 101.367V101.57L298.42 101.913C298.42 102.179 298.42 102.41 298.42 102.613C298.36 104.085 298.02 105.532 297.419 106.876C296.959 107.956 296.424 109.001 295.816 110.005C294.692 111.847 293.448 113.612 292.092 115.29C289.479 118.541 286.617 121.584 283.531 124.39L280.395 121.59C282.642 118.349 284.868 115.003 286.87 111.692C287.855 110.079 288.755 108.416 289.565 106.708C289.929 105.942 290.24 105.151 290.496 104.342C290.684 103.822 290.777 103.271 290.769 102.718C290.769 102.718 290.769 102.683 290.769 102.718C290.769 102.753 290.769 102.76 290.769 102.683L290.734 102.522L290.587 101.822C290.489 101.381 290.405 100.94 290.279 100.492L289.929 99.1479L289.53 97.8039C288.97 96.0119 288.347 94.2129 287.647 92.4209C286.947 90.6289 286.205 88.8509 285.421 87.0799C285.029 86.1909 284.637 85.3089 284.224 84.4339L283.027 81.8999L290.552 77.8889Z" fill="#FF8B7B"/>
<path d="M289.493 74.676C294.512 76.587 297.893 88.718 297.893 88.718L287.519 99.078C287.519 99.078 283.039 90.097 281.219 83.398C279.252 76.097 283.41 72.366 289.493 74.676Z" fill="#263238"/>
<path d="M281.675 120.757L276.264 122.542L281.164 127.799C281.164 127.799 285.434 125.251 284.342 122.836L281.675 120.757Z" fill="#FF8B7B"/>
<path d="M273.631 126.434L277.88 130.585L281.149 127.799L276.256 122.542L273.631 126.434Z" fill="#FF8B7B"/>
</svg>
