<svg width="778" height="580" viewBox="0 0 778 580" fill="none" xmlns="http://www.w3.org/2000/svg">
<path d="M777.844 509.333H0V509.721H777.844V509.333Z" fill="#EBEBEB"/>
<path d="M699.904 534.363H648.38V534.752H699.904V534.363Z" fill="#EBEBEB"/>
<path d="M515.276 538.595H501.757V538.984H515.276V538.595Z" fill="#EBEBEB"/>
<path d="M646.824 519.927H616.971V520.316H646.824V519.927Z" fill="#EBEBEB"/>
<path d="M148.801 522.54H81.6104V522.929H148.801V522.54Z" fill="#EBEBEB"/>
<path d="M172.51 522.54H162.662V522.929H172.51V522.54Z" fill="#EBEBEB"/>
<path d="M350.263 529.105H204.526V529.494H350.263V529.105Z" fill="#EBEBEB"/>
<path d="M368.699 439.949H68.3108C65.9576 439.945 63.7021 439.007 62.0396 437.342C60.3771 435.676 59.4434 433.419 59.4434 431.066V8.8052C59.4638 6.46548 60.4066 4.22833 62.0669 2.57967C63.7272 0.931015 65.971 0.00400806 68.3108 0H368.699C371.055 0 373.314 0.935883 374.98 2.60177C376.646 4.26765 377.582 6.52707 377.582 8.88298V431.066C377.582 433.422 376.646 435.681 374.98 437.347C373.314 439.013 371.055 439.949 368.699 439.949ZM68.3108 0.311139C66.0607 0.31526 63.9042 1.21198 62.3146 2.80448C60.7251 4.39698 59.8323 6.55513 59.8323 8.8052V431.066C59.8323 433.316 60.7251 435.474 62.3146 437.066C63.9042 438.659 66.0607 439.556 68.3108 439.56H368.699C370.95 439.556 373.108 438.66 374.7 437.067C376.292 435.475 377.189 433.317 377.193 431.066V8.8052C377.189 6.5537 376.292 4.39559 374.7 2.80353C373.108 1.21148 370.95 0.315251 368.699 0.311139H68.3108Z" fill="#EBEBEB"/>
<path d="M705.209 439.949H404.806C402.451 439.945 400.194 439.007 398.529 437.342C396.864 435.677 395.927 433.42 395.923 431.066V8.8052C395.947 6.46406 396.894 4.22693 398.556 2.5787C400.219 0.930471 402.465 0.00396435 404.806 0H705.209C707.546 0.00809658 709.786 0.936912 711.443 2.58513C713.1 4.23335 714.041 6.46817 714.061 8.8052V431.066C714.061 433.416 713.13 435.671 711.47 437.336C709.811 439.001 707.56 439.941 705.209 439.949ZM404.806 0.311139C402.554 0.315251 400.396 1.21148 398.804 2.80353C397.212 4.39559 396.316 6.5537 396.312 8.8052V431.066C396.316 433.317 397.212 435.475 398.804 437.067C400.396 438.66 402.554 439.556 404.806 439.56H705.209C707.461 439.556 709.619 438.66 711.211 437.067C712.803 435.475 713.699 433.317 713.703 431.066V8.8052C713.699 6.5537 712.803 4.39559 711.211 2.80353C709.619 1.21148 707.461 0.315251 705.209 0.311139H404.806Z" fill="#EBEBEB"/>
<path d="M675.138 57.0161H85.8896V262.803H675.138V57.0161Z" fill="#E6E6E6"/>
<path d="M683.04 57.0161H89.5762V262.803H683.04V57.0161Z" fill="#F0F0F0"/>
<path d="M675.138 262.803H85.8896V270.13H675.138V262.803Z" fill="#E6E6E6"/>
<path d="M687.77 262.803H94.3057V270.13H687.77V262.803Z" fill="#F0F0F0"/>
<path d="M671.979 251.757V68.061L100.622 68.061V251.757L671.979 251.757Z" fill="#FAFAFA"/>
<path d="M464 251.757L481.688 68.061H512.304L494.6 251.757H464Z" fill="white"/>
<path d="M283.321 251.757L301.009 68.061H331.61L313.922 251.757H283.321Z" fill="white"/>
<path d="M108.151 222.23C107.862 222.23 107.585 222.115 107.38 221.911C107.176 221.707 107.062 221.43 107.062 221.141V75.4977C107.062 75.2089 107.176 74.9319 107.38 74.7276C107.585 74.5234 107.862 74.4087 108.151 74.4087C108.439 74.4087 108.716 74.5234 108.921 74.7276C109.125 74.9319 109.239 75.2089 109.239 75.4977V221.141C109.239 221.43 109.125 221.707 108.921 221.911C108.716 222.115 108.439 222.23 108.151 222.23Z" fill="#F0F0F0"/>
<path d="M501.181 251.757L518.869 68.061H530.801L513.113 251.757H501.181Z" fill="white"/>
<path d="M671.995 251.773V68.0771H670.595V251.773H671.995Z" fill="#E6E6E6"/>
<path opacity="0.5" d="M685.654 81.378H96.4057L95.3789 72.355H684.627L685.654 81.378Z" fill="#E0E0E0"/>
<path opacity="0.5" d="M685.654 96.1886H96.4057L95.3789 87.1812H684.627L685.654 96.1886Z" fill="#E0E0E0"/>
<path opacity="0.5" d="M685.654 111.014H96.4057L95.3789 101.991H684.627L685.654 111.014Z" fill="#E0E0E0"/>
<path opacity="0.5" d="M685.654 125.824H96.4057L95.3789 116.816H684.627L685.654 125.824Z" fill="#E0E0E0"/>
<path opacity="0.5" d="M685.654 140.634H96.4057L95.3789 131.627H684.627L685.654 140.634Z" fill="#E0E0E0"/>
<path opacity="0.5" d="M685.654 155.46H96.4057L95.3789 146.437H684.627L685.654 155.46Z" fill="#E0E0E0"/>
<path d="M456.113 446.109H544.787C546.178 446.105 547.51 445.552 548.495 444.57C549.48 443.588 550.037 442.257 550.045 440.867C550.041 439.473 549.486 438.138 548.501 437.153C547.515 436.168 546.18 435.613 544.787 435.608H456.113C454.719 435.613 453.384 436.168 452.399 437.153C451.414 438.138 450.859 439.473 450.854 440.867C450.863 442.257 451.42 443.588 452.405 444.57C453.389 445.552 454.722 446.105 456.113 446.109Z" fill="#EBEBEB"/>
<path d="M558.228 435.608H561.183L572.431 362.227H569.475L558.228 435.608Z" fill="#E0E0E0"/>
<path d="M513.237 435.608H516.178L527.425 362.227H524.485L513.237 435.608Z" fill="#E0E0E0"/>
<path d="M513.112 420.86H570.937C572.871 420.797 574.724 420.068 576.182 418.794C577.639 417.521 578.611 415.783 578.933 413.875L587.754 352.597C587.915 351.73 587.879 350.839 587.651 349.988C587.422 349.137 587.007 348.348 586.434 347.679C585.861 347.009 585.146 346.476 584.341 346.118C583.536 345.761 582.661 345.588 581.78 345.612H523.94C522.006 345.674 520.153 346.404 518.695 347.677C517.238 348.95 516.266 350.688 515.944 352.597L507.154 413.813C506.986 414.682 507.016 415.578 507.24 416.434C507.464 417.29 507.876 418.086 508.448 418.761C509.019 419.437 509.735 419.977 510.542 420.34C511.349 420.703 512.227 420.881 513.112 420.86Z" fill="#EBEBEB"/>
<path d="M521.654 446.109H562.211C563.6 446.105 564.931 445.552 565.913 444.569C566.896 443.587 567.449 442.256 567.453 440.867C567.449 439.476 566.896 438.143 565.914 437.158C564.932 436.174 563.601 435.617 562.211 435.608H521.654C520.262 435.613 518.928 436.168 517.946 437.154C516.963 438.14 516.411 439.475 516.411 440.867C516.415 442.256 516.969 443.587 517.951 444.569C518.934 445.552 520.265 446.105 521.654 446.109Z" fill="#F5F5F5"/>
<path d="M499.578 509.333H502.534L513.782 446.109H510.826L499.578 509.333Z" fill="#E0E0E0"/>
<path d="M448.459 509.333H451.399L462.647 446.109H459.707L448.459 509.333Z" fill="#E0E0E0"/>
<path d="M519.367 509.333H516.426L505.179 446.109H508.119L519.367 509.333Z" fill="#E0E0E0"/>
<path d="M570.502 509.333H567.546L556.299 446.109H559.255L570.502 509.333Z" fill="#E0E0E0"/>
<path d="M192.765 446.109H104.231C102.84 446.105 101.508 445.552 100.523 444.57C99.538 443.588 98.9809 442.257 98.9727 440.867C98.9727 439.471 99.5261 438.131 100.512 437.143C101.497 436.154 102.835 435.597 104.231 435.593H192.905C194.298 435.597 195.634 436.152 196.619 437.137C197.604 438.123 198.159 439.458 198.163 440.851C198.161 441.553 198.02 442.247 197.746 442.894C197.472 443.54 197.072 444.125 196.569 444.615C196.067 445.104 195.471 445.489 194.818 445.745C194.165 446.002 193.467 446.126 192.765 446.109Z" fill="#EBEBEB"/>
<path d="M90.6497 435.608H87.6939L76.4463 362.227H79.4021L90.6497 435.608Z" fill="#E0E0E0"/>
<path d="M135.641 435.608H132.701L121.453 362.227H124.393L135.641 435.608Z" fill="#E0E0E0"/>
<path d="M135.78 420.86H77.9861C76.0456 420.791 74.1892 420.051 72.7337 418.766C71.2783 417.481 70.3139 415.73 70.0054 413.813L61.1846 352.535C61.0243 351.668 61.0597 350.777 61.2881 349.926C61.5165 349.075 61.9323 348.286 62.5049 347.617C63.0775 346.947 63.7925 346.414 64.5977 346.056C65.4029 345.699 66.2778 345.526 67.1585 345.55H124.937C126.871 345.612 128.724 346.342 130.181 347.615C131.639 348.888 132.611 350.626 132.933 352.535L141.754 413.813C141.922 414.684 141.892 415.581 141.667 416.438C141.442 417.296 141.028 418.092 140.455 418.768C139.882 419.444 139.164 419.983 138.355 420.345C137.546 420.707 136.666 420.883 135.78 420.86Z" fill="#EBEBEB"/>
<path d="M127.224 446.109H86.6675C85.2783 446.105 83.9472 445.551 82.9649 444.569C81.9826 443.587 81.4289 442.256 81.4248 440.867C81.4248 439.473 81.9761 438.137 82.9584 437.148C83.9407 436.16 85.2742 435.601 86.6675 435.593H127.224C128.616 435.597 129.95 436.153 130.932 437.138C131.915 438.124 132.467 439.459 132.467 440.851C132.467 442.243 131.915 443.578 130.932 444.564C129.95 445.549 128.616 446.105 127.224 446.109Z" fill="#F5F5F5"/>
<path d="M149.3 509.333H146.344L135.097 446.109H138.052L149.3 509.333Z" fill="#E0E0E0"/>
<path d="M200.419 509.333H197.479L186.216 446.109H189.172L200.419 509.333Z" fill="#E0E0E0"/>
<path d="M129.511 509.333H132.451L143.699 446.109H140.758L129.511 509.333Z" fill="#E0E0E0"/>
<path d="M78.376 509.333H81.3318L92.5794 446.109H89.6236L78.376 509.333Z" fill="#E0E0E0"/>
<path d="M552.16 446.109H463.595C462.205 446.105 460.872 445.552 459.887 444.57C458.902 443.588 458.345 442.257 458.337 440.867C458.337 439.471 458.89 438.131 459.876 437.143C460.862 436.154 462.199 435.597 463.595 435.593H552.269C553.663 435.597 554.998 436.152 555.983 437.137C556.968 438.123 557.524 439.458 557.528 440.851C557.526 441.55 557.385 442.242 557.113 442.886C556.841 443.53 556.444 444.114 555.945 444.603C555.445 445.093 554.853 445.478 554.204 445.736C553.554 445.995 552.86 446.122 552.16 446.109Z" fill="#EBEBEB"/>
<path d="M450.03 435.608H447.089L435.842 362.227H438.782L450.03 435.608Z" fill="#E0E0E0"/>
<path d="M495.036 435.608H492.081L480.833 362.227H483.789L495.036 435.608Z" fill="#E0E0E0"/>
<path d="M495.161 420.86H437.382C435.436 420.802 433.57 420.065 432.108 418.779C430.645 417.493 429.677 415.737 429.371 413.813L420.55 352.535C420.39 351.668 420.425 350.777 420.653 349.926C420.882 349.075 421.298 348.286 421.87 347.617C422.443 346.947 423.158 346.414 423.963 346.056C424.768 345.699 425.643 345.526 426.524 345.55H484.302C486.237 345.609 488.091 346.338 489.549 347.612C491.007 348.885 491.979 350.625 492.298 352.535L501.135 413.813C501.305 414.684 501.278 415.582 501.054 416.441C500.831 417.3 500.417 418.097 499.843 418.774C499.269 419.451 498.55 419.99 497.74 420.351C496.929 420.712 496.048 420.886 495.161 420.86Z" fill="#EBEBEB"/>
<path d="M486.62 446.109H446.063C444.672 446.105 443.34 445.552 442.355 444.57C441.37 443.588 440.813 442.257 440.805 440.867C440.809 439.473 441.364 438.138 442.349 437.153C443.335 436.168 444.67 435.613 446.063 435.608H486.62C488.01 435.617 489.341 436.174 490.323 437.158C491.305 438.143 491.858 439.476 491.862 440.867C491.858 442.256 491.305 443.587 490.322 444.569C489.34 445.552 488.009 446.105 486.62 446.109Z" fill="#F5F5F5"/>
<path d="M508.695 509.333H505.739L494.491 446.109H497.431L508.695 509.333Z" fill="#E0E0E0"/>
<path d="M559.815 509.333H556.859L545.611 446.109H548.567L559.815 509.333Z" fill="#E0E0E0"/>
<path d="M488.891 509.333H491.846L503.094 446.109H500.138L488.891 509.333Z" fill="#E0E0E0"/>
<path d="M437.771 509.333H440.711L451.974 446.109H449.018L437.771 509.333Z" fill="#E0E0E0"/>
<path d="M588.922 446.109H677.597C678.987 446.105 680.32 445.552 681.305 444.57C682.289 443.588 682.847 442.257 682.855 440.867C682.851 439.473 682.295 438.138 681.31 437.153C680.325 436.168 678.99 435.613 677.597 435.608H588.922C587.529 435.613 586.194 436.168 585.209 437.153C584.223 438.138 583.668 439.473 583.664 440.867C583.672 442.257 584.229 443.588 585.214 444.57C586.199 445.552 587.532 446.105 588.922 446.109Z" fill="#EBEBEB"/>
<path d="M691.037 435.608H693.993L705.241 362.227H702.3L691.037 435.608Z" fill="#E0E0E0"/>
<path d="M646.047 435.608H648.987L660.25 362.227H657.295L646.047 435.608Z" fill="#E0E0E0"/>
<path d="M645.922 420.86H703.7C705.634 420.797 707.487 420.068 708.945 418.795C710.402 417.521 711.374 415.783 711.696 413.875L720.517 352.597C720.677 351.73 720.642 350.839 720.414 349.988C720.185 349.137 719.769 348.348 719.197 347.679C718.624 347.009 717.909 346.476 717.104 346.118C716.299 345.761 715.424 345.588 714.543 345.612H656.749C654.816 345.672 652.964 346.401 651.509 347.675C650.053 348.949 649.085 350.688 648.769 352.597L639.932 413.813C639.764 414.685 639.794 415.583 640.02 416.442C640.245 417.3 640.661 418.097 641.236 418.774C641.811 419.45 642.531 419.989 643.342 420.35C644.153 420.711 645.034 420.886 645.922 420.86Z" fill="#EBEBEB"/>
<path d="M654.462 446.109H695.019C696.408 446.105 697.739 445.552 698.722 444.569C699.704 443.587 700.258 442.256 700.262 440.867C700.262 439.475 699.71 438.14 698.727 437.154C697.745 436.168 696.411 435.613 695.019 435.608H654.462C653.072 435.617 651.741 436.174 650.759 437.158C649.777 438.143 649.224 439.476 649.22 440.867C649.224 442.256 649.777 443.587 650.76 444.569C651.742 445.552 653.073 446.105 654.462 446.109Z" fill="#F5F5F5"/>
<path d="M632.388 509.333H635.343L646.591 446.109H643.651L632.388 509.333Z" fill="#E0E0E0"/>
<path d="M581.268 509.333H584.223L595.471 446.109H592.515L581.268 509.333Z" fill="#E0E0E0"/>
<path d="M652.192 509.333H649.236L637.988 446.109H640.944L652.192 509.333Z" fill="#E0E0E0"/>
<path d="M703.311 509.333H700.355L689.107 446.109H692.063L703.311 509.333Z" fill="#E0E0E0"/>
<path d="M240.899 446.109H329.573C330.964 446.105 332.296 445.552 333.281 444.57C334.266 443.588 334.823 442.257 334.831 440.867C334.827 439.473 334.272 438.138 333.287 437.153C332.301 436.168 330.966 435.613 329.573 435.608H240.899C239.506 435.613 238.17 436.168 237.185 437.153C236.2 438.138 235.645 439.473 235.641 440.867C235.649 442.257 236.206 443.588 237.191 444.57C238.175 445.552 239.508 446.105 240.899 446.109Z" fill="#EBEBEB"/>
<path d="M343.029 435.608H345.97L357.217 362.227H354.277L343.029 435.608Z" fill="#E0E0E0"/>
<path d="M298.023 435.608H300.979L312.227 362.227H309.271L298.023 435.608Z" fill="#E0E0E0"/>
<path d="M297.898 420.86H355.677C357.611 420.797 359.464 420.068 360.921 418.795C362.379 417.521 363.351 415.783 363.673 413.875L372.494 352.597C372.654 351.73 372.619 350.839 372.39 349.988C372.162 349.137 371.746 348.348 371.173 347.679C370.601 347.009 369.886 346.476 369.081 346.118C368.275 345.761 367.401 345.588 366.52 345.612H308.726C306.793 345.672 304.94 346.401 303.485 347.675C302.03 348.949 301.061 350.688 300.745 352.597L291.909 413.813C291.741 414.685 291.771 415.583 291.996 416.442C292.222 417.3 292.638 418.097 293.213 418.774C293.787 419.45 294.507 419.989 295.318 420.35C296.129 420.711 297.011 420.886 297.898 420.86Z" fill="#EBEBEB"/>
<path d="M306.471 446.109H347.028C348.419 446.105 349.751 445.552 350.736 444.57C351.721 443.588 352.278 442.257 352.286 440.867C352.282 439.473 351.727 438.138 350.742 437.153C349.756 436.168 348.421 435.613 347.028 435.608H306.471C305.081 435.617 303.749 436.174 302.768 437.158C301.786 438.143 301.233 439.476 301.229 440.867C301.233 442.256 301.786 443.587 302.769 444.569C303.751 445.552 305.082 446.105 306.471 446.109Z" fill="#F5F5F5"/>
<path d="M284.364 509.333H287.32L298.568 446.109H295.627L284.364 509.333Z" fill="#E0E0E0"/>
<path d="M233.244 509.333H236.2L247.448 446.109H244.492L233.244 509.333Z" fill="#E0E0E0"/>
<path d="M304.168 509.333H301.212L289.965 446.109H292.921L304.168 509.333Z" fill="#E0E0E0"/>
<path d="M355.288 509.333H352.348L341.085 446.109H344.041L355.288 509.333Z" fill="#E0E0E0"/>
<path d="M388.922 579.587C555.509 579.587 690.555 571.703 690.555 561.977C690.555 552.251 555.509 544.367 388.922 544.367C222.335 544.367 87.29 552.251 87.29 561.977C87.29 571.703 222.335 579.587 388.922 579.587Z" fill="#F5F5F5"/>
<path d="M346.919 292.19C347.23 300.933 332.077 320.472 332.077 320.472C332.077 320.472 315.571 302.068 315.26 293.325C314.949 284.582 319.725 277.317 330.522 276.928C341.318 276.539 346.654 283.447 346.919 292.19Z" fill="#E71A1A"/>
<path d="M332.668 292.734H331.61V524.78H332.668V292.734Z" fill="#263238"/>
<path d="M305.366 517.78C304.875 517.777 304.388 517.882 303.942 518.088C303.495 518.294 303.099 518.595 302.782 518.97C302.465 519.345 302.233 519.786 302.105 520.26C301.976 520.735 301.953 521.231 302.037 521.716C304.293 533.943 316.909 543.309 332.14 543.309C347.37 543.309 359.971 533.975 362.227 521.716C362.313 521.232 362.293 520.736 362.166 520.261C362.039 519.787 361.809 519.346 361.493 518.97C361.177 518.595 360.782 518.293 360.336 518.087C359.89 517.882 359.404 517.777 358.913 517.78H305.366Z" fill="#E71A1A"/>
<path d="M323.739 339.576C318.143 333.857 311.239 329.586 303.624 327.13C297.277 333.649 303.36 342.594 323.739 339.576Z" fill="#E71A1A"/>
<path d="M331.828 350.683C326.943 341.878 316.271 331.284 303.53 327.441L303.733 326.757C316.707 330.646 327.503 341.411 332.451 350.341L331.828 350.683Z" fill="#263238"/>
<path d="M320.674 400.014C320.674 379.012 305.382 373.178 293.216 382.979C284.567 391.924 292.75 404.121 320.674 400.014C318.592 397.936 316.39 395.983 314.078 394.165C316.39 395.983 318.592 397.936 320.674 400.014Z" fill="#E71A1A"/>
<path d="M331.829 415.104C325.155 403.063 310.593 388.564 293.123 383.322L293.325 382.637C310.998 387.942 325.715 402.581 332.451 414.762L331.829 415.104Z" fill="#263238"/>
<path d="M342.905 365.898C350.07 358.542 358.925 353.052 368.699 349.905C376.773 358.306 369.088 369.756 342.905 365.898Z" fill="#E71A1A"/>
<path d="M332.451 380.071L331.829 379.728C338.161 368.294 351.96 354.542 368.559 349.563L368.761 350.248C352.364 355.18 338.705 368.776 332.451 380.071Z" fill="#263238"/>
<path d="M343.465 426.897C351.319 416.269 361.654 407.724 373.567 402.006C385.36 411.402 377.534 427.317 343.465 426.897Z" fill="#E71A1A"/>
<path d="M332.467 446.732L331.798 446.483C337.912 430.833 353.142 410.951 373.413 401.757L373.708 402.41C353.624 411.511 338.518 431.237 332.467 446.732Z" fill="#263238"/>
<path d="M254.043 484.27H148.521C146.87 484.27 145.287 483.615 144.12 482.448C142.953 481.281 142.298 479.698 142.298 478.047C142.298 476.397 142.953 474.814 144.12 473.647C145.287 472.48 146.87 471.825 148.521 471.825H254.043C255.693 471.825 257.276 472.48 258.443 473.647C259.61 474.814 260.266 476.397 260.266 478.047C260.266 479.698 259.61 481.281 258.443 482.448C257.276 483.615 255.693 484.27 254.043 484.27Z" fill="#E71A1A"/>
<path d="M132.435 471.762H128.935L115.54 384.364H119.04L132.435 471.762Z" fill="#263238"/>
<path d="M186.028 471.762H182.512L169.117 384.364H172.633L186.028 471.762Z" fill="#263238"/>
<path d="M186.168 454.261H117.36C115.057 454.188 112.851 453.318 111.118 451.801C109.385 450.283 108.232 448.211 107.855 445.938L97.3383 372.977C97.1508 371.944 97.1956 370.883 97.4696 369.87C97.7436 368.857 98.2398 367.918 98.9221 367.121C99.6045 366.324 100.456 365.689 101.414 365.262C102.373 364.835 103.414 364.627 104.463 364.654H173.271C175.575 364.729 177.782 365.599 179.517 367.116C181.252 368.633 182.409 370.704 182.792 372.977L193.293 445.938C193.481 446.971 193.436 448.032 193.162 449.045C192.888 450.058 192.392 450.997 191.709 451.794C191.027 452.591 190.176 453.226 189.217 453.653C188.259 454.079 187.217 454.287 186.168 454.261Z" fill="#E71A1A"/>
<path opacity="0.4" d="M97.3385 372.914L107.855 445.876C108.12 447.643 108.88 449.299 110.049 450.652C112.569 453.623 117.049 452.005 116.52 448.38L105.304 370.409C104.775 366.785 99.8276 365.182 98.1631 368.138C97.376 369.598 97.0865 371.275 97.3385 372.914Z" fill="white"/>
<path d="M175.994 484.27H127.768C126.117 484.27 124.535 483.615 123.368 482.448C122.201 481.281 121.545 479.698 121.545 478.047C121.545 476.397 122.201 474.814 123.368 473.647C124.535 472.48 126.117 471.825 127.768 471.825H175.994C177.644 471.825 179.227 472.48 180.394 473.647C181.561 474.814 182.217 476.397 182.217 478.047C182.217 479.698 181.561 481.281 180.394 482.448C179.227 483.615 177.644 484.27 175.994 484.27Z" fill="#E71A1A"/>
<path opacity="0.4" d="M175.994 484.27H127.768C126.117 484.27 124.535 483.615 123.368 482.448C122.201 481.281 121.545 479.698 121.545 478.047C121.545 476.397 122.201 474.814 123.368 473.647C124.535 472.48 126.117 471.825 127.768 471.825H175.994C177.644 471.825 179.227 472.48 180.394 473.647C181.561 474.814 182.217 476.397 182.217 478.047C182.217 479.698 181.561 481.281 180.394 482.448C179.227 483.615 177.644 484.27 175.994 484.27Z" fill="white"/>
<path d="M202.285 559.534H198.769L185.375 484.27H188.875L202.285 559.534Z" fill="#263238"/>
<path d="M263.159 559.534H259.644L246.249 484.27H249.765L263.159 559.534Z" fill="#263238"/>
<path d="M178.716 559.534H182.216L195.611 484.27H192.11L178.716 559.534Z" fill="#263238"/>
<path d="M117.827 559.534H121.343L134.737 484.27H131.237L117.827 559.534Z" fill="#263238"/>
<path d="M298.334 487.226L280.988 494.771L290.929 506.377L305.444 500.092L298.334 487.226Z" fill="#7F3E3B"/>
<path opacity="0.2" d="M298.333 487.242L280.972 494.787L286.557 501.29L302.316 494.444L298.333 487.242Z" fill="black"/>
<path d="M287.88 511.977L289.855 511.604C290.435 511.49 290.977 511.235 291.433 510.86C291.889 510.485 292.245 510.003 292.469 509.457L293.713 510.095C294.426 510.449 295.233 510.564 296.016 510.421L322.991 505.163C322.775 503.303 322.072 501.532 320.953 500.029C320.953 500.029 308.99 501.694 305.63 498.754C305.507 498.639 305.355 498.56 305.19 498.527C305.025 498.494 304.854 498.508 304.697 498.567C302.503 499.5 293.807 502.939 288.424 502.238C288.256 502.221 288.087 502.243 287.929 502.303C287.771 502.363 287.63 502.458 287.515 502.582C287.4 502.705 287.316 502.854 287.269 503.016C287.221 503.178 287.212 503.348 287.242 503.514C287.656 506.316 287.869 509.145 287.88 511.977Z" fill="#E71A1A"/>
<path d="M305.131 499.454H305.038C304.986 499.435 304.94 499.402 304.907 499.357C304.874 499.313 304.854 499.26 304.851 499.205C304.742 497.447 305.582 494.211 306.765 493.651C306.946 493.568 307.149 493.545 307.344 493.584C307.54 493.623 307.718 493.723 307.854 493.869C307.978 493.979 308.076 494.117 308.141 494.27C308.205 494.423 308.235 494.589 308.227 494.755C308.227 496.451 305.458 499.267 305.334 499.422C305.272 499.457 305.2 499.468 305.131 499.454ZM307.169 494.118H307.014C306.267 494.475 305.536 496.731 305.458 498.411C306.36 497.416 307.714 495.704 307.698 494.709C307.697 494.621 307.679 494.535 307.644 494.455C307.61 494.375 307.559 494.302 307.496 494.242C307.454 494.199 307.403 494.166 307.346 494.144C307.29 494.123 307.229 494.114 307.169 494.118Z" fill="#E71A1A"/>
<path d="M307.698 499.656C306.824 499.65 305.95 499.582 305.085 499.453C305.029 499.443 304.978 499.417 304.936 499.379C304.895 499.34 304.866 499.29 304.852 499.236C304.842 499.181 304.847 499.125 304.866 499.073C304.885 499.021 304.918 498.975 304.96 498.94C306.298 497.835 309.425 496.591 310.561 497.229C310.735 497.328 310.875 497.478 310.961 497.659C311.047 497.839 311.076 498.042 311.043 498.24C310.993 498.57 310.814 498.866 310.545 499.064C309.67 499.523 308.684 499.728 307.698 499.656ZM305.894 498.971C307.337 499.245 308.828 499.116 310.203 498.598C310.275 498.548 310.336 498.483 310.382 498.408C310.428 498.333 310.457 498.249 310.468 498.162C310.468 497.882 310.468 497.789 310.296 497.727C309.581 497.338 307.31 498.069 305.894 498.971Z" fill="#E71A1A"/>
<path d="M142.407 432.606L149.843 448.162C160.811 471.14 187.849 482.699 209.426 473.66C222.027 468.355 235.78 457.201 245.207 452.098C253.219 469.631 268.2 488.999 279.666 502.456L302.877 490.788C294.211 470.891 280.708 439.839 272.152 419.662C270.617 416.105 268.112 413.051 264.924 410.85C261.735 408.649 257.992 407.39 254.121 407.217C215.478 406.112 142.407 432.606 142.407 432.606Z" fill="#263238"/>
<path d="M255.178 538.159L236.276 537.272L240.088 552.083L255.878 552.829L255.178 538.159Z" fill="#7F3E3B"/>
<path opacity="0.2" d="M255.179 538.159L236.262 537.272L238.393 545.564L255.568 546.373L255.179 538.159Z" fill="black"/>
<path d="M237.179 559.877H239.201C239.788 559.881 240.367 559.742 240.888 559.47C241.409 559.199 241.855 558.805 242.188 558.321L243.277 559.161C243.906 559.658 244.685 559.927 245.486 559.923H272.944C273.093 558.056 272.744 556.183 271.933 554.494C271.933 554.494 259.876 553.841 257.138 550.309C257.043 550.172 256.91 550.066 256.755 550.005C256.6 549.944 256.43 549.931 256.267 549.967C253.933 550.449 244.802 552.176 239.59 550.449C239.428 550.398 239.256 550.386 239.088 550.413C238.921 550.44 238.761 550.507 238.624 550.606C238.486 550.706 238.374 550.837 238.296 550.988C238.218 551.139 238.176 551.306 238.174 551.476C238.046 554.297 237.713 557.104 237.179 559.877Z" fill="#E71A1A"/>
<path d="M256.579 550.885C256.528 550.899 256.474 550.899 256.423 550.885C256.377 550.855 256.341 550.813 256.319 550.763C256.297 550.714 256.29 550.658 256.299 550.605C256.532 548.878 257.963 545.844 259.239 545.533C259.431 545.483 259.634 545.495 259.818 545.567C260.003 545.64 260.16 545.77 260.266 545.938C260.364 546.073 260.432 546.227 260.467 546.391C260.502 546.554 260.502 546.723 260.468 546.887C260.172 548.567 256.874 550.791 256.734 550.885C256.683 550.9 256.629 550.9 256.579 550.885ZM259.472 546.015H259.379C258.57 546.218 257.434 548.302 256.999 549.92C258.088 549.127 259.721 547.711 259.908 546.715C259.926 546.629 259.925 546.541 259.907 546.455C259.888 546.369 259.851 546.288 259.799 546.218C259.764 546.163 259.715 546.119 259.658 546.089C259.601 546.059 259.537 546.044 259.472 546.047V546.015Z" fill="#E71A1A"/>
<path d="M260.67 551.741C259.24 551.651 257.831 551.357 256.485 550.869C256.433 550.851 256.387 550.818 256.354 550.773C256.321 550.729 256.301 550.676 256.298 550.621C256.293 550.565 256.303 550.51 256.328 550.46C256.353 550.411 256.391 550.369 256.438 550.341C257.994 549.516 261.276 548.894 262.272 549.734C262.429 549.858 262.542 550.03 262.593 550.223C262.643 550.417 262.629 550.622 262.552 550.807C262.497 550.965 262.411 551.109 262.299 551.232C262.187 551.355 262.05 551.454 261.899 551.523C261.509 551.683 261.09 551.757 260.67 551.741ZM257.356 550.558C258.72 551.096 260.204 551.252 261.65 551.009C261.812 550.935 261.94 550.802 262.008 550.636C262.085 550.372 262.008 550.247 261.914 550.169C261.354 549.64 258.927 549.936 257.356 550.558Z" fill="#E71A1A"/>
<path d="M131.594 426.445L131.718 442.889C131.92 467.142 152.456 474.189 177.035 476.041C191.363 477.099 210.732 477.425 221.901 477.207C223.535 494.196 228.84 528.81 234.176 543.309L258.32 541.629C258.958 521.047 259.876 491.846 260.669 472.494C260.7 468.627 259.628 464.831 257.578 461.552C255.528 458.273 252.585 455.647 249.095 453.981C212.894 436.122 131.594 426.445 131.594 426.445Z" fill="#263238"/>
<path opacity="0.2" d="M246.094 454.136C250.228 462.438 255.024 470.392 260.437 477.923C260.313 481.314 260.188 484.923 260.048 488.657C251.507 475.169 246.047 454.105 246.047 454.105L246.094 454.136Z" fill="black"/>
<path d="M210.375 331.47L211.931 332.264L213.86 333.228C215.182 333.835 216.52 334.457 217.874 335.002C220.509 336.098 223.211 337.028 225.963 337.786C228.511 338.474 231.113 338.937 233.742 339.171C236.075 339.351 238.422 339.236 240.727 338.829L236.06 341.629C237.508 340.534 238.733 339.171 239.669 337.615C241.101 335.414 242.39 333.122 243.527 330.755C244.787 328.234 245.954 325.574 247.105 322.852L250.527 314.622L250.699 314.233C251.274 312.858 252.293 311.716 253.593 310.987C254.893 310.259 256.4 309.987 257.873 310.214C259.346 310.441 260.7 311.155 261.72 312.241C262.741 313.328 263.368 314.725 263.502 316.209C263.794 319.613 263.846 323.034 263.657 326.445C263.483 329.884 263.088 333.309 262.475 336.697C261.822 340.316 260.838 343.868 259.535 347.307C257.989 351.516 255.656 355.391 252.659 358.726C251.681 359.781 250.472 360.595 249.127 361.106L247.976 361.526C243.446 363.207 238.679 364.163 233.85 364.357C229.319 364.551 224.78 364.202 220.332 363.315C216.116 362.497 211.986 361.288 207.995 359.706C206.035 358.913 204.09 358.15 202.208 357.139C201.259 356.657 200.325 356.175 199.376 355.583L197.945 354.743L196.296 353.732C193.405 351.951 191.314 349.121 190.461 345.835C189.607 342.548 190.057 339.059 191.716 336.096C193.375 333.133 196.115 330.927 199.364 329.937C202.612 328.947 206.117 329.251 209.146 330.786L210.375 331.47Z" fill="#803E3C"/>
<path d="M255.691 322.245L250.464 316.66C247.446 309.255 257.652 307.03 257.652 307.03L262.132 303.919C262.957 303.437 263.926 303.262 264.868 303.424C265.81 303.586 266.665 304.076 267.281 304.806L270.937 308.68C271.736 309.431 272.21 310.465 272.256 311.561C272.303 312.657 271.919 313.728 271.186 314.544L267.779 317.811C266.787 318.763 265.573 319.453 264.248 319.818L255.691 322.245Z" fill="#7F3E3B"/>
<path d="M183.57 320.254C186.775 315.945 196.591 317.049 206.579 326.788C209.052 326.679 215.462 332.482 222.898 334.364C230.334 336.246 232.776 349.61 231.423 354.946C230.007 360.546 227.207 364.28 220.269 365.011C213.33 365.742 204.198 361.262 196.84 355.677C189.482 350.092 177.861 327.892 183.57 320.254Z" fill="#E71A1A"/>
<path d="M179.915 316.831C166.002 316.908 152.125 318.251 138.456 320.845C136.203 321.314 134.069 322.239 132.186 323.562C130.302 324.885 128.709 326.579 127.503 328.539C126.297 330.499 125.504 332.685 125.173 334.963C124.841 337.24 124.978 339.561 125.575 341.784C135.811 380.677 130.024 423.256 130.833 431.05C130.833 431.05 212.32 442.78 224.812 418.604C231.455 386.339 213.066 373.287 203.281 334.784C201.805 329.693 198.743 325.207 194.54 321.978C190.337 318.749 185.213 316.946 179.915 316.831Z" fill="#E71A1A"/>
<path opacity="0.8" d="M179.915 316.831C166.002 316.908 152.125 318.251 138.456 320.845C136.203 321.314 134.069 322.239 132.186 323.562C130.302 324.885 128.709 326.579 127.503 328.539C126.297 330.499 125.504 332.685 125.173 334.963C124.841 337.24 124.978 339.561 125.575 341.784C135.811 380.677 130.024 423.256 130.833 431.05C130.833 431.05 212.32 442.78 224.812 418.604C231.455 386.339 213.066 373.287 203.281 334.784C201.805 329.693 198.743 325.207 194.54 321.978C190.337 318.749 185.213 316.946 179.915 316.831Z" fill="white"/>
<g opacity="0.2">
<path opacity="0.2" d="M141.739 428.436C141.69 428.43 141.642 428.415 141.599 428.391C141.556 428.366 141.518 428.334 141.488 428.294C141.457 428.255 141.435 428.211 141.422 428.163C141.409 428.115 141.406 428.065 141.412 428.016C141.412 427.56 141.459 427.077 141.552 426.569C141.564 426.472 141.612 426.382 141.687 426.319C141.762 426.255 141.859 426.222 141.957 426.227C142.005 426.231 142.053 426.244 142.096 426.267C142.139 426.29 142.177 426.321 142.207 426.359C142.238 426.397 142.26 426.44 142.274 426.487C142.287 426.534 142.29 426.583 142.284 426.631C142.284 427.145 142.284 427.643 142.144 428.109C142.132 428.206 142.083 428.294 142.008 428.355C141.932 428.416 141.836 428.445 141.739 428.436Z" fill="#E71A1A"/>
<path opacity="0.2" d="M142.066 423.971C141.97 423.963 141.88 423.918 141.816 423.846C141.752 423.773 141.719 423.679 141.724 423.582C141.724 422.633 141.724 421.638 141.724 420.58C141.727 420.482 141.768 420.389 141.837 420.32C141.906 420.251 141.999 420.21 142.097 420.207C142.195 420.214 142.286 420.259 142.352 420.331C142.418 420.403 142.455 420.497 142.455 420.595C142.455 421.653 142.455 422.665 142.361 423.614C142.363 423.699 142.334 423.781 142.28 423.847C142.225 423.912 142.15 423.957 142.066 423.971ZM142.19 417.951C142.091 417.951 141.996 417.911 141.926 417.841C141.856 417.771 141.817 417.677 141.817 417.577V417.406C141.817 416.473 141.817 415.54 141.817 414.559C141.815 414.511 141.823 414.463 141.84 414.418C141.857 414.373 141.883 414.331 141.916 414.296C141.95 414.261 141.99 414.234 142.034 414.215C142.079 414.196 142.126 414.186 142.175 414.186C142.224 414.184 142.274 414.192 142.32 414.21C142.366 414.228 142.409 414.255 142.444 414.29C142.479 414.326 142.506 414.368 142.524 414.414C142.542 414.46 142.55 414.51 142.548 414.559C142.548 415.524 142.548 416.473 142.548 417.391V417.577C142.548 417.674 142.511 417.767 142.444 417.836C142.378 417.906 142.287 417.947 142.19 417.951ZM142.113 411.915C142.018 411.915 141.927 411.877 141.86 411.81C141.792 411.743 141.755 411.652 141.755 411.557C141.755 410.561 141.755 409.566 141.677 408.539C141.675 408.49 141.682 408.441 141.699 408.395C141.716 408.349 141.742 408.306 141.775 408.27C141.808 408.234 141.848 408.205 141.893 408.184C141.938 408.164 141.986 408.152 142.035 408.15C142.134 408.15 142.229 408.189 142.299 408.259C142.369 408.329 142.408 408.424 142.408 408.523C142.408 409.55 142.408 410.546 142.408 411.541C142.41 411.59 142.403 411.638 142.385 411.683C142.368 411.728 142.342 411.77 142.309 411.805C142.276 411.839 142.235 411.867 142.191 411.886C142.146 411.905 142.099 411.915 142.05 411.915H142.113ZM141.941 405.894C141.845 405.894 141.752 405.857 141.683 405.79C141.613 405.724 141.572 405.633 141.568 405.536C141.568 404.541 141.568 403.53 141.444 402.518C141.443 402.42 141.48 402.326 141.546 402.254C141.613 402.182 141.704 402.137 141.801 402.129C141.898 402.129 141.99 402.167 142.06 402.233C142.13 402.3 142.171 402.391 142.175 402.487C142.175 403.514 142.175 404.51 142.299 405.505C142.3 405.603 142.263 405.698 142.197 405.77C142.13 405.842 142.039 405.886 141.941 405.894ZM141.677 399.811C141.585 399.812 141.496 399.776 141.429 399.712C141.363 399.648 141.323 399.561 141.319 399.469C141.319 398.474 141.21 397.462 141.164 396.451C141.159 396.355 141.192 396.26 141.256 396.188C141.32 396.115 141.41 396.07 141.506 396.062C141.601 396.066 141.692 396.104 141.761 396.17C141.829 396.236 141.872 396.325 141.879 396.42L142.019 399.423C142.023 399.471 142.018 399.519 142.003 399.565C141.988 399.612 141.963 399.654 141.931 399.69C141.899 399.727 141.86 399.756 141.817 399.777C141.773 399.798 141.725 399.81 141.677 399.811ZM141.366 393.791C141.273 393.788 141.184 393.752 141.116 393.689C141.047 393.626 141.004 393.541 140.992 393.449C140.992 392.453 140.884 391.442 140.821 390.431C140.821 390.332 140.861 390.237 140.931 390.167C141.001 390.097 141.096 390.057 141.195 390.057C141.294 390.057 141.389 390.097 141.459 390.167C141.529 390.237 141.568 390.332 141.568 390.431C141.568 391.442 141.677 392.453 141.739 393.449C141.744 393.545 141.71 393.64 141.646 393.712C141.583 393.785 141.493 393.83 141.397 393.838L141.366 393.791ZM141.008 387.786C140.912 387.786 140.819 387.749 140.749 387.682C140.68 387.616 140.639 387.525 140.635 387.428C140.635 386.433 140.51 385.421 140.432 384.426C140.428 384.376 140.434 384.326 140.45 384.279C140.466 384.232 140.492 384.189 140.526 384.152C140.559 384.116 140.6 384.087 140.646 384.067C140.691 384.047 140.74 384.037 140.79 384.037C140.838 384.033 140.887 384.038 140.933 384.053C140.979 384.068 141.022 384.093 141.058 384.125C141.094 384.157 141.124 384.196 141.145 384.239C141.165 384.283 141.177 384.331 141.179 384.379C141.179 385.375 141.304 386.386 141.381 387.382C141.383 387.431 141.376 387.48 141.359 387.526C141.342 387.572 141.316 387.614 141.283 387.65C141.25 387.686 141.21 387.716 141.165 387.736C141.121 387.757 141.073 387.768 141.024 387.77L141.008 387.786ZM140.603 381.765C140.507 381.766 140.414 381.728 140.345 381.662C140.275 381.595 140.234 381.504 140.23 381.408C140.23 380.412 140.09 379.401 140.012 378.405C140.012 378.306 140.052 378.211 140.122 378.141C140.192 378.071 140.287 378.032 140.386 378.032C140.485 378.032 140.58 378.071 140.65 378.141C140.72 378.211 140.759 378.306 140.759 378.405C140.759 379.401 140.899 380.397 140.977 381.408C140.981 381.508 140.946 381.607 140.88 381.682C140.813 381.758 140.719 381.804 140.619 381.812L140.603 381.765ZM140.152 375.745C140.06 375.745 139.971 375.71 139.905 375.646C139.838 375.582 139.799 375.495 139.795 375.403L139.561 372.4C139.55 372.346 139.551 372.29 139.564 372.236C139.577 372.182 139.602 372.132 139.637 372.089C139.672 372.046 139.716 372.011 139.766 371.987C139.817 371.963 139.871 371.951 139.927 371.951C139.982 371.951 140.037 371.963 140.087 371.987C140.137 372.011 140.181 372.046 140.216 372.089C140.251 372.132 140.276 372.182 140.29 372.236C140.303 372.29 140.304 372.346 140.292 372.4L140.526 375.403C140.53 375.452 140.524 375.501 140.51 375.548C140.495 375.595 140.471 375.639 140.439 375.676C140.407 375.714 140.368 375.745 140.324 375.767C140.28 375.79 140.233 375.803 140.183 375.807L140.152 375.745ZM139.686 369.74C139.592 369.74 139.501 369.705 139.432 369.642C139.363 369.578 139.32 369.491 139.312 369.398L139.063 366.395C139.055 366.299 139.084 366.202 139.145 366.127C139.206 366.051 139.294 366.003 139.39 365.991C139.44 365.984 139.49 365.988 139.538 366.002C139.586 366.016 139.63 366.04 139.668 366.072C139.706 366.105 139.737 366.144 139.759 366.189C139.781 366.234 139.793 366.283 139.795 366.333L140.043 369.336C140.052 369.432 140.023 369.528 139.962 369.604C139.901 369.679 139.813 369.728 139.717 369.74H139.686ZM139.172 363.719C139.08 363.724 138.989 363.692 138.92 363.631C138.85 363.57 138.807 363.485 138.799 363.393C138.706 362.366 138.612 361.37 138.519 360.39C138.509 360.291 138.538 360.192 138.601 360.115C138.663 360.038 138.754 359.988 138.853 359.978C138.952 359.968 139.051 359.997 139.129 360.06C139.206 360.123 139.255 360.214 139.266 360.313C139.359 361.308 139.452 362.304 139.53 363.331C139.534 363.378 139.529 363.425 139.515 363.47C139.501 363.515 139.478 363.557 139.448 363.593C139.417 363.629 139.38 363.659 139.338 363.681C139.296 363.702 139.25 363.716 139.203 363.719H139.172ZM138.612 357.808C138.522 357.805 138.435 357.771 138.367 357.712C138.299 357.652 138.253 357.571 138.239 357.481C138.146 356.454 138.052 355.443 137.943 354.479C137.939 354.43 137.945 354.38 137.959 354.333C137.974 354.286 137.998 354.243 138.03 354.205C138.062 354.168 138.101 354.137 138.145 354.114C138.189 354.092 138.236 354.078 138.286 354.074C138.334 354.068 138.383 354.071 138.43 354.084C138.477 354.097 138.52 354.12 138.558 354.151C138.596 354.181 138.627 354.219 138.65 354.262C138.673 354.305 138.686 354.352 138.69 354.401C138.783 355.381 138.892 356.377 138.986 357.403C138.99 357.452 138.984 357.502 138.969 357.549C138.955 357.596 138.93 357.639 138.899 357.677C138.867 357.715 138.828 357.745 138.784 357.768C138.74 357.79 138.692 357.804 138.643 357.808H138.612ZM138.021 351.818C137.974 351.821 137.927 351.813 137.883 351.797C137.839 351.781 137.798 351.757 137.763 351.725C137.729 351.693 137.701 351.655 137.681 351.612C137.661 351.569 137.65 351.523 137.648 351.476C137.534 350.439 137.425 349.443 137.321 348.489C137.312 348.391 137.341 348.293 137.401 348.215C137.462 348.137 137.55 348.085 137.648 348.069C137.697 348.065 137.746 348.07 137.793 348.085C137.84 348.1 137.884 348.124 137.921 348.156C137.959 348.188 137.99 348.227 138.012 348.271C138.035 348.315 138.048 348.362 138.052 348.412C138.161 349.345 138.27 350.356 138.379 351.398C138.385 351.448 138.382 351.497 138.369 351.545C138.356 351.593 138.334 351.638 138.303 351.677C138.273 351.716 138.235 351.749 138.192 351.773C138.149 351.797 138.101 351.813 138.052 351.818H138.021Z" fill="#E71A1A"/>
<path opacity="0.2" d="M137.336 345.783C137.253 345.785 137.172 345.758 137.107 345.707C137.041 345.656 136.996 345.584 136.978 345.503L136.807 344.025C136.813 343.937 136.849 343.855 136.91 343.792C136.971 343.728 137.052 343.689 137.14 343.679C137.227 343.67 137.315 343.692 137.387 343.741C137.46 343.79 137.513 343.863 137.538 343.947L137.709 345.332C137.723 345.432 137.699 345.534 137.641 345.618C137.584 345.701 137.497 345.76 137.398 345.783H137.336Z" fill="#E71A1A"/>
</g>
<path d="M147.199 359.162L145.347 363.362L143.434 367.811C142.158 370.798 140.976 373.816 139.794 376.803C138.611 379.79 137.6 382.839 136.589 385.826C135.578 388.813 134.769 391.815 134.022 394.787L133.586 389.357C133.678 389.59 133.72 389.839 133.711 390.089C133.916 390.499 134.088 390.926 134.224 391.364C134.772 392.447 135.402 393.487 136.107 394.476C137.818 396.934 139.689 399.278 141.707 401.492C143.807 403.888 146.079 406.268 148.428 408.648L155.568 415.835L155.786 416.053C156.827 417.134 157.472 418.535 157.616 420.029C157.761 421.523 157.397 423.022 156.583 424.283C155.769 425.543 154.552 426.492 153.131 426.975C151.71 427.458 150.168 427.447 148.754 426.943C145.251 425.596 141.832 424.038 138.518 422.276C135.18 420.533 131.944 418.601 128.826 416.489C125.491 414.251 122.367 411.716 119.492 408.912C117.873 407.321 116.371 405.616 114.996 403.81C114.249 402.767 113.534 401.678 112.865 400.59C112.18 399.252 111.558 397.883 110.967 396.498C110.452 395.281 110.249 393.955 110.375 392.64L110.531 391.084C110.879 387.224 111.439 383.386 112.211 379.588C112.99 375.812 113.961 372.079 115.12 368.402C116.209 364.746 117.485 361.199 118.885 357.684C119.601 355.941 120.316 354.183 121.125 352.457C121.53 351.601 121.919 350.73 122.354 349.874L123.77 347.136C125.363 344.134 128.054 341.863 131.281 340.796C134.508 339.729 138.022 339.948 141.091 341.409C144.159 342.869 146.546 345.457 147.754 348.634C148.961 351.811 148.896 355.331 147.572 358.461L147.199 359.162Z" fill="#803E3C"/>
<path d="M152.565 418.48L149.936 422.51C148.209 430.288 158.633 430.801 158.633 430.801L163.564 433.073C164.455 433.414 165.439 433.427 166.339 433.111C167.239 432.795 167.998 432.169 168.48 431.346L171.436 426.912C172.099 426.038 172.396 424.939 172.262 423.85C172.129 422.761 171.575 421.766 170.72 421.078L166.8 418.434C165.665 417.66 164.355 417.184 162.988 417.049L156.906 416.427C156.064 416.344 155.216 416.491 154.451 416.853C153.687 417.214 153.035 417.777 152.565 418.48Z" fill="#7F3E3B"/>
<path d="M135.344 324.874C130.07 323.894 122.898 334.115 121.778 345.409C117.298 350.076 116.878 357.746 113.206 364.482C105.786 378.296 112.009 382.854 116.909 385.437C127.363 390.975 139.078 388.922 142.189 382.699C145.3 376.476 148.645 369.164 149.578 360.032C150.901 346.591 144.678 326.694 135.344 324.874Z" fill="#E71A1A"/>
<path d="M212.848 356.968L194.693 358.352C194.232 358.344 193.786 358.189 193.419 357.909C193.052 357.629 192.785 357.24 192.655 356.797L190.151 348.878C190.071 348.699 190.035 348.503 190.046 348.306C190.056 348.11 190.113 347.919 190.212 347.749C190.311 347.579 190.448 347.435 190.613 347.329C190.778 347.222 190.966 347.156 191.162 347.136L209.332 345.736C209.794 345.741 210.242 345.896 210.609 346.176C210.976 346.456 211.243 346.847 211.37 347.292L213.859 355.194C213.945 355.376 213.986 355.575 213.979 355.775C213.971 355.975 213.916 356.171 213.816 356.345C213.717 356.519 213.577 356.667 213.409 356.775C213.24 356.884 213.048 356.95 212.848 356.968Z" fill="white"/>
<path d="M180.552 321.032C179.323 318.979 177.437 317.401 175.201 316.552C174.256 314.485 174.052 312.155 174.625 309.956L149.423 303.593C151.912 311.651 153.872 318.014 151.087 322.168C156.128 324.828 165.089 329.946 174.827 330.491C182.139 330.88 182.341 324.361 180.552 321.032Z" fill="#7F3E3B"/>
<path opacity="0.2" d="M174.469 310.733H155.801C162.024 316.583 170.922 318.372 174.78 315.603C174.269 314.032 174.162 312.357 174.469 310.733Z" fill="black"/>
<path d="M178.016 294.243C181.127 289.902 181.967 283.446 179.571 282.56C179.774 278.173 179.245 273.568 174.904 272.805C173.68 272.587 172.423 272.637 171.22 272.95C170.017 273.264 168.896 273.834 167.933 274.622C166.971 275.41 166.191 276.396 165.646 277.514C165.101 278.632 164.805 279.854 164.777 281.097C158.523 288.3 168.511 296.654 178.016 294.243Z" fill="#E0E0E0"/>
<path d="M144.678 290.322C147.789 301.788 150.076 309.52 157.792 313.067C173.162 320.114 179.929 312.149 180.365 299.968C180.754 289.078 175.698 272.074 163.377 269.85C160.651 269.354 157.843 269.558 155.217 270.444C152.592 271.33 150.234 272.868 148.365 274.914C146.496 276.96 145.177 279.447 144.532 282.142C143.887 284.837 143.937 287.652 144.678 290.322Z" fill="#7F3E3B"/>
<path d="M171.498 300.699C172.148 300.668 172.793 300.579 173.427 300.434C173.471 300.426 173.512 300.408 173.548 300.382C173.583 300.356 173.613 300.323 173.635 300.285C173.658 300.247 173.671 300.204 173.676 300.16C173.68 300.116 173.675 300.072 173.661 300.03C173.632 299.941 173.572 299.865 173.492 299.816C173.412 299.768 173.317 299.75 173.225 299.765C171.793 300.093 170.305 300.094 168.872 299.768C167.44 299.442 166.099 298.798 164.949 297.883C164.883 297.823 164.797 297.79 164.708 297.79C164.619 297.79 164.533 297.823 164.467 297.883C164.433 297.914 164.406 297.951 164.388 297.992C164.37 298.034 164.36 298.079 164.36 298.124C164.36 298.17 164.37 298.214 164.388 298.256C164.406 298.297 164.433 298.335 164.467 298.365C166.437 299.994 168.945 300.826 171.498 300.699Z" fill="#263238"/>
<path d="M145.906 298.459C150.402 295.487 153.343 289.7 151.445 288.036C153.156 284.006 153.872 278.141 150.496 277.301C147.12 276.461 140.648 276.181 138.128 281.595C129.665 286.153 136.152 297.432 145.906 298.459Z" fill="#E0E0E0"/>
<path opacity="0.2" d="M160.375 289.482C159.679 289.312 158.957 289.281 158.25 289.391C157.542 289.5 156.863 289.748 156.252 290.12C157.655 290.181 159.056 289.964 160.375 289.482Z" fill="black"/>
<path opacity="0.2" d="M160.468 290.478C159.809 290.467 159.155 290.6 158.553 290.869C157.951 291.138 157.415 291.535 156.983 292.033C158.243 291.77 159.431 291.239 160.468 290.478Z" fill="black"/>
<path opacity="0.2" d="M176.414 286.417C176.414 286.417 177.254 285.173 177.97 285.717C177.56 286.141 177.003 286.392 176.414 286.417Z" fill="black"/>
<path opacity="0.2" d="M176.693 287.32C176.693 287.32 177.362 286.215 177.969 287.133C177.803 287.294 177.59 287.398 177.361 287.432C177.132 287.465 176.899 287.426 176.693 287.32Z" fill="black"/>
<path opacity="0.2" d="M170.611 276.353C167.098 276.221 163.586 276.641 160.203 277.597C163.693 277.376 167.167 276.961 170.611 276.353Z" fill="black"/>
<path opacity="0.2" d="M172.152 278.017C172.152 278.017 164.155 278.53 160.375 280.755C164.376 280.207 168.319 279.29 172.152 278.017Z" fill="black"/>
<path d="M142.624 302.13C143.495 303.322 144.594 304.33 145.857 305.093C147.12 305.857 148.523 306.362 149.983 306.579C153.888 307.139 155.365 303.468 153.888 300.077C152.534 296.965 148.878 292.967 145.145 293.994C144.332 294.226 143.589 294.657 142.985 295.249C142.381 295.84 141.933 296.572 141.683 297.38C141.433 298.188 141.388 299.045 141.552 299.874C141.717 300.704 142.085 301.479 142.624 302.13Z" fill="#7F3E3B"/>
<path d="M163.58 289.482C163.767 290.431 164.436 291.038 165.043 290.96C165.649 290.883 166.007 289.949 165.82 289.016C165.634 288.082 164.98 287.46 164.358 287.538C163.736 287.616 163.347 288.533 163.58 289.482Z" fill="#263238"/>
<path d="M173.645 287.585C173.832 288.534 174.485 289.14 175.107 289.063C175.73 288.985 176.072 288.067 175.885 287.118C175.699 286.169 175.03 285.562 174.423 285.64C173.816 285.718 173.443 286.636 173.645 287.585Z" fill="#263238"/>
<path d="M170.533 289L172.089 296.965C173.783 297.035 175.443 296.482 176.756 295.409C175.299 292.75 173.148 290.535 170.533 289Z" fill="#630F0F"/>
<path d="M159.971 287.242C159.874 287.265 159.772 287.265 159.675 287.242C159.605 287.221 159.539 287.186 159.482 287.139C159.425 287.092 159.378 287.035 159.343 286.97C159.309 286.905 159.287 286.833 159.28 286.76C159.273 286.687 159.28 286.613 159.302 286.542C159.544 285.669 159.99 284.867 160.604 284.201C161.219 283.536 161.983 283.026 162.833 282.715C162.905 282.694 162.98 282.687 163.054 282.695C163.128 282.703 163.2 282.726 163.265 282.762C163.33 282.799 163.388 282.848 163.434 282.906C163.48 282.965 163.514 283.032 163.533 283.104C163.572 283.248 163.553 283.402 163.481 283.533C163.408 283.664 163.287 283.761 163.144 283.804C162.472 284.069 161.873 284.488 161.394 285.029C160.915 285.57 160.572 286.216 160.391 286.916C160.352 287 160.294 287.073 160.221 287.13C160.148 287.187 160.062 287.226 159.971 287.242Z" fill="#E0E0E0"/>
<path d="M178.515 283.617C178.423 283.635 178.328 283.63 178.239 283.603C178.149 283.576 178.068 283.527 178.001 283.462C177.525 282.934 176.929 282.528 176.263 282.279C175.596 282.03 174.88 281.945 174.174 282.031C174.101 282.046 174.025 282.047 173.951 282.033C173.877 282.018 173.806 281.989 173.744 281.947C173.681 281.905 173.628 281.851 173.587 281.788C173.546 281.724 173.518 281.654 173.505 281.579C173.482 281.431 173.515 281.28 173.599 281.156C173.683 281.032 173.811 280.944 173.957 280.91C174.862 280.778 175.786 280.869 176.648 281.176C177.51 281.482 178.285 281.995 178.904 282.668C178.956 282.72 178.997 282.782 179.026 282.85C179.054 282.918 179.068 282.991 179.068 283.065C179.068 283.139 179.054 283.212 179.026 283.28C178.997 283.348 178.956 283.41 178.904 283.462C178.854 283.514 178.793 283.556 178.726 283.582C178.659 283.609 178.587 283.621 178.515 283.617Z" fill="#E0E0E0"/>
<path d="M182.185 341.738C168.884 340.446 141.924 322.727 152.3 318.962C158.959 326.29 170.969 328.203 176.149 328.203C178.078 326.367 179.914 321.172 175.2 316.551C180.614 316.084 191.457 332.73 182.185 341.738Z" fill="#E71A1A"/>
<path d="M531.625 483.586H637.147C638.798 483.586 640.381 482.93 641.548 481.763C642.715 480.596 643.37 479.013 643.37 477.363C643.37 475.713 642.715 474.13 641.548 472.963C640.381 471.796 638.798 471.14 637.147 471.14H531.625C529.975 471.14 528.392 471.796 527.225 472.963C526.058 474.13 525.402 475.713 525.402 477.363C525.402 479.013 526.058 480.596 527.225 481.763C528.392 482.93 529.975 483.586 531.625 483.586Z" fill="#E71A1A"/>
<path d="M653.233 471.093H656.749L670.144 383.694H666.628L653.233 471.093Z" fill="#263238"/>
<path d="M599.639 471.093H603.154L616.549 383.694H613.049L599.639 471.093Z" fill="#263238"/>
<path d="M599.499 453.529H668.308C670.611 453.454 672.818 452.584 674.553 451.067C676.288 449.55 677.446 447.479 677.828 445.206L688.329 372.245C688.517 371.212 688.472 370.151 688.198 369.138C687.924 368.125 687.428 367.186 686.746 366.389C686.063 365.592 685.212 364.957 684.253 364.53C683.295 364.103 682.253 363.895 681.204 363.922H612.396C610.094 363.995 607.888 364.865 606.154 366.382C604.421 367.9 603.268 369.972 602.891 372.245L592.374 445.206C592.187 446.239 592.232 447.3 592.506 448.313C592.78 449.326 593.276 450.265 593.958 451.062C594.641 451.859 595.492 452.494 596.451 452.921C597.409 453.348 598.451 453.555 599.499 453.529Z" fill="#E71A1A"/>
<path opacity="0.4" d="M688.33 372.245L677.829 445.206C677.552 446.973 676.787 448.627 675.62 449.982C673.1 452.954 668.62 451.336 669.148 447.711L680.381 369.74C680.894 366.115 685.841 364.497 687.506 367.469C688.299 368.926 688.589 370.605 688.33 372.245Z" fill="white"/>
<path d="M609.673 483.586H657.899C659.55 483.586 661.132 482.93 662.299 481.763C663.466 480.596 664.122 479.013 664.122 477.363C664.122 475.713 663.466 474.13 662.299 472.963C661.132 471.796 659.55 471.14 657.899 471.14H609.673C608.023 471.14 606.44 471.796 605.273 472.963C604.106 474.13 603.45 475.713 603.45 477.363C603.45 479.013 604.106 480.596 605.273 481.763C606.44 482.93 608.023 483.586 609.673 483.586Z" fill="#E71A1A"/>
<path opacity="0.4" d="M609.673 483.586H657.899C659.55 483.586 661.132 482.93 662.299 481.763C663.466 480.596 664.122 479.013 664.122 477.363C664.122 475.713 663.466 474.13 662.299 472.963C661.132 471.796 659.55 471.14 657.899 471.14H609.673C608.023 471.14 606.44 471.796 605.273 472.963C604.106 474.13 603.45 475.713 603.45 477.363C603.45 479.013 604.106 480.596 605.273 481.763C606.44 482.93 608.023 483.586 609.673 483.586Z" fill="white"/>
<path d="M583.398 558.865H586.899L600.309 483.601H596.793L583.398 558.865Z" fill="#263238"/>
<path d="M522.523 558.865H526.024L539.418 483.601H535.918L522.523 558.865Z" fill="#263238"/>
<path d="M606.968 558.865H603.452L590.058 483.601H593.573L606.968 558.865Z" fill="#263238"/>
<path d="M667.841 558.865H664.325L650.931 483.601H654.446L667.841 558.865Z" fill="#263238"/>
<path d="M550.48 318.807C554.244 323.739 556.204 322.447 558.74 316.225C560.296 312.226 564.776 313.984 565.819 306.89C566.239 303.95 556.92 298.287 551.817 299.812C546.715 301.337 547.602 314.964 550.48 318.807Z" fill="#263238"/>
<path d="M558.258 350.869C556.671 350.41 555.01 350.269 553.369 350.453C551.728 350.638 550.139 351.144 548.694 351.943C547.249 352.742 545.976 353.819 544.947 355.11C543.919 356.402 543.155 357.885 542.701 359.472L542.452 360.312L541.798 362.599L541.036 365.119C540.492 366.799 539.947 368.48 539.325 370.113C538.195 373.262 536.849 376.329 535.296 379.292C534.036 381.705 532.467 383.943 530.629 385.95C530.102 386.526 529.518 387.047 528.886 387.506C527.953 386.899 527.004 386.261 526.055 385.545C523.506 383.627 521.055 381.581 518.712 379.416C516.238 377.207 513.827 374.842 511.4 372.416C508.973 369.989 506.547 367.437 504.229 365.104L503.949 364.824C502.924 363.803 501.58 363.164 500.142 363.014C498.704 362.863 497.257 363.208 496.043 363.994C494.828 364.779 493.919 365.957 493.467 367.33C493.015 368.704 493.046 370.191 493.557 371.544C494.935 375.112 496.541 378.589 498.364 381.952C500.177 385.324 502.171 388.596 504.337 391.753C506.592 395.045 509.088 398.165 511.805 401.087C514.778 404.344 518.149 407.213 521.839 409.628C523.336 410.57 525.064 411.081 526.833 411.105H527.766C531.282 411.124 534.768 410.464 538.034 409.161C541.023 407.961 543.809 406.308 546.294 404.26C550.455 400.786 553.995 396.63 556.764 391.971C559.232 387.906 561.315 383.619 562.987 379.167C563.811 377.005 564.543 374.858 565.212 372.664C565.538 371.56 565.865 370.455 566.145 369.335L566.549 367.64L566.969 365.726C567.674 362.606 567.166 359.336 565.548 356.577C563.93 353.818 561.324 351.778 558.258 350.869Z" fill="black"/>
<path d="M481.812 365.96L485.732 369.071C487.288 370.303 489.093 371.184 491.021 371.654L496.389 372.976C497.607 373.275 498.886 373.222 500.076 372.822C501.266 372.423 502.317 371.694 503.109 370.72C504.197 369.397 504.727 367.703 504.587 365.995C504.448 364.288 503.65 362.702 502.362 361.573C500.355 359.972 498.122 358.677 495.735 357.73L490.244 354.51C489.339 353.981 488.276 353.791 487.245 353.974C486.213 354.156 485.28 354.699 484.612 355.506L481.158 359.69C480.785 360.143 480.505 360.665 480.335 361.227C480.165 361.789 480.109 362.379 480.17 362.962C480.231 363.546 480.408 364.111 480.689 364.626C480.971 365.141 481.353 365.594 481.812 365.96Z" fill="#FFB573"/>
<path d="M588.766 342.562C575.9 343.604 561.432 345.238 550.527 350.341C547.891 351.635 545.734 353.734 544.37 356.335C543.005 358.936 542.503 361.903 542.935 364.808C544.569 376.974 545.844 386.401 548.816 396.42C555.241 418.2 539.668 427.736 554.152 444.569C560.499 451.771 599.407 458.57 626.958 449.5C630.536 434.612 628.856 404.541 624.407 371.373C623.293 362.917 618.974 355.212 612.34 349.85C605.707 344.488 597.268 341.879 588.766 342.562Z" fill="#263238"/>
<path d="M616.768 387.49C623.94 421.14 618.541 430.085 604.665 439.466C585.187 442.484 577.378 434.441 577.378 434.441L616.768 387.49Z" fill="black"/>
<path d="M572.01 392.453L588.889 392.562C589.289 392.562 589.673 392.409 589.963 392.134C590.252 391.859 590.425 391.483 590.445 391.084L590.896 383.85C590.92 383.66 590.904 383.466 590.849 383.282C590.794 383.098 590.702 382.928 590.577 382.781C590.453 382.635 590.299 382.516 590.127 382.432C589.954 382.349 589.766 382.302 589.574 382.294L572.695 382.186C572.295 382.185 571.911 382.338 571.621 382.613C571.331 382.888 571.159 383.264 571.139 383.663L570.688 390.897C570.661 391.088 570.676 391.283 570.73 391.468C570.783 391.653 570.876 391.824 571.001 391.971C571.126 392.118 571.28 392.237 571.454 392.32C571.628 392.403 571.817 392.448 572.01 392.453Z" fill="white"/>
<g opacity="0.2">
<path opacity="0.2" d="M562.878 369.32C562.765 369.319 562.654 369.285 562.56 369.221C562.466 369.157 562.392 369.067 562.349 368.962C562.304 368.821 562.314 368.669 562.378 368.536C562.441 368.402 562.554 368.299 562.692 368.246C572.259 364.855 585.856 356.096 590.118 350.558C590.158 350.489 590.212 350.429 590.276 350.382C590.34 350.335 590.414 350.303 590.492 350.286C590.57 350.27 590.651 350.271 590.728 350.289C590.806 350.306 590.879 350.34 590.943 350.388C591.006 350.436 591.059 350.497 591.097 350.567C591.135 350.637 591.158 350.714 591.164 350.793C591.17 350.873 591.159 350.952 591.131 351.027C591.104 351.102 591.061 351.17 591.005 351.227C586.12 357.559 571.979 366.13 563.003 369.289C562.963 369.306 562.921 369.316 562.878 369.32Z" fill="white"/>
<path opacity="0.2" d="M572.353 370.253H572.181C563.081 367.437 559.316 358.15 558.523 353.14C558.509 353.067 558.511 352.993 558.527 352.921C558.544 352.849 558.575 352.781 558.619 352.721C558.662 352.661 558.718 352.611 558.781 352.574C558.845 352.536 558.916 352.512 558.989 352.502C559.061 352.491 559.134 352.495 559.204 352.512C559.274 352.53 559.34 352.562 559.398 352.605C559.456 352.648 559.505 352.703 559.542 352.766C559.578 352.828 559.602 352.897 559.612 352.969C560.374 357.761 563.936 366.566 572.508 369.226C572.578 369.246 572.643 369.279 572.7 369.324C572.757 369.37 572.804 369.426 572.839 369.49C572.874 369.553 572.896 369.623 572.903 369.696C572.91 369.768 572.903 369.841 572.882 369.911C572.838 370.014 572.764 370.102 572.67 370.163C572.575 370.224 572.465 370.255 572.353 370.253Z" fill="white"/>
</g>
<path d="M580.738 324.89C580.489 331.299 582.185 341.053 587.086 344.756C587.626 345.158 588.06 345.686 588.35 346.294C588.639 346.902 588.776 347.572 588.749 348.244C588.721 348.917 588.53 349.573 588.191 350.156C587.853 350.738 587.377 351.229 586.806 351.585C583.243 353.857 573.551 358.788 568.713 358.788C563.875 358.788 561.074 353.437 561.619 350.807C561.938 349.552 562.646 348.431 563.641 347.603C566.908 344.631 564.513 341.567 563.175 339.342L580.738 324.89Z" fill="#FFB573"/>
<path opacity="0.2" d="M575.465 333.819C575.353 333.428 575.218 333.043 575.06 332.668L563.159 339.342C564.342 340.827 565.077 342.619 565.275 344.507C571.264 342.095 576.538 337.491 575.465 333.819Z" fill="black"/>
<path d="M502.689 525.604C504.65 523.551 517.391 519.646 517.391 519.646C520.722 529.209 523.471 538.966 525.62 548.862L509.161 550.511C509.161 550.511 506.454 533.834 502.689 525.604Z" fill="#FFB573"/>
<path d="M580.272 436.526C532.668 437.195 470.02 434.643 484.784 478.032C491.1 496.607 485.795 490.29 493.184 512.77C496.296 522.462 497.447 525.309 499.749 532.03C502.27 538.035 517.422 536.914 523.085 534.565C529.805 530.987 524.111 521.326 523.334 515.897C519.507 489.341 526.523 492.344 518.184 474.936C533.368 477.145 581.781 475.605 588.19 449.5C588.05 449.5 596.824 439.093 580.272 436.526Z" fill="#E71A1A"/>
<path opacity="0.4" d="M580.272 436.526C532.668 437.195 470.02 434.643 484.784 478.032C491.1 496.607 485.795 490.29 493.184 512.77C496.296 522.462 497.447 525.309 499.749 532.03C502.27 538.035 517.422 536.914 523.085 534.565C529.805 530.987 524.111 521.326 523.334 515.897C519.507 489.341 526.523 492.344 518.184 474.936C533.368 477.145 581.781 475.605 588.19 449.5C588.05 449.5 596.824 439.093 580.272 436.526Z" fill="black"/>
<path d="M503.623 535.156L505.661 539.17C505.779 539.413 505.975 539.61 506.216 539.731C506.458 539.852 506.733 539.89 506.999 539.839C509.69 539.372 517.733 538.081 522.4 538.656C522.569 538.676 522.739 538.661 522.902 538.612C523.064 538.563 523.214 538.481 523.344 538.372C523.474 538.263 523.58 538.128 523.655 537.976C523.731 537.825 523.775 537.659 523.785 537.49C523.878 535.934 523.862 533.849 523.785 532.574C523.777 532.245 523.64 531.932 523.405 531.703C523.169 531.473 522.853 531.345 522.525 531.345C516.437 531.408 510.37 532.08 504.416 533.352C504.235 533.403 504.067 533.493 503.925 533.617C503.782 533.74 503.669 533.894 503.593 534.066C503.517 534.239 503.481 534.426 503.486 534.615C503.491 534.803 503.538 534.988 503.623 535.156Z" fill="#263238"/>
<path d="M529.198 559.285L527.378 547.711C527.316 547.442 527.159 547.205 526.936 547.042C526.713 546.879 526.44 546.802 526.165 546.824L509.285 546.902C507.927 546.814 506.577 547.175 505.443 547.929C501.647 551.04 495.751 554.151 487.195 555.707C484.488 556.236 485.639 561.603 491.986 561.572C502.487 561.572 502.051 561.199 510.997 561.167C518.651 561.167 520.564 561.51 526.647 561.572C526.969 561.609 527.295 561.578 527.603 561.48C527.912 561.382 528.196 561.22 528.438 561.003C528.679 560.787 528.871 560.522 529.003 560.226C529.134 559.93 529.2 559.609 529.198 559.285Z" fill="#263238"/>
<path d="M582.728 309.582C582.728 321.249 583.319 328.032 577.672 334.722C569.178 344.787 554.166 341.318 550.603 330.055C547.399 319.974 547.959 302.581 559.315 296.53C570.672 290.478 582.744 297.93 582.728 309.582Z" fill="#FFB573"/>
<path d="M561.214 314.731C561.136 315.789 561.634 316.675 562.319 316.722C563.003 316.769 563.641 315.96 563.719 314.902C563.796 313.844 563.299 312.942 562.614 312.895C561.93 312.848 561.292 313.673 561.214 314.731Z" fill="#263238"/>
<path d="M550.293 314.482C550.2 315.54 550.698 316.442 551.382 316.489C552.067 316.536 552.705 315.711 552.783 314.653C552.86 313.596 552.378 312.709 551.694 312.662C551.009 312.615 550.371 313.424 550.293 314.482Z" fill="#263238"/>
<path d="M580.365 319.46C574.624 321.824 573.582 319.724 574.547 313.066C575.153 308.803 570.455 308.088 573.147 301.414C574.267 298.676 585.172 298.458 588.703 302.316C592.235 306.174 584.845 317.624 580.365 319.46Z" fill="#263238"/>
<path d="M577.985 304.448C564.854 305.583 547.991 305.646 545.626 296C544.071 289.466 551.942 279.681 564.077 289.202C572.524 295.798 580.723 291.722 584.845 293.138C588.594 294.429 595.828 302.892 577.985 304.448Z" fill="#263238"/>
<path d="M586.494 302.767C585.894 302.762 585.295 302.705 584.705 302.596C584.61 302.579 584.519 302.543 584.438 302.491C584.357 302.438 584.287 302.37 584.232 302.291C584.177 302.211 584.138 302.122 584.118 302.027C584.098 301.933 584.096 301.836 584.114 301.741C584.131 301.646 584.167 301.555 584.219 301.474C584.272 301.393 584.339 301.323 584.419 301.268C584.498 301.213 584.588 301.174 584.682 301.154C584.777 301.134 584.874 301.132 584.969 301.149C585.76 301.373 586.591 301.413 587.4 301.268C588.208 301.122 588.973 300.794 589.636 300.309C589.982 300.022 590.259 299.66 590.445 299.25C590.631 298.841 590.721 298.394 590.71 297.945C590.705 297.848 590.721 297.752 590.755 297.661C590.789 297.571 590.841 297.488 590.908 297.418C590.975 297.349 591.055 297.293 591.144 297.255C591.233 297.217 591.329 297.198 591.425 297.198C591.521 297.196 591.615 297.213 591.704 297.248C591.793 297.283 591.873 297.335 591.941 297.402C592.009 297.469 592.064 297.548 592.101 297.636C592.137 297.724 592.157 297.818 592.156 297.914C592.186 298.58 592.061 299.244 591.791 299.854C591.521 300.464 591.114 301.003 590.601 301.429C589.443 302.365 587.981 302.842 586.494 302.767Z" fill="#263238"/>
<path d="M562.708 326.694C562.154 326.856 561.587 326.966 561.012 327.021C560.973 327.025 560.934 327.022 560.897 327.011C560.859 327 560.824 326.981 560.794 326.957C560.763 326.932 560.738 326.902 560.72 326.867C560.701 326.833 560.689 326.795 560.686 326.756C560.679 326.716 560.681 326.675 560.691 326.636C560.701 326.597 560.719 326.56 560.743 326.528C560.768 326.496 560.799 326.469 560.835 326.449C560.87 326.43 560.91 326.418 560.95 326.414C562.212 326.306 563.432 325.905 564.512 325.243C565.592 324.582 566.503 323.678 567.173 322.603C567.189 322.566 567.213 322.534 567.243 322.507C567.272 322.48 567.307 322.459 567.345 322.446C567.383 322.433 567.423 322.428 567.463 322.43C567.503 322.433 567.542 322.444 567.577 322.463C567.645 322.502 567.696 322.565 567.719 322.64C567.742 322.715 567.736 322.796 567.702 322.867C566.605 324.749 564.811 326.124 562.708 326.694Z" fill="#263238"/>
<path d="M564.575 308.368C564.681 308.354 564.789 308.373 564.884 308.423C564.979 308.474 565.056 308.552 565.104 308.648C565.415 309.266 565.868 309.802 566.424 310.212C566.981 310.623 567.626 310.897 568.308 311.013C568.389 311.008 568.469 311.021 568.544 311.05C568.619 311.079 568.687 311.124 568.743 311.181C568.799 311.239 568.842 311.307 568.869 311.383C568.896 311.459 568.907 311.539 568.9 311.619C568.893 311.699 568.869 311.777 568.83 311.847C568.79 311.917 568.736 311.978 568.671 312.025C568.606 312.072 568.532 312.105 568.453 312.121C568.374 312.137 568.293 312.136 568.215 312.118C567.351 311.985 566.532 311.649 565.823 311.138C565.115 310.627 564.537 309.955 564.139 309.177C564.104 309.114 564.081 309.045 564.073 308.973C564.065 308.901 564.071 308.828 564.091 308.758C564.111 308.689 564.145 308.624 564.191 308.568C564.237 308.511 564.293 308.465 564.357 308.431C564.422 308.389 564.498 308.367 564.575 308.368Z" fill="#263238"/>
<path d="M552.456 308.632C552.583 308.644 552.7 308.705 552.782 308.803C552.834 308.854 552.875 308.915 552.903 308.981C552.931 309.048 552.946 309.12 552.946 309.192C552.946 309.265 552.931 309.337 552.903 309.403C552.875 309.47 552.834 309.531 552.782 309.581C552.166 310.21 551.407 310.68 550.57 310.95C549.733 311.221 548.843 311.285 547.975 311.137C547.835 311.104 547.714 311.016 547.638 310.894C547.562 310.771 547.538 310.624 547.571 310.484C547.604 310.339 547.693 310.214 547.819 310.136C547.944 310.057 548.095 310.031 548.24 310.064C548.924 310.177 549.625 310.122 550.283 309.906C550.941 309.689 551.537 309.316 552.02 308.819C552.076 308.76 552.144 308.713 552.219 308.681C552.294 308.649 552.374 308.633 552.456 308.632Z" fill="#263238"/>
<path d="M587.49 320.97C586.186 323.485 583.954 325.393 581.267 326.29C577.658 327.41 575.744 324.205 576.6 320.752C577.409 317.64 580.271 313.3 583.943 313.689C584.74 313.79 585.5 314.088 586.153 314.556C586.807 315.024 587.333 315.647 587.685 316.37C588.037 317.093 588.204 317.891 588.17 318.695C588.136 319.498 587.902 320.279 587.49 320.97Z" fill="#FFB573"/>
<path d="M555.598 314.855C554.777 317.837 553.547 320.69 551.942 323.334C552.633 323.729 553.4 323.969 554.193 324.039C554.985 324.109 555.783 324.006 556.532 323.738L555.598 314.855Z" fill="#ED893E"/>
<path d="M550.231 524.718C551.974 522.478 564.233 517.297 564.233 517.297C568.508 526.478 572.228 535.906 575.371 545.533L559.161 548.831C559.161 548.831 554.805 532.528 550.231 524.718Z" fill="#FFB573"/>
<path d="M586.37 433.336C539.59 436.526 503.405 436.619 524.049 477.534C532.885 495.035 529.852 491.286 539.466 512.91C543.604 522.244 544.973 524.951 547.96 531.391C551.071 537.116 566.037 534.503 571.295 531.578C577.627 527.331 570.984 518.293 569.74 512.91C563.252 486.883 570.611 490.788 560.685 474.22C576.009 475.013 628.296 480.163 626.896 449.438C626.942 449.5 619.273 433.336 586.37 433.336Z" fill="#E71A1A"/>
<path opacity="0.4" d="M586.37 433.336C539.59 436.526 503.405 436.619 524.049 477.534C532.885 495.035 529.852 491.286 539.466 512.91C543.604 522.244 544.973 524.951 547.96 531.391C551.071 537.116 566.037 534.503 571.295 531.578C577.627 527.331 570.984 518.293 569.74 512.91C563.252 486.883 570.611 490.788 560.685 474.22C576.009 475.013 628.296 480.163 626.896 449.438C626.942 449.5 619.273 433.336 586.37 433.336Z" fill="black"/>
<path d="M552.129 534.176L554.556 537.972C554.702 538.198 554.917 538.372 555.169 538.467C555.421 538.562 555.697 538.574 555.956 538.501C558.601 537.77 566.457 535.67 571.171 535.763C571.341 535.765 571.51 535.733 571.667 535.667C571.824 535.602 571.966 535.505 572.084 535.383C572.202 535.26 572.294 535.115 572.353 534.955C572.413 534.796 572.439 534.626 572.431 534.456C572.431 532.901 572.135 530.847 571.98 529.571C571.941 529.245 571.776 528.947 571.52 528.741C571.264 528.534 570.938 528.436 570.611 528.467C564.559 529.147 558.592 530.435 552.798 532.31C552.617 532.37 552.452 532.47 552.315 532.604C552.178 532.737 552.074 532.9 552.009 533.08C551.945 533.26 551.922 533.452 551.943 533.642C551.964 533.832 552.027 534.015 552.129 534.176Z" fill="#263238"/>
<path d="M580.007 554.789L576.631 543.075C576.536 542.816 576.348 542.601 576.104 542.472C575.86 542.343 575.577 542.308 575.309 542.375L558.616 544.895C557.26 545 555.976 545.547 554.96 546.451C550.732 551.388 544.909 554.69 538.501 555.785C535.794 556.314 536.946 561.681 543.293 561.65C553.778 561.65 553.327 560.281 562.179 558.974C568.884 557.994 571.715 557.963 577.736 557.419C578.065 557.417 578.39 557.346 578.689 557.208C578.989 557.071 579.255 556.871 579.47 556.621C579.685 556.372 579.845 556.08 579.937 555.764C580.03 555.448 580.054 555.115 580.007 554.789Z" fill="#263238"/>
<path d="M540.072 430.832L544.942 429.696C546.884 429.269 548.896 429.269 550.838 429.696L556.236 430.801C557.465 431.051 558.597 431.644 559.503 432.512C560.409 433.379 561.05 434.485 561.354 435.701C561.775 437.363 561.531 439.124 560.674 440.608C559.817 442.093 558.415 443.185 556.765 443.651C554.271 444.25 551.701 444.47 549.142 444.304L542.795 444.849C541.753 444.938 540.713 444.655 539.859 444.052C539.005 443.448 538.392 442.562 538.128 441.551L536.79 436.292C536.635 435.718 536.597 435.118 536.679 434.529C536.761 433.94 536.962 433.373 537.268 432.863C537.575 432.353 537.981 431.91 538.463 431.561C538.945 431.212 539.492 430.964 540.072 430.832Z" fill="#FFB573"/>
<path d="M617.297 374.47C616.97 370.114 616.581 365.944 615.912 361.448C615.431 358.209 613.707 355.285 611.105 353.297C608.503 351.309 605.228 350.413 601.977 350.8C598.725 351.186 595.752 352.825 593.689 355.368C591.626 357.911 590.636 361.158 590.928 364.42V364.606L591.955 376.43C592.312 380.412 592.608 384.41 592.872 388.346C592.997 390.322 593.106 392.282 593.184 394.227C593.261 396.171 593.355 398.116 593.37 400.014C593.37 402.363 593.37 404.681 593.37 406.921C591.612 408.166 589.745 409.426 587.848 410.655C584.301 412.926 580.614 415.229 576.849 417.438C573.084 419.647 569.273 421.902 565.446 424.127C561.619 426.352 557.667 428.608 553.965 430.894H553.856C552.812 431.597 552.046 432.642 551.691 433.85C551.336 435.057 551.414 436.35 551.911 437.506C552.985 440.82 555.1 443.2 558.492 442.453C563.081 441.442 567.452 440.213 571.871 438.891C576.289 437.568 580.629 436.09 584.969 434.472C589.31 432.855 593.65 431.143 597.959 429.09C602.536 427.037 606.943 424.624 611.136 421.871C613.278 420.408 614.781 418.182 615.337 415.649L615.539 414.715C616.504 410.099 617.143 405.42 617.452 400.714C617.81 396.202 617.872 391.815 617.857 387.428C617.841 383.041 617.608 378.779 617.297 374.47Z" fill="#263238"/>
<path d="M401.943 371.81C401.274 367.517 393.387 365.712 393.387 365.712L388.719 363.799C387.961 363.482 387.114 363.447 386.332 363.701C385.55 363.955 384.884 364.481 384.457 365.183L382.201 368.808C381.959 369.2 381.797 369.636 381.726 370.092C381.654 370.547 381.674 371.012 381.784 371.459C381.894 371.907 382.092 372.328 382.367 372.698C382.641 373.068 382.987 373.38 383.383 373.615L387.662 376.135C388.422 376.587 389.271 376.868 390.151 376.96L393.729 377.333C395.235 377.489 396.754 377.214 398.109 376.539C399.465 375.864 400.6 374.818 401.383 373.522L401.601 373.179C401.869 372.776 401.99 372.293 401.943 371.81Z" fill="#FF8B7B"/>
<path d="M455.444 337.896C453.732 345.364 451.834 359.054 456.921 364.219C447.151 366.265 438.109 370.896 430.739 377.629C425.777 367.672 433.602 363.488 433.602 363.488C442.033 361.761 442.018 355.538 440.742 349.673L455.444 337.896Z" fill="#FF8B7B"/>
<path d="M429.074 370.473C431.672 362.539 425.418 360.952 436.121 357.685C444.491 355.118 460.079 355.818 463.626 358.649C465.602 360.205 462.584 365.012 462.584 365.012L429.074 370.473Z" fill="#E0E0E0"/>
<path d="M468.464 377.769L467.935 378.423L467.484 378.983L466.582 380.009C465.991 380.678 465.369 381.301 464.762 381.938C463.533 383.167 462.273 384.35 460.966 385.501C458.371 387.791 455.598 389.872 452.674 391.724C451.227 392.673 449.703 393.497 448.209 394.353C446.716 395.208 445.098 395.909 443.542 396.609C440.355 398.008 437.063 399.152 433.695 400.031L433.259 400.14C432.638 400.319 431.989 400.377 431.346 400.311C429 400.083 426.708 399.468 424.563 398.491C422.853 397.736 421.191 396.879 419.585 395.924C416.618 394.151 413.756 392.209 411.013 390.106C408.337 388.032 405.744 385.9 403.234 383.712C400.761 381.472 398.365 379.247 396.016 376.789C395.358 376.115 394.968 375.223 394.92 374.282C394.872 373.341 395.168 372.415 395.754 371.677C396.34 370.938 397.174 370.439 398.102 370.272C399.029 370.105 399.985 370.281 400.792 370.769H400.87C403.592 372.324 406.346 374.051 409.099 375.607C411.853 377.163 414.606 378.718 417.344 380.274C420.082 381.83 422.836 383.152 425.512 384.334C426.768 384.902 428.056 385.396 429.37 385.812C430.212 386.106 431.092 386.274 431.983 386.31L429.634 386.59C432.211 385.614 434.721 384.47 437.148 383.167C439.583 381.878 441.932 380.434 444.18 378.843C446.445 377.259 448.616 375.545 450.683 373.709C451.725 372.807 452.721 371.873 453.685 370.909L455.085 369.462L455.739 368.762L456.268 368.186L456.688 367.719C458.071 366.34 459.922 365.531 461.874 365.453C463.826 365.376 465.736 366.036 467.224 367.302C468.711 368.568 469.668 370.348 469.904 372.287C470.139 374.227 469.637 376.184 468.496 377.769H468.464Z" fill="#FF8B7B"/>
<path d="M410.313 380.445C410.313 385.501 402.037 396.919 411.651 403.998C412.491 414.234 413.626 424.315 415.82 441.132L467.158 442.688C462.257 424.019 466.473 411.683 474.298 379.371C474.729 377.603 474.783 375.764 474.456 373.974C474.13 372.183 473.43 370.482 472.403 368.979C471.376 367.477 470.045 366.208 468.495 365.253C466.945 364.299 465.212 363.682 463.408 363.441C461.371 363.176 459.193 362.928 456.983 362.756C449.233 361.948 441.434 361.698 433.648 362.01C431.128 362.165 428.514 362.399 426.025 362.679C421.664 363.151 417.636 365.234 414.73 368.52C411.824 371.806 410.249 376.058 410.313 380.445Z" fill="#E71A1A"/>
<path opacity="0.4" d="M410.313 380.445C410.313 385.501 402.037 396.919 411.651 403.998C412.491 414.234 413.626 424.315 415.82 441.132L467.158 442.688C462.257 424.019 466.473 411.683 474.298 379.371C474.729 377.603 474.783 375.764 474.456 373.974C474.13 372.183 473.43 370.482 472.403 368.979C471.376 367.477 470.045 366.208 468.495 365.253C466.945 364.299 465.212 363.682 463.408 363.441C461.371 363.176 459.193 362.928 456.983 362.756C449.233 361.948 441.434 361.698 433.648 362.01C431.128 362.165 428.514 362.399 426.025 362.679C421.664 363.151 417.636 365.234 414.73 368.52C411.824 371.806 410.249 376.058 410.313 380.445Z" fill="black"/>
<path d="M429.37 326.198C429.23 327.116 428.608 327.754 428.001 327.754C427.395 327.754 427.021 326.82 427.177 325.887C427.332 324.953 427.939 324.331 428.546 324.331C429.153 324.331 429.588 325.264 429.37 326.198Z" fill="#263238"/>
<path d="M428.872 324.424L426.741 323.428C426.741 323.428 427.597 325.357 428.872 324.424Z" fill="#263238"/>
<path d="M428.903 327.084C427.736 329.075 426.302 330.897 424.641 332.498C425.059 332.915 425.565 333.235 426.122 333.434C426.679 333.633 427.272 333.707 427.861 333.649L428.903 327.084Z" fill="#FF5652"/>
<path d="M428.111 320.768C428.042 320.747 427.978 320.711 427.924 320.663C427.871 320.614 427.828 320.555 427.8 320.488C427.766 320.424 427.745 320.354 427.739 320.282C427.733 320.21 427.742 320.137 427.766 320.069C427.789 320 427.826 319.937 427.875 319.884C427.923 319.83 427.983 319.787 428.049 319.757C428.829 319.35 429.696 319.137 430.577 319.137C431.457 319.137 432.324 319.35 433.105 319.757C433.226 319.837 433.313 319.96 433.348 320.102C433.383 320.243 433.362 320.392 433.291 320.519C433.217 320.643 433.097 320.732 432.956 320.767C432.816 320.802 432.668 320.78 432.545 320.706C431.918 320.406 431.229 320.258 430.534 320.275C429.84 320.291 429.159 320.471 428.546 320.799C428.476 320.826 428.4 320.836 428.325 320.831C428.25 320.826 428.177 320.804 428.111 320.768Z" fill="#263238"/>
<path d="M460.687 328.049C458.182 339.374 457.357 344.213 450.761 349.191C440.836 356.658 427.753 351.12 426.897 339.281C426.119 328.625 430.351 311.901 442.065 309.101C453.779 306.3 463.207 316.724 460.687 328.049Z" fill="#FF8B7B"/>
<path d="M433.788 330.616C435.919 341.179 446.234 349.875 454.012 349.548C461.79 349.222 473.256 334.474 472.929 323.428C472.602 312.383 464.871 302.629 452.254 303.204C439.637 303.78 423.505 304.496 433.788 330.616Z" fill="#263238"/>
<path d="M448.039 307.421C438.456 297.511 425.171 304.589 423.319 315.044C428.904 313.955 433.54 321.795 440.79 321.36C449.097 320.862 453.36 312.959 448.039 307.421Z" fill="#263238"/>
<path d="M459.115 309.49C460.421 300.062 470.005 301.867 473.909 306.767C477.814 311.668 479.572 326.68 469.989 323.429C460.406 320.177 458.461 314.25 459.115 309.49Z" fill="#E71A1A"/>
<path d="M467.952 312.85C466.241 302.1 474.004 278.718 493.077 287.71C508.851 295.146 487.165 334.754 508.851 341.941C500.622 354.496 472.386 340.697 467.952 312.85Z" fill="#263238"/>
<path d="M510.997 346.919H510.857C499.298 342.33 498.972 324.206 498.707 309.583C498.521 300.109 498.381 291.926 495.285 289.95C494.672 289.629 493.987 289.47 493.295 289.489C492.603 289.508 491.928 289.704 491.333 290.059C491.29 290.079 491.242 290.091 491.194 290.093C491.146 290.094 491.097 290.086 491.052 290.069C491.007 290.051 490.966 290.025 490.932 289.991C490.897 289.957 490.87 289.917 490.851 289.872C490.813 289.781 490.811 289.679 490.846 289.586C490.881 289.494 490.949 289.418 491.038 289.374C491.752 288.978 492.555 288.77 493.371 288.77C494.188 288.77 494.991 288.978 495.705 289.374C499.127 291.568 499.283 299.938 499.454 309.598C499.718 323.957 500.045 341.817 511.137 346.219C511.183 346.237 511.225 346.263 511.261 346.296C511.297 346.33 511.326 346.37 511.346 346.415C511.367 346.46 511.378 346.508 511.379 346.557C511.381 346.607 511.373 346.656 511.355 346.701C511.322 346.768 511.271 346.824 511.208 346.863C511.145 346.901 511.071 346.921 510.997 346.919Z" fill="#263238"/>
<path d="M438.829 332.14C437.273 334.692 436.573 335.796 434.597 336.481C433.983 336.739 433.307 336.813 432.652 336.691C431.997 336.569 431.392 336.258 430.912 335.796C430.432 335.335 430.098 334.742 429.951 334.092C429.804 333.442 429.851 332.764 430.086 332.14C430.895 329.496 433.415 325.762 436.309 326.026C436.971 326.118 437.599 326.381 438.128 326.79C438.658 327.2 439.07 327.741 439.325 328.359C439.58 328.978 439.669 329.653 439.582 330.316C439.494 330.98 439.235 331.609 438.829 332.14Z" fill="#FF8B7B"/>
<path d="M431.875 337.616L430.319 340.93L428.764 337.616L430.319 334.318L431.875 337.616Z" fill="white"/>
<path d="M435.048 441.941C435.048 441.941 391.784 439.716 363.284 452.613C354.417 456.627 353.048 463.332 351.477 472.93C344.927 513.238 334.737 553.826 334.737 553.826L344.445 556.704C344.445 556.704 380.646 503.515 375.683 474.657C442.873 488.907 464.124 466.583 464.124 466.583L435.048 441.941Z" fill="#FF8B7B"/>
<path d="M335.205 552.037C334.66 551.866 334.209 552.193 333.727 552.457C330.211 554.355 330.226 554.464 320.768 555.429C317.656 555.755 317.252 558.649 324.937 561.06L343.761 566.972C345.612 567.547 348.988 563.145 346.421 555.849C346.329 555.599 346.167 555.381 345.955 555.221C345.742 555.061 345.488 554.966 345.223 554.946C341.73 554.616 338.331 553.629 335.205 552.037Z" fill="#263238"/>
<path d="M460.484 445.488C460.484 445.488 426.072 439.748 397.603 452.52C393.265 454.456 389.676 457.751 387.377 461.908C385.079 466.065 384.196 470.857 384.862 475.56C390.649 516.007 405.086 563.503 405.086 563.503L415.213 563.347C415.213 563.347 414.466 506.876 409.504 478.017C415.229 479.884 424.983 479.931 430.039 479.698C448.707 478.811 463.953 473.77 461.635 455.242L460.484 445.488Z" fill="#FF8B7B"/>
<path d="M404.573 561.604C404.013 561.604 403.686 562.04 403.297 562.444C400.528 565.322 400.559 565.4 391.816 569.181C388.891 570.441 389.436 573.288 397.494 573.288H417.22C419.149 573.288 421.063 568.06 416.427 561.884C416.265 561.673 416.045 561.513 415.793 561.424C415.542 561.336 415.27 561.323 415.011 561.387C411.575 562.107 408.035 562.181 404.573 561.604Z" fill="#263238"/>
<path d="M415.82 441.132C415.82 441.132 388.284 440.961 367.5 449.502C367.5 478.796 379.65 490.526 379.65 490.526C379.65 490.526 492.78 510.407 467.157 442.75C453.887 438.706 416.115 439.935 415.82 441.132Z" fill="#263238"/>
<path d="M386.9 445.908C385.344 449.968 377.255 450.046 377.255 450.046L372.323 450.933C371.513 451.077 370.678 450.929 369.966 450.516C369.254 450.103 368.712 449.452 368.434 448.677L367.018 444.648C366.867 444.213 366.803 443.752 366.83 443.292C366.858 442.832 366.977 442.383 367.179 441.969C367.382 441.555 367.664 441.186 368.01 440.882C368.357 440.578 368.76 440.346 369.196 440.199L373.863 438.643C374.707 438.376 375.597 438.286 376.477 438.378L380.055 438.783C381.557 438.954 382.98 439.545 384.161 440.489C385.342 441.433 386.232 442.691 386.729 444.119L386.853 444.508C387.031 444.955 387.048 445.45 386.9 445.908Z" fill="#FF8B7B"/>
<path d="M427.939 379.76C427.347 383.603 426.585 387.227 425.807 390.93C425.029 394.632 424.143 398.288 423.147 401.944C421.211 409.409 418.726 416.719 415.711 423.817L415.509 424.268C415.336 424.677 415.105 425.06 414.824 425.404C412.762 427.851 410.493 430.115 408.041 432.171C405.754 434.178 403.374 435.951 400.978 437.678C398.583 439.405 396.125 440.992 393.636 442.517C391.146 444.041 388.642 445.472 385.966 446.81C385.142 447.205 384.205 447.297 383.32 447.07C382.435 446.843 381.658 446.312 381.126 445.57C380.593 444.828 380.339 443.922 380.407 443.01C380.476 442.099 380.863 441.242 381.501 440.587L387.475 434.723C389.466 432.762 391.442 430.818 393.356 428.842C395.269 426.866 397.151 424.906 398.909 422.946C400.587 421.097 402.146 419.143 403.576 417.097L402.69 418.652C403.794 415.448 404.743 412.072 405.677 408.665C406.61 405.258 407.403 401.773 408.212 398.273C409.021 394.772 409.768 391.257 410.499 387.725C411.23 384.194 411.931 380.616 412.615 377.193V377.1C413.041 375.134 414.212 373.41 415.882 372.289C417.552 371.168 419.591 370.737 421.572 371.087C423.552 371.437 425.32 372.541 426.504 374.167C427.689 375.793 428.197 377.814 427.923 379.807L427.939 379.76Z" fill="#FF8B7B"/>
<path d="M474.485 375.793C471.094 384.271 462.04 390.494 449.237 392.61C443.621 391.21 435.92 372.386 435.92 372.386C435.92 372.386 472.836 352.504 474.485 375.793Z" fill="#E71A1A"/>
<path opacity="0.4" d="M474.485 375.793C471.094 384.271 462.04 390.494 449.237 392.61C443.621 391.21 435.92 372.386 435.92 372.386C435.92 372.386 472.836 352.504 474.485 375.793Z" fill="black"/>
<path d="M417.765 365.152C411.776 368.839 405.211 376.866 404.277 390.961C406.595 396.266 429.884 400.715 429.884 400.715C429.884 400.715 438.549 355.165 417.765 365.152Z" fill="#E71A1A"/>
<path opacity="0.4" d="M417.765 365.152C411.776 368.839 405.211 376.866 404.277 390.961C406.595 396.266 429.884 400.715 429.884 400.715C429.884 400.715 438.549 355.165 417.765 365.152Z" fill="black"/>
<path d="M356.828 499.393H462.351C465.805 499.393 468.604 496.593 468.604 493.139C468.604 489.685 465.805 486.885 462.351 486.885H356.828C353.374 486.885 350.574 489.685 350.574 493.139C350.574 496.593 353.374 499.393 356.828 499.393Z" fill="#E71A1A"/>
<path d="M418.169 469.336H486.931C489.234 469.261 491.441 468.391 493.176 466.874C494.912 465.357 496.069 463.286 496.452 461.014L506.953 388.036C507.143 387.005 507.101 385.945 506.829 384.933C506.557 383.921 506.062 382.982 505.38 382.186C504.699 381.389 503.848 380.755 502.89 380.33C501.932 379.905 500.891 379.7 499.843 379.729H431.066C428.765 379.799 426.559 380.665 424.826 382.18C423.092 383.695 421.938 385.765 421.561 388.036L411.044 461.014C410.857 462.046 410.902 463.107 411.176 464.12C411.45 465.133 411.946 466.072 412.628 466.869C413.311 467.666 414.162 468.301 415.12 468.728C416.079 469.155 417.12 469.363 418.169 469.336Z" fill="#E71A1A"/>
<path opacity="0.4" d="M421.592 388.036L411.076 461.014C410.819 462.69 411.131 464.405 411.962 465.883C412.366 466.544 412.963 467.064 413.673 467.373C414.382 467.682 415.17 467.765 415.929 467.61C416.687 467.456 417.379 467.071 417.911 466.508C418.443 465.946 418.789 465.233 418.901 464.467L430.117 386.574C430.231 385.751 430.069 384.913 429.656 384.191C429.243 383.469 428.603 382.905 427.836 382.585C427.068 382.265 426.217 382.209 425.414 382.424C424.611 382.639 423.902 383.113 423.397 383.774C422.447 385.021 421.826 386.487 421.592 388.036Z" fill="white"/>
<path d="M478.437 486.901H481.952L495.347 399.502H491.831L478.437 486.901Z" fill="#263238"/>
<path d="M424.858 486.901H428.359L441.753 399.502H438.253L424.858 486.901Z" fill="#263238"/>
<path d="M434.877 499.393H483.166C486.62 499.393 489.42 496.593 489.42 493.139C489.42 489.685 486.62 486.885 483.166 486.885H434.877C431.424 486.885 428.624 489.685 428.624 493.139C428.624 496.593 431.424 499.393 434.877 499.393Z" fill="#E71A1A"/>
<path opacity="0.4" d="M422.369 486.9H356.828C353.374 486.9 350.574 489.7 350.574 493.154C350.574 496.608 353.374 499.408 356.828 499.408H422.369C425.823 499.408 428.623 496.608 428.623 493.154C428.623 489.7 425.823 486.9 422.369 486.9Z" fill="white"/>
<path d="M408.602 574.672H412.102L425.496 499.393H421.996L408.602 574.672Z" fill="#263238"/>
<path d="M347.728 574.672H351.228L364.622 499.393H361.122L347.728 574.672Z" fill="#263238"/>
<path d="M432.171 574.672H428.655L415.261 499.393H418.777L432.171 574.672Z" fill="#263238"/>
<path d="M493.044 574.672H489.528L476.134 499.393H479.65L493.044 574.672Z" fill="#263238"/>
<path d="M193.465 98.3194C177.609 100.913 163.23 109.166 152.993 121.548C142.755 133.931 137.352 149.605 137.785 165.666C138.218 181.727 144.457 197.087 155.347 208.9C166.237 220.713 181.039 228.179 197.012 229.915C196.332 234.846 195.261 239.715 193.807 244.476C193.807 244.476 204.044 238.627 209.738 230.055C211.48 229.915 213.238 229.713 214.996 229.417C223.638 228.042 231.924 224.973 239.377 220.386C246.83 215.798 253.302 209.784 258.424 202.687C263.545 195.591 267.213 187.553 269.218 179.034C271.223 170.516 271.525 161.685 270.107 153.049C268.689 144.413 265.578 136.143 260.954 128.713C256.33 121.284 250.283 114.841 243.161 109.755C236.039 104.669 227.982 101.041 219.454 99.0786C210.926 97.1161 202.093 96.8581 193.465 98.3194Z" fill="#E71A1A"/>
<path opacity="0.5" d="M193.465 98.3194C177.609 100.913 163.23 109.166 152.993 121.548C142.755 133.931 137.352 149.605 137.785 165.666C138.218 181.727 144.457 197.087 155.347 208.9C166.237 220.713 181.039 228.179 197.012 229.915C196.332 234.846 195.261 239.715 193.807 244.476C193.807 244.476 204.044 238.627 209.738 230.055C211.48 229.915 213.238 229.713 214.996 229.417C223.638 228.042 231.924 224.973 239.377 220.386C246.83 215.798 253.302 209.784 258.424 202.687C263.545 195.591 267.213 187.553 269.218 179.034C271.223 170.516 271.525 161.685 270.107 153.049C268.689 144.413 265.578 136.143 260.954 128.713C256.33 121.284 250.283 114.841 243.161 109.755C236.039 104.669 227.982 101.041 219.454 99.0786C210.926 97.1161 202.093 96.8581 193.465 98.3194Z" fill="white"/>
<path d="M211.776 224.626C199.54 226.637 186.982 224.975 175.691 219.85C164.4 214.724 154.883 206.365 148.342 195.831C141.802 185.296 138.532 173.058 138.947 160.665C139.362 148.272 143.442 136.28 150.673 126.206C157.903 116.133 167.958 108.429 179.566 104.07C191.175 99.7105 203.815 98.8916 215.889 101.716C227.963 104.541 238.928 110.883 247.398 119.94C255.867 128.997 261.461 140.362 263.471 152.598C266.141 169.001 262.199 185.794 252.509 199.295C242.819 212.797 228.171 221.906 211.776 224.626ZM191.552 101.727C179.471 103.713 168.251 109.237 159.311 117.601C150.37 125.964 144.11 136.79 141.322 148.711C138.534 160.632 139.344 173.112 143.648 184.573C147.953 196.034 155.559 205.961 165.506 213.098C175.452 220.236 187.292 224.264 199.528 224.673C211.763 225.083 223.846 221.854 234.247 215.397C244.648 208.939 252.9 199.543 257.961 188.395C263.022 177.247 264.663 164.849 262.678 152.769C260.007 136.572 251.019 122.097 237.688 112.519C224.356 102.941 207.769 99.0427 191.567 101.68L191.552 101.727Z" fill="white"/>
<path d="M196.607 192.672C189.488 193.841 182.181 192.873 175.611 189.89C169.042 186.906 163.504 182.042 159.7 175.911C155.895 169.781 153.993 162.66 154.235 155.448C154.478 148.237 156.853 141.26 161.061 135.399C165.268 129.537 171.12 125.055 177.875 122.52C184.63 119.984 191.985 119.508 199.01 121.153C206.036 122.797 212.416 126.488 217.343 131.758C222.271 137.029 225.525 143.642 226.695 150.762C228.254 160.308 225.961 170.083 220.32 177.941C214.679 185.798 206.151 191.096 196.607 192.672ZM184.909 121.453C177.945 122.597 171.477 125.781 166.322 130.602C161.168 135.422 157.558 141.662 155.95 148.534C154.341 155.406 154.806 162.6 157.286 169.207C159.766 175.814 164.149 181.538 169.881 185.655C175.614 189.771 182.438 192.096 189.491 192.334C196.544 192.573 203.51 190.715 209.507 186.996C215.505 183.276 220.265 177.862 223.186 171.437C226.106 165.013 227.057 157.866 225.917 150.902C224.364 141.569 219.177 133.23 211.492 127.711C203.807 122.192 194.249 119.942 184.909 121.453Z" fill="white"/>
<path d="M486.198 83.1359C484.186 78.3766 481.656 73.8534 478.653 69.648L480.022 68.668C483.118 72.9709 485.727 77.6041 487.801 82.4825L486.198 83.1359Z" fill="#E71A1A"/>
<path d="M469.319 58.9919C460.6 50.8296 449.954 45.0115 438.376 42.0816L438.796 40.5259C450.644 43.5371 461.539 49.493 470.47 57.8407L469.319 58.9919Z" fill="#E71A1A"/>
<path d="M487.553 110.594C487.559 97.6555 483.787 84.9969 476.7 74.1719C469.613 63.3469 459.52 54.8265 447.66 49.6564C435.799 44.4863 422.687 42.8915 409.933 45.0678C397.179 47.2441 385.338 53.0968 375.863 61.9074C366.388 70.7181 359.692 82.1034 356.596 94.6659C353.5 107.228 354.14 120.422 358.435 132.626C362.731 144.83 370.497 155.515 380.779 163.368C391.062 171.222 403.413 175.902 416.318 176.835C421.561 185.5 431.128 191.723 431.128 191.723C429.913 186.747 429.117 181.679 428.748 176.571C444.936 174.701 459.872 166.946 470.714 154.781C481.557 142.616 487.55 126.889 487.553 110.594Z" fill="#E71A1A"/>
<path d="M429.588 105.538C429.591 107.216 429.096 108.858 428.165 110.254C427.235 111.651 425.911 112.74 424.361 113.384C422.811 114.027 421.105 114.197 419.459 113.87C417.813 113.543 416.301 112.736 415.114 111.549C413.927 110.362 413.12 108.85 412.793 107.204C412.466 105.558 412.636 103.852 413.279 102.302C413.923 100.752 415.012 99.4281 416.409 98.4976C417.805 97.5672 419.447 97.0721 421.125 97.0752C423.369 97.0752 425.522 97.9668 427.109 99.5539C428.696 101.141 429.588 103.294 429.588 105.538Z" fill="white"/>
<path d="M458.929 115.65C458.929 117.327 458.431 118.966 457.5 120.36C456.568 121.755 455.244 122.841 453.695 123.483C452.146 124.125 450.441 124.293 448.796 123.965C447.151 123.638 445.641 122.831 444.455 121.645C443.269 120.459 442.462 118.949 442.135 117.304C441.807 115.659 441.975 113.955 442.617 112.405C443.259 110.856 444.346 109.532 445.74 108.6C447.134 107.669 448.773 107.171 450.45 107.171C452.699 107.171 454.855 108.065 456.445 109.655C458.035 111.245 458.929 113.401 458.929 115.65Z" fill="white"/>
<path d="M400.294 110.594C400.291 112.267 399.792 113.902 398.86 115.292C397.928 116.681 396.606 117.764 395.059 118.402C393.512 119.04 391.811 119.205 390.171 118.877C388.53 118.549 387.023 117.742 385.841 116.557C384.659 115.373 383.855 113.865 383.53 112.224C383.204 110.583 383.373 108.882 384.014 107.336C384.655 105.791 385.74 104.47 387.131 103.541C388.522 102.612 390.158 102.116 391.831 102.116C392.944 102.116 394.046 102.335 395.073 102.761C396.101 103.188 397.035 103.812 397.821 104.6C398.607 105.387 399.23 106.322 399.654 107.351C400.079 108.379 400.296 109.482 400.294 110.594Z" fill="white"/>
<path d="M558.492 204.34C557.634 193.494 559.913 182.63 565.059 173.044C570.205 163.458 577.999 155.555 587.513 150.277C597.027 145 607.859 142.57 618.715 143.279C629.572 143.988 639.995 147.805 648.742 154.276C657.489 160.746 664.19 169.595 668.045 179.769C671.901 189.943 672.748 201.011 670.486 211.653C668.224 222.295 662.948 232.062 655.288 239.788C647.628 247.514 637.907 252.873 627.285 255.226C624.161 261.134 619.998 266.43 614.995 270.861C615.518 266.114 615.674 261.335 615.462 256.564C601.121 256.679 587.27 251.355 576.698 241.664C566.127 231.974 559.621 218.636 558.492 204.34Z" fill="#E71A1A"/>
<path opacity="0.4" d="M558.492 204.34C557.634 193.494 559.913 182.63 565.059 173.044C570.205 163.458 577.999 155.555 587.513 150.277C597.027 145 607.859 142.57 618.715 143.279C629.572 143.988 639.995 147.805 648.742 154.276C657.489 160.746 664.19 169.595 668.045 179.769C671.901 189.943 672.748 201.011 670.486 211.653C668.224 222.295 662.948 232.062 655.288 239.788C647.628 247.514 637.907 252.873 627.285 255.226C624.161 261.134 619.998 266.43 614.995 270.861C615.518 266.114 615.674 261.335 615.462 256.564C601.121 256.679 587.27 251.355 576.698 241.664C566.127 231.974 559.621 218.636 558.492 204.34Z" fill="black"/>
<path d="M596.294 204.791L634.176 201.804C635.073 201.717 635.9 201.283 636.482 200.594C637.063 199.905 637.352 199.016 637.287 198.117C637.2 197.217 636.763 196.387 636.071 195.805C635.379 195.223 634.486 194.936 633.584 195.006L595.828 197.946C594.926 198.029 594.094 198.465 593.511 199.158C592.928 199.851 592.643 200.746 592.716 201.649C592.788 202.534 593.202 203.358 593.869 203.944C594.537 204.531 595.407 204.834 596.294 204.791Z" fill="white"/>
<path d="M597.384 218.17L635.265 215.167C636.163 215.084 636.993 214.651 637.575 213.961C638.158 213.271 638.445 212.38 638.376 211.48C638.285 210.582 637.848 209.754 637.156 209.173C636.465 208.592 635.574 208.304 634.673 208.369L596.792 211.356C595.894 211.447 595.066 211.884 594.485 212.576C593.904 213.267 593.616 214.158 593.681 215.058C593.772 215.957 594.209 216.785 594.901 217.366C595.592 217.947 596.483 218.235 597.384 218.17Z" fill="white"/>
<path d="M595.237 191.428L633.165 188.441C634.064 188.35 634.891 187.913 635.472 187.221C636.053 186.53 636.342 185.639 636.276 184.738C636.197 183.838 635.765 183.006 635.074 182.423C634.384 181.84 633.49 181.554 632.589 181.627L594.708 184.614C593.81 184.697 592.98 185.13 592.397 185.82C591.815 186.51 591.528 187.401 591.597 188.301C591.676 189.194 592.101 190.02 592.781 190.605C593.461 191.189 594.343 191.484 595.237 191.428Z" fill="white"/>
</svg>
