<svg width="851" height="634" viewBox="0 0 851 634" fill="none" xmlns="http://www.w3.org/2000/svg">
<path d="M850.227 556.729H0V557.154H850.227V556.729Z" fill="#EBEBEB"/>
<path d="M765.034 584.089H708.715V584.514H765.034V584.089Z" fill="#EBEBEB"/>
<path d="M563.224 588.714H548.447V589.139H563.224V588.714Z" fill="#EBEBEB"/>
<path d="M707.015 568.309H674.383V568.734H707.015V568.309Z" fill="#EBEBEB"/>
<path d="M162.648 571.165H89.2056V571.59H162.648V571.165Z" fill="#EBEBEB"/>
<path d="M188.563 571.165H177.799V571.59H188.563V571.165Z" fill="#EBEBEB"/>
<path d="M382.857 578.341H223.559V578.766H382.857V578.341Z" fill="#EBEBEB"/>
<path d="M403.007 480.888H74.6667C72.0945 480.884 69.6292 479.859 67.812 478.038C65.9948 476.218 64.9741 473.751 64.9741 471.179V9.62457C64.9965 7.06713 66.027 4.6218 67.8418 2.81972C69.6566 1.01765 72.1092 0.00438103 74.6667 0H403.007C405.582 0 408.052 1.02297 409.873 2.84387C411.694 4.66477 412.717 7.13444 412.717 9.70959V471.179C412.717 473.754 411.694 476.223 409.873 478.044C408.052 479.865 405.582 480.888 403.007 480.888V480.888ZM74.6667 0.340092C72.2073 0.344596 69.8501 1.32476 68.1126 3.06545C66.3751 4.80614 65.3992 7.16511 65.3992 9.62457V471.179C65.3992 473.638 66.3751 475.997 68.1126 477.738C69.8501 479.478 72.2073 480.459 74.6667 480.463H403.007C405.468 480.459 407.827 479.479 409.567 477.739C411.308 475.999 412.287 473.64 412.292 471.179V9.62457C412.287 7.16355 411.308 4.80462 409.567 3.06441C407.827 1.32421 405.468 0.344587 403.007 0.340092H74.6667Z" fill="#EBEBEB"/>
<path d="M770.832 480.888H442.475C439.901 480.884 437.434 479.859 435.614 478.039C433.794 476.219 432.77 473.752 432.765 471.179V9.62457C432.792 7.06558 433.826 4.62026 435.644 2.81866C437.461 1.01706 439.916 0.00433325 442.475 0H770.832C773.387 0.00885 775.835 1.0241 777.646 2.82569C779.457 4.62728 780.485 7.07006 780.508 9.62457V471.179C780.508 473.748 779.49 476.212 777.676 478.032C775.862 479.852 773.401 480.879 770.832 480.888V480.888ZM442.475 0.340092C440.014 0.344587 437.655 1.32421 435.915 3.06441C434.174 4.80462 433.195 7.16355 433.19 9.62457V471.179C433.195 473.64 434.174 475.999 435.915 477.739C437.655 479.479 440.014 480.459 442.475 480.463H770.832C773.293 480.459 775.652 479.479 777.392 477.739C779.133 475.999 780.112 473.64 780.117 471.179V9.62457C780.112 7.16355 779.133 4.80462 777.392 3.06441C775.652 1.32421 773.293 0.344587 770.832 0.340092H442.475Z" fill="#EBEBEB"/>
<path d="M371.396 285.013L701.284 285.013V29.333L371.396 29.333L371.396 285.013Z" fill="#E6E6E6"/>
<path d="M364.526 285.013L694.414 285.013V29.333L364.526 29.333L364.526 285.013Z" fill="#F5F5F5"/>
<path d="M348.627 299.807L701.301 299.807V285.013L348.627 285.013V299.807Z" fill="#E6E6E6"/>
<path d="M340.873 299.807L678.345 299.807V285.013L340.873 285.013V299.807Z" fill="#F5F5F5"/>
<path d="M682.103 271.698V42.6133L376.872 42.6133V271.698H682.103Z" fill="#FAFAFA"/>
<path d="M490.258 271.698L575.739 42.6133H488.574L403.109 271.698H490.258Z" fill="white"/>
<path d="M553.277 271.698L638.741 42.6133H590.721L505.256 271.698H553.277Z" fill="white"/>
<path d="M536.357 271.698V42.6133H522.617V271.698H536.357Z" fill="#F5F5F5"/>
<path d="M382.041 271.698V42.6133H376.855V271.698H382.041Z" fill="#E6E6E6"/>
<path d="M541.526 271.698V42.6133H536.34V271.698H541.526Z" fill="#E6E6E6"/>
<path d="M153.449 294.756H282.564L282.564 29.3326H153.449L153.449 294.756Z" fill="#E6E6E6"/>
<path d="M135.22 294.756H277.718L277.718 29.3326H135.22L135.22 294.756Z" fill="#F0F0F0"/>
<path d="M254.626 271.664V52.4248L158.312 52.4248V271.664H254.626Z" fill="white"/>
<path d="M232.265 211.536V112.536C232.265 107.455 228.146 103.336 223.066 103.336H189.89C184.809 103.336 180.69 107.455 180.69 112.536V211.536C180.69 216.617 184.809 220.736 189.89 220.736H223.066C228.146 220.736 232.265 216.617 232.265 211.536Z" fill="#F5F5F5"/>
<path d="M136.512 346.706H125.578C114.309 346.706 105.173 355.841 105.173 367.111V507.296C105.173 518.566 114.309 527.702 125.578 527.702H136.512C147.782 527.702 156.918 518.566 156.918 507.296V367.111C156.918 355.841 147.782 346.706 136.512 346.706Z" fill="#F5F5F5"/>
<path d="M147.565 352.742H144.181C135.457 352.742 128.384 359.815 128.384 368.539V505.851C128.384 514.576 135.457 521.648 144.181 521.648H147.565C156.29 521.648 163.363 514.576 163.363 505.851V368.539C163.363 359.815 156.29 352.742 147.565 352.742Z" fill="#EBEBEB"/>
<path d="M174.109 346.706H163.175C151.906 346.706 142.77 355.841 142.77 367.111V507.296C142.77 518.566 151.906 527.702 163.175 527.702H174.109C185.379 527.702 194.515 518.566 194.515 507.296V367.111C194.515 355.841 185.379 346.706 174.109 346.706Z" fill="#F5F5F5"/>
<path d="M185.145 352.742H181.762C173.037 352.742 165.964 359.815 165.964 368.539V505.851C165.964 514.576 173.037 521.648 181.762 521.648H185.145C193.87 521.648 200.943 514.576 200.943 505.851V368.539C200.943 359.815 193.87 352.742 185.145 352.742Z" fill="#EBEBEB"/>
<path d="M211.689 346.706H200.756C189.486 346.706 180.35 355.841 180.35 367.111V507.296C180.35 518.566 189.486 527.702 200.756 527.702H211.689C222.959 527.702 232.095 518.566 232.095 507.296V367.111C232.095 355.841 222.959 346.706 211.689 346.706Z" fill="#F5F5F5"/>
<path d="M222.726 352.742H219.342C210.617 352.742 203.544 359.815 203.544 368.539V505.851C203.544 514.576 210.617 521.648 219.342 521.648H222.726C231.45 521.648 238.523 514.576 238.523 505.851V368.539C238.523 359.815 231.45 352.742 222.726 352.742Z" fill="#EBEBEB"/>
<path d="M249.27 346.706H238.336C227.066 346.706 217.93 355.841 217.93 367.111V507.296C217.93 518.566 227.066 527.702 238.336 527.702H249.27C260.539 527.702 269.675 518.566 269.675 507.296V367.111C269.675 355.841 260.539 346.706 249.27 346.706Z" fill="#F5F5F5"/>
<path d="M260.306 352.742H256.922C248.197 352.742 241.125 359.815 241.125 368.539V505.851C241.125 514.576 248.197 521.648 256.922 521.648H260.306C269.03 521.648 276.103 514.576 276.103 505.851V368.539C276.103 359.815 269.03 352.742 260.306 352.742Z" fill="#EBEBEB"/>
<path d="M286.85 346.706H275.916C264.646 346.706 255.51 355.841 255.51 367.111V507.296C255.51 518.566 264.646 527.702 275.916 527.702H286.85C298.119 527.702 307.255 518.566 307.255 507.296V367.111C307.255 355.841 298.119 346.706 286.85 346.706Z" fill="#F5F5F5"/>
<path d="M297.885 352.742H294.518C285.794 352.742 278.721 359.815 278.721 368.539V505.851C278.721 514.576 285.794 521.648 294.518 521.648H297.885C306.61 521.648 313.683 514.576 313.683 505.851V368.539C313.683 359.815 306.61 352.742 297.885 352.742Z" fill="#EBEBEB"/>
<path d="M324.446 346.706H313.512C302.243 346.706 293.107 355.841 293.107 367.111V507.296C293.107 518.566 302.243 527.702 313.512 527.702H324.446C335.716 527.702 344.852 518.566 344.852 507.296V367.111C344.852 355.841 335.716 346.706 324.446 346.706Z" fill="#F5F5F5"/>
<path d="M335.465 352.742H332.098C323.374 352.742 316.301 359.815 316.301 368.539V505.851C316.301 514.576 323.374 521.648 332.098 521.648H335.465C344.19 521.648 351.263 514.576 351.263 505.851V368.539C351.263 359.815 344.19 352.742 335.465 352.742Z" fill="#EBEBEB"/>
<path d="M362.026 346.706H351.092C339.823 346.706 330.687 355.841 330.687 367.111V507.296C330.687 518.566 339.823 527.702 351.092 527.702H362.026C373.296 527.702 382.432 518.566 382.432 507.296V367.111C382.432 355.841 373.296 346.706 362.026 346.706Z" fill="#F5F5F5"/>
<path d="M385.901 507.586H340.873C339.971 507.586 339.106 507.227 338.468 506.589C337.83 505.952 337.472 505.087 337.472 504.185C337.472 503.283 337.83 502.418 338.468 501.78C339.106 501.142 339.971 500.784 340.873 500.784H385.901C386.803 500.784 387.668 501.142 388.306 501.78C388.944 502.418 389.302 503.283 389.302 504.185C389.302 505.087 388.944 505.952 388.306 506.589C387.668 507.227 386.803 507.586 385.901 507.586Z" fill="#F5F5F5"/>
<path d="M385.901 378.062H340.873C339.971 378.062 339.106 377.703 338.468 377.065C337.83 376.428 337.472 375.563 337.472 374.661C337.472 373.759 337.83 372.894 338.468 372.256C339.106 371.618 339.971 371.26 340.873 371.26H385.901C386.803 371.26 387.668 371.618 388.306 372.256C388.944 372.894 389.302 373.759 389.302 374.661C389.302 375.563 388.944 376.428 388.306 377.065C387.668 377.703 386.803 378.062 385.901 378.062Z" fill="#F5F5F5"/>
<path d="M508.979 411.612H635C638.258 411.612 641.382 410.319 643.687 408.017C645.992 405.715 647.29 402.592 647.294 399.334V399.334C647.29 396.077 645.992 392.954 643.687 390.652C641.382 388.35 638.258 387.057 635 387.057H508.979C505.723 387.057 502.601 388.351 500.298 390.653C497.996 392.955 496.702 396.078 496.702 399.334C496.702 400.947 497.02 402.543 497.637 404.033C498.254 405.522 499.158 406.876 500.298 408.016C501.438 409.156 502.792 410.06 504.281 410.677C505.771 411.294 507.367 411.612 508.979 411.612Z" fill="#EBEBEB"/>
<path d="M574.753 345.328C570.104 344.351 566.032 341.57 563.431 337.595C560.83 333.62 559.911 328.775 560.877 324.123L578.766 238.557C579.246 236.252 580.175 234.065 581.501 232.12C582.826 230.176 584.522 228.511 586.492 227.223C588.461 225.934 590.665 225.046 592.978 224.61C595.291 224.174 597.667 224.198 599.971 224.681V224.681C602.277 225.159 604.465 226.086 606.412 227.411C608.359 228.736 610.025 230.432 611.316 232.401C612.606 234.371 613.495 236.576 613.933 238.89C614.37 241.204 614.346 243.581 613.864 245.886L595.992 331.452C595.51 333.759 594.579 335.948 593.25 337.894C591.922 339.841 590.223 341.506 588.25 342.795C586.277 344.083 584.07 344.97 581.754 345.405C579.438 345.84 577.059 345.814 574.753 345.328V345.328Z" fill="#E0E0E0"/>
<path d="M563.938 343.492C561.948 343.796 559.918 343.704 557.963 343.223C556.009 342.741 554.168 341.878 552.548 340.684C550.927 339.49 549.558 337.988 548.519 336.263C547.479 334.539 546.791 332.627 546.492 330.636L535.32 256.701C535.018 254.712 535.111 252.683 535.594 250.73C536.077 248.778 536.94 246.94 538.134 245.321C539.328 243.702 540.829 242.334 542.552 241.296C544.275 240.258 546.186 239.57 548.175 239.271C550.165 238.967 552.196 239.058 554.15 239.54C556.105 240.022 557.945 240.884 559.566 242.079C561.186 243.273 562.556 244.775 563.595 246.499C564.634 248.223 565.323 250.136 565.622 252.126L576.794 326.045C577.098 328.035 577.006 330.065 576.525 332.02C576.043 333.975 575.18 335.815 573.986 337.436C572.792 339.056 571.29 340.425 569.565 341.465C567.841 342.504 565.929 343.193 563.938 343.492V343.492Z" fill="#E0E0E0"/>
<path d="M585.687 261.241C584.461 261.777 583.074 261.81 581.824 261.333C580.574 260.856 579.561 259.907 579.005 258.69L568.938 236.21C568.406 234.988 568.373 233.607 568.847 232.361C569.32 231.115 570.262 230.104 571.472 229.544V229.544C572.697 229.008 574.085 228.975 575.335 229.452C576.585 229.929 577.597 230.878 578.154 232.095L588.221 254.575C588.753 255.797 588.786 257.178 588.312 258.424C587.839 259.67 586.897 260.681 585.687 261.241V261.241Z" fill="#E0E0E0"/>
<path d="M616.142 263.4C616.982 264.438 617.38 265.764 617.253 267.093C617.126 268.422 616.483 269.648 615.462 270.508L596.434 286.169C595.394 287.006 594.067 287.402 592.738 287.272C591.409 287.142 590.184 286.495 589.326 285.472V285.472C588.489 284.432 588.093 283.105 588.224 281.776C588.354 280.447 589 279.222 590.024 278.364L609.035 262.72C610.073 261.881 611.398 261.482 612.727 261.609C614.056 261.736 615.282 262.379 616.142 263.4V263.4Z" fill="#E0E0E0"/>
<path d="M561.592 236.363C562.29 236.676 562.836 237.251 563.113 237.964C563.39 238.677 563.375 239.47 563.071 240.172L557.409 253.044C557.096 253.742 556.521 254.289 555.808 254.566C555.095 254.843 554.302 254.828 553.6 254.524V254.524C552.902 254.211 552.355 253.636 552.078 252.923C551.801 252.21 551.816 251.417 552.12 250.715L557.783 237.842C558.095 237.144 558.671 236.598 559.384 236.321C560.097 236.044 560.89 236.059 561.592 236.363V236.363Z" fill="#E0E0E0"/>
<path d="M531.29 262.295C531.847 261.771 532.59 261.489 533.355 261.511C534.12 261.533 534.845 261.858 535.371 262.414L545.029 272.617C545.554 273.174 545.836 273.917 545.813 274.682C545.791 275.447 545.466 276.172 544.91 276.698C544.353 277.222 543.61 277.504 542.845 277.482C542.08 277.46 541.355 277.135 540.829 276.579L531.171 266.376C530.646 265.819 530.364 265.076 530.386 264.311C530.409 263.546 530.734 262.821 531.29 262.295Z" fill="#E0E0E0"/>
<path d="M605.293 387.057H538.704L524.811 321.386H619.186L605.293 387.057Z" fill="#E6E6E6"/>
<path d="M612.929 332.711H531.069C528.065 332.711 525.185 331.517 523.061 329.394C520.937 327.27 519.744 324.389 519.744 321.386C519.748 318.385 520.943 315.509 523.067 313.389C525.19 311.268 528.068 310.078 531.069 310.078H612.929C615.929 310.078 618.807 311.268 620.93 313.389C623.054 315.509 624.249 318.385 624.253 321.386V321.386C624.253 324.389 623.06 327.27 620.937 329.394C618.813 331.517 615.932 332.711 612.929 332.711Z" fill="#F5F5F5"/>
<path d="M493.999 556.729L521.682 411.612H544.859L502.79 556.729H493.999Z" fill="#E0E0E0"/>
<path d="M649.998 556.729L622.332 411.612H599.138L641.207 556.729H649.998Z" fill="#E0E0E0"/>
<path d="M599.138 556.729L579.021 411.612H555.844L590.346 556.729H599.138Z" fill="#E0E0E0"/>
<path d="M425.113 633.521C607.202 633.521 754.814 624.903 754.814 614.272C754.814 603.641 607.202 595.022 425.113 595.022C243.025 595.022 95.4126 603.641 95.4126 614.272C95.4126 624.903 243.025 633.521 425.113 633.521Z" fill="#F5F5F5"/>
<path d="M235.326 468.186H157.547C156.194 468.186 154.897 467.648 153.94 466.692C152.983 465.735 152.446 464.437 152.446 463.084C152.446 461.731 152.983 460.434 153.94 459.477C154.897 458.52 156.194 457.983 157.547 457.983H235.326C236.679 457.983 237.976 458.52 238.933 459.477C239.89 460.434 240.427 461.731 240.427 463.084C240.427 464.437 239.89 465.735 238.933 466.692C237.976 467.648 236.679 468.186 235.326 468.186V468.186Z" fill="#FF0400"/>
<path opacity="0.8" d="M235.326 468.186H157.547C156.194 468.186 154.897 467.648 153.94 466.692C152.983 465.735 152.446 464.437 152.446 463.084C152.446 461.731 152.983 460.434 153.94 459.477C154.897 458.52 156.194 457.983 157.547 457.983H235.326C236.679 457.983 237.976 458.52 238.933 459.477C239.89 460.434 240.427 461.731 240.427 463.084C240.427 464.437 239.89 465.735 238.933 466.692C237.976 467.648 236.679 468.186 235.326 468.186V468.186Z" fill="white"/>
<path d="M305.367 599.444L316.828 594.189L311.302 564.602L299.858 569.873L305.367 599.444Z" fill="#7F3E3B"/>
<path d="M316.284 591.043L303.412 596.944C303.191 597.035 303.015 597.209 302.923 597.429C302.83 597.649 302.829 597.896 302.919 598.117L306.966 608.592C307.211 609.128 307.657 609.546 308.207 609.756C308.757 609.966 309.368 609.951 309.908 609.714C314.363 607.572 316.369 606.314 322.032 603.729C325.518 602.13 340.499 595.703 345.294 593.526C350.089 591.35 347.794 586.622 345.549 587.132C335.534 589.394 322.984 591.928 318.58 590.873C317.818 590.67 317.009 590.73 316.284 591.043V591.043Z" fill="#263238"/>
<path opacity="0.2" d="M299.841 569.873L311.302 564.618L314.159 579.871L302.681 585.126L299.841 569.873Z" fill="black"/>
<path d="M224.562 409.18C224.562 409.18 322.644 416.203 318.682 452.134C313.003 503.776 317.679 569.108 317.679 569.108L296.321 577.916C296.321 577.916 277.616 505.12 282.599 464.87C258.129 454.667 191.777 464.445 183.972 443.308C180.157 432.356 179.151 420.622 181.047 409.18H224.562Z" fill="#263238"/>
<path opacity="0.3" d="M272.345 439.091C272.345 439.091 269.964 449.77 268.332 461.367H268.553L271.069 461.758L272.345 461.996L273.79 462.268C275.761 462.658 277.708 463.157 279.623 463.764C280.082 463.9 280.507 464.053 280.932 464.206C281.357 464.36 282.071 464.615 282.632 464.836C282.043 469.796 281.754 474.787 281.765 479.783C296.644 457.932 283.857 439.091 272.345 439.091Z" fill="black"/>
<path d="M294.4 584.939L322.032 572.253L320.247 562.084L291.832 572.474L294.4 584.939Z" fill="#FF0400"/>
<path d="M321.386 591.18C320.34 591.619 319.251 591.949 318.138 592.166C318.083 592.178 318.026 592.173 317.974 592.152C317.923 592.131 317.879 592.094 317.849 592.047C317.817 591.999 317.799 591.943 317.799 591.885C317.799 591.828 317.817 591.772 317.849 591.724C318.087 591.299 320.314 587.609 321.964 587.507C322.153 587.493 322.342 587.53 322.513 587.614C322.683 587.697 322.828 587.825 322.933 587.983C323.128 588.194 323.263 588.454 323.323 588.735C323.383 589.017 323.365 589.309 323.273 589.581C322.867 590.332 322.193 590.903 321.386 591.18V591.18ZM318.699 591.435C320.926 590.908 322.406 590.159 322.695 589.377C322.757 589.199 322.767 589.008 322.725 588.824C322.683 588.641 322.59 588.473 322.457 588.34C322.409 588.259 322.338 588.193 322.254 588.151C322.169 588.109 322.075 588.092 321.981 588.102C321.046 588.153 319.583 590.057 318.648 591.435H318.699Z" fill="#FF0400"/>
<path d="M318.155 592.149H317.985C317.934 592.152 317.884 592.139 317.841 592.111C317.798 592.084 317.765 592.043 317.747 591.996C317.747 591.876 315.893 588.697 316.54 587.047C316.616 586.834 316.742 586.643 316.908 586.489C317.074 586.335 317.274 586.223 317.492 586.163C317.723 586.063 317.982 586.044 318.225 586.108C318.469 586.173 318.684 586.318 318.835 586.52C319.668 587.642 319.073 590.822 318.24 592.029L318.155 592.149ZM317.577 586.775C317.469 586.824 317.373 586.894 317.294 586.982C317.214 587.07 317.155 587.173 317.118 587.285C316.989 588.676 317.311 590.071 318.036 591.264C318.717 589.909 318.845 588.342 318.393 586.894C318.291 586.741 318.121 586.605 317.713 586.724L317.577 586.775Z" fill="#FF0400"/>
<path d="M229.34 306.949L241.243 341.468C243.267 347.215 245.273 352.946 247.348 358.609C249.423 364.271 251.548 369.917 253.827 375.29L253.266 374.27C252.695 373.445 251.93 372.773 251.038 372.314C249.994 371.762 248.814 371.52 247.637 371.617C246.09 371.821 246.141 372.144 246.311 372.025C247.299 371.553 248.206 370.928 248.997 370.172C251.362 368.062 253.605 365.82 255.714 363.455C257.976 360.989 260.203 358.353 262.516 355.786L269.216 347.896L277.344 352.759C275.933 356.16 274.334 359.357 272.702 362.605C271.069 365.852 269.301 368.981 267.277 372.127C265.251 375.407 262.977 378.528 260.476 381.463C258.891 383.306 257.073 384.935 255.068 386.309C253.228 387.582 251.09 388.355 248.861 388.553C246.818 388.718 244.77 388.293 242.961 387.329C241.293 386.438 239.878 385.139 238.846 383.554L238.642 383.248L238.285 382.551C235.428 376.769 232.911 371.056 230.497 365.274C228.082 359.493 225.786 353.762 223.593 347.964C221.399 342.165 219.257 336.367 217.216 330.534C215.175 324.701 213.169 318.869 211.315 312.917L229.34 306.949Z" fill="#803E3C"/>
<path d="M231.483 308.819C241.685 320.586 248.487 337.047 248.487 337.047L221.688 353.184C213.951 343.764 204.309 318.801 203.901 310.384C203.306 297.443 220.43 296.151 231.483 308.819Z" fill="#FF0400"/>
<path opacity="0.3" d="M222.028 320.825C227.878 325.739 232.027 335.959 233.931 345.872L221.79 353.184C217.964 348.525 213.662 340.074 210.244 331.673C212.897 323.341 216.859 316.471 222.028 320.825Z" fill="black"/>
<path d="M225.82 598.458H238.438L244.202 569.278H231.602L225.82 598.458Z" fill="#7F3E3B"/>
<path d="M238.829 595.397H224.664C224.546 595.392 224.428 595.411 224.317 595.452C224.206 595.493 224.104 595.556 224.017 595.636C223.93 595.717 223.86 595.814 223.81 595.921C223.761 596.029 223.733 596.145 223.729 596.264L223.032 607.47C223.032 608.059 223.263 608.625 223.677 609.045C224.091 609.465 224.653 609.706 225.242 609.714C230.174 609.629 232.537 609.34 238.761 609.34C242.587 609.34 255.595 609.731 260.867 609.731C266.138 609.731 265.968 604.494 263.758 604.018C253.708 601.892 244.542 598.917 240.972 596.179C240.369 595.679 239.612 595.403 238.829 595.397Z" fill="#263238"/>
<path opacity="0.2" d="M231.602 569.278H244.202L241.226 584.327H228.609L231.602 569.278Z" fill="black"/>
<path d="M199.854 409.18C199.854 409.18 282.973 416.203 280.932 452.287C278.687 491.805 246.702 580.688 246.702 580.688H223.61C223.61 580.688 234.05 500.273 239.101 460.041C215.686 460.041 167.07 464.445 159.282 443.308C155.494 432.349 154.518 420.615 156.442 409.18H199.854Z" fill="#263238"/>
<path d="M221.127 580.688H251.531L253.266 568.7L221.535 570.128L221.127 580.688Z" fill="#FF0400"/>
<path d="M243.284 597.59C242.138 597.564 240.998 597.416 239.883 597.148C239.826 597.137 239.774 597.11 239.733 597.069C239.692 597.028 239.664 596.976 239.653 596.919C239.642 596.862 239.649 596.804 239.671 596.75C239.694 596.697 239.732 596.652 239.781 596.621C240.189 596.332 243.743 593.9 245.29 594.495C245.463 594.567 245.616 594.681 245.735 594.827C245.853 594.972 245.934 595.144 245.97 595.329C246.05 595.603 246.059 595.894 245.997 596.174C245.935 596.453 245.803 596.712 245.613 596.927C244.944 597.426 244.115 597.662 243.284 597.59ZM240.733 596.723C242.995 597.165 244.661 597.097 245.239 596.519C245.367 596.379 245.456 596.208 245.495 596.022C245.533 595.837 245.522 595.644 245.46 595.465C245.447 595.372 245.408 595.285 245.348 595.213C245.288 595.141 245.209 595.087 245.12 595.056C244.304 594.733 242.195 595.788 240.733 596.723Z" fill="#FF0400"/>
<path d="M240.002 597.148C239.958 597.165 239.91 597.165 239.866 597.148C239.822 597.116 239.789 597.071 239.771 597.019C239.752 596.968 239.75 596.912 239.764 596.859C239.764 596.706 239.458 593.084 240.733 591.86C240.897 591.703 241.093 591.585 241.308 591.515C241.523 591.444 241.75 591.422 241.975 591.451C242.226 591.46 242.467 591.552 242.661 591.711C242.854 591.871 242.99 592.091 243.046 592.336C243.335 593.713 241.448 596.349 240.206 597.097L240.002 597.148ZM241.703 592.047C241.468 592.046 241.242 592.138 241.073 592.302C240.374 593.51 240.081 594.911 240.24 596.298C241.346 595.38 242.587 593.373 242.4 592.472C242.4 592.302 242.264 592.098 241.839 592.047H241.703Z" fill="#FF0400"/>
<path d="M267.328 352.181L271.239 338.203L283.84 346.518C283.84 346.518 277.038 358.626 272.77 357.639L267.328 352.181Z" fill="#7F3E3B"/>
<path d="M282.921 332.523L289.502 340.09L283.84 346.518L271.239 338.186L282.921 332.523Z" fill="#7F3E3B"/>
<path d="M224.46 409.809H157.054C156.578 403.789 157.972 384.2 156.935 359.255C156.294 340.765 154.052 322.365 150.235 304.262C149.929 302.901 149.623 301.558 149.3 300.198C149.3 300.198 152.701 299.501 157.615 298.786C161.679 298.191 166.78 297.579 171.78 297.341C181.323 296.796 190.889 296.796 200.432 297.341C204.837 297.749 209.139 298.48 212.574 299.143C216.961 300.028 219.546 300.844 219.546 300.844C219.546 300.844 236.159 338.934 224.46 409.809Z" fill="#FF0400"/>
<path opacity="0.3" d="M156.935 359.271C156.294 340.782 154.053 322.382 150.235 304.279C154.742 303.888 162.445 304.279 163.72 311.608C165.097 319.43 163.363 337.829 156.935 359.271Z" fill="black"/>
<path d="M162.376 316.845C160.897 321.045 159.299 325.569 157.887 329.973C156.476 334.377 155.082 338.866 153.823 343.321C151.208 351.932 149.364 360.758 148.314 369.695L148.195 371.26V372.042C148.195 372.212 148.195 372.824 148.195 372.348C148.069 371.374 147.694 370.448 147.106 369.661C146.405 368.67 145.403 367.931 144.25 367.553C143.603 367.383 143.433 367.434 143.416 367.451C143.595 367.498 143.782 367.498 143.961 367.451C144.758 367.401 145.55 367.275 146.324 367.077C150.524 365.934 154.629 364.467 158.601 362.689C167.104 359.051 175.725 354.833 184.227 350.65L189.431 358.54C181.779 364.907 173.649 370.677 165.114 375.8C160.603 378.568 155.837 380.897 150.881 382.755C149.358 383.29 147.794 383.705 146.205 383.996C145.201 384.186 144.183 384.294 143.161 384.319C141.669 384.347 140.182 384.135 138.757 383.69C136.44 382.971 134.422 381.514 133.01 379.541C131.751 377.726 131.032 375.592 130.935 373.385C130.91 372.892 130.91 372.399 130.935 371.906V368.828C131.07 363.605 131.587 358.399 132.483 353.252C133.299 348.151 134.353 343.287 135.577 338.441C136.802 333.595 138.128 328.799 139.658 324.072C141.189 319.345 142.719 314.737 144.658 309.941L162.376 316.845Z" fill="#803E3C"/>
<path d="M149.3 300.215C161.577 296.338 169.433 306.15 166.032 323.171C163.716 334.046 159.784 344.512 154.367 354.221L129.558 342.454C131.921 325.773 136.734 304.177 149.3 300.215Z" fill="#FF0400"/>
<path d="M172.392 265.271L180.061 271.63L190.502 280.303C190.193 281.693 189.971 283.101 189.839 284.52C189.278 290.182 190.74 295.335 199.072 297.307C199.072 297.307 207.269 304.959 190.876 305.197C174.484 305.435 170.675 297.477 170.675 297.477C176.847 291.27 174.518 274.453 172.392 265.271Z" fill="#7F3E3B"/>
<path opacity="0.2" d="M190.451 280.251C190.141 281.642 189.92 283.05 189.788 284.469C185.894 283.686 180.69 279.537 180.146 275.558C179.955 274.241 179.909 272.906 180.01 271.579L190.451 280.251Z" fill="black"/>
<path d="M202.66 255.663C205.67 248.861 203.782 239.016 198.681 235.36C197.566 234.527 196.239 234.023 194.852 233.906C193.465 233.789 192.073 234.062 190.833 234.696C189.594 235.33 188.557 236.299 187.84 237.492C187.123 238.685 186.755 240.055 186.778 241.447C186.506 249.813 199.225 263.4 202.66 255.663Z" fill="#263238"/>
<path d="M169.229 251.939C171.899 264.199 172.834 271.477 180.078 277.072C182.411 278.912 185.202 280.081 188.151 280.45C191.099 280.82 194.093 280.377 196.808 279.169C199.523 277.961 201.857 276.035 203.556 273.597C205.256 271.159 206.257 268.304 206.452 265.338C207.404 253.928 202.898 235.785 189.992 232.316C187.218 231.493 184.276 231.414 181.462 232.087C178.648 232.759 176.06 234.159 173.958 236.146C171.855 238.134 170.311 240.639 169.481 243.41C168.652 246.182 168.565 249.123 169.229 251.939Z" fill="#7F3E3B"/>
<path d="M174.432 261.496C178.326 255.136 177.714 245.137 173.157 240.852C172.161 239.861 170.906 239.171 169.535 238.862C168.165 238.553 166.735 238.636 165.41 239.103C164.085 239.571 162.918 240.402 162.045 241.503C161.171 242.603 160.626 243.928 160.472 245.324C159.179 253.606 170.045 268.672 174.432 261.496Z" fill="#263238"/>
<path d="M176.388 246.323C179.179 244.872 180.265 241.432 178.813 238.641C177.361 235.85 173.922 234.764 171.13 236.216C168.339 237.667 167.254 241.107 168.705 243.898C170.157 246.689 173.597 247.775 176.388 246.323Z" fill="#263238"/>
<path d="M174.365 238.948C174.07 239.918 173.493 240.779 172.707 241.42C171.921 242.061 170.962 242.453 169.952 242.546C168.942 242.639 167.927 242.429 167.037 241.943C166.147 241.456 165.422 240.716 164.955 239.815C164.488 238.915 164.3 237.896 164.415 236.888C164.53 235.881 164.942 234.93 165.6 234.158C166.258 233.386 167.13 232.827 168.107 232.554C169.084 232.28 170.12 232.304 171.083 232.622C172.347 233.04 173.398 233.935 174.011 235.117C174.625 236.299 174.751 237.674 174.365 238.948Z" fill="#263238"/>
<path d="M182.918 238.063C182.617 239.028 182.037 239.882 181.25 240.516C180.463 241.151 179.506 241.537 178.5 241.627C177.493 241.716 176.482 241.505 175.596 241.019C174.71 240.533 173.988 239.795 173.522 238.899C173.055 238.002 172.866 236.987 172.977 235.983C173.089 234.978 173.496 234.03 174.147 233.257C174.799 232.484 175.665 231.923 176.636 231.643C177.607 231.363 178.64 231.379 179.602 231.686C180.884 232.097 181.953 232.997 182.574 234.192C183.195 235.386 183.319 236.778 182.918 238.063V238.063Z" fill="#263238"/>
<path d="M172.817 232.469C172.422 233.731 171.66 234.848 170.63 235.677C169.599 236.507 168.346 237.012 167.028 237.128C165.71 237.245 164.387 236.967 163.227 236.331C162.067 235.695 161.122 234.73 160.511 233.556C159.901 232.382 159.652 231.054 159.797 229.739C159.942 228.424 160.474 227.182 161.326 226.169C162.177 225.157 163.31 224.42 164.581 224.052C165.852 223.684 167.203 223.702 168.464 224.102C169.3 224.364 170.077 224.788 170.749 225.35C171.422 225.913 171.976 226.603 172.38 227.38C172.785 228.158 173.032 229.008 173.107 229.881C173.182 230.754 173.083 231.634 172.817 232.469V232.469Z" fill="#263238"/>
<path d="M182.833 228.966C182.433 230.252 181.66 231.391 180.613 232.237C179.565 233.084 178.289 233.6 176.948 233.721C175.606 233.842 174.259 233.562 173.077 232.916C171.895 232.271 170.931 231.288 170.308 230.094C169.684 228.9 169.43 227.548 169.576 226.209C169.722 224.87 170.262 223.604 171.128 222.573C171.995 221.541 173.148 220.79 174.441 220.415C175.735 220.039 177.111 220.056 178.395 220.464C180.107 221.007 181.536 222.206 182.367 223.799C183.199 225.392 183.366 227.25 182.833 228.966Z" fill="#263238"/>
<path d="M191.675 226.619C191.276 227.905 190.505 229.044 189.458 229.891C188.412 230.739 187.137 231.256 185.797 231.379C184.456 231.501 183.109 231.223 181.926 230.579C180.743 229.935 179.778 228.955 179.153 227.762C178.529 226.569 178.272 225.218 178.415 223.879C178.559 222.54 179.097 221.274 179.961 220.241C180.824 219.209 181.975 218.455 183.268 218.077C184.56 217.699 185.935 217.713 187.22 218.117C188.936 218.657 190.368 219.855 191.203 221.448C192.038 223.041 192.208 224.901 191.675 226.619V226.619Z" fill="#263238"/>
<path d="M201.946 226.653C201.529 227.926 200.745 229.048 199.693 229.877C198.641 230.707 197.367 231.207 196.032 231.315C194.697 231.424 193.359 231.135 192.187 230.486C191.015 229.837 190.061 228.857 189.444 227.668C188.827 226.479 188.575 225.134 188.72 223.802C188.864 222.47 189.399 221.211 190.257 220.181C191.114 219.152 192.257 218.399 193.541 218.017C194.824 217.634 196.193 217.64 197.474 218.032C198.338 218.297 199.142 218.731 199.836 219.31C200.531 219.889 201.103 220.601 201.52 221.404C201.936 222.206 202.188 223.084 202.262 223.986C202.335 224.887 202.227 225.794 201.946 226.653Z" fill="#263238"/>
<path d="M167.954 239.645C167.587 240.803 166.886 241.826 165.938 242.585C164.99 243.344 163.838 243.804 162.629 243.909C161.419 244.013 160.205 243.756 159.141 243.171C158.077 242.585 157.211 241.698 156.652 240.62C156.093 239.542 155.866 238.322 156 237.115C156.134 235.908 156.623 234.768 157.405 233.839C158.187 232.911 159.227 232.234 160.393 231.897C161.56 231.559 162.8 231.575 163.958 231.942C165.509 232.434 166.801 233.522 167.55 234.966C168.299 236.411 168.445 238.093 167.954 239.645V239.645Z" fill="#263238"/>
<path d="M188.75 234.067C188.42 235.113 187.788 236.037 186.933 236.723C186.078 237.409 185.039 237.827 183.947 237.922C182.855 238.018 181.759 237.788 180.798 237.26C179.836 236.733 179.053 235.933 178.547 234.96C178.04 233.988 177.834 232.887 177.953 231.798C178.072 230.708 178.511 229.678 179.216 228.838C179.92 227.998 180.858 227.386 181.91 227.078C182.963 226.771 184.083 226.783 185.128 227.112C185.823 227.331 186.468 227.684 187.025 228.152C187.583 228.62 188.044 229.194 188.38 229.839C188.716 230.485 188.922 231.191 188.986 231.916C189.049 232.642 188.969 233.373 188.75 234.067V234.067Z" fill="#263238"/>
<path d="M195.552 233.557C195.273 234.447 194.737 235.233 194.011 235.818C193.285 236.402 192.402 236.758 191.474 236.841C190.546 236.923 189.614 236.728 188.796 236.281C187.979 235.833 187.312 235.153 186.881 234.327C186.45 233.501 186.274 232.565 186.375 231.639C186.476 230.712 186.849 229.836 187.448 229.122C188.047 228.408 188.844 227.888 189.739 227.627C190.634 227.366 191.586 227.376 192.474 227.657C193.664 228.032 194.657 228.864 195.234 229.97C195.811 231.077 195.925 232.367 195.552 233.557V233.557Z" fill="#263238"/>
<path d="M205.925 229.901C205.643 230.785 205.106 231.566 204.381 232.145C203.656 232.723 202.776 233.074 201.852 233.153C200.928 233.232 200.001 233.035 199.188 232.588C198.376 232.14 197.714 231.461 197.287 230.638C196.86 229.815 196.686 228.883 196.788 227.961C196.89 227.039 197.263 226.168 197.86 225.458C198.457 224.747 199.25 224.23 200.141 223.971C201.032 223.711 201.979 223.722 202.864 224.001C203.453 224.186 204 224.487 204.472 224.884C204.945 225.281 205.335 225.768 205.619 226.316C205.903 226.864 206.077 227.463 206.129 228.078C206.182 228.693 206.112 229.313 205.925 229.901V229.901Z" fill="#263238"/>
<path d="M201.725 233.744C201.458 234.595 200.945 235.347 200.25 235.906C199.555 236.465 198.71 236.806 197.822 236.884C196.934 236.963 196.042 236.776 195.26 236.348C194.478 235.919 193.841 235.268 193.429 234.478C193.017 233.687 192.849 232.792 192.946 231.905C193.043 231.019 193.4 230.181 193.974 229.498C194.547 228.815 195.31 228.318 196.166 228.069C197.022 227.82 197.933 227.83 198.783 228.099C199.348 228.275 199.872 228.561 200.326 228.94C200.78 229.32 201.154 229.785 201.428 230.31C201.701 230.834 201.868 231.408 201.919 231.997C201.97 232.587 201.904 233.18 201.725 233.744Z" fill="#263238"/>
<path d="M210.108 227.707C209.888 228.408 209.466 229.027 208.894 229.487C208.322 229.947 207.627 230.226 206.896 230.291C206.165 230.355 205.432 230.201 204.788 229.848C204.145 229.496 203.621 228.96 203.282 228.309C202.943 227.658 202.806 226.921 202.886 226.192C202.967 225.462 203.262 224.773 203.734 224.212C204.206 223.65 204.835 223.242 205.54 223.037C206.244 222.833 206.994 222.843 207.693 223.065C208.157 223.21 208.588 223.446 208.961 223.758C209.334 224.07 209.641 224.453 209.866 224.884C210.09 225.316 210.227 225.787 210.269 226.272C210.31 226.756 210.256 227.244 210.108 227.707V227.707Z" fill="#263238"/>
<path d="M211.961 231.125C211.832 231.544 211.581 231.915 211.24 232.191C210.899 232.467 210.483 232.635 210.047 232.675C209.61 232.714 209.171 232.622 208.786 232.411C208.402 232.2 208.089 231.88 207.887 231.49C207.685 231.101 207.603 230.66 207.653 230.225C207.702 229.789 207.88 229.377 208.163 229.043C208.447 228.708 208.824 228.466 209.246 228.346C209.668 228.226 210.116 228.235 210.533 228.371C210.808 228.458 211.063 228.598 211.283 228.783C211.504 228.969 211.685 229.196 211.818 229.452C211.951 229.708 212.031 229.987 212.056 230.274C212.081 230.562 212.049 230.851 211.961 231.125V231.125Z" fill="#263238"/>
<path d="M175.266 233.863C175.135 234.28 174.883 234.649 174.542 234.923C174.201 235.197 173.787 235.364 173.351 235.402C172.916 235.441 172.479 235.349 172.095 235.139C171.712 234.929 171.399 234.61 171.197 234.222C170.995 233.835 170.912 233.396 170.959 232.961C171.007 232.527 171.182 232.116 171.463 231.781C171.743 231.445 172.117 231.201 172.537 231.078C172.957 230.956 173.403 230.96 173.82 231.092C174.377 231.271 174.84 231.663 175.111 232.181C175.381 232.7 175.437 233.304 175.266 233.863V233.863Z" fill="#263238"/>
<path d="M167.24 263.298C168.916 265.478 171.338 266.961 174.042 267.464C177.443 268.076 178.565 264.896 177.034 261.802C175.64 259.013 172.188 255.34 168.974 256.122C165.76 256.904 165.182 260.594 167.24 263.298Z" fill="#7F3E3B"/>
<path d="M190.23 253.061C190.383 254.065 191.046 254.762 191.709 254.762C192.372 254.762 192.781 253.81 192.628 252.806C192.474 251.803 191.811 251.106 191.148 251.106C190.485 251.106 190.077 252.058 190.23 253.061Z" fill="#263238"/>
<path d="M201.64 251.667C201.793 252.67 202.456 253.367 203.119 253.367C203.783 253.367 204.191 252.398 204.038 251.395C203.885 250.392 203.221 249.694 202.558 249.694C201.895 249.694 201.487 250.698 201.64 251.667Z" fill="#263238"/>
<path d="M198.171 252.109C199.429 254.698 201.031 257.106 202.932 259.268C202.37 259.723 201.714 260.048 201.011 260.218C200.308 260.389 199.576 260.401 198.868 260.254L198.171 252.109Z" fill="#630F0F"/>
<path d="M194.192 265.424C193.013 265.437 191.843 265.212 190.753 264.762C189.663 264.312 188.675 263.646 187.849 262.805C187.797 262.747 187.771 262.67 187.775 262.592C187.78 262.513 187.816 262.44 187.874 262.389C187.933 262.337 188.01 262.31 188.088 262.315C188.166 262.32 188.239 262.355 188.291 262.414C189.209 263.309 190.317 263.986 191.534 264.392C192.75 264.798 194.042 264.924 195.314 264.761C195.39 264.755 195.465 264.779 195.525 264.826C195.585 264.873 195.625 264.941 195.637 265.016C195.647 265.094 195.626 265.174 195.578 265.237C195.531 265.301 195.46 265.343 195.382 265.356C194.987 265.403 194.589 265.426 194.192 265.424V265.424Z" fill="#263238"/>
<path d="M185.639 247.263C185.546 247.235 185.459 247.188 185.384 247.127C185.327 247.071 185.282 247.005 185.252 246.932C185.221 246.859 185.205 246.781 185.205 246.702C185.205 246.623 185.221 246.544 185.252 246.471C185.282 246.398 185.327 246.332 185.384 246.277C186.003 245.55 186.794 244.989 187.685 244.645C188.575 244.3 189.538 244.183 190.485 244.304C190.563 244.316 190.638 244.344 190.705 244.386C190.772 244.429 190.83 244.484 190.874 244.549C190.919 244.615 190.95 244.689 190.965 244.766C190.98 244.844 190.978 244.924 190.961 245.001C190.949 245.078 190.921 245.151 190.88 245.217C190.839 245.282 190.785 245.339 190.722 245.383C190.658 245.428 190.587 245.459 190.511 245.475C190.435 245.491 190.357 245.492 190.281 245.477C189.546 245.404 188.803 245.511 188.119 245.79C187.434 246.068 186.828 246.51 186.353 247.076C186.269 247.178 186.154 247.251 186.026 247.285C185.898 247.319 185.762 247.311 185.639 247.263V247.263Z" fill="#263238"/>
<path d="M205.755 246.566C205.661 246.593 205.562 246.597 205.467 246.576C205.372 246.555 205.284 246.511 205.211 246.447C204.631 245.946 203.947 245.582 203.208 245.382C202.469 245.182 201.695 245.15 200.942 245.29C200.868 245.313 200.789 245.321 200.711 245.313C200.633 245.305 200.558 245.281 200.489 245.243C200.421 245.205 200.361 245.153 200.313 245.091C200.265 245.029 200.231 244.958 200.211 244.882C200.169 244.731 200.189 244.57 200.265 244.433C200.341 244.296 200.469 244.194 200.619 244.151V244.151C201.555 243.95 202.525 243.969 203.452 244.208C204.379 244.447 205.237 244.899 205.959 245.528C206.081 245.631 206.158 245.777 206.174 245.936C206.19 246.095 206.143 246.254 206.044 246.379C205.963 246.462 205.864 246.526 205.755 246.566V246.566Z" fill="#263238"/>
<path d="M181.591 352.079L186.012 341.332L195.331 351.246C195.331 351.246 190.825 361.788 185.587 359L181.591 352.079Z" fill="#7F3E3B"/>
<path d="M197.627 334.105L202.813 342.675L195.331 351.246L186.013 341.315L197.627 334.105Z" fill="#7F3E3B"/>
<path d="M473.134 241.958C481.342 241.958 487.996 235.304 487.996 227.096C487.996 218.888 481.342 212.234 473.134 212.234C464.926 212.234 458.272 218.888 458.272 227.096C458.272 235.304 464.926 241.958 473.134 241.958Z" fill="#263238"/>
<path d="M476.586 242.383C473.559 242.383 470.601 241.485 468.084 239.803C465.567 238.122 463.606 235.732 462.447 232.935C461.289 230.139 460.986 227.062 461.576 224.093C462.167 221.124 463.624 218.397 465.765 216.257C467.905 214.117 470.632 212.659 473.601 212.068C476.569 211.478 479.646 211.781 482.443 212.939C485.239 214.098 487.63 216.059 489.311 218.576C490.993 221.093 491.89 224.052 491.89 227.078C491.89 231.137 490.278 235.03 487.408 237.9C484.538 240.77 480.645 242.383 476.586 242.383ZM476.586 212.676C473.73 212.676 470.938 213.523 468.564 215.11C466.189 216.697 464.339 218.953 463.247 221.592C462.155 224.231 461.87 227.134 462.428 229.935C462.987 232.736 464.363 235.309 466.384 237.327C468.405 239.345 470.979 240.719 473.78 241.274C476.582 241.829 479.485 241.541 482.123 240.446C484.761 239.35 487.014 237.497 488.598 235.121C490.183 232.744 491.027 229.952 491.023 227.096C491.019 223.27 489.496 219.602 486.789 216.898C484.082 214.194 480.412 212.676 476.586 212.676V212.676Z" fill="#263238"/>
<path d="M443.648 250.97C440.621 250.97 437.663 250.072 435.146 248.391C432.629 246.709 430.668 244.319 429.509 241.523C428.351 238.726 428.048 235.649 428.638 232.68C429.229 229.712 430.686 226.985 432.827 224.844C434.967 222.704 437.694 221.246 440.663 220.656C443.631 220.065 446.708 220.368 449.505 221.527C452.301 222.685 454.692 224.647 456.373 227.163C458.055 229.68 458.952 232.639 458.952 235.666C458.952 239.725 457.34 243.617 454.47 246.488C451.6 249.358 447.707 250.97 443.648 250.97V250.97ZM443.648 221.246C440.793 221.246 438.002 222.093 435.628 223.679C433.253 225.265 431.403 227.52 430.31 230.158C429.218 232.796 428.932 235.699 429.489 238.499C430.046 241.3 431.421 243.872 433.44 245.891C435.459 247.91 438.031 249.285 440.832 249.842C443.632 250.399 446.535 250.114 449.173 249.021C451.811 247.928 454.066 246.078 455.652 243.704C457.238 241.329 458.085 238.538 458.085 235.683C458.085 233.787 457.712 231.91 456.986 230.158C456.261 228.407 455.197 226.815 453.857 225.475C452.516 224.134 450.925 223.07 449.173 222.345C447.422 221.619 445.544 221.246 443.648 221.246V221.246Z" fill="#263238"/>
<path d="M445.128 250.579C453.533 250.579 460.347 243.765 460.347 235.36C460.347 226.954 453.533 220.141 445.128 220.141C436.722 220.141 429.909 226.954 429.909 235.36C429.909 243.765 436.722 250.579 445.128 250.579Z" fill="#263238"/>
<path d="M430.368 212.319C428.514 221.059 434.857 236.363 441.523 237.196C448.189 238.03 449.498 221.382 443.716 214.121C437.935 206.86 431.762 205.959 430.368 212.319Z" fill="#263238"/>
<path d="M442.832 278.568C443.632 283.381 444.057 287.887 444.414 292.563C444.771 297.239 444.839 301.865 444.771 306.558C444.741 316.09 443.506 325.58 441.098 334.802C438.462 343.815 435.299 352.232 432.017 360.717L426.916 373.335C425.131 377.501 423.413 381.667 421.526 385.816L415.54 383.639L419.23 370.631L422.988 357.673L426.661 344.75C427.885 340.465 429.042 336.129 430.062 331.963C431.747 323.599 432.443 315.067 432.136 306.541C432.136 302.205 431.864 297.851 431.507 293.515C431.15 289.179 430.691 284.724 430.164 280.626L442.832 278.568Z" fill="#FF8B7B"/>
<path d="M430.912 265.577C426.168 268.008 427.358 289.587 427.358 289.587L449.651 298.328C449.651 298.328 451.981 271.903 446.845 267.226C441.71 262.55 437.867 262.023 430.912 265.577Z" fill="#FF0400"/>
<path opacity="0.2" d="M432.425 270.117L433.31 291.934L442.339 295.454L432.425 270.117Z" fill="black"/>
<path d="M418.04 380.409L403.858 386.19L414.775 391.972C414.775 391.972 422.053 388.469 422.274 383.265L418.04 380.409Z" fill="#FF8B7B"/>
<path d="M457.439 596.91H444.873L442.747 567.815H455.313L457.439 596.91Z" fill="#FF8B7B"/>
<path d="M527.175 578.154L514.846 580.586L505.256 552.834L517.567 550.403L527.175 578.154Z" fill="#FF8B7B"/>
<path d="M513.044 578.46L526.324 573.699C526.551 573.614 526.802 573.616 527.027 573.704C527.253 573.792 527.439 573.959 527.549 574.175L532.837 584.14C532.961 584.396 533.03 584.675 533.039 584.959C533.048 585.243 532.997 585.525 532.89 585.789C532.782 586.052 532.621 586.289 532.415 586.486C532.21 586.682 531.966 586.833 531.698 586.929C527.039 588.51 524.709 589.037 518.86 591.129C515.272 592.404 508.436 596.23 503.47 597.931C498.505 599.631 496.499 594.887 498.369 593.714C503.954 590.468 508.451 585.639 511.292 579.838C511.699 579.189 512.318 578.703 513.044 578.46V578.46Z" fill="#263238"/>
<path d="M443.937 595.448H458.051C458.293 595.446 458.528 595.534 458.709 595.694C458.891 595.854 459.008 596.075 459.037 596.315L460.653 607.47C460.684 607.753 460.655 608.038 460.568 608.309C460.482 608.579 460.339 608.828 460.15 609.04C459.961 609.252 459.729 609.421 459.47 609.537C459.211 609.654 458.93 609.714 458.646 609.715C453.715 609.63 451.351 609.341 445.144 609.341C441.318 609.341 433.428 609.732 428.14 609.732C422.852 609.732 422.596 604.511 424.739 604.052C434.568 601.927 438.445 598.951 441.744 596.23C442.354 595.709 443.135 595.43 443.937 595.448Z" fill="#263238"/>
<g opacity="0.2">
<path opacity="0.2" d="M442.747 567.833L443.903 583.664H456.47L455.313 567.833H442.747Z" fill="black"/>
<path opacity="0.2" d="M517.584 550.403L505.256 552.851L510.612 568.309L522.805 565.503L517.584 550.403Z" fill="black"/>
</g>
<path d="M430.912 265.577C430.912 265.577 425.556 268.978 453.579 338.169L503.334 326.861C497.893 306.813 495.036 294.332 495.274 250.579C487.98 250.724 480.705 251.4 473.508 252.603C465.869 253.762 458.322 255.467 450.926 257.704C441.404 260.833 430.912 265.577 430.912 265.577Z" fill="#FF0400"/>
<path opacity="0.2" d="M495.24 257.33C491.239 260.127 488.382 264.275 487.197 269.012C485.888 275.014 494.22 285.149 496.175 287.411C495.58 279.367 495.274 269.709 495.24 257.33Z" fill="black"/>
<path d="M466.094 230.395C466.332 237.996 467.302 248.912 473.491 252.602C470.668 261.998 465.328 270.442 458.051 277.021C446.148 271.256 450.909 257.738 450.909 257.738C458.578 253.963 457.626 250.715 454.922 245.393L466.094 230.395Z" fill="#FF8B7B"/>
<path opacity="0.2" d="M461.537 236.516L454.922 245.392C455.603 246.62 456.173 247.906 456.623 249.236C459.616 248.079 463.884 244.338 463.782 240.818C463.403 239.22 462.631 237.741 461.537 236.516V236.516Z" fill="black"/>
<path d="M465.227 212.064C468.951 223.967 470.771 228.915 467.183 237.128C461.758 249.474 446.335 251.429 439.142 240.886C432.664 231.398 427.664 213.526 437.289 204.565C439.4 202.579 441.983 201.166 444.794 200.459C447.604 199.752 450.549 199.776 453.348 200.527C456.147 201.278 458.708 202.733 460.787 204.752C462.866 206.771 464.394 209.288 465.227 212.064Z" fill="#FF8B7B"/>
<path d="M453.579 338.169C453.579 338.169 425.011 410.915 425.828 449.209C426.695 489.051 441.285 579.923 441.285 579.923H458.289C458.289 579.923 455.586 491.431 457.082 452.321C458.782 409.673 490.003 329.888 490.003 329.888L453.579 338.169Z" fill="#FF0400"/>
<path opacity="0.5" d="M453.579 338.169C453.579 338.169 425.011 410.915 425.828 449.209C426.695 489.051 441.285 579.923 441.285 579.923H458.289C458.289 579.923 455.586 491.431 457.082 452.321C458.782 409.673 490.003 329.888 490.003 329.888L453.579 338.169Z" fill="black"/>
<path d="M459.752 580.518H439.822L438.36 574.175L460.67 573.393L459.752 580.518Z" fill="#263238"/>
<path opacity="0.2" d="M466.605 360.496C456.878 377.722 457.745 405.813 460.364 426.984C464.671 406.556 470.196 386.403 476.909 366.635C475.549 355.208 472.573 349.919 466.605 360.496Z" fill="black"/>
<path d="M466.706 335.177C466.706 335.177 459.905 414.741 468.679 447.032C479.035 485.378 506.735 564.891 506.735 564.891L523.536 561.575C523.536 561.575 509.932 469.835 501.94 449.634C485.037 406.528 522.787 351.297 503.385 326.861L466.706 335.177Z" fill="#FF0400"/>
<path opacity="0.5" d="M466.706 335.177C466.706 335.177 459.905 414.741 468.679 447.032C479.035 485.378 506.735 564.891 506.735 564.891L523.536 561.575C523.536 561.575 509.932 469.835 501.94 449.634C485.037 406.528 522.787 351.297 503.385 326.861L466.706 335.177Z" fill="black"/>
<path d="M525.576 562.068L504.729 566.183L501.226 560.078L525.525 554.11L525.576 562.068Z" fill="#263238"/>
<path d="M447.866 222.216C448.223 223.168 448.019 224.12 447.389 224.358C446.76 224.596 445.978 224.018 445.689 223.066C445.4 222.113 445.536 221.161 446.148 220.94C446.76 220.719 447.508 221.28 447.866 222.216Z" fill="#263238"/>
<path d="M437.17 226.297C437.527 227.249 437.323 228.201 436.694 228.439C436.064 228.677 435.282 228.099 434.993 227.147C434.704 226.195 434.84 225.242 435.452 225.004C436.064 224.766 436.796 225.344 437.17 226.297Z" fill="#263238"/>
<path d="M435.69 224.953L433.157 225.174C433.157 225.174 435.01 226.501 435.69 224.953Z" fill="#263238"/>
<path d="M441.115 226.739C441.096 229.219 440.736 231.686 440.043 234.068C440.655 234.231 441.295 234.257 441.918 234.146C442.541 234.034 443.132 233.787 443.648 233.422L441.115 226.739Z" fill="#FF5652"/>
<path d="M450.229 235.156C449.8 235.408 449.351 235.624 448.886 235.802C448.811 235.83 448.729 235.828 448.656 235.796C448.583 235.764 448.525 235.705 448.495 235.632C448.478 235.595 448.47 235.555 448.47 235.515C448.47 235.475 448.478 235.435 448.494 235.399C448.51 235.362 448.533 235.329 448.563 235.302C448.592 235.274 448.627 235.254 448.665 235.241C449.852 234.813 450.922 234.114 451.791 233.199C452.659 232.283 453.3 231.177 453.664 229.969C453.682 229.893 453.73 229.826 453.797 229.785C453.864 229.743 453.945 229.73 454.021 229.748C454.098 229.766 454.164 229.814 454.206 229.881C454.247 229.948 454.26 230.029 454.242 230.105C453.94 231.17 453.43 232.165 452.741 233.032C452.052 233.899 451.199 234.62 450.229 235.156V235.156Z" fill="#263238"/>
<path d="M444.142 206.469C447.968 216.128 464.445 224.545 470.363 221.977C477.436 218.9 475.464 203.595 464.105 198.783C454.599 194.736 441.353 199.429 444.142 206.469Z" fill="#263238"/>
<path d="M453.188 198.137C449.447 194.43 427.001 195.348 425.113 205.194C422.495 218.797 435.554 215.72 442.696 212.897C451.827 209.309 458.085 202.983 453.188 198.137Z" fill="#263238"/>
<path d="M471.621 223.286C471.583 225.698 470.592 227.996 468.866 229.68C466.57 231.891 463.918 230.19 463.288 227.231C462.727 224.562 463.288 220.209 466.179 219.12C466.821 218.891 467.51 218.826 468.183 218.931C468.856 219.037 469.492 219.309 470.033 219.723C470.574 220.137 471.003 220.68 471.28 221.303C471.557 221.925 471.674 222.607 471.621 223.286V223.286Z" fill="#FF8B7B"/>
<path d="M448.92 217.658C448.803 217.703 448.675 217.71 448.553 217.68C448.431 217.649 448.322 217.582 448.24 217.488C447.509 216.85 446.655 216.37 445.73 216.078C444.805 215.785 443.831 215.686 442.866 215.787C442.788 215.795 442.709 215.788 442.634 215.765C442.559 215.742 442.489 215.705 442.428 215.655C442.367 215.605 442.317 215.544 442.28 215.475C442.242 215.406 442.219 215.33 442.211 215.252C442.204 215.174 442.211 215.095 442.234 215.019C442.257 214.944 442.294 214.874 442.344 214.813C442.393 214.753 442.455 214.702 442.524 214.665C442.593 214.628 442.669 214.605 442.747 214.597C443.901 214.477 445.068 214.607 446.168 214.976C447.268 215.346 448.276 215.947 449.124 216.74C449.18 216.795 449.225 216.861 449.256 216.934C449.287 217.007 449.302 217.086 449.302 217.165C449.302 217.244 449.287 217.322 449.256 217.395C449.225 217.468 449.18 217.534 449.124 217.59L448.92 217.658Z" fill="#263238"/>
<path d="M430.708 222.759C430.62 222.81 430.52 222.837 430.419 222.837C430.317 222.837 430.218 222.81 430.13 222.759C429.992 222.681 429.89 222.552 429.846 222.399C429.801 222.247 429.818 222.084 429.892 221.943C430.339 221.11 430.98 220.396 431.762 219.864C432.543 219.331 433.442 218.994 434.381 218.882C434.459 218.878 434.537 218.889 434.611 218.914C434.685 218.94 434.753 218.98 434.812 219.032C434.87 219.084 434.918 219.148 434.952 219.218C434.986 219.289 435.006 219.365 435.01 219.444C435.015 219.522 435.004 219.6 434.978 219.674C434.952 219.748 434.912 219.816 434.86 219.875C434.808 219.933 434.745 219.981 434.674 220.015C434.604 220.049 434.527 220.068 434.449 220.073C433.708 220.172 433.001 220.448 432.389 220.877C431.776 221.306 431.276 221.876 430.929 222.538C430.878 222.631 430.801 222.708 430.708 222.759V222.759Z" fill="#263238"/>
<path d="M507.398 582.218H507.262C506.996 582.102 506.763 581.918 506.588 581.686C506.412 581.454 506.299 581.18 506.259 580.892C506.217 580.718 506.22 580.536 506.267 580.364C506.315 580.191 506.406 580.033 506.531 579.906C507.687 578.8 512.109 579.821 512.602 579.906C512.659 579.921 512.711 579.951 512.752 579.993C512.794 580.035 512.824 580.087 512.84 580.144C512.849 580.203 512.842 580.263 512.817 580.317C512.793 580.371 512.754 580.418 512.704 580.45C511.343 581.317 508.895 582.694 507.398 582.218ZM511.769 580.314C510.068 579.957 507.551 579.702 506.956 580.314C506.896 580.368 506.853 580.439 506.832 580.517C506.811 580.596 506.813 580.679 506.837 580.756C506.862 580.948 506.934 581.13 507.047 581.288C507.16 581.445 507.31 581.572 507.483 581.657C508.283 581.963 509.847 581.555 511.837 580.314H511.769Z" fill="#FF0400"/>
<path d="M512.041 580.365C510.544 579.889 508.044 578.324 507.857 576.964C507.826 576.73 507.874 576.492 507.995 576.288C508.115 576.084 508.3 575.927 508.521 575.842C508.73 575.753 508.956 575.707 509.184 575.707C509.412 575.707 509.637 575.753 509.847 575.842C511.547 576.522 512.772 579.923 512.823 580.076C512.847 580.12 512.859 580.17 512.859 580.22C512.859 580.271 512.847 580.32 512.823 580.365C512.785 580.402 512.74 580.431 512.69 580.449C512.64 580.466 512.586 580.472 512.534 580.467L512.041 580.365ZM509.541 576.454C509.423 576.403 509.295 576.377 509.167 576.377C509.038 576.377 508.911 576.403 508.793 576.454C508.453 576.641 508.419 576.828 508.453 576.964C508.572 577.831 510.595 579.277 512.041 579.77C511.581 578.647 510.629 576.845 509.626 576.369L509.541 576.454Z" fill="#FF0400"/>
<path d="M439.21 597.641C438.138 597.739 437.065 597.469 436.166 596.876C435.971 596.694 435.821 596.468 435.73 596.217C435.638 595.965 435.607 595.696 435.639 595.431C435.648 595.267 435.698 595.108 435.784 594.969C435.871 594.829 435.99 594.713 436.132 594.632C437.68 593.781 442.679 596.332 443.257 596.638C443.309 596.67 443.35 596.715 443.378 596.769C443.405 596.823 443.416 596.884 443.41 596.944C443.404 597.007 443.377 597.066 443.334 597.112C443.291 597.158 443.234 597.189 443.172 597.199C441.867 597.466 440.541 597.614 439.21 597.641V597.641ZM437.016 595.057C436.824 595.039 436.63 595.075 436.455 595.159C436.396 595.189 436.347 595.235 436.314 595.292C436.28 595.35 436.265 595.416 436.268 595.482C436.237 595.656 436.252 595.836 436.312 596.003C436.372 596.17 436.474 596.319 436.608 596.434C437.357 597.114 439.431 597.233 442.22 596.774C440.597 595.908 438.836 595.327 437.016 595.057Z" fill="#FF0400"/>
<path d="M443.104 597.199H442.985C441.489 596.519 438.53 593.798 438.768 592.387C438.768 592.047 439.057 591.622 439.873 591.554C440.177 591.509 440.486 591.531 440.78 591.619C441.074 591.708 441.345 591.859 441.574 592.064C443.155 593.373 443.444 596.757 443.461 596.893C443.466 596.945 443.458 596.997 443.437 597.045C443.416 597.092 443.383 597.134 443.342 597.165C443.27 597.205 443.185 597.217 443.104 597.199V597.199ZM440.111 592.098H439.941C439.397 592.098 439.363 592.37 439.346 592.455C439.21 593.305 441.217 595.431 442.747 596.366C442.629 594.939 442.07 593.584 441.149 592.489C440.863 592.237 440.492 592.103 440.111 592.115V592.098Z" fill="#FF0400"/>
<path d="M446.386 220.872L443.818 221.059C443.818 221.059 445.706 222.419 446.386 220.872Z" fill="#263238"/>
<path d="M503.334 323.767L505.613 327.933C505.868 328.239 505.613 328.681 504.967 328.817L453.766 340.448C453.324 340.55 452.899 340.448 452.797 340.142L451.351 335.789C451.249 335.5 451.572 335.143 452.066 335.041L502.433 323.58C502.587 323.534 502.75 323.527 502.907 323.559C503.065 323.592 503.211 323.663 503.334 323.767V323.767Z" fill="white"/>
<path d="M497.74 330.976L499.1 330.67C499.355 330.67 499.542 330.432 499.474 330.262L497.536 324.617C497.468 324.528 497.374 324.463 497.268 324.429C497.161 324.396 497.047 324.396 496.941 324.43L495.597 324.736C495.325 324.736 495.155 324.991 495.206 325.144L497.162 330.789C497.213 330.959 497.485 331.044 497.74 330.976Z" fill="#FF0400"/>
<path opacity="0.5" d="M497.74 330.976L499.1 330.67C499.355 330.67 499.542 330.432 499.474 330.262L497.536 324.617C497.468 324.528 497.374 324.463 497.268 324.429C497.161 324.396 497.047 324.396 496.941 324.43L495.597 324.736C495.325 324.736 495.155 324.991 495.206 325.144L497.162 330.789C497.213 330.959 497.485 331.044 497.74 330.976Z" fill="black"/>
<path d="M457.728 340.091L459.089 339.785C459.361 339.785 459.531 339.547 459.463 339.377L457.524 333.731C457.462 333.636 457.368 333.566 457.26 333.531C457.151 333.497 457.035 333.502 456.929 333.544L455.586 333.85C455.314 333.85 455.144 334.105 455.195 334.258L457.15 339.904C457.201 340.091 457.422 340.091 457.728 340.091Z" fill="#FF0400"/>
<path opacity="0.5" d="M457.728 340.091L459.089 339.785C459.361 339.785 459.531 339.547 459.463 339.377L457.524 333.731C457.462 333.636 457.368 333.566 457.26 333.531C457.151 333.497 457.035 333.502 456.929 333.544L455.586 333.85C455.314 333.85 455.144 334.105 455.195 334.258L457.15 339.904C457.201 340.091 457.422 340.091 457.728 340.091Z" fill="black"/>
<path d="M477.658 335.551L479.001 335.245C479.273 335.245 479.443 334.99 479.392 334.837L477.436 329.191C477.436 329.021 477.113 328.936 476.858 329.004L475.498 329.31C475.226 329.31 475.056 329.548 475.124 329.718L477.062 335.364C477.13 335.452 477.224 335.517 477.331 335.551C477.437 335.584 477.551 335.584 477.658 335.551Z" fill="#FF0400"/>
<path opacity="0.5" d="M477.658 335.551L479.001 335.245C479.273 335.245 479.443 334.99 479.392 334.837L477.436 329.191C477.436 329.021 477.113 328.936 476.858 329.004L475.498 329.31C475.226 329.31 475.056 329.548 475.124 329.718L477.062 335.364C477.13 335.452 477.224 335.517 477.331 335.551C477.437 335.584 477.551 335.584 477.658 335.551Z" fill="black"/>
<path d="M399.045 394.318L409.061 396.801L414.775 391.972L403.858 386.19L399.045 394.318Z" fill="#FF8B7B"/>
<path d="M478.984 312.016L469.206 302.681L468.356 315.434C468.356 315.434 475.158 319.77 479.715 317.237L478.984 312.016Z" fill="#FF8B7B"/>
<path d="M503.334 262.176C503.777 262.737 503.998 263.06 504.304 263.485L505.12 264.658C505.63 265.441 506.123 266.223 506.599 267.005C507.529 268.57 508.413 270.151 509.252 271.749C510.85 274.946 512.29 278.194 513.571 281.493C514.88 284.775 515.969 288.142 516.972 291.509C517.465 293.209 517.873 294.91 518.298 296.61L518.468 297.256L518.655 298.072C518.822 298.805 518.924 299.55 518.962 300.3C519.036 301.941 518.769 303.579 518.179 305.112C517.09 307.699 515.239 309.893 512.874 311.404C511.097 312.559 509.183 313.49 507.177 314.176C503.672 315.347 500.053 316.145 496.38 316.556C489.443 317.377 482.442 317.502 475.481 316.93V310.571C478.678 310.18 481.994 309.771 485.191 309.21C488.387 308.649 491.618 308.088 494.696 307.306C497.656 306.587 500.547 305.608 503.334 304.381C504.479 303.879 505.558 303.239 506.548 302.477C507.364 301.813 507.654 301.218 507.586 301.133C507.518 301.048 507.586 301.133 507.586 300.98L507.177 299.756C506.667 298.225 506.157 296.695 505.579 295.199C504.542 292.155 503.266 289.196 502.042 286.271C500.818 283.346 499.406 280.473 497.91 277.769C497.196 276.392 496.431 275.014 495.648 273.705C495.257 273.042 494.849 272.413 494.441 271.783L493.863 270.865L493.353 270.134L503.334 262.176Z" fill="#FF8B7B"/>
<path d="M495.257 250.579C500.579 250.97 510.459 266.767 510.459 266.767L495.325 283.16C495.325 283.16 483.966 272.26 484.629 265.271C485.258 258.146 489.169 250.137 495.257 250.579Z" fill="#FF0400"/>
<path d="M458.697 301.507L458.578 312.22L468.356 315.349L469.206 302.596L458.697 301.507Z" fill="#FF8B7B"/>
<path d="M663.993 468.186H586.215C584.862 468.186 583.564 467.649 582.607 466.692C581.651 465.735 581.113 464.438 581.113 463.085C581.113 461.732 581.651 460.434 582.607 459.478C583.564 458.521 584.862 457.983 586.215 457.983H663.993C665.346 457.983 666.644 458.521 667.601 459.478C668.557 460.434 669.095 461.732 669.095 463.085C669.095 464.438 668.557 465.735 667.601 466.692C666.644 467.649 665.346 468.186 663.993 468.186V468.186Z" fill="#FF0400"/>
<path opacity="0.8" d="M663.993 468.186H586.215C584.862 468.186 583.564 467.649 582.607 466.692C581.651 465.735 581.113 464.438 581.113 463.085C581.113 461.732 581.651 460.434 582.607 459.478C583.564 458.521 584.862 457.983 586.215 457.983H663.993C665.346 457.983 666.644 458.521 667.601 459.478C668.557 460.434 669.095 461.732 669.095 463.085C669.095 464.438 668.557 465.735 667.601 466.692C666.644 467.649 665.346 468.186 663.993 468.186V468.186Z" fill="white"/>
<path d="M563.48 598.458H550.879L543.55 569.278H556.151L563.48 598.458Z" fill="#FFB573"/>
<path d="M549.995 595.397H564.159C564.278 595.392 564.396 595.411 564.507 595.452C564.618 595.493 564.72 595.556 564.807 595.636C564.894 595.717 564.964 595.814 565.013 595.921C565.063 596.029 565.09 596.145 565.095 596.264L565.775 607.47C565.775 608.059 565.543 608.625 565.13 609.045C564.716 609.465 564.154 609.706 563.564 609.714C558.633 609.629 556.286 609.34 550.063 609.34C546.22 609.34 529.929 609.731 524.556 609.731C519.182 609.731 519.455 604.494 521.665 604.018C531.715 601.892 544.179 598.917 547.733 596.179C548.374 595.665 549.173 595.388 549.995 595.397V595.397Z" fill="#263238"/>
<path opacity="0.2" d="M556.168 569.278H543.55L547.342 584.327H559.943L556.168 569.278Z" fill="black"/>
<path d="M596.995 409.18C596.995 409.18 494.407 416.203 496.533 452.321C498.777 491.839 541.918 580.722 541.918 580.722H565.01C565.01 580.722 544.077 505.154 539.027 464.904C563.496 454.701 629.865 464.479 637.653 443.342C641.469 432.39 642.474 420.656 640.578 409.214L596.995 409.18Z" fill="#FF0400"/>
<path opacity="0.3" d="M540.2 473.696C539.911 471.893 539.656 470.125 539.418 468.424C539.248 467.217 539.078 466.026 538.942 464.87C543.539 463.132 548.33 461.956 553.209 461.367C551.508 449.77 549.196 439.091 549.196 439.091C537.293 439.091 523.876 459.497 541.697 482.419C541.402 480.854 541.13 479.307 540.881 477.777C540.643 476.399 540.421 475.022 540.2 473.696Z" fill="black"/>
<path d="M567.408 580.688H537.003L534.385 570.706L564.534 568.309L567.408 580.688Z" fill="#263238"/>
<path d="M545.522 597.591C546.668 597.563 547.808 597.415 548.923 597.149C548.977 597.13 549.026 597.099 549.064 597.058C549.103 597.016 549.13 596.965 549.144 596.91C549.151 596.856 549.143 596.801 549.122 596.751C549.101 596.7 549.068 596.656 549.025 596.621C548.617 596.332 545.046 593.901 543.516 594.496C543.342 594.569 543.188 594.683 543.067 594.828C542.946 594.973 542.86 595.145 542.819 595.329C542.741 595.605 542.735 595.897 542.8 596.176C542.866 596.456 543.001 596.714 543.193 596.927C543.862 597.427 544.691 597.663 545.522 597.591ZM548.073 596.723C545.829 597.166 544.162 597.097 543.567 596.519C543.445 596.376 543.362 596.204 543.326 596.019C543.29 595.834 543.303 595.643 543.363 595.465C543.375 595.374 543.412 595.288 543.468 595.217C543.525 595.145 543.6 595.09 543.686 595.057C544.519 594.734 546.611 595.788 548.073 596.723Z" fill="#FF0400"/>
<path d="M548.822 597.148C548.866 597.163 548.913 597.163 548.958 597.148C549 597.124 549.037 597.09 549.063 597.048C549.09 597.007 549.106 596.959 549.111 596.91C549.111 596.757 549.4 593.135 548.141 591.911C547.975 591.754 547.776 591.636 547.558 591.566C547.34 591.495 547.11 591.474 546.883 591.503C546.634 591.512 546.395 591.604 546.205 591.765C546.014 591.925 545.881 592.144 545.829 592.387C545.54 593.764 547.41 596.4 548.669 597.148H548.822ZM547.121 592.047C547.362 592.044 547.594 592.136 547.767 592.302C548.455 593.515 548.74 594.913 548.583 596.298C547.495 595.38 546.237 593.373 546.424 592.472C546.424 592.302 546.56 592.098 546.985 592.047H547.121Z" fill="#FF0400"/>
<path d="M610.191 313.377C608.269 318.665 606.178 323.835 604.12 329.038C602.063 334.241 599.903 339.411 597.676 344.546C593.271 354.868 588.663 365.088 583.562 375.273L582.831 376.719L582.082 377.484C578.458 381.116 574.322 384.198 569.805 386.632C565.497 388.954 560.931 390.764 556.202 392.023C551.65 393.257 546.993 394.065 542.292 394.437C539.962 394.641 537.65 394.692 535.337 394.692C532.968 394.693 530.601 394.563 528.246 394.301L528.433 384.83C530.219 384.558 532.361 384.201 534.317 383.793C536.272 383.385 538.296 382.874 540.251 382.347C544.101 381.326 547.87 380.018 551.525 378.436C555.022 376.944 558.361 375.104 561.49 372.944C564.418 370.921 567.066 368.52 569.363 365.802L567.884 368.012C572.101 357.98 576.097 347.607 580.144 337.404L586.215 321.947L592.353 306.541L610.191 313.377Z" fill="#FFB573"/>
<path d="M590.058 308.82C579.855 320.587 573.053 337.047 573.053 337.047L599.852 353.185C607.589 343.764 617.248 318.801 617.639 310.384C618.234 297.444 601.111 296.151 590.058 308.82Z" fill="#263238"/>
<path opacity="0.3" d="M599.512 320.825C593.662 325.739 589.513 335.959 587.694 345.872L599.835 353.184C603.661 348.525 607.963 340.074 611.381 331.673C608.643 323.341 604.681 316.471 599.512 320.825Z" fill="black"/>
<path d="M613.235 590.551L600.974 593.441L588.646 566.353L600.923 563.462L613.235 590.551Z" fill="#FFB573"/>
<path d="M598.866 590.057L612.146 585.16C612.37 585.074 612.618 585.077 612.84 585.169C613.062 585.261 613.239 585.434 613.337 585.653L617.843 595.856C618.019 596.41 617.984 597.009 617.745 597.539C617.507 598.07 617.082 598.493 616.551 598.73C612.197 601.042 609.749 601.195 603.746 603.049C601.11 603.848 594.411 609.408 586.657 609.408H579.855C575.842 609.408 575.298 605.123 577.525 604.528C588.289 601.654 594.666 595.329 597.046 591.469C597.47 590.801 598.114 590.302 598.866 590.057Z" fill="#263238"/>
<path opacity="0.2" d="M600.923 563.462L588.646 566.353L595.006 580.314L607.283 577.423L600.923 563.462Z" fill="black"/>
<path d="M621.686 409.18C621.686 409.18 538.568 416.203 540.608 452.287C542.853 491.805 588.85 578.035 588.85 578.035L611.313 572.747C611.313 572.747 587.507 500.273 582.405 460.041C605.838 460.041 654.437 464.445 662.327 443.308C666.142 432.356 667.148 420.622 665.251 409.18H621.686Z" fill="#FF0400"/>
<path d="M613.728 572.168L584.14 579.14L580.994 569.193L610.956 560.384L613.728 572.168Z" fill="#263238"/>
<path d="M595.431 593.73C596.481 593.308 597.484 592.778 598.424 592.149C598.471 592.118 598.509 592.074 598.533 592.023C598.557 591.972 598.566 591.916 598.56 591.86C598.551 591.802 598.525 591.749 598.486 591.707C598.447 591.664 598.395 591.635 598.339 591.622C597.863 591.503 593.68 590.431 592.438 591.537C592.298 591.663 592.191 591.823 592.129 592.001C592.067 592.179 592.05 592.371 592.081 592.557C592.092 592.845 592.181 593.124 592.341 593.364C592.5 593.604 592.722 593.795 592.983 593.917C593.794 594.162 594.667 594.095 595.431 593.73ZM597.523 592.03C595.567 593.22 593.986 593.73 593.221 593.39C593.054 593.3 592.915 593.168 592.816 593.007C592.718 592.845 592.664 592.661 592.659 592.472C592.646 592.382 592.654 592.29 592.684 592.204C592.713 592.118 592.763 592.041 592.83 591.979C593.459 591.384 595.822 591.656 597.523 592.03V592.03Z" fill="#FF0400"/>
<path d="M598.373 592.183C598.414 592.164 598.449 592.135 598.475 592.098C598.499 592.057 598.511 592.01 598.511 591.962C598.511 591.914 598.499 591.867 598.475 591.826C598.475 591.673 597.455 588.17 595.839 587.473C595.637 587.368 595.412 587.314 595.184 587.314C594.957 587.314 594.732 587.368 594.53 587.473C594.296 587.568 594.101 587.739 593.975 587.957C593.849 588.176 593.799 588.43 593.833 588.68C594.037 590.075 596.706 591.894 598.152 592.166L598.373 592.183ZM594.972 587.983C595.079 587.937 595.195 587.913 595.312 587.913C595.429 587.913 595.545 587.937 595.652 587.983C596.621 588.408 597.353 590.33 597.812 591.384C596.468 590.908 594.598 589.462 594.411 588.544C594.411 588.374 594.411 588.153 594.785 587.949L594.972 587.983Z" fill="#FF0400"/>
<path d="M530.678 384.575L516.445 381.667L518.23 395.509C518.23 395.509 532.004 396.104 533.041 391.904L530.678 384.575Z" fill="#FFB573"/>
<path d="M506.055 389.489L509.796 398.791L518.23 395.509L516.445 381.667L506.055 389.489Z" fill="#FFB573"/>
<path d="M597.063 409.809H664.486C664.963 403.79 663.568 384.2 664.605 359.255C665.246 340.765 667.488 322.365 671.305 304.262C671.611 302.902 670.982 301.899 671.305 300.538C668.917 299.696 666.441 299.125 663.925 298.838C659.861 298.243 654.76 297.63 649.76 297.392C640.217 296.848 630.651 296.848 621.108 297.392C616.704 297.8 612.402 298.532 608.967 299.195C604.579 300.079 601.995 300.895 601.995 300.895C601.995 300.895 585.381 338.934 597.063 409.809Z" fill="#263238"/>
<path opacity="0.3" d="M664.606 359.272C665.246 340.782 667.488 322.382 671.305 304.279C666.799 303.888 659.096 304.279 657.821 311.608C656.375 319.43 658.178 337.829 664.606 359.272Z" fill="black"/>
<path d="M676.985 309.942C678.974 314.856 680.505 319.549 682.086 324.43C683.668 329.31 685.028 334.156 686.235 339.139C687.443 344.121 688.548 349.154 689.33 354.358C689.755 356.908 690.044 359.578 690.35 362.214C690.657 364.85 690.742 367.587 690.691 370.427V372.502C690.675 374.024 690.417 375.533 689.925 376.974C689.115 379.245 687.834 381.319 686.167 383.061C683.835 385.406 681.157 387.379 678.226 388.911C673.418 391.425 668.371 393.452 663.16 394.965C653.371 397.849 643.344 399.852 633.198 400.95L631.243 391.683C635.749 390.118 640.391 388.503 644.846 386.768C649.301 385.034 653.808 383.367 658.076 381.361C662.178 379.603 666.125 377.504 669.877 375.086C671.258 374.215 672.492 373.13 673.533 371.872C673.839 371.481 673.805 371.277 673.533 371.668C673.479 371.8 673.439 371.936 673.414 372.076V372.349V372.485L673.278 370.886C672.922 366.418 672.252 361.98 671.271 357.606C670.319 353.082 669.163 348.508 667.87 344.002C666.578 339.496 665.184 334.888 663.704 330.398C662.225 325.909 660.643 321.25 659.113 316.948L676.985 309.942Z" fill="#FFB573"/>
<path d="M671.305 300.555C659.028 296.678 652.107 306.15 655.508 323.171C657.834 334.045 661.772 344.511 667.19 354.221L691.983 342.454C689.636 325.773 683.872 304.517 671.305 300.555Z" fill="#263238"/>
<path d="M649.726 268.672L642.057 275.032L631.616 283.704C631.926 285.094 632.147 286.503 632.28 287.921C632.841 293.584 628.25 296.219 622.468 297.308C622.468 297.308 614.272 304.96 630.664 305.198C647.057 305.436 650.866 297.478 650.866 297.478C644.625 291.271 647.601 277.854 649.726 268.672Z" fill="#FFB573"/>
<path d="M649.284 297.375C643.962 301.086 637.966 303.72 631.634 305.129C634.848 308.326 636.922 316.182 636.922 316.182C636.922 316.182 654.675 312.016 655.321 297.579C654.378 297.159 653.392 296.845 652.379 296.644C651.841 296.553 651.289 296.57 650.758 296.696C650.226 296.821 649.725 297.052 649.284 297.375V297.375Z" fill="#FF0400"/>
<path d="M623.761 297.716C623.353 299.722 623.761 303.395 631.634 305.13C626.787 307.918 624.713 315.332 624.713 315.332C624.713 315.332 613.728 305.691 619.373 297.359C620.402 296.911 621.481 296.591 622.587 296.406C622.761 296.376 622.939 296.391 623.105 296.449C623.271 296.506 623.419 296.605 623.536 296.736C623.654 296.867 623.736 297.026 623.775 297.197C623.814 297.368 623.809 297.547 623.761 297.716Z" fill="#FF0400"/>
<path opacity="0.2" d="M631.617 283.653C631.926 285.043 632.148 286.452 632.28 287.87C638.742 286.884 642.925 283.058 643.469 279.096C643.673 277.599 642.159 276.018 642.057 274.98L631.617 283.653Z" fill="black"/>
<path d="M621.788 264.199C615.802 259.761 612.605 250.273 615.224 244.576C615.783 243.291 616.691 242.188 617.846 241.394C619 240.6 620.355 240.146 621.755 240.084C623.155 240.021 624.545 240.354 625.765 241.043C626.985 241.732 627.988 242.75 628.658 243.981C632.96 251.174 628.59 269.25 621.788 264.199Z" fill="#263238"/>
<path d="M650.254 252.364C650.356 264.914 651.07 272.226 645.237 279.283C643.37 281.597 640.905 283.358 638.109 284.372C635.314 285.387 632.294 285.618 629.376 285.04C626.459 284.463 623.755 283.098 621.557 281.094C619.36 279.09 617.752 276.523 616.908 273.671C613.507 262.754 613.847 244.083 625.648 237.843C628.17 236.424 631.021 235.693 633.915 235.723C636.808 235.753 639.643 236.543 642.135 238.014C644.627 239.485 646.689 241.585 648.114 244.103C649.539 246.622 650.277 249.471 650.254 252.364V252.364Z" fill="#FFB573"/>
<path d="M645.917 262.346C641.394 256.411 640.969 246.413 645.084 241.668C645.981 240.605 647.158 239.814 648.481 239.384C649.804 238.955 651.221 238.903 652.572 239.235C653.923 239.568 655.154 240.271 656.126 241.266C657.099 242.261 657.774 243.507 658.076 244.865C660.269 252.925 651.036 269.08 645.917 262.346Z" fill="#263238"/>
<path d="M618.183 242.706C614.391 240.427 623.148 232.724 634.507 229.357C647.193 225.599 663.228 235.462 664.01 244.015C664.826 253.028 658.739 248.64 657.786 251.463C657.786 251.463 625.954 247.382 618.183 242.706Z" fill="#FF0400"/>
<path d="M614.34 245.852C614.516 244.018 615.266 242.286 616.482 240.903C617.129 240.308 654.743 247.892 658.654 251.259C659.385 251.888 656.749 257.262 656.171 256.564C652.056 251.667 614.493 247.212 614.34 245.852Z" fill="#FF0400"/>
<path opacity="0.3" d="M614.34 245.852C614.516 244.018 615.266 242.286 616.482 240.903C617.129 240.308 654.743 247.892 658.654 251.259C659.385 251.888 656.749 257.262 656.171 256.564C652.056 251.667 614.493 247.212 614.34 245.852Z" fill="black"/>
<path d="M654.318 259.506C654.379 259.52 654.443 259.52 654.505 259.506C654.598 259.447 654.665 259.353 654.69 259.245C654.716 259.137 654.698 259.023 654.641 258.928C652.617 255.612 638.741 254.49 637.177 254.371C632.686 254.14 628.183 254.436 623.76 255.255C623.206 255.05 622.612 254.972 622.023 255.028C621.434 255.084 620.865 255.272 620.359 255.578C617.435 255.546 614.516 255.831 611.653 256.429C611.598 256.441 611.546 256.463 611.5 256.496C611.454 256.528 611.415 256.569 611.385 256.616C611.355 256.664 611.335 256.717 611.325 256.772C611.316 256.827 611.318 256.884 611.33 256.939C611.342 256.994 611.365 257.045 611.397 257.091C611.429 257.137 611.47 257.177 611.518 257.207C611.565 257.237 611.618 257.257 611.673 257.266C611.729 257.276 611.785 257.274 611.84 257.262C614.669 256.672 617.555 256.392 620.444 256.429C620.517 256.444 620.593 256.444 620.666 256.429C621.07 256.162 621.533 255.995 622.015 255.942C622.496 255.888 622.984 255.95 623.437 256.123C623.531 256.156 623.633 256.156 623.726 256.123C628.112 255.283 632.583 254.98 637.041 255.221C641.207 255.527 652.345 256.922 653.841 259.37C653.898 259.438 653.974 259.487 654.059 259.511C654.144 259.536 654.234 259.534 654.318 259.506V259.506Z" fill="#263238"/>
<path d="M631.549 266.019H631.957C632.82 265.933 633.654 265.657 634.398 265.21C635.142 264.763 635.778 264.157 636.259 263.435C638.402 260.119 636.956 254.932 636.905 254.762C636.889 254.706 636.852 254.658 636.801 254.629C636.75 254.601 636.689 254.593 636.633 254.609C636.58 254.628 636.536 254.667 636.511 254.718C636.485 254.769 636.481 254.827 636.497 254.881C636.497 254.881 637.942 259.983 635.902 263.213C635.455 263.886 634.862 264.45 634.167 264.862C633.472 265.274 632.694 265.524 631.889 265.594C631.129 265.74 630.347 265.717 629.597 265.526C628.848 265.335 628.149 264.981 627.553 264.489C624.424 261.853 624.152 255.714 624.152 255.663C624.152 255.605 624.128 255.549 624.087 255.507C624.046 255.466 623.989 255.442 623.931 255.442C623.876 255.45 623.826 255.476 623.789 255.517C623.752 255.557 623.73 255.609 623.727 255.663C623.727 255.919 623.931 262.057 627.213 264.812C627.813 265.302 628.508 265.662 629.254 265.869C630 266.077 630.782 266.128 631.549 266.019V266.019Z" fill="#263238"/>
<path d="M616.5 267.107C617.156 267.085 617.799 266.922 618.386 266.629C618.973 266.335 619.49 265.918 619.901 265.407C622.196 262.346 620.768 256.53 620.717 256.292C620.697 256.243 620.66 256.203 620.613 256.179C620.566 256.155 620.512 256.148 620.46 256.16C620.409 256.173 620.364 256.203 620.333 256.246C620.302 256.289 620.287 256.342 620.292 256.394C620.292 256.394 621.737 262.261 619.56 265.152C619.167 265.683 618.654 266.113 618.063 266.409C617.473 266.704 616.82 266.856 616.16 266.852C615.718 266.881 615.275 266.809 614.866 266.641C614.456 266.473 614.09 266.214 613.796 265.883C611.534 263.383 612.368 256.956 612.368 256.887C612.372 256.861 612.372 256.833 612.366 256.806C612.36 256.78 612.349 256.755 612.333 256.733C612.317 256.71 612.297 256.692 612.274 256.677C612.25 256.663 612.224 256.654 612.197 256.649C612.171 256.645 612.143 256.645 612.117 256.651C612.09 256.657 612.065 256.668 612.043 256.684C612.02 256.7 612.002 256.72 611.987 256.743C611.973 256.767 611.964 256.792 611.959 256.819C611.959 257.092 611.092 263.621 613.49 266.172C613.828 266.543 614.245 266.835 614.709 267.026C615.174 267.217 615.675 267.303 616.177 267.277L616.5 267.107Z" fill="#263238"/>
<path d="M654.675 263.009C653.534 265.489 651.526 267.467 649.029 268.57C645.781 269.93 644.064 267.056 644.863 263.689C645.594 260.663 648.162 256.326 651.461 256.377C654.76 256.428 656.12 259.914 654.675 263.009Z" fill="#FFB573"/>
<path d="M630.018 258.112C630.018 259.115 629.61 259.999 628.947 260.067C628.284 260.135 627.705 259.37 627.62 258.367C627.535 257.364 628.029 256.462 628.692 256.394C629.355 256.326 629.95 257.092 630.018 258.112Z" fill="#263238"/>
<path d="M618.591 259.319C618.591 260.323 618.183 261.207 617.52 261.275C616.857 261.343 616.261 260.578 616.193 259.575C616.125 258.571 616.602 257.687 617.265 257.619C617.928 257.551 618.523 258.299 618.591 259.319Z" fill="#263238"/>
<path d="M622.366 259.83C621.592 263.122 620.38 266.297 618.761 269.267C619.524 269.64 620.36 269.841 621.209 269.856C622.058 269.871 622.9 269.699 623.676 269.352L622.366 259.83Z" fill="#ED893E"/>
<path d="M628.896 271.053C630.049 270.803 631.141 270.324 632.105 269.643C633.07 268.963 633.886 268.094 634.507 267.09C634.54 267.02 634.546 266.939 634.524 266.864C634.502 266.789 634.454 266.724 634.388 266.682C634.316 266.647 634.233 266.641 634.156 266.667C634.08 266.692 634.017 266.747 633.98 266.818C633.287 267.896 632.357 268.802 631.261 269.465C630.164 270.128 628.931 270.531 627.654 270.644C627.576 270.657 627.506 270.7 627.458 270.763C627.411 270.826 627.39 270.906 627.399 270.985C627.404 271.023 627.415 271.059 627.434 271.093C627.452 271.126 627.477 271.156 627.508 271.18C627.538 271.203 627.572 271.221 627.609 271.231C627.646 271.241 627.684 271.244 627.722 271.24C628.117 271.205 628.509 271.142 628.896 271.053V271.053Z" fill="#263238"/>
<path d="M635.187 253.198C635.285 253.158 635.371 253.093 635.435 253.008C635.498 252.924 635.537 252.824 635.548 252.718C635.558 252.613 635.54 252.507 635.494 252.412C635.449 252.316 635.378 252.235 635.289 252.177C634.532 251.62 633.65 251.254 632.72 251.112C631.79 250.97 630.84 251.055 629.95 251.361C629.877 251.391 629.811 251.435 629.755 251.49C629.699 251.546 629.655 251.612 629.625 251.685C629.595 251.758 629.58 251.836 629.58 251.914C629.58 251.993 629.596 252.071 629.627 252.143C629.691 252.288 629.807 252.402 629.953 252.462C630.099 252.522 630.262 252.524 630.409 252.466C631.11 252.237 631.856 252.179 632.583 252.297C633.311 252.415 634 252.707 634.592 253.147C634.676 253.212 634.776 253.252 634.882 253.261C634.988 253.27 635.094 253.248 635.187 253.198Z" fill="#263238"/>
<path d="M613.49 255.238C613.586 255.244 613.683 255.227 613.771 255.189C613.86 255.151 613.938 255.092 614 255.017C614.447 254.397 615.031 253.887 615.706 253.527C616.381 253.168 617.129 252.968 617.894 252.943C617.972 252.947 618.051 252.936 618.124 252.911C618.198 252.885 618.267 252.845 618.325 252.793C618.383 252.741 618.431 252.678 618.465 252.607C618.499 252.536 618.519 252.46 618.523 252.382C618.528 252.303 618.517 252.225 618.491 252.151C618.465 252.077 618.425 252.009 618.373 251.951C618.321 251.892 618.258 251.845 618.187 251.811C618.117 251.777 618.04 251.757 617.962 251.752C617.005 251.764 616.063 251.999 615.213 252.438C614.363 252.878 613.627 253.511 613.065 254.286C613.016 254.348 612.979 254.419 612.959 254.495C612.938 254.571 612.933 254.65 612.944 254.728C612.955 254.806 612.982 254.881 613.024 254.949C613.065 255.016 613.119 255.074 613.184 255.119C613.267 255.197 613.376 255.239 613.49 255.238V255.238Z" fill="#263238"/>
<path d="M634.405 391.104L623.982 386.003L623.54 399.607C623.54 399.607 633.878 404.521 635.97 398.977L634.405 391.104Z" fill="#FFB573"/>
<path d="M610.48 388.129L610.667 400.185L623.539 399.488L623.982 385.867L610.48 388.129Z" fill="#FFB573"/>
<path d="M672.359 614.272H662.156V419.74C662.156 415.681 660.544 411.789 657.674 408.919C654.804 406.049 650.911 404.436 646.852 404.436H239.985C235.926 404.436 232.033 406.049 229.163 408.919C226.293 411.789 224.681 415.681 224.681 419.74V614.272H214.478V419.74C214.478 412.975 217.165 406.488 221.949 401.704C226.732 396.921 233.22 394.233 239.985 394.233H646.852C653.617 394.233 660.105 396.921 664.888 401.704C669.672 406.488 672.359 412.975 672.359 419.74V614.272Z" fill="#FF0400"/>
<path opacity="0.7" d="M672.359 614.272H662.156V419.74C662.156 415.681 660.544 411.789 657.674 408.919C654.804 406.049 650.911 404.436 646.852 404.436H239.985C235.926 404.436 232.033 406.049 229.163 408.919C226.293 411.789 224.681 415.681 224.681 419.74V614.272H214.478V419.74C214.478 412.975 217.165 406.488 221.949 401.704C226.732 396.921 233.22 394.233 239.985 394.233H646.852C653.617 394.233 660.105 396.921 664.888 401.704C669.672 406.488 672.359 412.975 672.359 419.74V614.272Z" fill="white"/>
<path d="M635.748 614.272H625.545V419.74C625.545 415.681 623.933 411.789 621.063 408.919C618.193 406.049 614.3 404.436 610.241 404.436H203.374C199.315 404.436 195.422 406.049 192.552 408.919C189.682 411.789 188.07 415.681 188.07 419.74V614.272H177.867V419.74C177.867 412.975 180.555 406.488 185.338 401.704C190.121 396.921 196.609 394.233 203.374 394.233H610.241C617.006 394.233 623.494 396.921 628.277 401.704C633.061 406.488 635.748 412.975 635.748 419.74V614.272Z" fill="#FF0400"/>
<path opacity="0.8" d="M635.748 614.272H625.545V419.74C625.545 415.681 623.933 411.789 621.063 408.919C618.193 406.049 614.3 404.436 610.241 404.436H203.374C199.315 404.436 195.422 406.049 192.552 408.919C189.682 411.789 188.07 415.681 188.07 419.74V614.272H177.867V419.74C177.867 412.975 180.555 406.488 185.338 401.704C190.121 396.921 196.609 394.233 203.374 394.233H610.241C617.006 394.233 623.494 396.921 628.277 401.704C633.061 406.488 635.748 412.975 635.748 419.74V614.272Z" fill="white"/>
<path d="M413.346 390.101H325.705C324.448 390.083 323.241 389.612 322.303 388.775C321.366 387.937 320.763 386.79 320.603 385.544L314.754 330.347C314.677 329.773 314.726 329.19 314.897 328.637C315.067 328.084 315.356 327.574 315.742 327.143C316.128 326.711 316.603 326.369 317.134 326.138C317.664 325.908 318.239 325.795 318.818 325.807H406.459C407.714 325.821 408.921 326.289 409.859 327.123C410.796 327.958 411.401 329.103 411.56 330.347L417.41 385.544C417.486 386.119 417.437 386.703 417.267 387.257C417.096 387.811 416.808 388.321 416.422 388.754C416.037 389.187 415.562 389.531 415.031 389.763C414.5 389.996 413.925 390.111 413.346 390.101V390.101Z" fill="#FF0400"/>
<path opacity="0.2" d="M413.346 390.101H325.705C324.448 390.083 323.241 389.612 322.303 388.775C321.366 387.937 320.763 386.79 320.603 385.544L314.754 330.347C314.677 329.773 314.726 329.19 314.897 328.637C315.067 328.084 315.356 327.574 315.742 327.143C316.128 326.711 316.603 326.369 317.134 326.138C317.664 325.908 318.239 325.795 318.818 325.807H406.459C407.714 325.821 408.921 326.289 409.859 327.123C410.796 327.958 411.401 329.103 411.56 330.347L417.41 385.544C417.486 386.119 417.437 386.703 417.267 387.257C417.096 387.811 416.808 388.321 416.422 388.754C416.037 389.187 415.562 389.531 415.031 389.763C414.5 389.996 413.925 390.111 413.346 390.101V390.101Z" fill="black"/>
<path d="M355.054 319.855H347.963V321.556H355.054V319.855Z" fill="#FF0400"/>
<path d="M341.876 319.855H325.433V321.556H341.876V319.855Z" fill="#FF0400"/>
<path d="M410.914 390.101H323.29C322.031 390.09 320.82 389.621 319.881 388.783C318.943 387.945 318.341 386.793 318.189 385.544L312.322 330.347C312.249 329.774 312.3 329.192 312.471 328.64C312.643 328.088 312.931 327.579 313.317 327.149C313.702 326.718 314.176 326.375 314.705 326.144C315.235 325.913 315.808 325.798 316.386 325.807H404.027C405.283 325.818 406.493 326.284 407.431 327.119C408.369 327.954 408.972 329.101 409.129 330.347L414.995 385.544C415.069 386.12 415.017 386.704 414.845 387.258C414.672 387.812 414.383 388.322 413.996 388.755C413.609 389.187 413.133 389.531 412.601 389.763C412.07 389.995 411.494 390.111 410.914 390.101V390.101Z" fill="#FF0400"/>
<path d="M414.91 389.693H327.337C326.131 389.693 324.975 390.171 324.121 391.022C323.266 391.873 322.784 393.028 322.78 394.233H419.519C419.516 393.632 419.395 393.037 419.162 392.483C418.929 391.928 418.588 391.426 418.16 391.004C417.731 390.582 417.224 390.249 416.666 390.024C416.108 389.799 415.512 389.686 414.91 389.693V389.693Z" fill="#FF0400"/>
<path d="M444.957 389.693H413.652C412.449 389.697 411.297 390.177 410.447 391.028C409.596 391.878 409.116 393.03 409.112 394.233H449.515C449.51 393.027 449.028 391.873 448.174 391.022C447.32 390.171 446.163 389.693 444.957 389.693Z" fill="#FF0400"/>
<path opacity="0.2" d="M444.957 389.693H413.652C412.449 389.697 411.297 390.177 410.447 391.028C409.596 391.878 409.116 393.03 409.112 394.233H449.515C449.51 393.027 449.028 391.873 448.174 391.022C447.32 390.171 446.163 389.693 444.957 389.693Z" fill="black"/>
</svg>
